midiChannel 0 : 0
midiChannel 1 : 0
midiChannel 2 : 0
midiChannel 3 : 0
midiChannel 4 : 0
midiChannel 5 : 0
midiChannel 6 : 0
midiChannel 7 : 0
midiChannel 8 : 0
midiChannel 9 : 0
midiChannel 10 : 0
midiChannel 11 : 0
midiChannel 12 : 0
midiChannel 13 : 0
midiChannel 14 : 0
midiChannel 15 : 0
Track 0: size = 2

MetaMessage [message = [B@f9ed3e]
MetaMessage [message = [B@10964b2]
Track 1: size = 2

MetaMessage [message = [B@14037ed]
MetaMessage [message = [B@40287]
Track 2: size = 127

MetaMessage [message = [B@189f665]
Other ShortMessage [message = [B@125f4f5]
Other ShortMessage [message = [B@43d133]
Other ShortMessage [message = [B@12afe62]
Other ShortMessage [message = [B@782602]
Other ShortMessage [message = [B@105edc]
Other ShortMessage [message = [B@b972d7]
Other ShortMessage [message = [B@135e9a8]
Other ShortMessage [message = [B@156b654]
Other ShortMessage [message = [B@14243e4]
PROGRAM_CHANGE [channel = 15, instrument = 81, data2 = 0, tick = 0]
Other ShortMessage [message = [B@10a9030]
Other ShortMessage [message = [B@1494e46]
Other ShortMessage [message = [B@411d81]
Other ShortMessage [message = [B@6fd0b9]
Other ShortMessage [message = [B@17446d4]
Other ShortMessage [message = [B@74e47]
PROGRAM_CHANGE [channel = 15, instrument = 81, data2 = 0, tick = 0]
Other ShortMessage [message = [B@1cc91fd]
Other ShortMessage [message = [B@9287b1]
Other ShortMessage [message = [B@8a68c1]
Other ShortMessage [message = [B@c88600]
Other ShortMessage [message = [B@7b2792]
Other ShortMessage [message = [B@18a7441]
PROGRAM_CHANGE [channel = 15, instrument = 81, data2 = 0, tick = 0]
NOTE ON [channel = 15, note = C4, key = 60, velocity = 127, tick = 37248]
NOTE OFF [channel = 15, note = C4, key = 60, velocity = 0, tick = 37272]
NOTE ON [channel = 15, note = C5, key = 72, velocity = 127, tick = 37296]
NOTE OFF [channel = 15, note = C5, key = 72, velocity = 0, tick = 37323]
NOTE ON [channel = 15, note = C4, key = 60, velocity = 127, tick = 37344]
NOTE OFF [channel = 15, note = C4, key = 60, velocity = 0, tick = 37361]
NOTE ON [channel = 15, note = C5, key = 72, velocity = 127, tick = 37392]
NOTE OFF [channel = 15, note = C5, key = 72, velocity = 0, tick = 37420]
NOTE ON [channel = 15, note = C4, key = 60, velocity = 127, tick = 37440]
NOTE OFF [channel = 15, note = C4, key = 60, velocity = 0, tick = 37457]
NOTE ON [channel = 15, note = G4, key = 67, velocity = 127, tick = 37488]
NOTE OFF [channel = 15, note = G4, key = 67, velocity = 0, tick = 37512]
NOTE ON [channel = 15, note = A#4, key = 70, velocity = 127, tick = 37536]
NOTE OFF [channel = 15, note = A#4, key = 70, velocity = 0, tick = 37550]
NOTE ON [channel = 15, note = A4, key = 69, velocity = 127, tick = 37584]
NOTE ON [channel = 15, note = G4, key = 67, velocity = 127, tick = 37584]
NOTE OFF [channel = 15, note = A4, key = 69, velocity = 0, tick = 37596]
NOTE OFF [channel = 15, note = G4, key = 67, velocity = 0, tick = 37596]
NOTE ON [channel = 15, note = F4, key = 65, velocity = 127, tick = 37632]
NOTE ON [channel = 15, note = D#4, key = 63, velocity = 127, tick = 37632]
NOTE OFF [channel = 15, note = F4, key = 65, velocity = 0, tick = 37644]
NOTE OFF [channel = 15, note = D#4, key = 63, velocity = 0, tick = 37657]
NOTE ON [channel = 15, note = D#5, key = 75, velocity = 127, tick = 37680]
NOTE OFF [channel = 15, note = D#5, key = 75, velocity = 0, tick = 37705]
NOTE ON [channel = 15, note = D#4, key = 63, velocity = 127, tick = 37728]
NOTE OFF [channel = 15, note = D#4, key = 63, velocity = 0, tick = 37749]
NOTE ON [channel = 15, note = D#5, key = 75, velocity = 127, tick = 37776]
NOTE OFF [channel = 15, note = D#5, key = 75, velocity = 0, tick = 37803]
NOTE ON [channel = 15, note = D#4, key = 63, velocity = 127, tick = 37824]
NOTE OFF [channel = 15, note = D#4, key = 63, velocity = 0, tick = 37849]
NOTE ON [channel = 15, note = A#4, key = 70, velocity = 127, tick = 37872]
NOTE OFF [channel = 15, note = A#4, key = 70, velocity = 0, tick = 37894]
NOTE ON [channel = 15, note = C5, key = 72, velocity = 127, tick = 37920]
NOTE ON [channel = 15, note = C#5, key = 73, velocity = 127, tick = 37920]
NOTE OFF [channel = 15, note = C5, key = 72, velocity = 0, tick = 37930]
NOTE OFF [channel = 15, note = C#5, key = 73, velocity = 0, tick = 37931]
NOTE ON [channel = 15, note = A#4, key = 70, velocity = 127, tick = 37968]
NOTE OFF [channel = 15, note = A#4, key = 70, velocity = 0, tick = 37981]
NOTE ON [channel = 15, note = A#3, key = 58, velocity = 127, tick = 38016]
NOTE ON [channel = 15, note = G#4, key = 68, velocity = 127, tick = 38016]
NOTE OFF [channel = 15, note = G#4, key = 68, velocity = 0, tick = 38027]
NOTE OFF [channel = 15, note = A#3, key = 58, velocity = 0, tick = 38042]
NOTE ON [channel = 15, note = A#4, key = 70, velocity = 127, tick = 38064]
NOTE OFF [channel = 15, note = A#4, key = 70, velocity = 0, tick = 38087]
NOTE ON [channel = 15, note = A#3, key = 58, velocity = 127, tick = 38112]
NOTE OFF [channel = 15, note = A#3, key = 58, velocity = 0, tick = 38135]
NOTE ON [channel = 15, note = A#4, key = 70, velocity = 127, tick = 38160]
NOTE OFF [channel = 15, note = A#4, key = 70, velocity = 0, tick = 38180]
NOTE ON [channel = 15, note = A#3, key = 58, velocity = 127, tick = 38208]
NOTE OFF [channel = 15, note = A#3, key = 58, velocity = 0, tick = 38229]
NOTE ON [channel = 15, note = F4, key = 65, velocity = 127, tick = 38256]
NOTE OFF [channel = 15, note = F4, key = 65, velocity = 0, tick = 38283]
NOTE ON [channel = 15, note = G4, key = 67, velocity = 127, tick = 38304]
NOTE ON [channel = 15, note = G#4, key = 68, velocity = 127, tick = 38304]
NOTE OFF [channel = 15, note = G#4, key = 68, velocity = 0, tick = 38314]
NOTE OFF [channel = 15, note = G4, key = 67, velocity = 0, tick = 38318]
NOTE ON [channel = 15, note = F4, key = 65, velocity = 127, tick = 38352]
NOTE OFF [channel = 15, note = F4, key = 65, velocity = 0, tick = 38361]
NOTE ON [channel = 15, note = A#3, key = 58, velocity = 127, tick = 38400]
NOTE ON [channel = 15, note = D#4, key = 63, velocity = 127, tick = 38400]
NOTE OFF [channel = 15, note = D#4, key = 63, velocity = 0, tick = 38408]
NOTE OFF [channel = 15, note = A#3, key = 58, velocity = 0, tick = 38428]
NOTE ON [channel = 15, note = A#4, key = 70, velocity = 127, tick = 38448]
NOTE OFF [channel = 15, note = A#4, key = 70, velocity = 0, tick = 38466]
NOTE ON [channel = 15, note = A#3, key = 58, velocity = 127, tick = 38496]
NOTE OFF [channel = 15, note = A#3, key = 58, velocity = 0, tick = 38516]
NOTE ON [channel = 15, note = A#4, key = 70, velocity = 127, tick = 38544]
NOTE OFF [channel = 15, note = A#4, key = 70, velocity = 0, tick = 38569]
NOTE ON [channel = 15, note = A#3, key = 58, velocity = 127, tick = 38592]
NOTE OFF [channel = 15, note = A#3, key = 58, velocity = 0, tick = 38615]
NOTE ON [channel = 15, note = F4, key = 65, velocity = 127, tick = 38640]
NOTE OFF [channel = 15, note = F4, key = 65, velocity = 0, tick = 38658]
NOTE ON [channel = 15, note = G4, key = 67, velocity = 127, tick = 38688]
NOTE ON [channel = 15, note = G#4, key = 68, velocity = 127, tick = 38688]
NOTE OFF [channel = 15, note = G4, key = 67, velocity = 0, tick = 38698]
NOTE OFF [channel = 15, note = G#4, key = 68, velocity = 0, tick = 38700]
NOTE ON [channel = 15, note = F4, key = 65, velocity = 127, tick = 38736]
NOTE OFF [channel = 15, note = F4, key = 65, velocity = 0, tick = 38746]
NOTE ON [channel = 15, note = D#4, key = 63, velocity = 127, tick = 38784]
NOTE OFF [channel = 15, note = D#4, key = 63, velocity = 0, tick = 38799]
Other ShortMessage [message = [B@1611954]
Other ShortMessage [message = [B@31ce0f]
Other ShortMessage [message = [B@88660d]
Other ShortMessage [message = [B@fdec40]
Other ShortMessage [message = [B@1d81830]
Other ShortMessage [message = [B@e92d61]
PROGRAM_CHANGE [channel = 15, instrument = 81, data2 = 0, tick = 39168]
Other ShortMessage [message = [B@d4936c]
Other ShortMessage [message = [B@fcc529]
Other ShortMessage [message = [B@1eddc56]
Other ShortMessage [message = [B@1812421]
Other ShortMessage [message = [B@82c44a]
Other ShortMessage [message = [B@d11153]
PROGRAM_CHANGE [channel = 15, instrument = 81, data2 = 0, tick = 39169]
Other ShortMessage [message = [B@49ec46]
Other ShortMessage [message = [B@2f8b57]
Other ShortMessage [message = [B@1e01805]
Other ShortMessage [message = [B@14b435f]
Other ShortMessage [message = [B@19dfe55]
Other ShortMessage [message = [B@144a55a]
PROGRAM_CHANGE [channel = 15, instrument = 81, data2 = 0, tick = 39169]
MetaMessage [message = [B@a529dc]
Track 3: size = 109

MetaMessage [message = [B@86528d]
Other ShortMessage [message = [B@1a630fa]
Other ShortMessage [message = [B@167b2af]
Other ShortMessage [message = [B@10132f7]
Other ShortMessage [message = [B@b0e701]
Other ShortMessage [message = [B@7c04c4]
Other ShortMessage [message = [B@1ae4d4a]
Other ShortMessage [message = [B@14f9acd]
Other ShortMessage [message = [B@1f324f9]
Other ShortMessage [message = [B@a66933]
PROGRAM_CHANGE [channel = 14, instrument = 80, data2 = 0, tick = 0]
Other ShortMessage [message = [B@1a06f52]
Other ShortMessage [message = [B@1fc5491]
Other ShortMessage [message = [B@443976]
Other ShortMessage [message = [B@1bd55d8]
Other ShortMessage [message = [B@b9178]
Other ShortMessage [message = [B@163c44f]
PROGRAM_CHANGE [channel = 14, instrument = 80, data2 = 0, tick = 0]
Other ShortMessage [message = [B@a8fd44]
Other ShortMessage [message = [B@15b5ca4]
Other ShortMessage [message = [B@104acb2]
Other ShortMessage [message = [B@1035be3]
Other ShortMessage [message = [B@cfbaf4]
Other ShortMessage [message = [B@1212d84]
PROGRAM_CHANGE [channel = 14, instrument = 80, data2 = 0, tick = 0]
NOTE ON [channel = 14, note = G6, key = 91, velocity = 127, tick = 28032]
NOTE OFF [channel = 14, note = G6, key = 91, velocity = 0, tick = 28055]
NOTE ON [channel = 14, note = F6, key = 89, velocity = 127, tick = 28079]
NOTE OFF [channel = 14, note = F6, key = 89, velocity = 0, tick = 28107]
NOTE ON [channel = 14, note = F6, key = 89, velocity = 127, tick = 28129]
NOTE OFF [channel = 14, note = F6, key = 89, velocity = 0, tick = 28146]
NOTE ON [channel = 14, note = D#6, key = 87, velocity = 127, tick = 28177]
NOTE OFF [channel = 14, note = D#6, key = 87, velocity = 0, tick = 28203]
NOTE ON [channel = 14, note = F6, key = 89, velocity = 127, tick = 28224]
NOTE OFF [channel = 14, note = F6, key = 89, velocity = 0, tick = 28235]
NOTE ON [channel = 14, note = G6, key = 91, velocity = 127, tick = 28248]
NOTE OFF [channel = 14, note = G6, key = 91, velocity = 0, tick = 28272]
NOTE ON [channel = 14, note = C6, key = 84, velocity = 127, tick = 28297]
NOTE OFF [channel = 14, note = C6, key = 84, velocity = 0, tick = 28363]
NOTE ON [channel = 14, note = D#6, key = 87, velocity = 127, tick = 28368]
NOTE OFF [channel = 14, note = D#6, key = 87, velocity = 0, tick = 28385]
NOTE ON [channel = 14, note = F6, key = 89, velocity = 127, tick = 28392]
NOTE OFF [channel = 14, note = F6, key = 89, velocity = 0, tick = 28409]
NOTE ON [channel = 14, note = G6, key = 91, velocity = 127, tick = 28417]
NOTE OFF [channel = 14, note = G6, key = 91, velocity = 0, tick = 28440]
NOTE ON [channel = 14, note = F6, key = 89, velocity = 127, tick = 28464]
NOTE OFF [channel = 14, note = F6, key = 89, velocity = 0, tick = 28488]
NOTE ON [channel = 14, note = F6, key = 89, velocity = 127, tick = 28513]
NOTE OFF [channel = 14, note = F6, key = 89, velocity = 0, tick = 28536]
NOTE ON [channel = 14, note = D#6, key = 87, velocity = 127, tick = 28560]
NOTE OFF [channel = 14, note = D#6, key = 87, velocity = 0, tick = 28586]
NOTE ON [channel = 14, note = F6, key = 89, velocity = 127, tick = 28609]
NOTE OFF [channel = 14, note = F6, key = 89, velocity = 0, tick = 28704]
NOTE ON [channel = 14, note = D#6, key = 87, velocity = 127, tick = 28704]
NOTE OFF [channel = 14, note = D#6, key = 87, velocity = 0, tick = 28715]
NOTE ON [channel = 14, note = G6, key = 91, velocity = 127, tick = 28728]
NOTE OFF [channel = 14, note = G6, key = 91, velocity = 0, tick = 28739]
NOTE ON [channel = 14, note = F6, key = 89, velocity = 124, tick = 28776]
NOTE OFF [channel = 14, note = F6, key = 89, velocity = 0, tick = 28787]
NOTE ON [channel = 14, note = F6, key = 89, velocity = 127, tick = 28800]
NOTE OFF [channel = 14, note = F6, key = 89, velocity = 0, tick = 28821]
NOTE ON [channel = 14, note = D#6, key = 87, velocity = 127, tick = 28848]
NOTE OFF [channel = 14, note = D#6, key = 87, velocity = 0, tick = 28875]
NOTE ON [channel = 14, note = D#6, key = 87, velocity = 127, tick = 28897]
NOTE OFF [channel = 14, note = D#6, key = 87, velocity = 0, tick = 28922]
NOTE ON [channel = 14, note = D6, key = 86, velocity = 127, tick = 28945]
NOTE OFF [channel = 14, note = D6, key = 86, velocity = 0, tick = 28967]
NOTE ON [channel = 14, note = D#6, key = 87, velocity = 127, tick = 28992]
NOTE OFF [channel = 14, note = D#6, key = 87, velocity = 0, tick = 29003]
NOTE ON [channel = 14, note = F6, key = 89, velocity = 127, tick = 29016]
NOTE OFF [channel = 14, note = F6, key = 89, velocity = 0, tick = 29036]
NOTE ON [channel = 14, note = A#5, key = 82, velocity = 118, tick = 29063]
NOTE OFF [channel = 14, note = A#5, key = 82, velocity = 0, tick = 29130]
NOTE ON [channel = 14, note = F6, key = 89, velocity = 127, tick = 29136]
NOTE OFF [channel = 14, note = F6, key = 89, velocity = 0, tick = 29147]
NOTE ON [channel = 14, note = D#6, key = 87, velocity = 127, tick = 29160]
NOTE OFF [channel = 14, note = D#6, key = 87, velocity = 0, tick = 29171]
NOTE ON [channel = 14, note = F6, key = 89, velocity = 97, tick = 29185]
NOTE OFF [channel = 14, note = F6, key = 89, velocity = 0, tick = 29207]
NOTE ON [channel = 14, note = D#6, key = 87, velocity = 65, tick = 29233]
NOTE OFF [channel = 14, note = D#6, key = 87, velocity = 0, tick = 29260]
NOTE ON [channel = 14, note = D#6, key = 87, velocity = 31, tick = 29281]
NOTE OFF [channel = 14, note = D#6, key = 87, velocity = 0, tick = 29303]
NOTE ON [channel = 14, note = D6, key = 86, velocity = 16, tick = 29328]
NOTE OFF [channel = 14, note = D6, key = 86, velocity = 0, tick = 29351]
NOTE ON [channel = 14, note = D#6, key = 87, velocity = 4, tick = 29377]
NOTE OFF [channel = 14, note = D#6, key = 87, velocity = 0, tick = 29511]
Other ShortMessage [message = [B@19c69a9]
Other ShortMessage [message = [B@b9eadd]
Other ShortMessage [message = [B@12c995d]
Other ShortMessage [message = [B@1d94a58]
Other ShortMessage [message = [B@8a8b75]
Other ShortMessage [message = [B@be135f]
PROGRAM_CHANGE [channel = 14, instrument = 80, data2 = 0, tick = 39168]
Other ShortMessage [message = [B@1d2f0dc]
Other ShortMessage [message = [B@42b421]
Other ShortMessage [message = [B@1eb3b60]
Other ShortMessage [message = [B@1aa45a1]
Other ShortMessage [message = [B@1cbfddf]
Other ShortMessage [message = [B@60c8f]
PROGRAM_CHANGE [channel = 14, instrument = 80, data2 = 0, tick = 39169]
Other ShortMessage [message = [B@3f3558]
Other ShortMessage [message = [B@12e612e]
Other ShortMessage [message = [B@24686b]
Other ShortMessage [message = [B@486680]
Other ShortMessage [message = [B@1e3ac1]
Other ShortMessage [message = [B@16febdc]
PROGRAM_CHANGE [channel = 14, instrument = 80, data2 = 0, tick = 39169]
MetaMessage [message = [B@7d151a]
Track 4: size = 171

MetaMessage [message = [B@100f14a]
Other ShortMessage [message = [B@1bb0ab5]
Other ShortMessage [message = [B@acff7d]
Other ShortMessage [message = [B@88b5c5]
Other ShortMessage [message = [B@12ca57b]
Other ShortMessage [message = [B@534abf]
Other ShortMessage [message = [B@1673f68]
Other ShortMessage [message = [B@1e308c6]
Other ShortMessage [message = [B@7e34b1]
Other ShortMessage [message = [B@1ba847b]
PROGRAM_CHANGE [channel = 13, instrument = 80, data2 = 0, tick = 0]
Other ShortMessage [message = [B@23bbe5]
Other ShortMessage [message = [B@151171a]
Other ShortMessage [message = [B@1d00a23]
Other ShortMessage [message = [B@9c65d5]
Other ShortMessage [message = [B@1cad29]
Other ShortMessage [message = [B@515a47]
PROGRAM_CHANGE [channel = 13, instrument = 80, data2 = 0, tick = 0]
Other ShortMessage [message = [B@1f2c3f0]
Other ShortMessage [message = [B@17ad4f3]
Other ShortMessage [message = [B@f174d9]
Other ShortMessage [message = [B@18d7714]
Other ShortMessage [message = [B@16f623d]
Other ShortMessage [message = [B@93f3d5]
PROGRAM_CHANGE [channel = 13, instrument = 80, data2 = 0, tick = 0]
NOTE ON [channel = 13, note = G5, key = 79, velocity = 127, tick = 26496]
NOTE OFF [channel = 13, note = G5, key = 79, velocity = 0, tick = 26519]
NOTE ON [channel = 13, note = F5, key = 77, velocity = 127, tick = 26543]
NOTE OFF [channel = 13, note = F5, key = 77, velocity = 0, tick = 26571]
NOTE ON [channel = 13, note = F5, key = 77, velocity = 127, tick = 26593]
NOTE OFF [channel = 13, note = F5, key = 77, velocity = 0, tick = 26610]
NOTE ON [channel = 13, note = D#5, key = 75, velocity = 127, tick = 26641]
NOTE OFF [channel = 13, note = D#5, key = 75, velocity = 0, tick = 26667]
NOTE ON [channel = 13, note = F5, key = 77, velocity = 127, tick = 26688]
NOTE OFF [channel = 13, note = F5, key = 77, velocity = 0, tick = 26699]
NOTE ON [channel = 13, note = G5, key = 79, velocity = 127, tick = 26712]
NOTE OFF [channel = 13, note = G5, key = 79, velocity = 0, tick = 26736]
NOTE ON [channel = 13, note = C5, key = 72, velocity = 127, tick = 26761]
NOTE OFF [channel = 13, note = C5, key = 72, velocity = 0, tick = 26827]
NOTE ON [channel = 13, note = D#5, key = 75, velocity = 127, tick = 26832]
NOTE OFF [channel = 13, note = D#5, key = 75, velocity = 0, tick = 26849]
NOTE ON [channel = 13, note = F5, key = 77, velocity = 127, tick = 26856]
NOTE OFF [channel = 13, note = F5, key = 77, velocity = 0, tick = 26873]
NOTE ON [channel = 13, note = G5, key = 79, velocity = 127, tick = 26881]
NOTE OFF [channel = 13, note = G5, key = 79, velocity = 0, tick = 26904]
NOTE ON [channel = 13, note = F5, key = 77, velocity = 127, tick = 26928]
NOTE OFF [channel = 13, note = F5, key = 77, velocity = 0, tick = 26952]
NOTE ON [channel = 13, note = F5, key = 77, velocity = 127, tick = 26977]
NOTE OFF [channel = 13, note = F5, key = 77, velocity = 0, tick = 27000]
NOTE ON [channel = 13, note = D#5, key = 75, velocity = 127, tick = 27024]
NOTE OFF [channel = 13, note = D#5, key = 75, velocity = 0, tick = 27050]
NOTE ON [channel = 13, note = F5, key = 77, velocity = 127, tick = 27073]
NOTE OFF [channel = 13, note = F5, key = 77, velocity = 0, tick = 27168]
NOTE ON [channel = 13, note = D#5, key = 75, velocity = 127, tick = 27168]
NOTE OFF [channel = 13, note = D#5, key = 75, velocity = 0, tick = 27179]
NOTE ON [channel = 13, note = G5, key = 79, velocity = 127, tick = 27192]
NOTE OFF [channel = 13, note = G5, key = 79, velocity = 0, tick = 27203]
NOTE ON [channel = 13, note = F5, key = 77, velocity = 124, tick = 27240]
NOTE OFF [channel = 13, note = F5, key = 77, velocity = 0, tick = 27251]
NOTE ON [channel = 13, note = F5, key = 77, velocity = 127, tick = 27264]
NOTE OFF [channel = 13, note = F5, key = 77, velocity = 0, tick = 27285]
NOTE ON [channel = 13, note = D#5, key = 75, velocity = 127, tick = 27312]
NOTE OFF [channel = 13, note = D#5, key = 75, velocity = 0, tick = 27339]
NOTE ON [channel = 13, note = D#5, key = 75, velocity = 127, tick = 27361]
NOTE OFF [channel = 13, note = D#5, key = 75, velocity = 0, tick = 27386]
NOTE ON [channel = 13, note = D5, key = 74, velocity = 127, tick = 27409]
NOTE OFF [channel = 13, note = D5, key = 74, velocity = 0, tick = 27431]
NOTE ON [channel = 13, note = D#5, key = 75, velocity = 127, tick = 27456]
NOTE OFF [channel = 13, note = D#5, key = 75, velocity = 0, tick = 27467]
NOTE ON [channel = 13, note = F5, key = 77, velocity = 127, tick = 27480]
NOTE OFF [channel = 13, note = F5, key = 77, velocity = 0, tick = 27500]
NOTE ON [channel = 13, note = A#4, key = 70, velocity = 125, tick = 27527]
NOTE OFF [channel = 13, note = A#4, key = 70, velocity = 0, tick = 27594]
NOTE ON [channel = 13, note = F5, key = 77, velocity = 125, tick = 27600]
NOTE OFF [channel = 13, note = F5, key = 77, velocity = 0, tick = 27611]
NOTE ON [channel = 13, note = D#5, key = 75, velocity = 125, tick = 27624]
NOTE OFF [channel = 13, note = D#5, key = 75, velocity = 0, tick = 27635]
NOTE ON [channel = 13, note = F5, key = 77, velocity = 125, tick = 27649]
NOTE OFF [channel = 13, note = F5, key = 77, velocity = 0, tick = 27671]
NOTE ON [channel = 13, note = D#5, key = 75, velocity = 125, tick = 27697]
NOTE OFF [channel = 13, note = D#5, key = 75, velocity = 0, tick = 27724]
NOTE ON [channel = 13, note = D#5, key = 75, velocity = 125, tick = 27745]
NOTE OFF [channel = 13, note = D#5, key = 75, velocity = 0, tick = 27767]
NOTE ON [channel = 13, note = D5, key = 74, velocity = 125, tick = 27792]
NOTE OFF [channel = 13, note = D5, key = 74, velocity = 0, tick = 27815]
NOTE ON [channel = 13, note = D#5, key = 75, velocity = 127, tick = 27841]
NOTE OFF [channel = 13, note = D#5, key = 75, velocity = 0, tick = 27975]
NOTE ON [channel = 13, note = G5, key = 79, velocity = 127, tick = 28032]
NOTE OFF [channel = 13, note = G5, key = 79, velocity = 0, tick = 28055]
NOTE ON [channel = 13, note = F5, key = 77, velocity = 127, tick = 28079]
NOTE OFF [channel = 13, note = F5, key = 77, velocity = 0, tick = 28107]
NOTE ON [channel = 13, note = F5, key = 77, velocity = 127, tick = 28129]
NOTE OFF [channel = 13, note = F5, key = 77, velocity = 0, tick = 28146]
NOTE ON [channel = 13, note = D#5, key = 75, velocity = 127, tick = 28177]
NOTE OFF [channel = 13, note = D#5, key = 75, velocity = 0, tick = 28203]
NOTE ON [channel = 13, note = F5, key = 77, velocity = 127, tick = 28224]
NOTE OFF [channel = 13, note = F5, key = 77, velocity = 0, tick = 28235]
NOTE ON [channel = 13, note = G5, key = 79, velocity = 127, tick = 28248]
NOTE OFF [channel = 13, note = G5, key = 79, velocity = 0, tick = 28272]
NOTE ON [channel = 13, note = C5, key = 72, velocity = 127, tick = 28297]
NOTE OFF [channel = 13, note = C5, key = 72, velocity = 0, tick = 28363]
NOTE ON [channel = 13, note = D#5, key = 75, velocity = 127, tick = 28368]
NOTE OFF [channel = 13, note = D#5, key = 75, velocity = 0, tick = 28385]
NOTE ON [channel = 13, note = F5, key = 77, velocity = 127, tick = 28392]
NOTE OFF [channel = 13, note = F5, key = 77, velocity = 0, tick = 28409]
NOTE ON [channel = 13, note = G5, key = 79, velocity = 127, tick = 28417]
NOTE OFF [channel = 13, note = G5, key = 79, velocity = 0, tick = 28440]
NOTE ON [channel = 13, note = F5, key = 77, velocity = 127, tick = 28464]
NOTE OFF [channel = 13, note = F5, key = 77, velocity = 0, tick = 28488]
NOTE ON [channel = 13, note = F5, key = 77, velocity = 127, tick = 28513]
NOTE OFF [channel = 13, note = F5, key = 77, velocity = 0, tick = 28536]
NOTE ON [channel = 13, note = D#5, key = 75, velocity = 127, tick = 28560]
NOTE OFF [channel = 13, note = D#5, key = 75, velocity = 0, tick = 28586]
NOTE ON [channel = 13, note = F5, key = 77, velocity = 127, tick = 28609]
NOTE OFF [channel = 13, note = F5, key = 77, velocity = 0, tick = 28704]
NOTE ON [channel = 13, note = D#5, key = 75, velocity = 127, tick = 28704]
NOTE OFF [channel = 13, note = D#5, key = 75, velocity = 0, tick = 28715]
NOTE ON [channel = 13, note = G5, key = 79, velocity = 127, tick = 28728]
NOTE OFF [channel = 13, note = G5, key = 79, velocity = 0, tick = 28739]
NOTE ON [channel = 13, note = F5, key = 77, velocity = 124, tick = 28776]
NOTE OFF [channel = 13, note = F5, key = 77, velocity = 0, tick = 28787]
NOTE ON [channel = 13, note = F5, key = 77, velocity = 127, tick = 28800]
NOTE OFF [channel = 13, note = F5, key = 77, velocity = 0, tick = 28821]
NOTE ON [channel = 13, note = D#5, key = 75, velocity = 127, tick = 28848]
NOTE OFF [channel = 13, note = D#5, key = 75, velocity = 0, tick = 28875]
NOTE ON [channel = 13, note = D#5, key = 75, velocity = 127, tick = 28897]
NOTE OFF [channel = 13, note = D#5, key = 75, velocity = 0, tick = 28922]
NOTE ON [channel = 13, note = D5, key = 74, velocity = 127, tick = 28945]
NOTE OFF [channel = 13, note = D5, key = 74, velocity = 0, tick = 28967]
NOTE ON [channel = 13, note = D#5, key = 75, velocity = 127, tick = 28992]
NOTE OFF [channel = 13, note = D#5, key = 75, velocity = 0, tick = 29003]
NOTE ON [channel = 13, note = F5, key = 77, velocity = 127, tick = 29016]
NOTE OFF [channel = 13, note = F5, key = 77, velocity = 0, tick = 29036]
NOTE ON [channel = 13, note = A#4, key = 70, velocity = 125, tick = 29063]
NOTE OFF [channel = 13, note = A#4, key = 70, velocity = 0, tick = 29130]
NOTE ON [channel = 13, note = F5, key = 77, velocity = 125, tick = 29136]
NOTE OFF [channel = 13, note = F5, key = 77, velocity = 0, tick = 29147]
NOTE ON [channel = 13, note = D#5, key = 75, velocity = 125, tick = 29160]
NOTE OFF [channel = 13, note = D#5, key = 75, velocity = 0, tick = 29171]
NOTE ON [channel = 13, note = F5, key = 77, velocity = 125, tick = 29185]
NOTE OFF [channel = 13, note = F5, key = 77, velocity = 0, tick = 29207]
NOTE ON [channel = 13, note = D#5, key = 75, velocity = 125, tick = 29233]
NOTE OFF [channel = 13, note = D#5, key = 75, velocity = 0, tick = 29260]
NOTE ON [channel = 13, note = D#5, key = 75, velocity = 125, tick = 29281]
NOTE OFF [channel = 13, note = D#5, key = 75, velocity = 0, tick = 29303]
NOTE ON [channel = 13, note = D5, key = 74, velocity = 125, tick = 29328]
NOTE OFF [channel = 13, note = D5, key = 74, velocity = 0, tick = 29351]
NOTE ON [channel = 13, note = D#5, key = 75, velocity = 127, tick = 29377]
NOTE OFF [channel = 13, note = D#5, key = 75, velocity = 0, tick = 29511]
Other ShortMessage [message = [B@26928a]
Other ShortMessage [message = [B@180e701]
Other ShortMessage [message = [B@d0ec63]
Other ShortMessage [message = [B@1eb8672]
Other ShortMessage [message = [B@76a2bb]
Other ShortMessage [message = [B@865416]
PROGRAM_CHANGE [channel = 13, instrument = 80, data2 = 0, tick = 39168]
Other ShortMessage [message = [B@1f2b8d2]
Other ShortMessage [message = [B@92c6ad]
Other ShortMessage [message = [B@16be73c]
Other ShortMessage [message = [B@1aaae4c]
Other ShortMessage [message = [B@1a6d121]
Other ShortMessage [message = [B@11291e5]
PROGRAM_CHANGE [channel = 13, instrument = 80, data2 = 0, tick = 39169]
Other ShortMessage [message = [B@1f040ba]
Other ShortMessage [message = [B@1e32fe4]
Other ShortMessage [message = [B@1d238b1]
Other ShortMessage [message = [B@15e478f]
Other ShortMessage [message = [B@17d1df8]
Other ShortMessage [message = [B@1d7b27f]
PROGRAM_CHANGE [channel = 13, instrument = 80, data2 = 0, tick = 39169]
MetaMessage [message = [B@183d02]
Track 5: size = 109

MetaMessage [message = [B@13deac2]
Other ShortMessage [message = [B@952dea]
Other ShortMessage [message = [B@3d9a93]
Other ShortMessage [message = [B@159e81b]
Other ShortMessage [message = [B@1cd4ff2]
Other ShortMessage [message = [B@97551f]
Other ShortMessage [message = [B@1f6e406]
Other ShortMessage [message = [B@6f3bae]
Other ShortMessage [message = [B@af6912]
Other ShortMessage [message = [B@237b90]
PROGRAM_CHANGE [channel = 12, instrument = 85, data2 = 0, tick = 0]
Other ShortMessage [message = [B@31c2ee]
Other ShortMessage [message = [B@101c80]
Other ShortMessage [message = [B@19d81f3]
Other ShortMessage [message = [B@4c638d]
Other ShortMessage [message = [B@ed0151]
Other ShortMessage [message = [B@112e153]
PROGRAM_CHANGE [channel = 12, instrument = 85, data2 = 0, tick = 0]
Other ShortMessage [message = [B@101b1c]
Other ShortMessage [message = [B@1f0802c]
Other ShortMessage [message = [B@f2e0bd]
Other ShortMessage [message = [B@1410923]
Other ShortMessage [message = [B@3dd56b]
Other ShortMessage [message = [B@164b553]
PROGRAM_CHANGE [channel = 12, instrument = 85, data2 = 0, tick = 0]
NOTE ON [channel = 12, note = G5, key = 79, velocity = 127, tick = 24960]
NOTE OFF [channel = 12, note = G5, key = 79, velocity = 0, tick = 24986]
NOTE ON [channel = 12, note = F5, key = 77, velocity = 127, tick = 25007]
NOTE OFF [channel = 12, note = F5, key = 77, velocity = 0, tick = 25038]
NOTE ON [channel = 12, note = F5, key = 77, velocity = 127, tick = 25057]
NOTE OFF [channel = 12, note = F5, key = 77, velocity = 0, tick = 25077]
NOTE ON [channel = 12, note = D#5, key = 75, velocity = 127, tick = 25105]
NOTE OFF [channel = 12, note = D#5, key = 75, velocity = 0, tick = 25134]
NOTE ON [channel = 12, note = F5, key = 77, velocity = 127, tick = 25152]
NOTE OFF [channel = 12, note = F5, key = 77, velocity = 0, tick = 25166]
NOTE ON [channel = 12, note = G5, key = 79, velocity = 127, tick = 25176]
NOTE OFF [channel = 12, note = G5, key = 79, velocity = 0, tick = 25203]
NOTE ON [channel = 12, note = C5, key = 72, velocity = 127, tick = 25225]
NOTE OFF [channel = 12, note = C5, key = 72, velocity = 0, tick = 25294]
NOTE ON [channel = 12, note = D#5, key = 75, velocity = 127, tick = 25296]
NOTE OFF [channel = 12, note = D#5, key = 75, velocity = 0, tick = 25316]
NOTE ON [channel = 12, note = F5, key = 77, velocity = 127, tick = 25320]
NOTE OFF [channel = 12, note = F5, key = 77, velocity = 0, tick = 25340]
NOTE ON [channel = 12, note = G5, key = 79, velocity = 127, tick = 25345]
NOTE OFF [channel = 12, note = G5, key = 79, velocity = 0, tick = 25371]
NOTE ON [channel = 12, note = F5, key = 77, velocity = 127, tick = 25392]
NOTE OFF [channel = 12, note = F5, key = 77, velocity = 0, tick = 25419]
NOTE ON [channel = 12, note = F5, key = 77, velocity = 127, tick = 25441]
NOTE OFF [channel = 12, note = F5, key = 77, velocity = 0, tick = 25467]
NOTE ON [channel = 12, note = D#5, key = 75, velocity = 127, tick = 25488]
NOTE OFF [channel = 12, note = D#5, key = 75, velocity = 0, tick = 25517]
NOTE ON [channel = 12, note = F5, key = 77, velocity = 127, tick = 25537]
NOTE ON [channel = 12, note = D#5, key = 75, velocity = 127, tick = 25632]
NOTE OFF [channel = 12, note = F5, key = 77, velocity = 0, tick = 25635]
NOTE OFF [channel = 12, note = D#5, key = 75, velocity = 0, tick = 25646]
NOTE ON [channel = 12, note = G5, key = 79, velocity = 127, tick = 25656]
NOTE OFF [channel = 12, note = G5, key = 79, velocity = 0, tick = 25670]
NOTE ON [channel = 12, note = F5, key = 77, velocity = 124, tick = 25704]
NOTE OFF [channel = 12, note = F5, key = 77, velocity = 0, tick = 25718]
NOTE ON [channel = 12, note = F5, key = 77, velocity = 127, tick = 25728]
NOTE OFF [channel = 12, note = F5, key = 77, velocity = 0, tick = 25752]
NOTE ON [channel = 12, note = D#5, key = 75, velocity = 127, tick = 25776]
NOTE OFF [channel = 12, note = D#5, key = 75, velocity = 0, tick = 25806]
NOTE ON [channel = 12, note = D#5, key = 75, velocity = 127, tick = 25825]
NOTE OFF [channel = 12, note = D#5, key = 75, velocity = 0, tick = 25853]
NOTE ON [channel = 12, note = D5, key = 74, velocity = 127, tick = 25873]
NOTE OFF [channel = 12, note = D5, key = 74, velocity = 0, tick = 25898]
NOTE ON [channel = 12, note = D#5, key = 75, velocity = 127, tick = 25920]
NOTE OFF [channel = 12, note = D#5, key = 75, velocity = 0, tick = 25934]
NOTE ON [channel = 12, note = F5, key = 77, velocity = 127, tick = 25944]
NOTE OFF [channel = 12, note = F5, key = 77, velocity = 0, tick = 25967]
NOTE ON [channel = 12, note = A#4, key = 70, velocity = 124, tick = 25991]
NOTE OFF [channel = 12, note = A#4, key = 70, velocity = 0, tick = 26061]
NOTE ON [channel = 12, note = F5, key = 77, velocity = 127, tick = 26064]
NOTE OFF [channel = 12, note = F5, key = 77, velocity = 0, tick = 26078]
NOTE ON [channel = 12, note = D#5, key = 75, velocity = 127, tick = 26088]
NOTE OFF [channel = 12, note = D#5, key = 75, velocity = 0, tick = 26102]
NOTE ON [channel = 12, note = F5, key = 77, velocity = 112, tick = 26113]
NOTE OFF [channel = 12, note = F5, key = 77, velocity = 0, tick = 26138]
NOTE ON [channel = 12, note = D#5, key = 75, velocity = 97, tick = 26161]
NOTE OFF [channel = 12, note = D#5, key = 75, velocity = 0, tick = 26191]
NOTE ON [channel = 12, note = D#5, key = 75, velocity = 84, tick = 26209]
NOTE OFF [channel = 12, note = D#5, key = 75, velocity = 0, tick = 26234]
NOTE ON [channel = 12, note = D5, key = 74, velocity = 73, tick = 26256]
NOTE OFF [channel = 12, note = D5, key = 74, velocity = 0, tick = 26282]
NOTE ON [channel = 12, note = D#5, key = 75, velocity = 41, tick = 26305]
NOTE OFF [channel = 12, note = D#5, key = 75, velocity = 0, tick = 26397]
Other ShortMessage [message = [B@13e6d34]
Other ShortMessage [message = [B@a94fa5]
Other ShortMessage [message = [B@73d672]
Other ShortMessage [message = [B@17f9109]
Other ShortMessage [message = [B@17529a4]
Other ShortMessage [message = [B@41d037]
PROGRAM_CHANGE [channel = 12, instrument = 85, data2 = 0, tick = 39168]
Other ShortMessage [message = [B@c77191]
Other ShortMessage [message = [B@50078a]
Other ShortMessage [message = [B@1c6161d]
Other ShortMessage [message = [B@1792e7]
Other ShortMessage [message = [B@b631b8]
Other ShortMessage [message = [B@1ff19ff]
PROGRAM_CHANGE [channel = 12, instrument = 85, data2 = 0, tick = 39169]
Other ShortMessage [message = [B@558728]
Other ShortMessage [message = [B@16f197e]
Other ShortMessage [message = [B@e1dd11]
Other ShortMessage [message = [B@199cd39]
Other ShortMessage [message = [B@d9ae94]
Other ShortMessage [message = [B@1477a6d]
PROGRAM_CHANGE [channel = 12, instrument = 85, data2 = 0, tick = 39169]
MetaMessage [message = [B@122b117]
Track 6: size = 151

MetaMessage [message = [B@1a23c3d]
Other ShortMessage [message = [B@1e46b62]
Other ShortMessage [message = [B@1e45f87]
Other ShortMessage [message = [B@68b369]
Other ShortMessage [message = [B@91f68b]
Other ShortMessage [message = [B@ecd665]
Other ShortMessage [message = [B@c7d8b3]
Other ShortMessage [message = [B@1b3131b]
Other ShortMessage [message = [B@fef3f7]
Other ShortMessage [message = [B@1eb86b4]
PROGRAM_CHANGE [channel = 11, instrument = 21, data2 = 0, tick = 0]
Other ShortMessage [message = [B@1b8f9e2]
Other ShortMessage [message = [B@178de22]
Other ShortMessage [message = [B@18539de]
Other ShortMessage [message = [B@12a179c]
Other ShortMessage [message = [B@1207d8a]
Other ShortMessage [message = [B@2a69b4]
PROGRAM_CHANGE [channel = 11, instrument = 21, data2 = 0, tick = 0]
Other ShortMessage [message = [B@8ee871]
Other ShortMessage [message = [B@13f3e9]
Other ShortMessage [message = [B@1152928]
Other ShortMessage [message = [B@173200b]
Other ShortMessage [message = [B@18bd86d]
Other ShortMessage [message = [B@1b2f8e5]
PROGRAM_CHANGE [channel = 11, instrument = 21, data2 = 0, tick = 0]
NOTE ON [channel = 11, note = C5, key = 72, velocity = 127, tick = 15168]
NOTE OFF [channel = 11, note = C5, key = 72, velocity = 0, tick = 15215]
NOTE ON [channel = 11, note = G4, key = 67, velocity = 127, tick = 15215]
NOTE OFF [channel = 11, note = G4, key = 67, velocity = 0, tick = 15238]
NOTE ON [channel = 11, note = A#4, key = 70, velocity = 127, tick = 15241]
NOTE OFF [channel = 11, note = A#4, key = 70, velocity = 0, tick = 15264]
NOTE ON [channel = 11, note = C5, key = 72, velocity = 127, tick = 15265]
NOTE OFF [channel = 11, note = C5, key = 72, velocity = 0, tick = 15288]
NOTE ON [channel = 11, note = A#4, key = 70, velocity = 127, tick = 15288]
NOTE OFF [channel = 11, note = A#4, key = 70, velocity = 0, tick = 15311]
NOTE ON [channel = 11, note = G4, key = 67, velocity = 127, tick = 15313]
NOTE OFF [channel = 11, note = G4, key = 67, velocity = 0, tick = 15336]
NOTE ON [channel = 11, note = A#4, key = 70, velocity = 127, tick = 15337]
NOTE OFF [channel = 11, note = A#4, key = 70, velocity = 0, tick = 15599]
NOTE ON [channel = 11, note = G4, key = 67, velocity = 127, tick = 15601]
NOTE OFF [channel = 11, note = G4, key = 67, velocity = 0, tick = 15624]
NOTE ON [channel = 11, note = A#4, key = 70, velocity = 127, tick = 15624]
NOTE OFF [channel = 11, note = A#4, key = 70, velocity = 0, tick = 15647]
NOTE ON [channel = 11, note = C5, key = 72, velocity = 127, tick = 15649]
NOTE OFF [channel = 11, note = C5, key = 72, velocity = 0, tick = 15672]
NOTE ON [channel = 11, note = A#4, key = 70, velocity = 127, tick = 15674]
NOTE ON [channel = 11, note = G4, key = 67, velocity = 127, tick = 15696]
NOTE OFF [channel = 11, note = A#4, key = 70, velocity = 0, tick = 15697]
NOTE OFF [channel = 11, note = G4, key = 67, velocity = 0, tick = 15719]
NOTE ON [channel = 11, note = A#4, key = 70, velocity = 127, tick = 15722]
NOTE OFF [channel = 11, note = A#4, key = 70, velocity = 0, tick = 15934]
NOTE ON [channel = 11, note = C5, key = 72, velocity = 127, tick = 16704]
NOTE OFF [channel = 11, note = C5, key = 72, velocity = 0, tick = 16751]
NOTE ON [channel = 11, note = G4, key = 67, velocity = 127, tick = 16751]
NOTE OFF [channel = 11, note = G4, key = 67, velocity = 0, tick = 16774]
NOTE ON [channel = 11, note = A#4, key = 70, velocity = 127, tick = 16777]
NOTE OFF [channel = 11, note = A#4, key = 70, velocity = 0, tick = 16800]
NOTE ON [channel = 11, note = C5, key = 72, velocity = 127, tick = 16801]
NOTE OFF [channel = 11, note = C5, key = 72, velocity = 0, tick = 16824]
NOTE ON [channel = 11, note = A#4, key = 70, velocity = 127, tick = 16824]
NOTE OFF [channel = 11, note = A#4, key = 70, velocity = 0, tick = 16847]
NOTE ON [channel = 11, note = G4, key = 67, velocity = 127, tick = 16849]
NOTE OFF [channel = 11, note = G4, key = 67, velocity = 0, tick = 16872]
NOTE ON [channel = 11, note = A#4, key = 70, velocity = 127, tick = 16873]
NOTE OFF [channel = 11, note = A#4, key = 70, velocity = 0, tick = 17135]
NOTE ON [channel = 11, note = G4, key = 67, velocity = 127, tick = 17137]
NOTE OFF [channel = 11, note = G4, key = 67, velocity = 0, tick = 17160]
NOTE ON [channel = 11, note = A#4, key = 70, velocity = 127, tick = 17160]
NOTE OFF [channel = 11, note = A#4, key = 70, velocity = 0, tick = 17183]
NOTE ON [channel = 11, note = C5, key = 72, velocity = 127, tick = 17185]
NOTE OFF [channel = 11, note = C5, key = 72, velocity = 0, tick = 17208]
NOTE ON [channel = 11, note = A#4, key = 70, velocity = 127, tick = 17210]
NOTE ON [channel = 11, note = G4, key = 67, velocity = 127, tick = 17232]
NOTE OFF [channel = 11, note = A#4, key = 70, velocity = 0, tick = 17233]
NOTE OFF [channel = 11, note = G4, key = 67, velocity = 0, tick = 17255]
NOTE ON [channel = 11, note = A#4, key = 70, velocity = 127, tick = 17258]
NOTE OFF [channel = 11, note = A#4, key = 70, velocity = 0, tick = 17470]
NOTE ON [channel = 11, note = C5, key = 72, velocity = 127, tick = 32640]
NOTE OFF [channel = 11, note = C5, key = 72, velocity = 0, tick = 32687]
NOTE ON [channel = 11, note = G4, key = 67, velocity = 127, tick = 32687]
NOTE OFF [channel = 11, note = G4, key = 67, velocity = 0, tick = 32710]
NOTE ON [channel = 11, note = A#4, key = 70, velocity = 127, tick = 32713]
NOTE OFF [channel = 11, note = A#4, key = 70, velocity = 0, tick = 32736]
NOTE ON [channel = 11, note = C5, key = 72, velocity = 127, tick = 32737]
NOTE OFF [channel = 11, note = C5, key = 72, velocity = 0, tick = 32760]
NOTE ON [channel = 11, note = A#4, key = 70, velocity = 127, tick = 32760]
NOTE OFF [channel = 11, note = A#4, key = 70, velocity = 0, tick = 32783]
NOTE ON [channel = 11, note = G4, key = 67, velocity = 127, tick = 32785]
NOTE OFF [channel = 11, note = G4, key = 67, velocity = 0, tick = 32808]
NOTE ON [channel = 11, note = A#4, key = 70, velocity = 127, tick = 32809]
NOTE OFF [channel = 11, note = A#4, key = 70, velocity = 0, tick = 33071]
NOTE ON [channel = 11, note = G4, key = 67, velocity = 127, tick = 33073]
NOTE OFF [channel = 11, note = G4, key = 67, velocity = 0, tick = 33096]
NOTE ON [channel = 11, note = A#4, key = 70, velocity = 127, tick = 33096]
NOTE OFF [channel = 11, note = A#4, key = 70, velocity = 0, tick = 33119]
NOTE ON [channel = 11, note = C5, key = 72, velocity = 127, tick = 33121]
NOTE OFF [channel = 11, note = C5, key = 72, velocity = 0, tick = 33144]
NOTE ON [channel = 11, note = A#4, key = 70, velocity = 127, tick = 33146]
NOTE ON [channel = 11, note = G4, key = 67, velocity = 127, tick = 33168]
NOTE OFF [channel = 11, note = A#4, key = 70, velocity = 0, tick = 33169]
NOTE OFF [channel = 11, note = G4, key = 67, velocity = 0, tick = 33191]
NOTE ON [channel = 11, note = A#4, key = 70, velocity = 127, tick = 33194]
NOTE OFF [channel = 11, note = A#4, key = 70, velocity = 0, tick = 33406]
NOTE ON [channel = 11, note = C5, key = 72, velocity = 127, tick = 34176]
NOTE OFF [channel = 11, note = C5, key = 72, velocity = 0, tick = 34223]
NOTE ON [channel = 11, note = G4, key = 67, velocity = 127, tick = 34223]
NOTE OFF [channel = 11, note = G4, key = 67, velocity = 0, tick = 34246]
NOTE ON [channel = 11, note = A#4, key = 70, velocity = 127, tick = 34249]
NOTE OFF [channel = 11, note = A#4, key = 70, velocity = 0, tick = 34272]
NOTE ON [channel = 11, note = C5, key = 72, velocity = 127, tick = 34273]
NOTE OFF [channel = 11, note = C5, key = 72, velocity = 0, tick = 34296]
NOTE ON [channel = 11, note = A#4, key = 70, velocity = 127, tick = 34296]
NOTE OFF [channel = 11, note = A#4, key = 70, velocity = 0, tick = 34319]
NOTE ON [channel = 11, note = G4, key = 67, velocity = 127, tick = 34321]
NOTE OFF [channel = 11, note = G4, key = 67, velocity = 0, tick = 34344]
NOTE ON [channel = 11, note = A#4, key = 70, velocity = 127, tick = 34345]
NOTE OFF [channel = 11, note = A#4, key = 70, velocity = 0, tick = 34607]
NOTE ON [channel = 11, note = G4, key = 67, velocity = 127, tick = 34609]
NOTE OFF [channel = 11, note = G4, key = 67, velocity = 0, tick = 34632]
NOTE ON [channel = 11, note = A#4, key = 70, velocity = 127, tick = 34632]
NOTE OFF [channel = 11, note = A#4, key = 70, velocity = 0, tick = 34655]
NOTE ON [channel = 11, note = C5, key = 72, velocity = 127, tick = 34657]
NOTE OFF [channel = 11, note = C5, key = 72, velocity = 0, tick = 34680]
NOTE ON [channel = 11, note = A#4, key = 70, velocity = 127, tick = 34682]
NOTE ON [channel = 11, note = G4, key = 67, velocity = 127, tick = 34704]
NOTE OFF [channel = 11, note = A#4, key = 70, velocity = 0, tick = 34705]
NOTE OFF [channel = 11, note = G4, key = 67, velocity = 0, tick = 34727]
NOTE ON [channel = 11, note = A#4, key = 70, velocity = 127, tick = 34730]
NOTE OFF [channel = 11, note = A#4, key = 70, velocity = 0, tick = 34942]
Other ShortMessage [message = [B@10c1b5]
Other ShortMessage [message = [B@411233]
Other ShortMessage [message = [B@2327fa]
Other ShortMessage [message = [B@1462e3b]
Other ShortMessage [message = [B@65f0c]
Other ShortMessage [message = [B@5c13de]
PROGRAM_CHANGE [channel = 11, instrument = 21, data2 = 0, tick = 39168]
Other ShortMessage [message = [B@6a6b94]
Other ShortMessage [message = [B@2b2631]
Other ShortMessage [message = [B@e29c84]
Other ShortMessage [message = [B@1128dab]
Other ShortMessage [message = [B@1ce2f62]
Other ShortMessage [message = [B@1012914]
PROGRAM_CHANGE [channel = 11, instrument = 21, data2 = 0, tick = 39169]
Other ShortMessage [message = [B@d02f8d]
Other ShortMessage [message = [B@1533ae]
Other ShortMessage [message = [B@653c2]
Other ShortMessage [message = [B@d5923a]
Other ShortMessage [message = [B@3b0ade]
Other ShortMessage [message = [B@117f633]
PROGRAM_CHANGE [channel = 11, instrument = 21, data2 = 0, tick = 39169]
MetaMessage [message = [B@1d186db]
Track 7: size = 183

MetaMessage [message = [B@165a70a]
Other ShortMessage [message = [B@1723761]
Other ShortMessage [message = [B@19f571f]
Other ShortMessage [message = [B@1fbfa96]
Other ShortMessage [message = [B@6d49f0]
Other ShortMessage [message = [B@17e1102]
Other ShortMessage [message = [B@dddc06]
Other ShortMessage [message = [B@1367020]
Other ShortMessage [message = [B@bc415e]
Other ShortMessage [message = [B@9d0836]
PROGRAM_CHANGE [channel = 10, instrument = 77, data2 = 0, tick = 0]
Other ShortMessage [message = [B@134896]
Other ShortMessage [message = [B@3a5237]
Other ShortMessage [message = [B@c97b84]
Other ShortMessage [message = [B@1c09b94]
Other ShortMessage [message = [B@3fa05a]
Other ShortMessage [message = [B@699efa]
PROGRAM_CHANGE [channel = 10, instrument = 77, data2 = 0, tick = 0]
Other ShortMessage [message = [B@105c46b]
Other ShortMessage [message = [B@136b469]
Other ShortMessage [message = [B@b87581]
Other ShortMessage [message = [B@f22995]
Other ShortMessage [message = [B@6b39c2]
Other ShortMessage [message = [B@15f2099]
PROGRAM_CHANGE [channel = 10, instrument = 77, data2 = 0, tick = 0]
NOTE ON [channel = 10, note = D#5, key = 75, velocity = 127, tick = 12096]
NOTE OFF [channel = 10, note = D#5, key = 75, velocity = 0, tick = 12142]
NOTE ON [channel = 10, note = D5, key = 74, velocity = 127, tick = 12145]
NOTE OFF [channel = 10, note = D5, key = 74, velocity = 0, tick = 12191]
NOTE ON [channel = 10, note = C5, key = 72, velocity = 127, tick = 12192]
NOTE OFF [channel = 10, note = C5, key = 72, velocity = 0, tick = 12239]
NOTE ON [channel = 10, note = A#4, key = 70, velocity = 127, tick = 12239]
NOTE OFF [channel = 10, note = A#4, key = 70, velocity = 0, tick = 12262]
NOTE ON [channel = 10, note = C5, key = 72, velocity = 127, tick = 12266]
NOTE OFF [channel = 10, note = C5, key = 72, velocity = 0, tick = 12427]
NOTE ON [channel = 10, note = A#4, key = 70, velocity = 127, tick = 12433]
NOTE OFF [channel = 10, note = A#4, key = 70, velocity = 0, tick = 12479]
NOTE ON [channel = 10, note = D#5, key = 75, velocity = 127, tick = 12480]
NOTE OFF [channel = 10, note = D#5, key = 75, velocity = 0, tick = 12526]
NOTE ON [channel = 10, note = D5, key = 74, velocity = 127, tick = 12528]
NOTE OFF [channel = 10, note = D5, key = 74, velocity = 0, tick = 12574]
NOTE ON [channel = 10, note = C5, key = 72, velocity = 127, tick = 12578]
NOTE OFF [channel = 10, note = C5, key = 72, velocity = 0, tick = 12624]
NOTE ON [channel = 10, note = A#4, key = 70, velocity = 127, tick = 12626]
NOTE OFF [channel = 10, note = A#4, key = 70, velocity = 0, tick = 12649]
NOTE ON [channel = 10, note = C5, key = 72, velocity = 127, tick = 12649]
NOTE OFF [channel = 10, note = C5, key = 72, velocity = 0, tick = 12811]
NOTE ON [channel = 10, note = A#4, key = 70, velocity = 127, tick = 12818]
NOTE OFF [channel = 10, note = A#4, key = 70, velocity = 0, tick = 12864]
NOTE ON [channel = 10, note = D#5, key = 75, velocity = 127, tick = 12864]
NOTE OFF [channel = 10, note = D#5, key = 75, velocity = 0, tick = 12910]
NOTE ON [channel = 10, note = D5, key = 74, velocity = 127, tick = 12912]
NOTE OFF [channel = 10, note = D5, key = 74, velocity = 0, tick = 12958]
NOTE ON [channel = 10, note = C5, key = 72, velocity = 127, tick = 12961]
NOTE OFF [channel = 10, note = C5, key = 72, velocity = 0, tick = 13007]
NOTE ON [channel = 10, note = D#5, key = 75, velocity = 127, tick = 13010]
NOTE OFF [channel = 10, note = D#5, key = 75, velocity = 0, tick = 13033]
NOTE ON [channel = 10, note = F5, key = 77, velocity = 127, tick = 13034]
NOTE OFF [channel = 10, note = F5, key = 77, velocity = 0, tick = 13241]
NOTE ON [channel = 10, note = D#5, key = 75, velocity = 127, tick = 13632]
NOTE OFF [channel = 10, note = D#5, key = 75, velocity = 0, tick = 13678]
NOTE ON [channel = 10, note = D5, key = 74, velocity = 127, tick = 13681]
NOTE OFF [channel = 10, note = D5, key = 74, velocity = 0, tick = 13727]
NOTE ON [channel = 10, note = C5, key = 72, velocity = 127, tick = 13728]
NOTE OFF [channel = 10, note = C5, key = 72, velocity = 0, tick = 13775]
NOTE ON [channel = 10, note = A#4, key = 70, velocity = 127, tick = 13775]
NOTE OFF [channel = 10, note = A#4, key = 70, velocity = 0, tick = 13798]
NOTE ON [channel = 10, note = C5, key = 72, velocity = 127, tick = 13802]
NOTE OFF [channel = 10, note = C5, key = 72, velocity = 0, tick = 13963]
NOTE ON [channel = 10, note = A#4, key = 70, velocity = 127, tick = 13969]
NOTE OFF [channel = 10, note = A#4, key = 70, velocity = 0, tick = 14015]
NOTE ON [channel = 10, note = D#5, key = 75, velocity = 127, tick = 14016]
NOTE OFF [channel = 10, note = D#5, key = 75, velocity = 0, tick = 14062]
NOTE ON [channel = 10, note = D5, key = 74, velocity = 127, tick = 14064]
NOTE OFF [channel = 10, note = D5, key = 74, velocity = 0, tick = 14110]
NOTE ON [channel = 10, note = C5, key = 72, velocity = 127, tick = 14114]
NOTE OFF [channel = 10, note = C5, key = 72, velocity = 0, tick = 14160]
NOTE ON [channel = 10, note = A#4, key = 70, velocity = 127, tick = 14162]
NOTE OFF [channel = 10, note = A#4, key = 70, velocity = 0, tick = 14185]
NOTE ON [channel = 10, note = C5, key = 72, velocity = 127, tick = 14185]
NOTE OFF [channel = 10, note = C5, key = 72, velocity = 0, tick = 14347]
NOTE ON [channel = 10, note = A#4, key = 70, velocity = 127, tick = 14354]
NOTE OFF [channel = 10, note = A#4, key = 70, velocity = 0, tick = 14400]
NOTE ON [channel = 10, note = D#5, key = 75, velocity = 127, tick = 14400]
NOTE OFF [channel = 10, note = D#5, key = 75, velocity = 0, tick = 14446]
NOTE ON [channel = 10, note = D5, key = 74, velocity = 127, tick = 14448]
NOTE OFF [channel = 10, note = D5, key = 74, velocity = 0, tick = 14494]
NOTE ON [channel = 10, note = C5, key = 72, velocity = 127, tick = 14497]
NOTE OFF [channel = 10, note = C5, key = 72, velocity = 0, tick = 14543]
NOTE ON [channel = 10, note = D#5, key = 75, velocity = 127, tick = 14546]
NOTE OFF [channel = 10, note = D#5, key = 75, velocity = 0, tick = 14569]
NOTE ON [channel = 10, note = F5, key = 77, velocity = 127, tick = 14570]
NOTE OFF [channel = 10, note = F5, key = 77, velocity = 0, tick = 14777]
NOTE ON [channel = 10, note = D#5, key = 75, velocity = 127, tick = 29568]
NOTE OFF [channel = 10, note = D#5, key = 75, velocity = 0, tick = 29614]
NOTE ON [channel = 10, note = D5, key = 74, velocity = 127, tick = 29617]
NOTE OFF [channel = 10, note = D5, key = 74, velocity = 0, tick = 29663]
NOTE ON [channel = 10, note = C5, key = 72, velocity = 127, tick = 29664]
NOTE OFF [channel = 10, note = C5, key = 72, velocity = 0, tick = 29711]
NOTE ON [channel = 10, note = A#4, key = 70, velocity = 127, tick = 29711]
NOTE OFF [channel = 10, note = A#4, key = 70, velocity = 0, tick = 29734]
NOTE ON [channel = 10, note = C5, key = 72, velocity = 127, tick = 29738]
NOTE OFF [channel = 10, note = C5, key = 72, velocity = 0, tick = 29899]
NOTE ON [channel = 10, note = A#4, key = 70, velocity = 127, tick = 29905]
NOTE OFF [channel = 10, note = A#4, key = 70, velocity = 0, tick = 29951]
NOTE ON [channel = 10, note = D#5, key = 75, velocity = 127, tick = 29952]
NOTE OFF [channel = 10, note = D#5, key = 75, velocity = 0, tick = 29998]
NOTE ON [channel = 10, note = D5, key = 74, velocity = 127, tick = 30000]
NOTE OFF [channel = 10, note = D5, key = 74, velocity = 0, tick = 30046]
NOTE ON [channel = 10, note = C5, key = 72, velocity = 127, tick = 30050]
NOTE OFF [channel = 10, note = C5, key = 72, velocity = 0, tick = 30096]
NOTE ON [channel = 10, note = A#4, key = 70, velocity = 127, tick = 30098]
NOTE OFF [channel = 10, note = A#4, key = 70, velocity = 0, tick = 30121]
NOTE ON [channel = 10, note = C5, key = 72, velocity = 127, tick = 30121]
NOTE OFF [channel = 10, note = C5, key = 72, velocity = 0, tick = 30283]
NOTE ON [channel = 10, note = A#4, key = 70, velocity = 127, tick = 30290]
NOTE OFF [channel = 10, note = A#4, key = 70, velocity = 0, tick = 30336]
NOTE ON [channel = 10, note = D#5, key = 75, velocity = 127, tick = 30336]
NOTE OFF [channel = 10, note = D#5, key = 75, velocity = 0, tick = 30382]
NOTE ON [channel = 10, note = D5, key = 74, velocity = 127, tick = 30384]
NOTE OFF [channel = 10, note = D5, key = 74, velocity = 0, tick = 30430]
NOTE ON [channel = 10, note = C5, key = 72, velocity = 127, tick = 30433]
NOTE OFF [channel = 10, note = C5, key = 72, velocity = 0, tick = 30479]
NOTE ON [channel = 10, note = D#5, key = 75, velocity = 127, tick = 30482]
NOTE OFF [channel = 10, note = D#5, key = 75, velocity = 0, tick = 30505]
NOTE ON [channel = 10, note = F5, key = 77, velocity = 127, tick = 30506]
NOTE OFF [channel = 10, note = F5, key = 77, velocity = 0, tick = 30713]
NOTE ON [channel = 10, note = D#5, key = 75, velocity = 127, tick = 31104]
NOTE OFF [channel = 10, note = D#5, key = 75, velocity = 0, tick = 31150]
NOTE ON [channel = 10, note = D5, key = 74, velocity = 127, tick = 31153]
NOTE OFF [channel = 10, note = D5, key = 74, velocity = 0, tick = 31199]
NOTE ON [channel = 10, note = C5, key = 72, velocity = 127, tick = 31200]
NOTE OFF [channel = 10, note = C5, key = 72, velocity = 0, tick = 31247]
NOTE ON [channel = 10, note = A#4, key = 70, velocity = 127, tick = 31247]
NOTE OFF [channel = 10, note = A#4, key = 70, velocity = 0, tick = 31270]
NOTE ON [channel = 10, note = C5, key = 72, velocity = 127, tick = 31274]
NOTE OFF [channel = 10, note = C5, key = 72, velocity = 0, tick = 31435]
NOTE ON [channel = 10, note = A#4, key = 70, velocity = 127, tick = 31441]
NOTE OFF [channel = 10, note = A#4, key = 70, velocity = 0, tick = 31487]
NOTE ON [channel = 10, note = D#5, key = 75, velocity = 127, tick = 31488]
NOTE OFF [channel = 10, note = D#5, key = 75, velocity = 0, tick = 31534]
NOTE ON [channel = 10, note = D5, key = 74, velocity = 127, tick = 31536]
NOTE OFF [channel = 10, note = D5, key = 74, velocity = 0, tick = 31582]
NOTE ON [channel = 10, note = C5, key = 72, velocity = 127, tick = 31586]
NOTE OFF [channel = 10, note = C5, key = 72, velocity = 0, tick = 31632]
NOTE ON [channel = 10, note = A#4, key = 70, velocity = 127, tick = 31634]
NOTE OFF [channel = 10, note = A#4, key = 70, velocity = 0, tick = 31657]
NOTE ON [channel = 10, note = C5, key = 72, velocity = 127, tick = 31657]
NOTE OFF [channel = 10, note = C5, key = 72, velocity = 0, tick = 31819]
NOTE ON [channel = 10, note = A#4, key = 70, velocity = 127, tick = 31826]
NOTE OFF [channel = 10, note = A#4, key = 70, velocity = 0, tick = 31872]
NOTE ON [channel = 10, note = D#5, key = 75, velocity = 127, tick = 31872]
NOTE OFF [channel = 10, note = D#5, key = 75, velocity = 0, tick = 31918]
NOTE ON [channel = 10, note = D5, key = 74, velocity = 127, tick = 31920]
NOTE OFF [channel = 10, note = D5, key = 74, velocity = 0, tick = 31966]
NOTE ON [channel = 10, note = C5, key = 72, velocity = 127, tick = 31969]
NOTE OFF [channel = 10, note = C5, key = 72, velocity = 0, tick = 32015]
NOTE ON [channel = 10, note = D#5, key = 75, velocity = 127, tick = 32018]
NOTE OFF [channel = 10, note = D#5, key = 75, velocity = 0, tick = 32041]
NOTE ON [channel = 10, note = F5, key = 77, velocity = 127, tick = 32042]
NOTE OFF [channel = 10, note = F5, key = 77, velocity = 0, tick = 32249]
Other ShortMessage [message = [B@1467c87]
Other ShortMessage [message = [B@1bd802b]
Other ShortMessage [message = [B@c779e5]
Other ShortMessage [message = [B@183d589]
Other ShortMessage [message = [B@2c1e93]
Other ShortMessage [message = [B@e62ca4]
PROGRAM_CHANGE [channel = 10, instrument = 77, data2 = 0, tick = 39168]
Other ShortMessage [message = [B@178fdb1]
Other ShortMessage [message = [B@1653e3b]
Other ShortMessage [message = [B@19c1b51]
Other ShortMessage [message = [B@fe9c29]
Other ShortMessage [message = [B@125d1d3]
Other ShortMessage [message = [B@ea9d2d]
PROGRAM_CHANGE [channel = 10, instrument = 77, data2 = 0, tick = 39169]
Other ShortMessage [message = [B@1d2f5a9]
Other ShortMessage [message = [B@1808fb9]
Other ShortMessage [message = [B@1580b88]
Other ShortMessage [message = [B@6fce47]
Other ShortMessage [message = [B@e90bc5]
Other ShortMessage [message = [B@5b8489]
PROGRAM_CHANGE [channel = 10, instrument = 77, data2 = 0, tick = 39169]
MetaMessage [message = [B@11c0397]
Track 8: size = 2747

MetaMessage [message = [B@b9fc7d]
Other ShortMessage [message = [B@da0432]
Other ShortMessage [message = [B@1004e3d]
Other ShortMessage [message = [B@1a3a190]
Other ShortMessage [message = [B@7c28c1]
Other ShortMessage [message = [B@1ec8477]
Other ShortMessage [message = [B@82469c]
Other ShortMessage [message = [B@cf5a97]
Other ShortMessage [message = [B@1df20fd]
Other ShortMessage [message = [B@15a69a1]
Other ShortMessage [message = [B@136b447]
Other ShortMessage [message = [B@eedb60]
Other ShortMessage [message = [B@1c0752]
Other ShortMessage [message = [B@132cd16]
Other ShortMessage [message = [B@1d01788]
Other ShortMessage [message = [B@4c5d07]
Other ShortMessage [message = [B@1cac930]
Other ShortMessage [message = [B@139f2d8]
Other ShortMessage [message = [B@1ea2d70]
Other ShortMessage [message = [B@15acfb2]
Other ShortMessage [message = [B@868ef5]
Other ShortMessage [message = [B@af7377]
NOTE ON [channel = 9, note = D5, key = 74, velocity = 63, tick = 672]
NOTE OFF [channel = 9, note = D5, key = 74, velocity = 64, tick = 768]
NOTE ON [channel = 9, note = C#3, key = 49, velocity = 100, tick = 768]
NOTE ON [channel = 9, note = C2, key = 36, velocity = 100, tick = 768]
NOTE ON [channel = 9, note = G#2, key = 44, velocity = 100, tick = 768]
NOTE OFF [channel = 9, note = G#2, key = 44, velocity = 64, tick = 864]
NOTE OFF [channel = 9, note = C2, key = 36, velocity = 64, tick = 864]
NOTE ON [channel = 9, note = G#2, key = 44, velocity = 100, tick = 864]
NOTE ON [channel = 9, note = C2, key = 36, velocity = 100, tick = 864]
NOTE OFF [channel = 9, note = C2, key = 36, velocity = 64, tick = 960]
NOTE OFF [channel = 9, note = G#2, key = 44, velocity = 64, tick = 960]
NOTE ON [channel = 9, note = C2, key = 36, velocity = 100, tick = 960]
NOTE ON [channel = 9, note = G#2, key = 44, velocity = 100, tick = 960]
NOTE OFF [channel = 9, note = G#2, key = 44, velocity = 64, tick = 1056]
NOTE OFF [channel = 9, note = C2, key = 36, velocity = 64, tick = 1056]
NOTE ON [channel = 9, note = G#2, key = 44, velocity = 100, tick = 1056]
NOTE ON [channel = 9, note = C2, key = 36, velocity = 100, tick = 1056]
NOTE OFF [channel = 9, note = G#2, key = 44, velocity = 64, tick = 1152]
NOTE OFF [channel = 9, note = C2, key = 36, velocity = 64, tick = 1152]
NOTE ON [channel = 9, note = G#2, key = 44, velocity = 100, tick = 1152]
NOTE ON [channel = 9, note = C2, key = 36, velocity = 100, tick = 1152]
NOTE OFF [channel = 9, note = C2, key = 36, velocity = 64, tick = 1248]
NOTE OFF [channel = 9, note = G#2, key = 44, velocity = 64, tick = 1248]
NOTE ON [channel = 9, note = C2, key = 36, velocity = 100, tick = 1248]
NOTE ON [channel = 9, note = G#2, key = 44, velocity = 100, tick = 1248]
NOTE OFF [channel = 9, note = G#2, key = 44, velocity = 64, tick = 1344]
NOTE OFF [channel = 9, note = C2, key = 36, velocity = 64, tick = 1344]
NOTE ON [channel = 9, note = G#2, key = 44, velocity = 100, tick = 1344]
NOTE ON [channel = 9, note = C2, key = 36, velocity = 100, tick = 1344]
NOTE OFF [channel = 9, note = C2, key = 36, velocity = 64, tick = 1440]
NOTE OFF [channel = 9, note = G#2, key = 44, velocity = 64, tick = 1440]
NOTE ON [channel = 9, note = C2, key = 36, velocity = 100, tick = 1440]
NOTE ON [channel = 9, note = G#2, key = 44, velocity = 100, tick = 1440]
NOTE OFF [channel = 9, note = G#2, key = 44, velocity = 64, tick = 1536]
NOTE OFF [channel = 9, note = C2, key = 36, velocity = 64, tick = 1536]
NOTE ON [channel = 9, note = C2, key = 36, velocity = 100, tick = 1536]
NOTE ON [channel = 9, note = G#2, key = 44, velocity = 100, tick = 1536]
NOTE OFF [channel = 9, note = G#2, key = 44, velocity = 64, tick = 1632]
NOTE OFF [channel = 9, note = C2, key = 36, velocity = 64, tick = 1632]
NOTE ON [channel = 9, note = C2, key = 36, velocity = 100, tick = 1632]
NOTE ON [channel = 9, note = G#2, key = 44, velocity = 100, tick = 1632]
NOTE OFF [channel = 9, note = G#2, key = 44, velocity = 64, tick = 1728]
NOTE OFF [channel = 9, note = C2, key = 36, velocity = 64, tick = 1728]
NOTE ON [channel = 9, note = C2, key = 36, velocity = 100, tick = 1728]
NOTE ON [channel = 9, note = G#2, key = 44, velocity = 100, tick = 1728]
NOTE OFF [channel = 9, note = G#2, key = 44, velocity = 64, tick = 1824]
NOTE OFF [channel = 9, note = C2, key = 36, velocity = 64, tick = 1824]
NOTE ON [channel = 9, note = G#2, key = 44, velocity = 100, tick = 1824]
NOTE ON [channel = 9, note = C2, key = 36, velocity = 100, tick = 1824]
NOTE OFF [channel = 9, note = C2, key = 36, velocity = 64, tick = 1920]
NOTE OFF [channel = 9, note = G#2, key = 44, velocity = 64, tick = 1920]
NOTE ON [channel = 9, note = G#2, key = 44, velocity = 100, tick = 1920]
NOTE ON [channel = 9, note = C2, key = 36, velocity = 100, tick = 1920]
NOTE OFF [channel = 9, note = C2, key = 36, velocity = 64, tick = 2016]
NOTE OFF [channel = 9, note = G#2, key = 44, velocity = 64, tick = 2016]
NOTE ON [channel = 9, note = C2, key = 36, velocity = 100, tick = 2016]
NOTE ON [channel = 9, note = G#2, key = 44, velocity = 100, tick = 2016]
NOTE OFF [channel = 9, note = G#2, key = 44, velocity = 64, tick = 2112]
NOTE ON [channel = 9, note = G#2, key = 44, velocity = 100, tick = 2112]
NOTE OFF [channel = 9, note = G#2, key = 44, velocity = 64, tick = 2208]
NOTE ON [channel = 9, note = G#2, key = 44, velocity = 100, tick = 2208]
NOTE OFF [channel = 9, note = G#2, key = 44, velocity = 64, tick = 2304]
NOTE OFF [channel = 9, note = C2, key = 36, velocity = 64, tick = 2304]
NOTE OFF [channel = 9, note = C#3, key = 49, velocity = 64, tick = 2304]
NOTE ON [channel = 9, note = D2, key = 38, velocity = 100, tick = 2304]
NOTE ON [channel = 9, note = C#3, key = 49, velocity = 100, tick = 2304]
NOTE ON [channel = 9, note = C2, key = 36, velocity = 100, tick = 2304]
NOTE ON [channel = 9, note = G#2, key = 44, velocity = 100, tick = 2304]
NOTE ON [channel = 9, note = A#2, key = 46, velocity = 70, tick = 2352]
NOTE OFF [channel = 9, note = G#2, key = 44, velocity = 64, tick = 2400]
NOTE OFF [channel = 9, note = D2, key = 38, velocity = 64, tick = 2400]
NOTE OFF [channel = 9, note = C2, key = 36, velocity = 64, tick = 2400]
NOTE ON [channel = 9, note = D2, key = 38, velocity = 100, tick = 2400]
NOTE ON [channel = 9, note = C2, key = 36, velocity = 100, tick = 2400]
NOTE ON [channel = 9, note = G#2, key = 44, velocity = 100, tick = 2400]
NOTE OFF [channel = 9, note = A#2, key = 46, velocity = 64, tick = 2448]
NOTE ON [channel = 9, note = A#2, key = 46, velocity = 70, tick = 2448]
NOTE OFF [channel = 9, note = G#2, key = 44, velocity = 64, tick = 2496]
NOTE OFF [channel = 9, note = D2, key = 38, velocity = 64, tick = 2496]
NOTE OFF [channel = 9, note = C2, key = 36, velocity = 64, tick = 2496]
NOTE ON [channel = 9, note = D2, key = 38, velocity = 100, tick = 2496]
NOTE ON [channel = 9, note = C2, key = 36, velocity = 100, tick = 2496]
NOTE ON [channel = 9, note = G#2, key = 44, velocity = 100, tick = 2496]
NOTE OFF [channel = 9, note = A#2, key = 46, velocity = 64, tick = 2544]
NOTE ON [channel = 9, note = A#2, key = 46, velocity = 70, tick = 2544]
NOTE OFF [channel = 9, note = G#2, key = 44, velocity = 64, tick = 2592]
NOTE OFF [channel = 9, note = C2, key = 36, velocity = 64, tick = 2592]
NOTE OFF [channel = 9, note = D2, key = 38, velocity = 64, tick = 2592]
NOTE ON [channel = 9, note = G#2, key = 44, velocity = 100, tick = 2592]
NOTE ON [channel = 9, note = C2, key = 36, velocity = 100, tick = 2592]
NOTE ON [channel = 9, note = D2, key = 38, velocity = 100, tick = 2592]
NOTE OFF [channel = 9, note = A#2, key = 46, velocity = 64, tick = 2640]
NOTE ON [channel = 9, note = A#2, key = 46, velocity = 70, tick = 2640]
NOTE OFF [channel = 9, note = D2, key = 38, velocity = 64, tick = 2688]
NOTE OFF [channel = 9, note = C2, key = 36, velocity = 64, tick = 2688]
NOTE OFF [channel = 9, note = G#2, key = 44, velocity = 64, tick = 2688]
NOTE ON [channel = 9, note = G#2, key = 44, velocity = 100, tick = 2688]
NOTE ON [channel = 9, note = C2, key = 36, velocity = 100, tick = 2688]
NOTE ON [channel = 9, note = D2, key = 38, velocity = 100, tick = 2688]
NOTE OFF [channel = 9, note = A#2, key = 46, velocity = 64, tick = 2736]
NOTE ON [channel = 9, note = A#2, key = 46, velocity = 70, tick = 2736]
NOTE OFF [channel = 9, note = D2, key = 38, velocity = 64, tick = 2784]
NOTE OFF [channel = 9, note = C2, key = 36, velocity = 64, tick = 2784]
NOTE OFF [channel = 9, note = G#2, key = 44, velocity = 64, tick = 2784]
NOTE ON [channel = 9, note = G#2, key = 44, velocity = 100, tick = 2784]
NOTE ON [channel = 9, note = C2, key = 36, velocity = 100, tick = 2784]
NOTE ON [channel = 9, note = D2, key = 38, velocity = 100, tick = 2784]
NOTE OFF [channel = 9, note = A#2, key = 46, velocity = 64, tick = 2832]
NOTE ON [channel = 9, note = A#2, key = 46, velocity = 70, tick = 2832]
NOTE OFF [channel = 9, note = D2, key = 38, velocity = 64, tick = 2880]
NOTE OFF [channel = 9, note = C2, key = 36, velocity = 64, tick = 2880]
NOTE OFF [channel = 9, note = G#2, key = 44, velocity = 64, tick = 2880]
NOTE ON [channel = 9, note = C2, key = 36, velocity = 100, tick = 2880]
NOTE ON [channel = 9, note = G#2, key = 44, velocity = 100, tick = 2880]
NOTE ON [channel = 9, note = D2, key = 38, velocity = 100, tick = 2880]
NOTE OFF [channel = 9, note = A#2, key = 46, velocity = 64, tick = 2928]
NOTE ON [channel = 9, note = A#2, key = 46, velocity = 70, tick = 2928]
NOTE OFF [channel = 9, note = D2, key = 38, velocity = 64, tick = 2976]
NOTE OFF [channel = 9, note = G#2, key = 44, velocity = 64, tick = 2976]
NOTE OFF [channel = 9, note = C2, key = 36, velocity = 64, tick = 2976]
NOTE ON [channel = 9, note = C2, key = 36, velocity = 100, tick = 2976]
NOTE ON [channel = 9, note = G#2, key = 44, velocity = 100, tick = 2976]
NOTE ON [channel = 9, note = D2, key = 38, velocity = 100, tick = 2976]
NOTE OFF [channel = 9, note = A#2, key = 46, velocity = 64, tick = 3024]
NOTE ON [channel = 9, note = A#2, key = 46, velocity = 70, tick = 3024]
NOTE OFF [channel = 9, note = D2, key = 38, velocity = 64, tick = 3072]
NOTE OFF [channel = 9, note = G#2, key = 44, velocity = 64, tick = 3072]
NOTE OFF [channel = 9, note = C2, key = 36, velocity = 64, tick = 3072]
NOTE ON [channel = 9, note = C2, key = 36, velocity = 100, tick = 3072]
NOTE ON [channel = 9, note = G#2, key = 44, velocity = 100, tick = 3072]
NOTE ON [channel = 9, note = D2, key = 38, velocity = 100, tick = 3072]
NOTE OFF [channel = 9, note = D2, key = 38, velocity = 64, tick = 3120]
NOTE OFF [channel = 9, note = A#2, key = 46, velocity = 64, tick = 3120]
NOTE ON [channel = 9, note = A#2, key = 46, velocity = 70, tick = 3120]
NOTE ON [channel = 9, note = D2, key = 38, velocity = 100, tick = 3120]
NOTE OFF [channel = 9, note = D2, key = 38, velocity = 64, tick = 3168]
NOTE OFF [channel = 9, note = G#2, key = 44, velocity = 64, tick = 3168]
NOTE OFF [channel = 9, note = C2, key = 36, velocity = 64, tick = 3168]
NOTE ON [channel = 9, note = C2, key = 36, velocity = 100, tick = 3168]
NOTE ON [channel = 9, note = G#2, key = 44, velocity = 100, tick = 3168]
NOTE ON [channel = 9, note = D2, key = 38, velocity = 100, tick = 3168]
NOTE OFF [channel = 9, note = D2, key = 38, velocity = 64, tick = 3216]
NOTE OFF [channel = 9, note = A#2, key = 46, velocity = 64, tick = 3216]
NOTE ON [channel = 9, note = A#2, key = 46, velocity = 70, tick = 3216]
NOTE ON [channel = 9, note = D2, key = 38, velocity = 100, tick = 3216]
NOTE OFF [channel = 9, note = D2, key = 38, velocity = 64, tick = 3264]
NOTE OFF [channel = 9, note = G#2, key = 44, velocity = 64, tick = 3264]
NOTE OFF [channel = 9, note = C2, key = 36, velocity = 64, tick = 3264]
NOTE ON [channel = 9, note = C2, key = 36, velocity = 100, tick = 3264]
NOTE ON [channel = 9, note = G#2, key = 44, velocity = 100, tick = 3264]
NOTE ON [channel = 9, note = D2, key = 38, velocity = 100, tick = 3264]
NOTE OFF [channel = 9, note = D2, key = 38, velocity = 64, tick = 3312]
NOTE OFF [channel = 9, note = A#2, key = 46, velocity = 64, tick = 3312]
NOTE ON [channel = 9, note = D2, key = 38, velocity = 100, tick = 3312]
NOTE ON [channel = 9, note = A#2, key = 46, velocity = 70, tick = 3312]
NOTE OFF [channel = 9, note = G#2, key = 44, velocity = 64, tick = 3360]
NOTE OFF [channel = 9, note = C2, key = 36, velocity = 64, tick = 3360]
NOTE OFF [channel = 9, note = D2, key = 38, velocity = 64, tick = 3360]
NOTE ON [channel = 9, note = D2, key = 38, velocity = 100, tick = 3360]
NOTE ON [channel = 9, note = C2, key = 36, velocity = 100, tick = 3360]
NOTE ON [channel = 9, note = G#2, key = 44, velocity = 100, tick = 3360]
NOTE OFF [channel = 9, note = A#2, key = 46, velocity = 64, tick = 3408]
NOTE OFF [channel = 9, note = D2, key = 38, velocity = 64, tick = 3408]
NOTE ON [channel = 9, note = D2, key = 38, velocity = 100, tick = 3408]
NOTE ON [channel = 9, note = A#2, key = 46, velocity = 70, tick = 3408]
NOTE OFF [channel = 9, note = G#2, key = 44, velocity = 64, tick = 3456]
NOTE OFF [channel = 9, note = D2, key = 38, velocity = 64, tick = 3456]
NOTE ON [channel = 9, note = G#2, key = 44, velocity = 100, tick = 3456]
NOTE ON [channel = 9, note = D2, key = 38, velocity = 100, tick = 3456]
NOTE OFF [channel = 9, note = D2, key = 38, velocity = 64, tick = 3480]
NOTE ON [channel = 9, note = D2, key = 38, velocity = 100, tick = 3480]
NOTE OFF [channel = 9, note = A#2, key = 46, velocity = 64, tick = 3504]
NOTE OFF [channel = 9, note = D2, key = 38, velocity = 64, tick = 3504]
NOTE ON [channel = 9, note = A#2, key = 46, velocity = 70, tick = 3504]
NOTE ON [channel = 9, note = D2, key = 38, velocity = 100, tick = 3504]
NOTE OFF [channel = 9, note = D2, key = 38, velocity = 64, tick = 3528]
NOTE ON [channel = 9, note = D2, key = 38, velocity = 100, tick = 3528]
NOTE OFF [channel = 9, note = D2, key = 38, velocity = 64, tick = 3552]
NOTE OFF [channel = 9, note = G#2, key = 44, velocity = 64, tick = 3552]
NOTE ON [channel = 9, note = G#2, key = 44, velocity = 100, tick = 3552]
NOTE ON [channel = 9, note = D2, key = 38, velocity = 100, tick = 3552]
NOTE OFF [channel = 9, note = D2, key = 38, velocity = 64, tick = 3576]
NOTE ON [channel = 9, note = D2, key = 38, velocity = 100, tick = 3576]
NOTE OFF [channel = 9, note = D2, key = 38, velocity = 64, tick = 3600]
NOTE OFF [channel = 9, note = A#2, key = 46, velocity = 64, tick = 3600]
NOTE ON [channel = 9, note = D2, key = 38, velocity = 100, tick = 3600]
NOTE ON [channel = 9, note = A#2, key = 46, velocity = 70, tick = 3600]
NOTE OFF [channel = 9, note = D2, key = 38, velocity = 64, tick = 3624]
NOTE ON [channel = 9, note = D2, key = 38, velocity = 100, tick = 3624]
NOTE OFF [channel = 9, note = D2, key = 38, velocity = 64, tick = 3648]
NOTE OFF [channel = 9, note = G#2, key = 44, velocity = 64, tick = 3648]
NOTE ON [channel = 9, note = B2, key = 47, velocity = 100, tick = 3648]
NOTE ON [channel = 9, note = G#2, key = 44, velocity = 100, tick = 3648]
NOTE OFF [channel = 9, note = B2, key = 47, velocity = 64, tick = 3672]
NOTE ON [channel = 9, note = B2, key = 47, velocity = 100, tick = 3672]
NOTE OFF [channel = 9, note = A#2, key = 46, velocity = 64, tick = 3696]
NOTE OFF [channel = 9, note = B2, key = 47, velocity = 64, tick = 3696]
NOTE ON [channel = 9, note = B2, key = 47, velocity = 100, tick = 3696]
NOTE ON [channel = 9, note = A#2, key = 46, velocity = 70, tick = 3696]
NOTE OFF [channel = 9, note = B2, key = 47, velocity = 64, tick = 3720]
NOTE ON [channel = 9, note = A2, key = 45, velocity = 100, tick = 3720]
NOTE OFF [channel = 9, note = A2, key = 45, velocity = 64, tick = 3744]
NOTE OFF [channel = 9, note = G#2, key = 44, velocity = 64, tick = 3744]
NOTE ON [channel = 9, note = G2, key = 43, velocity = 100, tick = 3744]
NOTE ON [channel = 9, note = G#2, key = 44, velocity = 100, tick = 3744]
NOTE OFF [channel = 9, note = A#2, key = 46, velocity = 64, tick = 3792]
NOTE OFF [channel = 9, note = G2, key = 43, velocity = 64, tick = 3792]
NOTE ON [channel = 9, note = D2, key = 38, velocity = 100, tick = 3792]
NOTE ON [channel = 9, note = A#2, key = 46, velocity = 70, tick = 3792]
NOTE OFF [channel = 9, note = C#3, key = 49, velocity = 64, tick = 3840]
NOTE OFF [channel = 9, note = D2, key = 38, velocity = 64, tick = 3840]
NOTE ON [channel = 9, note = C#3, key = 49, velocity = 100, tick = 3840]
NOTE OFF [channel = 9, note = C#3, key = 49, velocity = 64, tick = 3936]
NOTE ON [channel = 9, note = C#3, key = 49, velocity = 100, tick = 3936]
NOTE OFF [channel = 9, note = G#2, key = 44, velocity = 64, tick = 4032]
NOTE OFF [channel = 9, note = C2, key = 36, velocity = 64, tick = 4032]
NOTE OFF [channel = 9, note = C#3, key = 49, velocity = 64, tick = 4032]
NOTE ON [channel = 9, note = C#3, key = 49, velocity = 100, tick = 4032]
NOTE ON [channel = 9, note = C2, key = 36, velocity = 100, tick = 4032]
NOTE ON [channel = 9, note = G#2, key = 44, velocity = 100, tick = 4032]
NOTE OFF [channel = 9, note = A#2, key = 46, velocity = 64, tick = 4080]
NOTE ON [channel = 9, note = A#2, key = 46, velocity = 70, tick = 4080]
NOTE OFF [channel = 9, note = G#2, key = 44, velocity = 64, tick = 4128]
NOTE OFF [channel = 9, note = C2, key = 36, velocity = 64, tick = 4128]
NOTE ON [channel = 9, note = C2, key = 36, velocity = 100, tick = 4128]
NOTE ON [channel = 9, note = G#2, key = 44, velocity = 100, tick = 4128]
NOTE OFF [channel = 9, note = A#2, key = 46, velocity = 64, tick = 4176]
NOTE ON [channel = 9, note = A#2, key = 46, velocity = 70, tick = 4176]
NOTE OFF [channel = 9, note = G#2, key = 44, velocity = 64, tick = 4224]
NOTE OFF [channel = 9, note = C2, key = 36, velocity = 64, tick = 4224]
NOTE ON [channel = 9, note = C2, key = 36, velocity = 100, tick = 4224]
NOTE ON [channel = 9, note = G#2, key = 44, velocity = 100, tick = 4224]
NOTE OFF [channel = 9, note = A#2, key = 46, velocity = 64, tick = 4272]
NOTE ON [channel = 9, note = A#2, key = 46, velocity = 70, tick = 4272]
NOTE OFF [channel = 9, note = G#2, key = 44, velocity = 64, tick = 4320]
NOTE OFF [channel = 9, note = C2, key = 36, velocity = 64, tick = 4320]
NOTE ON [channel = 9, note = G#2, key = 44, velocity = 100, tick = 4320]
NOTE ON [channel = 9, note = C2, key = 36, velocity = 100, tick = 4320]
NOTE OFF [channel = 9, note = A#2, key = 46, velocity = 64, tick = 4368]
NOTE ON [channel = 9, note = A#2, key = 46, velocity = 70, tick = 4368]
NOTE OFF [channel = 9, note = C2, key = 36, velocity = 64, tick = 4416]
NOTE OFF [channel = 9, note = G#2, key = 44, velocity = 64, tick = 4416]
NOTE ON [channel = 9, note = C2, key = 36, velocity = 100, tick = 4416]
NOTE ON [channel = 9, note = G#2, key = 44, velocity = 100, tick = 4416]
NOTE OFF [channel = 9, note = A#2, key = 46, velocity = 64, tick = 4464]
NOTE ON [channel = 9, note = A#2, key = 46, velocity = 70, tick = 4464]
NOTE OFF [channel = 9, note = G#2, key = 44, velocity = 64, tick = 4512]
NOTE OFF [channel = 9, note = C2, key = 36, velocity = 64, tick = 4512]
NOTE ON [channel = 9, note = G#2, key = 44, velocity = 100, tick = 4512]
NOTE ON [channel = 9, note = C2, key = 36, velocity = 100, tick = 4512]
NOTE OFF [channel = 9, note = A#2, key = 46, velocity = 64, tick = 4560]
NOTE ON [channel = 9, note = A#2, key = 46, velocity = 70, tick = 4560]
NOTE OFF [channel = 9, note = G#2, key = 44, velocity = 64, tick = 4608]
NOTE OFF [channel = 9, note = C2, key = 36, velocity = 64, tick = 4608]
NOTE ON [channel = 9, note = G#2, key = 44, velocity = 100, tick = 4608]
NOTE ON [channel = 9, note = C2, key = 36, velocity = 100, tick = 4608]
NOTE OFF [channel = 9, note = A#2, key = 46, velocity = 64, tick = 4656]
NOTE ON [channel = 9, note = A#2, key = 46, velocity = 70, tick = 4656]
NOTE OFF [channel = 9, note = C2, key = 36, velocity = 64, tick = 4704]
NOTE OFF [channel = 9, note = G#2, key = 44, velocity = 64, tick = 4704]
NOTE ON [channel = 9, note = G#2, key = 44, velocity = 100, tick = 4704]
NOTE ON [channel = 9, note = C2, key = 36, velocity = 100, tick = 4704]
NOTE OFF [channel = 9, note = A#2, key = 46, velocity = 64, tick = 4752]
NOTE ON [channel = 9, note = A#2, key = 46, velocity = 70, tick = 4752]
NOTE OFF [channel = 9, note = C2, key = 36, velocity = 64, tick = 4800]
NOTE OFF [channel = 9, note = G#2, key = 44, velocity = 64, tick = 4800]
NOTE ON [channel = 9, note = C2, key = 36, velocity = 100, tick = 4800]
NOTE ON [channel = 9, note = G#2, key = 44, velocity = 100, tick = 4800]
NOTE OFF [channel = 9, note = A#2, key = 46, velocity = 64, tick = 4848]
NOTE ON [channel = 9, note = A#2, key = 46, velocity = 70, tick = 4848]
NOTE OFF [channel = 9, note = G#2, key = 44, velocity = 64, tick = 4896]
NOTE OFF [channel = 9, note = C2, key = 36, velocity = 64, tick = 4896]
NOTE ON [channel = 9, note = C2, key = 36, velocity = 100, tick = 4896]
NOTE ON [channel = 9, note = G#2, key = 44, velocity = 100, tick = 4896]
NOTE OFF [channel = 9, note = A#2, key = 46, velocity = 64, tick = 4944]
NOTE ON [channel = 9, note = A#2, key = 46, velocity = 70, tick = 4944]
NOTE OFF [channel = 9, note = G#2, key = 44, velocity = 64, tick = 4992]
NOTE OFF [channel = 9, note = C2, key = 36, velocity = 64, tick = 4992]
NOTE ON [channel = 9, note = G#2, key = 44, velocity = 100, tick = 4992]
NOTE ON [channel = 9, note = C2, key = 36, velocity = 100, tick = 4992]
NOTE OFF [channel = 9, note = A#2, key = 46, velocity = 64, tick = 5040]
NOTE ON [channel = 9, note = A#2, key = 46, velocity = 70, tick = 5040]
NOTE OFF [channel = 9, note = C2, key = 36, velocity = 64, tick = 5088]
NOTE OFF [channel = 9, note = G#2, key = 44, velocity = 64, tick = 5088]
NOTE ON [channel = 9, note = G#2, key = 44, velocity = 100, tick = 5088]
NOTE ON [channel = 9, note = C2, key = 36, velocity = 100, tick = 5088]
NOTE OFF [channel = 9, note = A#2, key = 46, velocity = 64, tick = 5136]
NOTE ON [channel = 9, note = A#2, key = 46, velocity = 70, tick = 5136]
NOTE OFF [channel = 9, note = G#2, key = 44, velocity = 64, tick = 5184]
NOTE ON [channel = 9, note = G#2, key = 44, velocity = 100, tick = 5184]
NOTE OFF [channel = 9, note = A#2, key = 46, velocity = 64, tick = 5232]
NOTE ON [channel = 9, note = A#2, key = 46, velocity = 70, tick = 5232]
NOTE OFF [channel = 9, note = G#2, key = 44, velocity = 64, tick = 5280]
NOTE ON [channel = 9, note = G#2, key = 44, velocity = 100, tick = 5280]
NOTE OFF [channel = 9, note = A#2, key = 46, velocity = 64, tick = 5328]
NOTE ON [channel = 9, note = A#2, key = 46, velocity = 70, tick = 5328]
NOTE OFF [channel = 9, note = G#2, key = 44, velocity = 64, tick = 5376]
NOTE ON [channel = 9, note = G#2, key = 44, velocity = 100, tick = 5376]
NOTE OFF [channel = 9, note = A#2, key = 46, velocity = 64, tick = 5424]
NOTE ON [channel = 9, note = A#2, key = 46, velocity = 70, tick = 5424]
NOTE OFF [channel = 9, note = G#2, key = 44, velocity = 64, tick = 5472]
NOTE ON [channel = 9, note = G#2, key = 44, velocity = 100, tick = 5472]
NOTE OFF [channel = 9, note = A#2, key = 46, velocity = 64, tick = 5520]
NOTE ON [channel = 9, note = A#2, key = 46, velocity = 70, tick = 5520]
NOTE OFF [channel = 9, note = C2, key = 36, velocity = 64, tick = 5568]
NOTE OFF [channel = 9, note = G#2, key = 44, velocity = 64, tick = 5568]
NOTE OFF [channel = 9, note = C#3, key = 49, velocity = 64, tick = 5568]
NOTE ON [channel = 9, note = D2, key = 38, velocity = 100, tick = 5568]
NOTE ON [channel = 9, note = C#3, key = 49, velocity = 100, tick = 5568]
NOTE ON [channel = 9, note = C2, key = 36, velocity = 100, tick = 5568]
NOTE ON [channel = 9, note = G#2, key = 44, velocity = 100, tick = 5568]
NOTE OFF [channel = 9, note = A#2, key = 46, velocity = 64, tick = 5616]
NOTE ON [channel = 9, note = A#2, key = 46, velocity = 70, tick = 5616]
NOTE OFF [channel = 9, note = G#2, key = 44, velocity = 64, tick = 5664]
NOTE OFF [channel = 9, note = D2, key = 38, velocity = 64, tick = 5664]
NOTE OFF [channel = 9, note = C2, key = 36, velocity = 64, tick = 5664]
NOTE ON [channel = 9, note = D2, key = 38, velocity = 100, tick = 5664]
NOTE ON [channel = 9, note = D#2, key = 39, velocity = 100, tick = 5664]
NOTE ON [channel = 9, note = G#2, key = 44, velocity = 100, tick = 5664]
NOTE ON [channel = 9, note = C2, key = 36, velocity = 100, tick = 5664]
NOTE OFF [channel = 9, note = A#2, key = 46, velocity = 64, tick = 5712]
NOTE ON [channel = 9, note = A#2, key = 46, velocity = 70, tick = 5712]
NOTE OFF [channel = 9, note = C2, key = 36, velocity = 64, tick = 5760]
NOTE OFF [channel = 9, note = G#2, key = 44, velocity = 64, tick = 5760]
NOTE OFF [channel = 9, note = D2, key = 38, velocity = 64, tick = 5760]
NOTE ON [channel = 9, note = D2, key = 38, velocity = 100, tick = 5760]
NOTE ON [channel = 9, note = G#2, key = 44, velocity = 100, tick = 5760]
NOTE ON [channel = 9, note = C2, key = 36, velocity = 100, tick = 5760]
NOTE OFF [channel = 9, note = A#2, key = 46, velocity = 64, tick = 5808]
NOTE ON [channel = 9, note = A#2, key = 46, velocity = 70, tick = 5808]
NOTE OFF [channel = 9, note = C2, key = 36, velocity = 64, tick = 5856]
NOTE OFF [channel = 9, note = G#2, key = 44, velocity = 64, tick = 5856]
NOTE OFF [channel = 9, note = D#2, key = 39, velocity = 64, tick = 5856]
NOTE OFF [channel = 9, note = D2, key = 38, velocity = 64, tick = 5856]
NOTE ON [channel = 9, note = D2, key = 38, velocity = 100, tick = 5856]
NOTE ON [channel = 9, note = D#2, key = 39, velocity = 100, tick = 5856]
NOTE ON [channel = 9, note = C2, key = 36, velocity = 100, tick = 5856]
NOTE ON [channel = 9, note = G#2, key = 44, velocity = 100, tick = 5856]
NOTE OFF [channel = 9, note = A#2, key = 46, velocity = 64, tick = 5904]
NOTE ON [channel = 9, note = A#2, key = 46, velocity = 70, tick = 5904]
NOTE OFF [channel = 9, note = G#2, key = 44, velocity = 64, tick = 5952]
NOTE OFF [channel = 9, note = C2, key = 36, velocity = 64, tick = 5952]
NOTE OFF [channel = 9, note = D2, key = 38, velocity = 64, tick = 5952]
NOTE ON [channel = 9, note = D2, key = 38, velocity = 100, tick = 5952]
NOTE ON [channel = 9, note = G#2, key = 44, velocity = 100, tick = 5952]
NOTE ON [channel = 9, note = C2, key = 36, velocity = 100, tick = 5952]
NOTE OFF [channel = 9, note = A#2, key = 46, velocity = 64, tick = 6000]
NOTE ON [channel = 9, note = A#2, key = 46, velocity = 70, tick = 6000]
NOTE OFF [channel = 9, note = C2, key = 36, velocity = 64, tick = 6048]
NOTE OFF [channel = 9, note = G#2, key = 44, velocity = 64, tick = 6048]
NOTE OFF [channel = 9, note = D#2, key = 39, velocity = 64, tick = 6048]
NOTE OFF [channel = 9, note = D2, key = 38, velocity = 64, tick = 6048]
NOTE ON [channel = 9, note = D2, key = 38, velocity = 100, tick = 6048]
NOTE ON [channel = 9, note = D#2, key = 39, velocity = 100, tick = 6048]
NOTE ON [channel = 9, note = C2, key = 36, velocity = 100, tick = 6048]
NOTE ON [channel = 9, note = G#2, key = 44, velocity = 100, tick = 6048]
NOTE OFF [channel = 9, note = A#2, key = 46, velocity = 64, tick = 6096]
NOTE ON [channel = 9, note = A#2, key = 46, velocity = 70, tick = 6096]
NOTE OFF [channel = 9, note = G#2, key = 44, velocity = 64, tick = 6144]
NOTE OFF [channel = 9, note = D2, key = 38, velocity = 64, tick = 6144]
NOTE OFF [channel = 9, note = C2, key = 36, velocity = 64, tick = 6144]
NOTE ON [channel = 9, note = D2, key = 38, velocity = 100, tick = 6144]
NOTE ON [channel = 9, note = C2, key = 36, velocity = 100, tick = 6144]
NOTE ON [channel = 9, note = G#2, key = 44, velocity = 100, tick = 6144]
NOTE OFF [channel = 9, note = A#2, key = 46, velocity = 64, tick = 6192]
NOTE ON [channel = 9, note = A#2, key = 46, velocity = 70, tick = 6192]
NOTE OFF [channel = 9, note = G#2, key = 44, velocity = 64, tick = 6240]
NOTE OFF [channel = 9, note = D#2, key = 39, velocity = 64, tick = 6240]
NOTE OFF [channel = 9, note = C2, key = 36, velocity = 64, tick = 6240]
NOTE OFF [channel = 9, note = D2, key = 38, velocity = 64, tick = 6240]
NOTE ON [channel = 9, note = D2, key = 38, velocity = 100, tick = 6240]
NOTE ON [channel = 9, note = D#2, key = 39, velocity = 100, tick = 6240]
NOTE ON [channel = 9, note = G#2, key = 44, velocity = 100, tick = 6240]
NOTE ON [channel = 9, note = C2, key = 36, velocity = 100, tick = 6240]
NOTE OFF [channel = 9, note = A#2, key = 46, velocity = 64, tick = 6288]
NOTE ON [channel = 9, note = A#2, key = 46, velocity = 70, tick = 6288]
NOTE OFF [channel = 9, note = C2, key = 36, velocity = 64, tick = 6336]
NOTE OFF [channel = 9, note = G#2, key = 44, velocity = 64, tick = 6336]
NOTE OFF [channel = 9, note = D2, key = 38, velocity = 64, tick = 6336]
NOTE ON [channel = 9, note = D2, key = 38, velocity = 100, tick = 6336]
NOTE ON [channel = 9, note = C2, key = 36, velocity = 100, tick = 6336]
NOTE ON [channel = 9, note = G#2, key = 44, velocity = 100, tick = 6336]
NOTE OFF [channel = 9, note = D2, key = 38, velocity = 64, tick = 6384]
NOTE OFF [channel = 9, note = A#2, key = 46, velocity = 64, tick = 6384]
NOTE ON [channel = 9, note = D2, key = 38, velocity = 100, tick = 6384]
NOTE ON [channel = 9, note = A#2, key = 46, velocity = 70, tick = 6384]
NOTE OFF [channel = 9, note = G#2, key = 44, velocity = 64, tick = 6432]
NOTE OFF [channel = 9, note = D#2, key = 39, velocity = 64, tick = 6432]
NOTE OFF [channel = 9, note = D2, key = 38, velocity = 64, tick = 6432]
NOTE OFF [channel = 9, note = C2, key = 36, velocity = 64, tick = 6432]
NOTE ON [channel = 9, note = D2, key = 38, velocity = 100, tick = 6432]
NOTE ON [channel = 9, note = D#2, key = 39, velocity = 100, tick = 6432]
NOTE ON [channel = 9, note = G#2, key = 44, velocity = 100, tick = 6432]
NOTE ON [channel = 9, note = C2, key = 36, velocity = 100, tick = 6432]
NOTE OFF [channel = 9, note = A#2, key = 46, velocity = 64, tick = 6480]
NOTE OFF [channel = 9, note = D2, key = 38, velocity = 64, tick = 6480]
NOTE ON [channel = 9, note = D2, key = 38, velocity = 100, tick = 6480]
NOTE ON [channel = 9, note = A#2, key = 46, velocity = 70, tick = 6480]
NOTE OFF [channel = 9, note = C2, key = 36, velocity = 64, tick = 6528]
NOTE OFF [channel = 9, note = G#2, key = 44, velocity = 64, tick = 6528]
NOTE OFF [channel = 9, note = D2, key = 38, velocity = 64, tick = 6528]
NOTE ON [channel = 9, note = D2, key = 38, velocity = 100, tick = 6528]
NOTE ON [channel = 9, note = C2, key = 36, velocity = 100, tick = 6528]
NOTE ON [channel = 9, note = G#2, key = 44, velocity = 100, tick = 6528]
NOTE OFF [channel = 9, note = A#2, key = 46, velocity = 64, tick = 6576]
NOTE OFF [channel = 9, note = D2, key = 38, velocity = 64, tick = 6576]
NOTE ON [channel = 9, note = D2, key = 38, velocity = 100, tick = 6576]
NOTE ON [channel = 9, note = A#2, key = 46, velocity = 70, tick = 6576]
NOTE OFF [channel = 9, note = D#2, key = 39, velocity = 64, tick = 6624]
NOTE OFF [channel = 9, note = D2, key = 38, velocity = 64, tick = 6624]
NOTE OFF [channel = 9, note = G#2, key = 44, velocity = 64, tick = 6624]
NOTE OFF [channel = 9, note = C2, key = 36, velocity = 64, tick = 6624]
NOTE ON [channel = 9, note = D2, key = 38, velocity = 100, tick = 6624]
NOTE ON [channel = 9, note = D#2, key = 39, velocity = 100, tick = 6624]
NOTE ON [channel = 9, note = C2, key = 36, velocity = 100, tick = 6624]
NOTE ON [channel = 9, note = G#2, key = 44, velocity = 100, tick = 6624]
NOTE OFF [channel = 9, note = A#2, key = 46, velocity = 64, tick = 6672]
NOTE OFF [channel = 9, note = D2, key = 38, velocity = 64, tick = 6672]
NOTE ON [channel = 9, note = D2, key = 38, velocity = 100, tick = 6672]
NOTE ON [channel = 9, note = A#2, key = 46, velocity = 70, tick = 6672]
NOTE OFF [channel = 9, note = G#2, key = 44, velocity = 64, tick = 6720]
NOTE OFF [channel = 9, note = D2, key = 38, velocity = 64, tick = 6720]
NOTE ON [channel = 9, note = G#2, key = 44, velocity = 100, tick = 6720]
NOTE ON [channel = 9, note = D2, key = 38, velocity = 100, tick = 6720]
NOTE OFF [channel = 9, note = D2, key = 38, velocity = 64, tick = 6744]
NOTE ON [channel = 9, note = D2, key = 38, velocity = 100, tick = 6744]
NOTE OFF [channel = 9, note = D2, key = 38, velocity = 64, tick = 6768]
NOTE OFF [channel = 9, note = A#2, key = 46, velocity = 64, tick = 6768]
NOTE ON [channel = 9, note = A#2, key = 46, velocity = 70, tick = 6768]
NOTE ON [channel = 9, note = D2, key = 38, velocity = 100, tick = 6768]
NOTE OFF [channel = 9, note = D2, key = 38, velocity = 64, tick = 6792]
NOTE ON [channel = 9, note = D2, key = 38, velocity = 100, tick = 6792]
NOTE OFF [channel = 9, note = D2, key = 38, velocity = 64, tick = 6816]
NOTE OFF [channel = 9, note = D#2, key = 39, velocity = 64, tick = 6816]
NOTE OFF [channel = 9, note = G#2, key = 44, velocity = 64, tick = 6816]
NOTE ON [channel = 9, note = D2, key = 38, velocity = 100, tick = 6816]
NOTE ON [channel = 9, note = D#2, key = 39, velocity = 100, tick = 6816]
NOTE ON [channel = 9, note = G#2, key = 44, velocity = 100, tick = 6816]
NOTE OFF [channel = 9, note = D2, key = 38, velocity = 64, tick = 6840]
NOTE ON [channel = 9, note = D2, key = 38, velocity = 100, tick = 6840]
NOTE OFF [channel = 9, note = A#2, key = 46, velocity = 64, tick = 6864]
NOTE OFF [channel = 9, note = D2, key = 38, velocity = 64, tick = 6864]
NOTE ON [channel = 9, note = A#2, key = 46, velocity = 70, tick = 6864]
NOTE ON [channel = 9, note = D2, key = 38, velocity = 100, tick = 6864]
NOTE OFF [channel = 9, note = D2, key = 38, velocity = 64, tick = 6888]
NOTE ON [channel = 9, note = D2, key = 38, velocity = 100, tick = 6888]
NOTE OFF [channel = 9, note = D2, key = 38, velocity = 64, tick = 6912]
NOTE OFF [channel = 9, note = G#2, key = 44, velocity = 64, tick = 6912]
NOTE ON [channel = 9, note = B2, key = 47, velocity = 100, tick = 6912]
NOTE ON [channel = 9, note = G#2, key = 44, velocity = 100, tick = 6912]
NOTE OFF [channel = 9, note = B2, key = 47, velocity = 64, tick = 6936]
NOTE ON [channel = 9, note = B2, key = 47, velocity = 100, tick = 6936]
NOTE OFF [channel = 9, note = A#2, key = 46, velocity = 64, tick = 6960]
NOTE OFF [channel = 9, note = B2, key = 47, velocity = 64, tick = 6960]
NOTE ON [channel = 9, note = B2, key = 47, velocity = 100, tick = 6960]
NOTE ON [channel = 9, note = A#2, key = 46, velocity = 70, tick = 6960]
NOTE OFF [channel = 9, note = B2, key = 47, velocity = 64, tick = 6984]
NOTE ON [channel = 9, note = A2, key = 45, velocity = 100, tick = 6984]
NOTE OFF [channel = 9, note = D#2, key = 39, velocity = 64, tick = 7008]
NOTE OFF [channel = 9, note = G#2, key = 44, velocity = 64, tick = 7008]
NOTE OFF [channel = 9, note = A2, key = 45, velocity = 64, tick = 7008]
NOTE ON [channel = 9, note = G2, key = 43, velocity = 100, tick = 7008]
NOTE ON [channel = 9, note = D#2, key = 39, velocity = 100, tick = 7008]
NOTE ON [channel = 9, note = G#2, key = 44, velocity = 100, tick = 7008]
NOTE OFF [channel = 9, note = A#2, key = 46, velocity = 64, tick = 7056]
NOTE OFF [channel = 9, note = G2, key = 43, velocity = 64, tick = 7056]
NOTE ON [channel = 9, note = D2, key = 38, velocity = 100, tick = 7056]
NOTE ON [channel = 9, note = A#2, key = 46, velocity = 70, tick = 7056]
NOTE OFF [channel = 9, note = C#3, key = 49, velocity = 64, tick = 7104]
NOTE OFF [channel = 9, note = D2, key = 38, velocity = 64, tick = 7104]
NOTE ON [channel = 9, note = C#3, key = 49, velocity = 100, tick = 7104]
NOTE OFF [channel = 9, note = G#2, key = 44, velocity = 64, tick = 7296]
NOTE OFF [channel = 9, note = C#3, key = 49, velocity = 64, tick = 7296]
NOTE ON [channel = 9, note = G#2, key = 44, velocity = 100, tick = 7296]
NOTE ON [channel = 9, note = C#3, key = 49, velocity = 100, tick = 7296]
NOTE OFF [channel = 9, note = A#2, key = 46, velocity = 64, tick = 7344]
NOTE ON [channel = 9, note = A#2, key = 46, velocity = 70, tick = 7344]
NOTE OFF [channel = 9, note = G#2, key = 44, velocity = 64, tick = 7392]
NOTE ON [channel = 9, note = G#2, key = 44, velocity = 100, tick = 7392]
NOTE OFF [channel = 9, note = A#2, key = 46, velocity = 64, tick = 7440]
NOTE ON [channel = 9, note = A#2, key = 46, velocity = 70, tick = 7440]
NOTE OFF [channel = 9, note = G#2, key = 44, velocity = 64, tick = 7488]
NOTE ON [channel = 9, note = G#2, key = 44, velocity = 100, tick = 7488]
NOTE OFF [channel = 9, note = A#2, key = 46, velocity = 64, tick = 7536]
NOTE ON [channel = 9, note = A#2, key = 46, velocity = 70, tick = 7536]
NOTE OFF [channel = 9, note = G#2, key = 44, velocity = 64, tick = 7584]
NOTE ON [channel = 9, note = G#2, key = 44, velocity = 100, tick = 7584]
NOTE OFF [channel = 9, note = A#2, key = 46, velocity = 64, tick = 7632]
NOTE ON [channel = 9, note = A#2, key = 46, velocity = 70, tick = 7632]
NOTE OFF [channel = 9, note = G#2, key = 44, velocity = 64, tick = 7680]
NOTE ON [channel = 9, note = G#2, key = 44, velocity = 100, tick = 7680]
NOTE OFF [channel = 9, note = A#2, key = 46, velocity = 64, tick = 7728]
NOTE ON [channel = 9, note = A#2, key = 46, velocity = 70, tick = 7728]
NOTE OFF [channel = 9, note = G#2, key = 44, velocity = 64, tick = 7776]
NOTE ON [channel = 9, note = G#2, key = 44, velocity = 100, tick = 7776]
NOTE OFF [channel = 9, note = A#2, key = 46, velocity = 64, tick = 7824]
NOTE ON [channel = 9, note = A#2, key = 46, velocity = 70, tick = 7824]
NOTE OFF [channel = 9, note = G#2, key = 44, velocity = 64, tick = 7872]
NOTE ON [channel = 9, note = G#2, key = 44, velocity = 100, tick = 7872]
NOTE OFF [channel = 9, note = A#2, key = 46, velocity = 64, tick = 7920]
NOTE ON [channel = 9, note = A#2, key = 46, velocity = 70, tick = 7920]
NOTE OFF [channel = 9, note = G#2, key = 44, velocity = 64, tick = 7968]
NOTE ON [channel = 9, note = G#2, key = 44, velocity = 100, tick = 7968]
NOTE OFF [channel = 9, note = A#2, key = 46, velocity = 64, tick = 8016]
NOTE ON [channel = 9, note = A#2, key = 46, velocity = 70, tick = 8016]
NOTE OFF [channel = 9, note = G#2, key = 44, velocity = 64, tick = 8064]
NOTE ON [channel = 9, note = G#2, key = 44, velocity = 100, tick = 8064]
NOTE OFF [channel = 9, note = A#2, key = 46, velocity = 64, tick = 8112]
NOTE ON [channel = 9, note = A#2, key = 46, velocity = 70, tick = 8112]
NOTE OFF [channel = 9, note = G#2, key = 44, velocity = 64, tick = 8160]
NOTE ON [channel = 9, note = G#2, key = 44, velocity = 100, tick = 8160]
NOTE OFF [channel = 9, note = A#2, key = 46, velocity = 64, tick = 8208]
NOTE ON [channel = 9, note = A#2, key = 46, velocity = 70, tick = 8208]
NOTE OFF [channel = 9, note = G#2, key = 44, velocity = 64, tick = 8256]
NOTE ON [channel = 9, note = G#2, key = 44, velocity = 100, tick = 8256]
NOTE OFF [channel = 9, note = A#2, key = 46, velocity = 64, tick = 8304]
NOTE ON [channel = 9, note = A#2, key = 46, velocity = 70, tick = 8304]
NOTE OFF [channel = 9, note = G#2, key = 44, velocity = 64, tick = 8352]
NOTE ON [channel = 9, note = G#2, key = 44, velocity = 100, tick = 8352]
NOTE OFF [channel = 9, note = A#2, key = 46, velocity = 64, tick = 8400]
NOTE ON [channel = 9, note = A#2, key = 46, velocity = 70, tick = 8400]
NOTE OFF [channel = 9, note = G#2, key = 44, velocity = 64, tick = 8448]
NOTE ON [channel = 9, note = G#2, key = 44, velocity = 100, tick = 8448]
NOTE OFF [channel = 9, note = A#2, key = 46, velocity = 64, tick = 8496]
NOTE ON [channel = 9, note = A#2, key = 46, velocity = 70, tick = 8496]
NOTE OFF [channel = 9, note = G#2, key = 44, velocity = 64, tick = 8544]
NOTE ON [channel = 9, note = G#2, key = 44, velocity = 100, tick = 8544]
NOTE OFF [channel = 9, note = A#2, key = 46, velocity = 64, tick = 8592]
NOTE ON [channel = 9, note = A#2, key = 46, velocity = 70, tick = 8592]
NOTE OFF [channel = 9, note = G#2, key = 44, velocity = 64, tick = 8640]
NOTE ON [channel = 9, note = G#2, key = 44, velocity = 100, tick = 8640]
NOTE OFF [channel = 9, note = A#2, key = 46, velocity = 64, tick = 8688]
NOTE ON [channel = 9, note = A#2, key = 46, velocity = 70, tick = 8688]
NOTE OFF [channel = 9, note = C#3, key = 49, velocity = 64, tick = 8736]
NOTE OFF [channel = 9, note = G#2, key = 44, velocity = 64, tick = 8736]
NOTE ON [channel = 9, note = G#2, key = 44, velocity = 100, tick = 8736]
NOTE ON [channel = 9, note = C#3, key = 49, velocity = 100, tick = 8736]
NOTE OFF [channel = 9, note = A#2, key = 46, velocity = 64, tick = 8784]
NOTE ON [channel = 9, note = A#2, key = 46, velocity = 70, tick = 8784]
NOTE OFF [channel = 9, note = C#3, key = 49, velocity = 64, tick = 9024]
NOTE OFF [channel = 9, note = G#2, key = 44, velocity = 64, tick = 9024]
NOTE OFF [channel = 9, note = C2, key = 36, velocity = 64, tick = 9024]
NOTE ON [channel = 9, note = C#3, key = 49, velocity = 100, tick = 9024]
NOTE ON [channel = 9, note = C2, key = 36, velocity = 100, tick = 9024]
NOTE ON [channel = 9, note = G#2, key = 44, velocity = 100, tick = 9024]
NOTE OFF [channel = 9, note = A#2, key = 46, velocity = 64, tick = 9072]
NOTE ON [channel = 9, note = A#2, key = 46, velocity = 70, tick = 9072]
NOTE OFF [channel = 9, note = G#2, key = 44, velocity = 64, tick = 9120]
NOTE OFF [channel = 9, note = C2, key = 36, velocity = 64, tick = 9120]
NOTE ON [channel = 9, note = C2, key = 36, velocity = 100, tick = 9120]
NOTE ON [channel = 9, note = G#2, key = 44, velocity = 100, tick = 9120]
NOTE OFF [channel = 9, note = A#2, key = 46, velocity = 64, tick = 9168]
NOTE ON [channel = 9, note = A#2, key = 46, velocity = 70, tick = 9168]
NOTE OFF [channel = 9, note = G#2, key = 44, velocity = 64, tick = 9216]
NOTE OFF [channel = 9, note = C2, key = 36, velocity = 64, tick = 9216]
NOTE ON [channel = 9, note = C2, key = 36, velocity = 100, tick = 9216]
NOTE ON [channel = 9, note = G#2, key = 44, velocity = 100, tick = 9216]
NOTE OFF [channel = 9, note = A#2, key = 46, velocity = 64, tick = 9264]
NOTE ON [channel = 9, note = A#2, key = 46, velocity = 70, tick = 9264]
NOTE OFF [channel = 9, note = G#2, key = 44, velocity = 64, tick = 9312]
NOTE OFF [channel = 9, note = C2, key = 36, velocity = 64, tick = 9312]
NOTE ON [channel = 9, note = C2, key = 36, velocity = 100, tick = 9312]
NOTE ON [channel = 9, note = G#2, key = 44, velocity = 100, tick = 9312]
NOTE OFF [channel = 9, note = A#2, key = 46, velocity = 64, tick = 9360]
NOTE ON [channel = 9, note = A#2, key = 46, velocity = 70, tick = 9360]
NOTE OFF [channel = 9, note = G#2, key = 44, velocity = 64, tick = 9408]
NOTE OFF [channel = 9, note = C2, key = 36, velocity = 64, tick = 9408]
NOTE ON [channel = 9, note = G#2, key = 44, velocity = 100, tick = 9408]
NOTE ON [channel = 9, note = C2, key = 36, velocity = 100, tick = 9408]
NOTE OFF [channel = 9, note = A#2, key = 46, velocity = 64, tick = 9456]
NOTE ON [channel = 9, note = A#2, key = 46, velocity = 70, tick = 9456]
NOTE OFF [channel = 9, note = C2, key = 36, velocity = 64, tick = 9504]
NOTE OFF [channel = 9, note = G#2, key = 44, velocity = 64, tick = 9504]
NOTE ON [channel = 9, note = G#2, key = 44, velocity = 100, tick = 9504]
NOTE ON [channel = 9, note = C2, key = 36, velocity = 100, tick = 9504]
NOTE OFF [channel = 9, note = A#2, key = 46, velocity = 64, tick = 9552]
NOTE ON [channel = 9, note = A#2, key = 46, velocity = 70, tick = 9552]
NOTE OFF [channel = 9, note = C2, key = 36, velocity = 64, tick = 9600]
NOTE OFF [channel = 9, note = G#2, key = 44, velocity = 64, tick = 9600]
NOTE ON [channel = 9, note = G#2, key = 44, velocity = 100, tick = 9600]
NOTE ON [channel = 9, note = C2, key = 36, velocity = 100, tick = 9600]
NOTE OFF [channel = 9, note = A#2, key = 46, velocity = 64, tick = 9648]
NOTE ON [channel = 9, note = A#2, key = 46, velocity = 70, tick = 9648]
NOTE OFF [channel = 9, note = C2, key = 36, velocity = 64, tick = 9696]
NOTE OFF [channel = 9, note = G#2, key = 44, velocity = 64, tick = 9696]
NOTE ON [channel = 9, note = G#2, key = 44, velocity = 100, tick = 9696]
NOTE ON [channel = 9, note = C2, key = 36, velocity = 100, tick = 9696]
NOTE OFF [channel = 9, note = A#2, key = 46, velocity = 64, tick = 9744]
NOTE ON [channel = 9, note = A#2, key = 46, velocity = 70, tick = 9744]
NOTE OFF [channel = 9, note = C2, key = 36, velocity = 64, tick = 9792]
NOTE OFF [channel = 9, note = G#2, key = 44, velocity = 64, tick = 9792]
NOTE ON [channel = 9, note = C2, key = 36, velocity = 100, tick = 9792]
NOTE ON [channel = 9, note = G#2, key = 44, velocity = 100, tick = 9792]
NOTE OFF [channel = 9, note = A#2, key = 46, velocity = 64, tick = 9840]
NOTE ON [channel = 9, note = A#2, key = 46, velocity = 70, tick = 9840]
NOTE OFF [channel = 9, note = G#2, key = 44, velocity = 64, tick = 9888]
NOTE OFF [channel = 9, note = C2, key = 36, velocity = 64, tick = 9888]
NOTE ON [channel = 9, note = G#2, key = 44, velocity = 100, tick = 9888]
NOTE ON [channel = 9, note = C2, key = 36, velocity = 100, tick = 9888]
NOTE OFF [channel = 9, note = A#2, key = 46, velocity = 64, tick = 9936]
NOTE ON [channel = 9, note = A#2, key = 46, velocity = 70, tick = 9936]
NOTE OFF [channel = 9, note = C2, key = 36, velocity = 64, tick = 9984]
NOTE OFF [channel = 9, note = G#2, key = 44, velocity = 64, tick = 9984]
NOTE ON [channel = 9, note = G#2, key = 44, velocity = 100, tick = 9984]
NOTE ON [channel = 9, note = C2, key = 36, velocity = 100, tick = 9984]
NOTE OFF [channel = 9, note = A#2, key = 46, velocity = 64, tick = 10032]
NOTE ON [channel = 9, note = A#2, key = 46, velocity = 70, tick = 10032]
NOTE OFF [channel = 9, note = C2, key = 36, velocity = 64, tick = 10080]
NOTE OFF [channel = 9, note = G#2, key = 44, velocity = 64, tick = 10080]
NOTE ON [channel = 9, note = G#2, key = 44, velocity = 100, tick = 10080]
NOTE ON [channel = 9, note = C2, key = 36, velocity = 100, tick = 10080]
NOTE OFF [channel = 9, note = A#2, key = 46, velocity = 64, tick = 10128]
NOTE ON [channel = 9, note = A#2, key = 46, velocity = 70, tick = 10128]
NOTE OFF [channel = 9, note = G#2, key = 44, velocity = 64, tick = 10176]
NOTE ON [channel = 9, note = G#2, key = 44, velocity = 100, tick = 10176]
NOTE OFF [channel = 9, note = A#2, key = 46, velocity = 64, tick = 10224]
NOTE ON [channel = 9, note = A#2, key = 46, velocity = 70, tick = 10224]
NOTE OFF [channel = 9, note = G#2, key = 44, velocity = 64, tick = 10272]
NOTE ON [channel = 9, note = G#2, key = 44, velocity = 100, tick = 10272]
NOTE OFF [channel = 9, note = A#2, key = 46, velocity = 64, tick = 10320]
NOTE ON [channel = 9, note = A#2, key = 46, velocity = 70, tick = 10320]
NOTE OFF [channel = 9, note = G#2, key = 44, velocity = 64, tick = 10368]
NOTE ON [channel = 9, note = G#2, key = 44, velocity = 100, tick = 10368]
NOTE OFF [channel = 9, note = A#2, key = 46, velocity = 64, tick = 10416]
NOTE ON [channel = 9, note = A#2, key = 46, velocity = 70, tick = 10416]
NOTE OFF [channel = 9, note = G#2, key = 44, velocity = 64, tick = 10464]
NOTE ON [channel = 9, note = G#2, key = 44, velocity = 100, tick = 10464]
NOTE OFF [channel = 9, note = A#2, key = 46, velocity = 64, tick = 10512]
NOTE ON [channel = 9, note = A#2, key = 46, velocity = 70, tick = 10512]
NOTE OFF [channel = 9, note = C#3, key = 49, velocity = 64, tick = 10560]
NOTE OFF [channel = 9, note = C2, key = 36, velocity = 64, tick = 10560]
NOTE OFF [channel = 9, note = G#2, key = 44, velocity = 64, tick = 10560]
NOTE ON [channel = 9, note = D2, key = 38, velocity = 100, tick = 10560]
NOTE ON [channel = 9, note = C#3, key = 49, velocity = 100, tick = 10560]
NOTE ON [channel = 9, note = C2, key = 36, velocity = 100, tick = 10560]
NOTE ON [channel = 9, note = G#2, key = 44, velocity = 100, tick = 10560]
NOTE OFF [channel = 9, note = A#2, key = 46, velocity = 64, tick = 10608]
NOTE ON [channel = 9, note = A#2, key = 46, velocity = 70, tick = 10608]
NOTE OFF [channel = 9, note = D2, key = 38, velocity = 64, tick = 10656]
NOTE OFF [channel = 9, note = G#2, key = 44, velocity = 64, tick = 10656]
NOTE OFF [channel = 9, note = C2, key = 36, velocity = 64, tick = 10656]
NOTE OFF [channel = 9, note = D#2, key = 39, velocity = 64, tick = 10656]
NOTE ON [channel = 9, note = D2, key = 38, velocity = 100, tick = 10656]
NOTE ON [channel = 9, note = D#2, key = 39, velocity = 100, tick = 10656]
NOTE ON [channel = 9, note = G#2, key = 44, velocity = 100, tick = 10656]
NOTE ON [channel = 9, note = C2, key = 36, velocity = 100, tick = 10656]
NOTE OFF [channel = 9, note = A#2, key = 46, velocity = 64, tick = 10704]
NOTE ON [channel = 9, note = A#2, key = 46, velocity = 70, tick = 10704]
NOTE OFF [channel = 9, note = C2, key = 36, velocity = 64, tick = 10752]
NOTE OFF [channel = 9, note = G#2, key = 44, velocity = 64, tick = 10752]
NOTE OFF [channel = 9, note = D2, key = 38, velocity = 64, tick = 10752]
NOTE ON [channel = 9, note = D2, key = 38, velocity = 100, tick = 10752]
NOTE ON [channel = 9, note = G#2, key = 44, velocity = 100, tick = 10752]
NOTE ON [channel = 9, note = C2, key = 36, velocity = 100, tick = 10752]
NOTE OFF [channel = 9, note = A#2, key = 46, velocity = 64, tick = 10800]
NOTE ON [channel = 9, note = A#2, key = 46, velocity = 70, tick = 10800]
NOTE OFF [channel = 9, note = C2, key = 36, velocity = 64, tick = 10848]
NOTE OFF [channel = 9, note = G#2, key = 44, velocity = 64, tick = 10848]
NOTE OFF [channel = 9, note = D#2, key = 39, velocity = 64, tick = 10848]
NOTE OFF [channel = 9, note = D2, key = 38, velocity = 64, tick = 10848]
NOTE ON [channel = 9, note = D2, key = 38, velocity = 100, tick = 10848]
NOTE ON [channel = 9, note = C2, key = 36, velocity = 100, tick = 10848]
NOTE ON [channel = 9, note = G#2, key = 44, velocity = 100, tick = 10848]
NOTE ON [channel = 9, note = D#2, key = 39, velocity = 100, tick = 10848]
NOTE OFF [channel = 9, note = A#2, key = 46, velocity = 64, tick = 10896]
NOTE ON [channel = 9, note = A#2, key = 46, velocity = 70, tick = 10896]
NOTE OFF [channel = 9, note = G#2, key = 44, velocity = 64, tick = 10944]
NOTE OFF [channel = 9, note = C2, key = 36, velocity = 64, tick = 10944]
NOTE OFF [channel = 9, note = D2, key = 38, velocity = 64, tick = 10944]
NOTE ON [channel = 9, note = D2, key = 38, velocity = 100, tick = 10944]
NOTE ON [channel = 9, note = G#2, key = 44, velocity = 100, tick = 10944]
NOTE ON [channel = 9, note = C2, key = 36, velocity = 100, tick = 10944]
NOTE OFF [channel = 9, note = A#2, key = 46, velocity = 64, tick = 10992]
NOTE ON [channel = 9, note = A#2, key = 46, velocity = 70, tick = 10992]
NOTE OFF [channel = 9, note = D#2, key = 39, velocity = 64, tick = 11040]
NOTE OFF [channel = 9, note = C2, key = 36, velocity = 64, tick = 11040]
NOTE OFF [channel = 9, note = G#2, key = 44, velocity = 64, tick = 11040]
NOTE OFF [channel = 9, note = D2, key = 38, velocity = 64, tick = 11040]
NOTE ON [channel = 9, note = D2, key = 38, velocity = 100, tick = 11040]
NOTE ON [channel = 9, note = C2, key = 36, velocity = 100, tick = 11040]
NOTE ON [channel = 9, note = G#2, key = 44, velocity = 100, tick = 11040]
NOTE ON [channel = 9, note = D#2, key = 39, velocity = 100, tick = 11040]
NOTE OFF [channel = 9, note = A#2, key = 46, velocity = 64, tick = 11088]
NOTE ON [channel = 9, note = A#2, key = 46, velocity = 70, tick = 11088]
NOTE OFF [channel = 9, note = G#2, key = 44, velocity = 64, tick = 11136]
NOTE OFF [channel = 9, note = C2, key = 36, velocity = 64, tick = 11136]
NOTE OFF [channel = 9, note = D2, key = 38, velocity = 64, tick = 11136]
NOTE ON [channel = 9, note = D2, key = 38, velocity = 100, tick = 11136]
NOTE ON [channel = 9, note = C2, key = 36, velocity = 100, tick = 11136]
NOTE ON [channel = 9, note = G#2, key = 44, velocity = 100, tick = 11136]
NOTE OFF [channel = 9, note = A#2, key = 46, velocity = 64, tick = 11184]
NOTE ON [channel = 9, note = A#2, key = 46, velocity = 70, tick = 11184]
NOTE OFF [channel = 9, note = D#2, key = 39, velocity = 64, tick = 11232]
NOTE OFF [channel = 9, note = G#2, key = 44, velocity = 64, tick = 11232]
NOTE OFF [channel = 9, note = C2, key = 36, velocity = 64, tick = 11232]
NOTE OFF [channel = 9, note = D2, key = 38, velocity = 64, tick = 11232]
NOTE ON [channel = 9, note = D2, key = 38, velocity = 100, tick = 11232]
NOTE ON [channel = 9, note = G#2, key = 44, velocity = 100, tick = 11232]
NOTE ON [channel = 9, note = C2, key = 36, velocity = 100, tick = 11232]
NOTE ON [channel = 9, note = D#2, key = 39, velocity = 100, tick = 11232]
NOTE OFF [channel = 9, note = A#2, key = 46, velocity = 64, tick = 11280]
NOTE ON [channel = 9, note = A#2, key = 46, velocity = 70, tick = 11280]
NOTE OFF [channel = 9, note = C2, key = 36, velocity = 64, tick = 11328]
NOTE OFF [channel = 9, note = G#2, key = 44, velocity = 64, tick = 11328]
NOTE OFF [channel = 9, note = D2, key = 38, velocity = 64, tick = 11328]
NOTE ON [channel = 9, note = D2, key = 38, velocity = 100, tick = 11328]
NOTE ON [channel = 9, note = C2, key = 36, velocity = 100, tick = 11328]
NOTE ON [channel = 9, note = G#2, key = 44, velocity = 100, tick = 11328]
NOTE OFF [channel = 9, note = D2, key = 38, velocity = 64, tick = 11376]
NOTE OFF [channel = 9, note = A#2, key = 46, velocity = 64, tick = 11376]
NOTE ON [channel = 9, note = D2, key = 38, velocity = 100, tick = 11376]
NOTE ON [channel = 9, note = A#2, key = 46, velocity = 70, tick = 11376]
NOTE OFF [channel = 9, note = D#2, key = 39, velocity = 64, tick = 11424]
NOTE OFF [channel = 9, note = D2, key = 38, velocity = 64, tick = 11424]
NOTE OFF [channel = 9, note = G#2, key = 44, velocity = 64, tick = 11424]
NOTE OFF [channel = 9, note = C2, key = 36, velocity = 64, tick = 11424]
NOTE ON [channel = 9, note = D2, key = 38, velocity = 100, tick = 11424]
NOTE ON [channel = 9, note = G#2, key = 44, velocity = 100, tick = 11424]
NOTE ON [channel = 9, note = C2, key = 36, velocity = 100, tick = 11424]
NOTE ON [channel = 9, note = D#2, key = 39, velocity = 100, tick = 11424]
NOTE OFF [channel = 9, note = A#2, key = 46, velocity = 64, tick = 11472]
NOTE OFF [channel = 9, note = D2, key = 38, velocity = 64, tick = 11472]
NOTE ON [channel = 9, note = D2, key = 38, velocity = 100, tick = 11472]
NOTE ON [channel = 9, note = A#2, key = 46, velocity = 70, tick = 11472]
NOTE OFF [channel = 9, note = C2, key = 36, velocity = 64, tick = 11520]
NOTE OFF [channel = 9, note = G#2, key = 44, velocity = 64, tick = 11520]
NOTE OFF [channel = 9, note = D2, key = 38, velocity = 64, tick = 11520]
NOTE ON [channel = 9, note = D2, key = 38, velocity = 100, tick = 11520]
NOTE ON [channel = 9, note = C2, key = 36, velocity = 100, tick = 11520]
NOTE ON [channel = 9, note = G#2, key = 44, velocity = 100, tick = 11520]
NOTE OFF [channel = 9, note = A#2, key = 46, velocity = 64, tick = 11568]
NOTE OFF [channel = 9, note = D2, key = 38, velocity = 64, tick = 11568]
NOTE ON [channel = 9, note = D2, key = 38, velocity = 100, tick = 11568]
NOTE ON [channel = 9, note = A#2, key = 46, velocity = 70, tick = 11568]
NOTE OFF [channel = 9, note = D#2, key = 39, velocity = 64, tick = 11616]
NOTE OFF [channel = 9, note = C2, key = 36, velocity = 64, tick = 11616]
NOTE OFF [channel = 9, note = G#2, key = 44, velocity = 64, tick = 11616]
NOTE OFF [channel = 9, note = D2, key = 38, velocity = 64, tick = 11616]
NOTE ON [channel = 9, note = D2, key = 38, velocity = 100, tick = 11616]
NOTE ON [channel = 9, note = G#2, key = 44, velocity = 100, tick = 11616]
NOTE ON [channel = 9, note = C2, key = 36, velocity = 100, tick = 11616]
NOTE ON [channel = 9, note = D#2, key = 39, velocity = 100, tick = 11616]
NOTE OFF [channel = 9, note = A#2, key = 46, velocity = 64, tick = 11664]
NOTE OFF [channel = 9, note = D2, key = 38, velocity = 64, tick = 11664]
NOTE ON [channel = 9, note = D2, key = 38, velocity = 100, tick = 11664]
NOTE ON [channel = 9, note = A#2, key = 46, velocity = 70, tick = 11664]
NOTE OFF [channel = 9, note = D2, key = 38, velocity = 64, tick = 11712]
NOTE OFF [channel = 9, note = G#2, key = 44, velocity = 64, tick = 11712]
NOTE ON [channel = 9, note = G#2, key = 44, velocity = 100, tick = 11712]
NOTE ON [channel = 9, note = D2, key = 38, velocity = 100, tick = 11712]
NOTE OFF [channel = 9, note = D2, key = 38, velocity = 64, tick = 11736]
NOTE ON [channel = 9, note = D2, key = 38, velocity = 100, tick = 11736]
NOTE OFF [channel = 9, note = A#2, key = 46, velocity = 64, tick = 11760]
NOTE OFF [channel = 9, note = D2, key = 38, velocity = 64, tick = 11760]
NOTE ON [channel = 9, note = A#2, key = 46, velocity = 70, tick = 11760]
NOTE ON [channel = 9, note = D2, key = 38, velocity = 100, tick = 11760]
NOTE OFF [channel = 9, note = D2, key = 38, velocity = 64, tick = 11784]
NOTE ON [channel = 9, note = D2, key = 38, velocity = 100, tick = 11784]
NOTE OFF [channel = 9, note = D#2, key = 39, velocity = 64, tick = 11808]
NOTE OFF [channel = 9, note = D2, key = 38, velocity = 64, tick = 11808]
NOTE OFF [channel = 9, note = G#2, key = 44, velocity = 64, tick = 11808]
NOTE ON [channel = 9, note = D2, key = 38, velocity = 100, tick = 11808]
NOTE ON [channel = 9, note = G#2, key = 44, velocity = 100, tick = 11808]
NOTE ON [channel = 9, note = D#2, key = 39, velocity = 100, tick = 11808]
NOTE OFF [channel = 9, note = D2, key = 38, velocity = 64, tick = 11832]
NOTE ON [channel = 9, note = D2, key = 38, velocity = 100, tick = 11832]
NOTE OFF [channel = 9, note = A#2, key = 46, velocity = 64, tick = 11856]
NOTE OFF [channel = 9, note = D2, key = 38, velocity = 64, tick = 11856]
NOTE ON [channel = 9, note = A#2, key = 46, velocity = 70, tick = 11856]
NOTE ON [channel = 9, note = D2, key = 38, velocity = 100, tick = 11856]
NOTE OFF [channel = 9, note = D2, key = 38, velocity = 64, tick = 11880]
NOTE ON [channel = 9, note = D2, key = 38, velocity = 100, tick = 11880]
NOTE OFF [channel = 9, note = G#2, key = 44, velocity = 64, tick = 11904]
NOTE OFF [channel = 9, note = D2, key = 38, velocity = 64, tick = 11904]
NOTE ON [channel = 9, note = B2, key = 47, velocity = 100, tick = 11904]
NOTE ON [channel = 9, note = G#2, key = 44, velocity = 100, tick = 11904]
NOTE OFF [channel = 9, note = B2, key = 47, velocity = 64, tick = 11928]
NOTE ON [channel = 9, note = B2, key = 47, velocity = 100, tick = 11928]
NOTE OFF [channel = 9, note = B2, key = 47, velocity = 64, tick = 11952]
NOTE OFF [channel = 9, note = A#2, key = 46, velocity = 64, tick = 11952]
NOTE ON [channel = 9, note = B2, key = 47, velocity = 100, tick = 11952]
NOTE ON [channel = 9, note = A#2, key = 46, velocity = 70, tick = 11952]
NOTE OFF [channel = 9, note = B2, key = 47, velocity = 64, tick = 11976]
NOTE ON [channel = 9, note = A2, key = 45, velocity = 100, tick = 11976]
NOTE OFF [channel = 9, note = D#2, key = 39, velocity = 64, tick = 12000]
NOTE OFF [channel = 9, note = G#2, key = 44, velocity = 64, tick = 12000]
NOTE OFF [channel = 9, note = A2, key = 45, velocity = 64, tick = 12000]
NOTE ON [channel = 9, note = G2, key = 43, velocity = 100, tick = 12000]
NOTE ON [channel = 9, note = G#2, key = 44, velocity = 100, tick = 12000]
NOTE ON [channel = 9, note = D#2, key = 39, velocity = 100, tick = 12000]
NOTE OFF [channel = 9, note = A#2, key = 46, velocity = 64, tick = 12048]
NOTE OFF [channel = 9, note = G2, key = 43, velocity = 64, tick = 12048]
NOTE ON [channel = 9, note = D2, key = 38, velocity = 100, tick = 12048]
NOTE ON [channel = 9, note = A#2, key = 46, velocity = 70, tick = 12048]
NOTE OFF [channel = 9, note = G#2, key = 44, velocity = 64, tick = 12096]
NOTE OFF [channel = 9, note = C2, key = 36, velocity = 64, tick = 12096]
NOTE OFF [channel = 9, note = C#3, key = 49, velocity = 64, tick = 12096]
NOTE OFF [channel = 9, note = D2, key = 38, velocity = 64, tick = 12096]
NOTE ON [channel = 9, note = G#2, key = 44, velocity = 100, tick = 12096]
NOTE ON [channel = 9, note = C2, key = 36, velocity = 100, tick = 12096]
NOTE ON [channel = 9, note = C#3, key = 49, velocity = 100, tick = 12096]
NOTE OFF [channel = 9, note = A#2, key = 46, velocity = 64, tick = 12144]
NOTE ON [channel = 9, note = A#2, key = 46, velocity = 70, tick = 12144]
NOTE OFF [channel = 9, note = C2, key = 36, velocity = 64, tick = 12192]
NOTE OFF [channel = 9, note = G#2, key = 44, velocity = 64, tick = 12192]
NOTE ON [channel = 9, note = G#2, key = 44, velocity = 100, tick = 12192]
NOTE ON [channel = 9, note = C2, key = 36, velocity = 100, tick = 12192]
NOTE OFF [channel = 9, note = A#2, key = 46, velocity = 64, tick = 12240]
NOTE ON [channel = 9, note = A#2, key = 46, velocity = 70, tick = 12240]
NOTE OFF [channel = 9, note = C2, key = 36, velocity = 64, tick = 12288]
NOTE OFF [channel = 9, note = G#2, key = 44, velocity = 64, tick = 12288]
NOTE ON [channel = 9, note = G#2, key = 44, velocity = 100, tick = 12288]
NOTE ON [channel = 9, note = C2, key = 36, velocity = 100, tick = 12288]
NOTE OFF [channel = 9, note = A#2, key = 46, velocity = 64, tick = 12336]
NOTE ON [channel = 9, note = A#2, key = 46, velocity = 70, tick = 12336]
NOTE OFF [channel = 9, note = C2, key = 36, velocity = 64, tick = 12384]
NOTE OFF [channel = 9, note = G#2, key = 44, velocity = 64, tick = 12384]
NOTE ON [channel = 9, note = C2, key = 36, velocity = 100, tick = 12384]
NOTE ON [channel = 9, note = G#2, key = 44, velocity = 100, tick = 12384]
NOTE OFF [channel = 9, note = A#2, key = 46, velocity = 64, tick = 12432]
NOTE ON [channel = 9, note = A#2, key = 46, velocity = 70, tick = 12432]
NOTE OFF [channel = 9, note = G#2, key = 44, velocity = 64, tick = 12480]
NOTE OFF [channel = 9, note = C2, key = 36, velocity = 64, tick = 12480]
NOTE ON [channel = 9, note = G#2, key = 44, velocity = 100, tick = 12480]
NOTE ON [channel = 9, note = C2, key = 36, velocity = 100, tick = 12480]
NOTE OFF [channel = 9, note = A#2, key = 46, velocity = 64, tick = 12528]
NOTE ON [channel = 9, note = A#2, key = 46, velocity = 69, tick = 12528]
NOTE OFF [channel = 9, note = C2, key = 36, velocity = 64, tick = 12576]
NOTE OFF [channel = 9, note = G#2, key = 44, velocity = 64, tick = 12576]
NOTE ON [channel = 9, note = C2, key = 36, velocity = 100, tick = 12576]
NOTE ON [channel = 9, note = G#2, key = 44, velocity = 100, tick = 12576]
NOTE OFF [channel = 9, note = A#2, key = 46, velocity = 64, tick = 12624]
NOTE ON [channel = 9, note = A#2, key = 46, velocity = 69, tick = 12624]
NOTE OFF [channel = 9, note = G#2, key = 44, velocity = 64, tick = 12672]
NOTE OFF [channel = 9, note = C2, key = 36, velocity = 64, tick = 12672]
NOTE ON [channel = 9, note = G#2, key = 44, velocity = 100, tick = 12672]
NOTE ON [channel = 9, note = C2, key = 36, velocity = 100, tick = 12672]
NOTE OFF [channel = 9, note = A#2, key = 46, velocity = 64, tick = 12720]
NOTE ON [channel = 9, note = A#2, key = 46, velocity = 69, tick = 12720]
NOTE OFF [channel = 9, note = C2, key = 36, velocity = 64, tick = 12768]
NOTE OFF [channel = 9, note = G#2, key = 44, velocity = 64, tick = 12768]
NOTE ON [channel = 9, note = C2, key = 36, velocity = 100, tick = 12768]
NOTE ON [channel = 9, note = G#2, key = 44, velocity = 100, tick = 12768]
NOTE OFF [channel = 9, note = A#2, key = 46, velocity = 64, tick = 12816]
NOTE ON [channel = 9, note = A#2, key = 46, velocity = 69, tick = 12816]
NOTE OFF [channel = 9, note = G#2, key = 44, velocity = 64, tick = 12864]
NOTE OFF [channel = 9, note = C2, key = 36, velocity = 64, tick = 12864]
NOTE ON [channel = 9, note = G#2, key = 44, velocity = 100, tick = 12864]
NOTE ON [channel = 9, note = C2, key = 36, velocity = 100, tick = 12864]
NOTE OFF [channel = 9, note = A#2, key = 46, velocity = 64, tick = 12912]
NOTE ON [channel = 9, note = A#2, key = 46, velocity = 69, tick = 12912]
NOTE OFF [channel = 9, note = C2, key = 36, velocity = 64, tick = 12960]
NOTE OFF [channel = 9, note = G#2, key = 44, velocity = 64, tick = 12960]
NOTE ON [channel = 9, note = G#2, key = 44, velocity = 100, tick = 12960]
NOTE ON [channel = 9, note = C2, key = 36, velocity = 100, tick = 12960]
NOTE OFF [channel = 9, note = A#2, key = 46, velocity = 64, tick = 13008]
NOTE ON [channel = 9, note = A#2, key = 46, velocity = 69, tick = 13008]
NOTE OFF [channel = 9, note = C2, key = 36, velocity = 64, tick = 13056]
NOTE OFF [channel = 9, note = G#2, key = 44, velocity = 64, tick = 13056]
NOTE ON [channel = 9, note = G#2, key = 44, velocity = 100, tick = 13056]
NOTE ON [channel = 9, note = C2, key = 36, velocity = 100, tick = 13056]
NOTE OFF [channel = 9, note = A#2, key = 46, velocity = 64, tick = 13104]
NOTE ON [channel = 9, note = A#2, key = 46, velocity = 69, tick = 13104]
NOTE OFF [channel = 9, note = C2, key = 36, velocity = 64, tick = 13152]
NOTE OFF [channel = 9, note = G#2, key = 44, velocity = 64, tick = 13152]
NOTE ON [channel = 9, note = G#2, key = 44, velocity = 100, tick = 13152]
NOTE ON [channel = 9, note = C2, key = 36, velocity = 100, tick = 13152]
NOTE OFF [channel = 9, note = A#2, key = 46, velocity = 64, tick = 13200]
NOTE ON [channel = 9, note = A#2, key = 46, velocity = 69, tick = 13200]
NOTE OFF [channel = 9, note = C2, key = 36, velocity = 64, tick = 13248]
NOTE OFF [channel = 9, note = G#2, key = 44, velocity = 64, tick = 13248]
NOTE ON [channel = 9, note = C2, key = 36, velocity = 100, tick = 13248]
NOTE ON [channel = 9, note = G#2, key = 44, velocity = 100, tick = 13248]
NOTE OFF [channel = 9, note = A#2, key = 46, velocity = 64, tick = 13296]
NOTE ON [channel = 9, note = A#2, key = 46, velocity = 69, tick = 13296]
NOTE OFF [channel = 9, note = C2, key = 36, velocity = 64, tick = 13344]
NOTE OFF [channel = 9, note = G#2, key = 44, velocity = 64, tick = 13344]
NOTE ON [channel = 9, note = G#2, key = 44, velocity = 100, tick = 13344]
NOTE ON [channel = 9, note = C2, key = 36, velocity = 100, tick = 13344]
NOTE OFF [channel = 9, note = A#2, key = 46, velocity = 64, tick = 13392]
NOTE ON [channel = 9, note = A#2, key = 46, velocity = 69, tick = 13392]
NOTE OFF [channel = 9, note = C2, key = 36, velocity = 64, tick = 13440]
NOTE OFF [channel = 9, note = G#2, key = 44, velocity = 64, tick = 13440]
NOTE ON [channel = 9, note = C2, key = 36, velocity = 100, tick = 13440]
NOTE ON [channel = 9, note = G#2, key = 44, velocity = 100, tick = 13440]
NOTE OFF [channel = 9, note = A#2, key = 46, velocity = 64, tick = 13488]
NOTE ON [channel = 9, note = A#2, key = 46, velocity = 69, tick = 13488]
NOTE OFF [channel = 9, note = G#2, key = 44, velocity = 64, tick = 13536]
NOTE OFF [channel = 9, note = C2, key = 36, velocity = 64, tick = 13536]
NOTE ON [channel = 9, note = G#2, key = 44, velocity = 100, tick = 13536]
NOTE ON [channel = 9, note = C2, key = 36, velocity = 100, tick = 13536]
NOTE OFF [channel = 9, note = A#2, key = 46, velocity = 64, tick = 13584]
NOTE ON [channel = 9, note = A#2, key = 46, velocity = 69, tick = 13584]
NOTE OFF [channel = 9, note = C#3, key = 49, velocity = 64, tick = 13632]
NOTE OFF [channel = 9, note = C2, key = 36, velocity = 64, tick = 13632]
NOTE OFF [channel = 9, note = G#2, key = 44, velocity = 64, tick = 13632]
NOTE ON [channel = 9, note = C#3, key = 49, velocity = 100, tick = 13632]
NOTE ON [channel = 9, note = C2, key = 36, velocity = 100, tick = 13632]
NOTE ON [channel = 9, note = G#2, key = 44, velocity = 100, tick = 13632]
NOTE OFF [channel = 9, note = A#2, key = 46, velocity = 64, tick = 13680]
NOTE ON [channel = 9, note = A#2, key = 46, velocity = 69, tick = 13680]
NOTE OFF [channel = 9, note = D#2, key = 39, velocity = 64, tick = 13728]
NOTE OFF [channel = 9, note = G#2, key = 44, velocity = 64, tick = 13728]
NOTE OFF [channel = 9, note = C2, key = 36, velocity = 64, tick = 13728]
NOTE ON [channel = 9, note = D#2, key = 39, velocity = 100, tick = 13728]
NOTE ON [channel = 9, note = G#2, key = 44, velocity = 100, tick = 13728]
NOTE ON [channel = 9, note = C2, key = 36, velocity = 100, tick = 13728]
NOTE OFF [channel = 9, note = A#2, key = 46, velocity = 64, tick = 13776]
NOTE ON [channel = 9, note = A#2, key = 46, velocity = 69, tick = 13776]
NOTE OFF [channel = 9, note = C2, key = 36, velocity = 64, tick = 13824]
NOTE OFF [channel = 9, note = G#2, key = 44, velocity = 64, tick = 13824]
NOTE ON [channel = 9, note = C2, key = 36, velocity = 100, tick = 13824]
NOTE ON [channel = 9, note = G#2, key = 44, velocity = 100, tick = 13824]
NOTE OFF [channel = 9, note = A#2, key = 46, velocity = 64, tick = 13872]
NOTE ON [channel = 9, note = A#2, key = 46, velocity = 69, tick = 13872]
NOTE OFF [channel = 9, note = G#2, key = 44, velocity = 64, tick = 13920]
NOTE OFF [channel = 9, note = C2, key = 36, velocity = 64, tick = 13920]
NOTE OFF [channel = 9, note = D#2, key = 39, velocity = 64, tick = 13920]
NOTE ON [channel = 9, note = C2, key = 36, velocity = 100, tick = 13920]
NOTE ON [channel = 9, note = G#2, key = 44, velocity = 100, tick = 13920]
NOTE ON [channel = 9, note = D#2, key = 39, velocity = 100, tick = 13920]
NOTE OFF [channel = 9, note = A#2, key = 46, velocity = 64, tick = 13968]
NOTE ON [channel = 9, note = A#2, key = 46, velocity = 69, tick = 13968]
NOTE OFF [channel = 9, note = C2, key = 36, velocity = 64, tick = 14016]
NOTE OFF [channel = 9, note = G#2, key = 44, velocity = 64, tick = 14016]
NOTE ON [channel = 9, note = C2, key = 36, velocity = 100, tick = 14016]
NOTE ON [channel = 9, note = G#2, key = 44, velocity = 100, tick = 14016]
NOTE OFF [channel = 9, note = A#2, key = 46, velocity = 64, tick = 14064]
NOTE ON [channel = 9, note = A#2, key = 46, velocity = 69, tick = 14064]
NOTE OFF [channel = 9, note = D#2, key = 39, velocity = 64, tick = 14112]
NOTE OFF [channel = 9, note = C2, key = 36, velocity = 64, tick = 14112]
NOTE OFF [channel = 9, note = G#2, key = 44, velocity = 64, tick = 14112]
NOTE ON [channel = 9, note = D#2, key = 39, velocity = 100, tick = 14112]
NOTE ON [channel = 9, note = G#2, key = 44, velocity = 100, tick = 14112]
NOTE ON [channel = 9, note = C2, key = 36, velocity = 100, tick = 14112]
NOTE OFF [channel = 9, note = A#2, key = 46, velocity = 64, tick = 14160]
NOTE ON [channel = 9, note = A#2, key = 46, velocity = 69, tick = 14160]
NOTE OFF [channel = 9, note = C2, key = 36, velocity = 64, tick = 14208]
NOTE OFF [channel = 9, note = G#2, key = 44, velocity = 64, tick = 14208]
NOTE ON [channel = 9, note = C2, key = 36, velocity = 100, tick = 14208]
NOTE ON [channel = 9, note = G#2, key = 44, velocity = 100, tick = 14208]
NOTE OFF [channel = 9, note = A#2, key = 46, velocity = 64, tick = 14256]
NOTE ON [channel = 9, note = A#2, key = 46, velocity = 70, tick = 14256]
NOTE OFF [channel = 9, note = G#2, key = 44, velocity = 64, tick = 14304]
NOTE OFF [channel = 9, note = C2, key = 36, velocity = 64, tick = 14304]
NOTE OFF [channel = 9, note = D#2, key = 39, velocity = 64, tick = 14304]
NOTE ON [channel = 9, note = G#2, key = 44, velocity = 100, tick = 14304]
NOTE ON [channel = 9, note = C2, key = 36, velocity = 100, tick = 14304]
NOTE ON [channel = 9, note = D#2, key = 39, velocity = 100, tick = 14304]
NOTE OFF [channel = 9, note = A#2, key = 46, velocity = 64, tick = 14352]
NOTE ON [channel = 9, note = A#2, key = 46, velocity = 70, tick = 14352]
NOTE OFF [channel = 9, note = C2, key = 36, velocity = 64, tick = 14400]
NOTE OFF [channel = 9, note = G#2, key = 44, velocity = 64, tick = 14400]
NOTE ON [channel = 9, note = G#2, key = 44, velocity = 100, tick = 14400]
NOTE ON [channel = 9, note = C2, key = 36, velocity = 100, tick = 14400]
NOTE OFF [channel = 9, note = A#2, key = 46, velocity = 64, tick = 14448]
NOTE ON [channel = 9, note = A#2, key = 46, velocity = 69, tick = 14448]
NOTE OFF [channel = 9, note = D#2, key = 39, velocity = 64, tick = 14496]
NOTE OFF [channel = 9, note = C2, key = 36, velocity = 64, tick = 14496]
NOTE OFF [channel = 9, note = G#2, key = 44, velocity = 64, tick = 14496]
NOTE ON [channel = 9, note = D#2, key = 39, velocity = 100, tick = 14496]
NOTE ON [channel = 9, note = C2, key = 36, velocity = 100, tick = 14496]
NOTE ON [channel = 9, note = G#2, key = 44, velocity = 100, tick = 14496]
NOTE OFF [channel = 9, note = A#2, key = 46, velocity = 64, tick = 14544]
NOTE ON [channel = 9, note = A#2, key = 46, velocity = 69, tick = 14544]
NOTE OFF [channel = 9, note = G#2, key = 44, velocity = 64, tick = 14592]
NOTE OFF [channel = 9, note = C2, key = 36, velocity = 64, tick = 14592]
NOTE ON [channel = 9, note = G#2, key = 44, velocity = 100, tick = 14592]
NOTE ON [channel = 9, note = C2, key = 36, velocity = 100, tick = 14592]
NOTE OFF [channel = 9, note = A#2, key = 46, velocity = 64, tick = 14640]
NOTE ON [channel = 9, note = A#2, key = 46, velocity = 69, tick = 14640]
NOTE OFF [channel = 9, note = C2, key = 36, velocity = 64, tick = 14688]
NOTE OFF [channel = 9, note = G#2, key = 44, velocity = 64, tick = 14688]
NOTE OFF [channel = 9, note = D#2, key = 39, velocity = 64, tick = 14688]
NOTE ON [channel = 9, note = G#2, key = 44, velocity = 100, tick = 14688]
NOTE ON [channel = 9, note = C2, key = 36, velocity = 100, tick = 14688]
NOTE ON [channel = 9, note = D#2, key = 39, velocity = 100, tick = 14688]
NOTE OFF [channel = 9, note = A#2, key = 46, velocity = 64, tick = 14736]
NOTE ON [channel = 9, note = A#2, key = 46, velocity = 69, tick = 14736]
NOTE OFF [channel = 9, note = G#2, key = 44, velocity = 64, tick = 14784]
NOTE ON [channel = 9, note = G#2, key = 44, velocity = 100, tick = 14784]
NOTE OFF [channel = 9, note = A#2, key = 46, velocity = 64, tick = 14832]
NOTE ON [channel = 9, note = A#2, key = 46, velocity = 69, tick = 14832]
NOTE OFF [channel = 9, note = D#2, key = 39, velocity = 64, tick = 14880]
NOTE OFF [channel = 9, note = G#2, key = 44, velocity = 64, tick = 14880]
NOTE ON [channel = 9, note = D#2, key = 39, velocity = 100, tick = 14880]
NOTE ON [channel = 9, note = G#2, key = 44, velocity = 100, tick = 14880]
NOTE OFF [channel = 9, note = A#2, key = 46, velocity = 64, tick = 14928]
NOTE ON [channel = 9, note = A#2, key = 46, velocity = 69, tick = 14928]
NOTE OFF [channel = 9, note = G#2, key = 44, velocity = 64, tick = 14976]
NOTE ON [channel = 9, note = G#2, key = 44, velocity = 100, tick = 14976]
NOTE OFF [channel = 9, note = A#2, key = 46, velocity = 64, tick = 15024]
NOTE ON [channel = 9, note = A#2, key = 46, velocity = 69, tick = 15024]
NOTE OFF [channel = 9, note = G#2, key = 44, velocity = 64, tick = 15072]
NOTE OFF [channel = 9, note = D#2, key = 39, velocity = 64, tick = 15072]
NOTE ON [channel = 9, note = G#2, key = 44, velocity = 100, tick = 15072]
NOTE ON [channel = 9, note = D#2, key = 39, velocity = 100, tick = 15072]
NOTE OFF [channel = 9, note = A#2, key = 46, velocity = 64, tick = 15120]
NOTE ON [channel = 9, note = A#2, key = 46, velocity = 69, tick = 15120]
NOTE OFF [channel = 9, note = C2, key = 36, velocity = 64, tick = 15168]
NOTE OFF [channel = 9, note = G#2, key = 44, velocity = 64, tick = 15168]
NOTE OFF [channel = 9, note = C#3, key = 49, velocity = 64, tick = 15168]
NOTE ON [channel = 9, note = G#2, key = 44, velocity = 100, tick = 15168]
NOTE ON [channel = 9, note = C2, key = 36, velocity = 100, tick = 15168]
NOTE ON [channel = 9, note = C#3, key = 49, velocity = 100, tick = 15168]
NOTE OFF [channel = 9, note = A#2, key = 46, velocity = 64, tick = 15216]
NOTE ON [channel = 9, note = A#2, key = 46, velocity = 69, tick = 15216]
NOTE OFF [channel = 9, note = C2, key = 36, velocity = 64, tick = 15264]
NOTE OFF [channel = 9, note = G#2, key = 44, velocity = 64, tick = 15264]
NOTE ON [channel = 9, note = G#2, key = 44, velocity = 100, tick = 15264]
NOTE ON [channel = 9, note = C2, key = 36, velocity = 100, tick = 15264]
NOTE OFF [channel = 9, note = A#2, key = 46, velocity = 64, tick = 15312]
NOTE ON [channel = 9, note = A#2, key = 46, velocity = 69, tick = 15312]
NOTE OFF [channel = 9, note = C2, key = 36, velocity = 64, tick = 15360]
NOTE OFF [channel = 9, note = G#2, key = 44, velocity = 64, tick = 15360]
NOTE ON [channel = 9, note = G#2, key = 44, velocity = 100, tick = 15360]
NOTE ON [channel = 9, note = C2, key = 36, velocity = 100, tick = 15360]
NOTE OFF [channel = 9, note = A#2, key = 46, velocity = 64, tick = 15408]
NOTE ON [channel = 9, note = A#2, key = 46, velocity = 69, tick = 15408]
NOTE OFF [channel = 9, note = C2, key = 36, velocity = 64, tick = 15456]
NOTE OFF [channel = 9, note = G#2, key = 44, velocity = 64, tick = 15456]
NOTE ON [channel = 9, note = C2, key = 36, velocity = 100, tick = 15456]
NOTE ON [channel = 9, note = G#2, key = 44, velocity = 100, tick = 15456]
NOTE OFF [channel = 9, note = A#2, key = 46, velocity = 64, tick = 15504]
NOTE ON [channel = 9, note = A#2, key = 46, velocity = 69, tick = 15504]
NOTE OFF [channel = 9, note = G#2, key = 44, velocity = 64, tick = 15552]
NOTE OFF [channel = 9, note = C2, key = 36, velocity = 64, tick = 15552]
NOTE ON [channel = 9, note = C2, key = 36, velocity = 100, tick = 15552]
NOTE ON [channel = 9, note = G#2, key = 44, velocity = 100, tick = 15552]
NOTE OFF [channel = 9, note = A#2, key = 46, velocity = 64, tick = 15600]
NOTE ON [channel = 9, note = A#2, key = 46, velocity = 69, tick = 15600]
NOTE OFF [channel = 9, note = G#2, key = 44, velocity = 64, tick = 15648]
NOTE OFF [channel = 9, note = C2, key = 36, velocity = 64, tick = 15648]
NOTE ON [channel = 9, note = C2, key = 36, velocity = 100, tick = 15648]
NOTE ON [channel = 9, note = G#2, key = 44, velocity = 100, tick = 15648]
NOTE OFF [channel = 9, note = A#2, key = 46, velocity = 64, tick = 15696]
NOTE ON [channel = 9, note = A#2, key = 46, velocity = 69, tick = 15696]
NOTE OFF [channel = 9, note = G#2, key = 44, velocity = 64, tick = 15744]
NOTE OFF [channel = 9, note = C2, key = 36, velocity = 64, tick = 15744]
NOTE ON [channel = 9, note = G#2, key = 44, velocity = 100, tick = 15744]
NOTE ON [channel = 9, note = C2, key = 36, velocity = 100, tick = 15744]
NOTE OFF [channel = 9, note = A#2, key = 46, velocity = 64, tick = 15792]
NOTE ON [channel = 9, note = A#2, key = 46, velocity = 69, tick = 15792]
NOTE OFF [channel = 9, note = C2, key = 36, velocity = 64, tick = 15840]
NOTE OFF [channel = 9, note = G#2, key = 44, velocity = 64, tick = 15840]
NOTE ON [channel = 9, note = G#2, key = 44, velocity = 100, tick = 15840]
NOTE ON [channel = 9, note = C2, key = 36, velocity = 100, tick = 15840]
NOTE OFF [channel = 9, note = A#2, key = 46, velocity = 64, tick = 15888]
NOTE ON [channel = 9, note = A#2, key = 46, velocity = 69, tick = 15888]
NOTE OFF [channel = 9, note = C2, key = 36, velocity = 64, tick = 15936]
NOTE OFF [channel = 9, note = G#2, key = 44, velocity = 64, tick = 15936]
NOTE ON [channel = 9, note = C2, key = 36, velocity = 100, tick = 15936]
NOTE ON [channel = 9, note = G#2, key = 44, velocity = 100, tick = 15936]
NOTE OFF [channel = 9, note = A#2, key = 46, velocity = 64, tick = 15984]
NOTE ON [channel = 9, note = A#2, key = 46, velocity = 69, tick = 15984]
NOTE OFF [channel = 9, note = G#2, key = 44, velocity = 64, tick = 16032]
NOTE OFF [channel = 9, note = C2, key = 36, velocity = 64, tick = 16032]
NOTE ON [channel = 9, note = C2, key = 36, velocity = 100, tick = 16032]
NOTE ON [channel = 9, note = G#2, key = 44, velocity = 100, tick = 16032]
NOTE OFF [channel = 9, note = A#2, key = 46, velocity = 64, tick = 16080]
NOTE ON [channel = 9, note = A#2, key = 46, velocity = 69, tick = 16080]
NOTE OFF [channel = 9, note = G#2, key = 44, velocity = 64, tick = 16128]
NOTE OFF [channel = 9, note = C2, key = 36, velocity = 64, tick = 16128]
NOTE ON [channel = 9, note = G#2, key = 44, velocity = 100, tick = 16128]
NOTE ON [channel = 9, note = C2, key = 36, velocity = 100, tick = 16128]
NOTE OFF [channel = 9, note = A#2, key = 46, velocity = 64, tick = 16176]
NOTE ON [channel = 9, note = A#2, key = 46, velocity = 69, tick = 16176]
NOTE OFF [channel = 9, note = C2, key = 36, velocity = 64, tick = 16224]
NOTE OFF [channel = 9, note = G#2, key = 44, velocity = 64, tick = 16224]
NOTE ON [channel = 9, note = C2, key = 36, velocity = 100, tick = 16224]
NOTE ON [channel = 9, note = G#2, key = 44, velocity = 100, tick = 16224]
NOTE OFF [channel = 9, note = A#2, key = 46, velocity = 64, tick = 16272]
NOTE ON [channel = 9, note = A#2, key = 46, velocity = 69, tick = 16272]
NOTE OFF [channel = 9, note = G#2, key = 44, velocity = 64, tick = 16320]
NOTE OFF [channel = 9, note = C2, key = 36, velocity = 64, tick = 16320]
NOTE ON [channel = 9, note = C2, key = 36, velocity = 100, tick = 16320]
NOTE ON [channel = 9, note = G#2, key = 44, velocity = 100, tick = 16320]
NOTE OFF [channel = 9, note = A#2, key = 46, velocity = 64, tick = 16368]
NOTE ON [channel = 9, note = A#2, key = 46, velocity = 69, tick = 16368]
NOTE OFF [channel = 9, note = G#2, key = 44, velocity = 64, tick = 16416]
NOTE OFF [channel = 9, note = C2, key = 36, velocity = 64, tick = 16416]
NOTE ON [channel = 9, note = C2, key = 36, velocity = 100, tick = 16416]
NOTE ON [channel = 9, note = G#2, key = 44, velocity = 100, tick = 16416]
NOTE OFF [channel = 9, note = A#2, key = 46, velocity = 64, tick = 16464]
NOTE ON [channel = 9, note = A#2, key = 46, velocity = 69, tick = 16464]
NOTE OFF [channel = 9, note = G#2, key = 44, velocity = 64, tick = 16512]
NOTE OFF [channel = 9, note = C2, key = 36, velocity = 64, tick = 16512]
NOTE ON [channel = 9, note = C2, key = 36, velocity = 100, tick = 16512]
NOTE ON [channel = 9, note = G#2, key = 44, velocity = 100, tick = 16512]
NOTE OFF [channel = 9, note = A#2, key = 46, velocity = 64, tick = 16560]
NOTE ON [channel = 9, note = A#2, key = 46, velocity = 69, tick = 16560]
NOTE OFF [channel = 9, note = G#2, key = 44, velocity = 64, tick = 16608]
NOTE OFF [channel = 9, note = C2, key = 36, velocity = 64, tick = 16608]
NOTE ON [channel = 9, note = C2, key = 36, velocity = 100, tick = 16608]
NOTE ON [channel = 9, note = G#2, key = 44, velocity = 100, tick = 16608]
NOTE OFF [channel = 9, note = A#2, key = 46, velocity = 64, tick = 16656]
NOTE ON [channel = 9, note = A#2, key = 46, velocity = 69, tick = 16656]
NOTE OFF [channel = 9, note = C#3, key = 49, velocity = 64, tick = 16704]
NOTE OFF [channel = 9, note = G#2, key = 44, velocity = 64, tick = 16704]
NOTE OFF [channel = 9, note = C2, key = 36, velocity = 64, tick = 16704]
NOTE ON [channel = 9, note = C#3, key = 49, velocity = 100, tick = 16704]
NOTE ON [channel = 9, note = C2, key = 36, velocity = 100, tick = 16704]
NOTE ON [channel = 9, note = G#2, key = 44, velocity = 100, tick = 16704]
NOTE OFF [channel = 9, note = A#2, key = 46, velocity = 64, tick = 16752]
NOTE ON [channel = 9, note = A#2, key = 46, velocity = 69, tick = 16752]
NOTE OFF [channel = 9, note = D#2, key = 39, velocity = 64, tick = 16800]
NOTE OFF [channel = 9, note = G#2, key = 44, velocity = 64, tick = 16800]
NOTE OFF [channel = 9, note = C2, key = 36, velocity = 64, tick = 16800]
NOTE ON [channel = 9, note = D#2, key = 39, velocity = 100, tick = 16800]
NOTE ON [channel = 9, note = C2, key = 36, velocity = 100, tick = 16800]
NOTE ON [channel = 9, note = G#2, key = 44, velocity = 100, tick = 16800]
NOTE OFF [channel = 9, note = A#2, key = 46, velocity = 64, tick = 16848]
NOTE ON [channel = 9, note = A#2, key = 46, velocity = 69, tick = 16848]
NOTE OFF [channel = 9, note = G#2, key = 44, velocity = 64, tick = 16896]
NOTE OFF [channel = 9, note = C2, key = 36, velocity = 64, tick = 16896]
NOTE ON [channel = 9, note = G#2, key = 44, velocity = 100, tick = 16896]
NOTE ON [channel = 9, note = C2, key = 36, velocity = 100, tick = 16896]
NOTE OFF [channel = 9, note = A#2, key = 46, velocity = 64, tick = 16944]
NOTE ON [channel = 9, note = A#2, key = 46, velocity = 69, tick = 16944]
NOTE OFF [channel = 9, note = C2, key = 36, velocity = 64, tick = 16992]
NOTE OFF [channel = 9, note = G#2, key = 44, velocity = 64, tick = 16992]
NOTE OFF [channel = 9, note = D#2, key = 39, velocity = 64, tick = 16992]
NOTE ON [channel = 9, note = G#2, key = 44, velocity = 100, tick = 16992]
NOTE ON [channel = 9, note = C2, key = 36, velocity = 100, tick = 16992]
NOTE ON [channel = 9, note = D#2, key = 39, velocity = 100, tick = 16992]
NOTE OFF [channel = 9, note = A#2, key = 46, velocity = 64, tick = 17040]
NOTE ON [channel = 9, note = A#2, key = 46, velocity = 69, tick = 17040]
NOTE OFF [channel = 9, note = C2, key = 36, velocity = 64, tick = 17088]
NOTE OFF [channel = 9, note = G#2, key = 44, velocity = 64, tick = 17088]
NOTE ON [channel = 9, note = C2, key = 36, velocity = 100, tick = 17088]
NOTE ON [channel = 9, note = G#2, key = 44, velocity = 100, tick = 17088]
NOTE OFF [channel = 9, note = A#2, key = 46, velocity = 64, tick = 17136]
NOTE ON [channel = 9, note = A#2, key = 46, velocity = 69, tick = 17136]
NOTE OFF [channel = 9, note = D#2, key = 39, velocity = 64, tick = 17184]
NOTE OFF [channel = 9, note = G#2, key = 44, velocity = 64, tick = 17184]
NOTE OFF [channel = 9, note = C2, key = 36, velocity = 64, tick = 17184]
NOTE ON [channel = 9, note = D#2, key = 39, velocity = 100, tick = 17184]
NOTE ON [channel = 9, note = C2, key = 36, velocity = 100, tick = 17184]
NOTE ON [channel = 9, note = G#2, key = 44, velocity = 100, tick = 17184]
NOTE OFF [channel = 9, note = A#2, key = 46, velocity = 64, tick = 17232]
NOTE ON [channel = 9, note = A#2, key = 46, velocity = 69, tick = 17232]
NOTE OFF [channel = 9, note = G#2, key = 44, velocity = 64, tick = 17280]
NOTE OFF [channel = 9, note = C2, key = 36, velocity = 64, tick = 17280]
NOTE ON [channel = 9, note = C2, key = 36, velocity = 100, tick = 17280]
NOTE ON [channel = 9, note = G#2, key = 44, velocity = 100, tick = 17280]
NOTE OFF [channel = 9, note = A#2, key = 46, velocity = 64, tick = 17328]
NOTE ON [channel = 9, note = A#2, key = 46, velocity = 69, tick = 17328]
NOTE OFF [channel = 9, note = G#2, key = 44, velocity = 64, tick = 17376]
NOTE OFF [channel = 9, note = C2, key = 36, velocity = 64, tick = 17376]
NOTE OFF [channel = 9, note = D#2, key = 39, velocity = 64, tick = 17376]
NOTE ON [channel = 9, note = C2, key = 36, velocity = 100, tick = 17376]
NOTE ON [channel = 9, note = G#2, key = 44, velocity = 100, tick = 17376]
NOTE ON [channel = 9, note = D#2, key = 39, velocity = 100, tick = 17376]
NOTE OFF [channel = 9, note = A#2, key = 46, velocity = 64, tick = 17424]
NOTE ON [channel = 9, note = A#2, key = 46, velocity = 69, tick = 17424]
NOTE OFF [channel = 9, note = G#2, key = 44, velocity = 64, tick = 17472]
NOTE OFF [channel = 9, note = C2, key = 36, velocity = 64, tick = 17472]
NOTE ON [channel = 9, note = G#2, key = 44, velocity = 100, tick = 17472]
NOTE ON [channel = 9, note = C2, key = 36, velocity = 100, tick = 17472]
NOTE OFF [channel = 9, note = A#2, key = 46, velocity = 64, tick = 17520]
NOTE ON [channel = 9, note = A#2, key = 46, velocity = 69, tick = 17520]
NOTE OFF [channel = 9, note = D#2, key = 39, velocity = 64, tick = 17568]
NOTE OFF [channel = 9, note = C2, key = 36, velocity = 64, tick = 17568]
NOTE OFF [channel = 9, note = G#2, key = 44, velocity = 64, tick = 17568]
NOTE ON [channel = 9, note = C2, key = 36, velocity = 100, tick = 17568]
NOTE ON [channel = 9, note = G#2, key = 44, velocity = 100, tick = 17568]
NOTE ON [channel = 9, note = D#2, key = 39, velocity = 100, tick = 17568]
NOTE OFF [channel = 9, note = A#2, key = 46, velocity = 64, tick = 17616]
NOTE ON [channel = 9, note = A#2, key = 46, velocity = 69, tick = 17616]
NOTE OFF [channel = 9, note = G#2, key = 44, velocity = 64, tick = 17664]
NOTE OFF [channel = 9, note = C2, key = 36, velocity = 64, tick = 17664]
NOTE ON [channel = 9, note = C2, key = 36, velocity = 100, tick = 17664]
NOTE ON [channel = 9, note = G#2, key = 44, velocity = 100, tick = 17664]
NOTE OFF [channel = 9, note = A#2, key = 46, velocity = 64, tick = 17712]
NOTE ON [channel = 9, note = A#2, key = 46, velocity = 69, tick = 17712]
NOTE OFF [channel = 9, note = D#2, key = 39, velocity = 64, tick = 17760]
NOTE OFF [channel = 9, note = G#2, key = 44, velocity = 64, tick = 17760]
NOTE OFF [channel = 9, note = C2, key = 36, velocity = 64, tick = 17760]
NOTE ON [channel = 9, note = G#2, key = 44, velocity = 100, tick = 17760]
NOTE ON [channel = 9, note = C2, key = 36, velocity = 100, tick = 17760]
NOTE ON [channel = 9, note = D#2, key = 39, velocity = 100, tick = 17760]
NOTE OFF [channel = 9, note = A#2, key = 46, velocity = 64, tick = 17808]
NOTE ON [channel = 9, note = A#2, key = 46, velocity = 69, tick = 17808]
NOTE OFF [channel = 9, note = G#2, key = 44, velocity = 64, tick = 17856]
NOTE ON [channel = 9, note = D2, key = 38, velocity = 100, tick = 17856]
NOTE ON [channel = 9, note = G#2, key = 44, velocity = 100, tick = 17856]
NOTE OFF [channel = 9, note = A#2, key = 46, velocity = 64, tick = 17904]
NOTE ON [channel = 9, note = A#2, key = 46, velocity = 69, tick = 17904]
NOTE OFF [channel = 9, note = D#2, key = 39, velocity = 64, tick = 17952]
NOTE OFF [channel = 9, note = G#2, key = 44, velocity = 64, tick = 17952]
NOTE OFF [channel = 9, note = D2, key = 38, velocity = 64, tick = 17952]
NOTE ON [channel = 9, note = D2, key = 38, velocity = 100, tick = 17952]
NOTE ON [channel = 9, note = D#2, key = 39, velocity = 100, tick = 17952]
NOTE ON [channel = 9, note = G#2, key = 44, velocity = 100, tick = 17952]
NOTE OFF [channel = 9, note = A#2, key = 46, velocity = 64, tick = 18000]
NOTE ON [channel = 9, note = A#2, key = 46, velocity = 69, tick = 18000]
NOTE OFF [channel = 9, note = G#2, key = 44, velocity = 64, tick = 18048]
NOTE OFF [channel = 9, note = D2, key = 38, velocity = 64, tick = 18048]
NOTE ON [channel = 9, note = D2, key = 38, velocity = 100, tick = 18048]
NOTE ON [channel = 9, note = G#2, key = 44, velocity = 100, tick = 18048]
NOTE OFF [channel = 9, note = A#2, key = 46, velocity = 64, tick = 18096]
NOTE ON [channel = 9, note = A#2, key = 46, velocity = 69, tick = 18096]
NOTE OFF [channel = 9, note = G#2, key = 44, velocity = 64, tick = 18144]
NOTE OFF [channel = 9, note = D#2, key = 39, velocity = 64, tick = 18144]
NOTE OFF [channel = 9, note = D2, key = 38, velocity = 64, tick = 18144]
NOTE ON [channel = 9, note = D2, key = 38, velocity = 100, tick = 18144]
NOTE ON [channel = 9, note = G#2, key = 44, velocity = 100, tick = 18144]
NOTE ON [channel = 9, note = D#2, key = 39, velocity = 100, tick = 18144]
NOTE OFF [channel = 9, note = A#2, key = 46, velocity = 64, tick = 18192]
NOTE ON [channel = 9, note = A#2, key = 46, velocity = 69, tick = 18192]
NOTE OFF [channel = 9, note = G#2, key = 44, velocity = 64, tick = 18240]
NOTE OFF [channel = 9, note = C2, key = 36, velocity = 64, tick = 18240]
NOTE OFF [channel = 9, note = D2, key = 38, velocity = 64, tick = 18240]
NOTE OFF [channel = 9, note = C#3, key = 49, velocity = 64, tick = 18240]
NOTE ON [channel = 9, note = G#2, key = 44, velocity = 100, tick = 18240]
NOTE ON [channel = 9, note = C2, key = 36, velocity = 100, tick = 18240]
NOTE ON [channel = 9, note = C#3, key = 49, velocity = 100, tick = 18240]
NOTE OFF [channel = 9, note = C2, key = 36, velocity = 64, tick = 18336]
NOTE OFF [channel = 9, note = G#2, key = 44, velocity = 64, tick = 18336]
NOTE ON [channel = 9, note = G#2, key = 44, velocity = 100, tick = 18336]
NOTE ON [channel = 9, note = C2, key = 36, velocity = 100, tick = 18336]
NOTE OFF [channel = 9, note = C2, key = 36, velocity = 64, tick = 18432]
NOTE OFF [channel = 9, note = G#2, key = 44, velocity = 64, tick = 18432]
NOTE ON [channel = 9, note = G#2, key = 44, velocity = 100, tick = 18432]
NOTE ON [channel = 9, note = C2, key = 36, velocity = 100, tick = 18432]
NOTE OFF [channel = 9, note = C2, key = 36, velocity = 64, tick = 18528]
NOTE OFF [channel = 9, note = G#2, key = 44, velocity = 64, tick = 18528]
NOTE ON [channel = 9, note = G#2, key = 44, velocity = 100, tick = 18528]
NOTE ON [channel = 9, note = C2, key = 36, velocity = 100, tick = 18528]
NOTE OFF [channel = 9, note = C2, key = 36, velocity = 64, tick = 18624]
NOTE OFF [channel = 9, note = G#2, key = 44, velocity = 64, tick = 18624]
NOTE ON [channel = 9, note = G#2, key = 44, velocity = 100, tick = 18624]
NOTE ON [channel = 9, note = C2, key = 36, velocity = 100, tick = 18624]
NOTE OFF [channel = 9, note = C2, key = 36, velocity = 64, tick = 18720]
NOTE OFF [channel = 9, note = G#2, key = 44, velocity = 64, tick = 18720]
NOTE ON [channel = 9, note = C2, key = 36, velocity = 100, tick = 18720]
NOTE ON [channel = 9, note = G#2, key = 44, velocity = 100, tick = 18720]
NOTE OFF [channel = 9, note = G#2, key = 44, velocity = 64, tick = 18816]
NOTE OFF [channel = 9, note = C2, key = 36, velocity = 64, tick = 18816]
NOTE ON [channel = 9, note = G#2, key = 44, velocity = 100, tick = 18816]
NOTE ON [channel = 9, note = C2, key = 36, velocity = 100, tick = 18816]
NOTE OFF [channel = 9, note = C2, key = 36, velocity = 64, tick = 18912]
NOTE OFF [channel = 9, note = G#2, key = 44, velocity = 64, tick = 18912]
NOTE ON [channel = 9, note = C2, key = 36, velocity = 100, tick = 18912]
NOTE ON [channel = 9, note = G#2, key = 44, velocity = 100, tick = 18912]
NOTE OFF [channel = 9, note = G#2, key = 44, velocity = 64, tick = 19008]
NOTE OFF [channel = 9, note = C2, key = 36, velocity = 64, tick = 19008]
NOTE ON [channel = 9, note = C2, key = 36, velocity = 100, tick = 19008]
NOTE ON [channel = 9, note = G#2, key = 44, velocity = 100, tick = 19008]
NOTE OFF [channel = 9, note = G#2, key = 44, velocity = 64, tick = 19104]
NOTE OFF [channel = 9, note = C2, key = 36, velocity = 64, tick = 19104]
NOTE ON [channel = 9, note = C2, key = 36, velocity = 100, tick = 19104]
NOTE ON [channel = 9, note = G#2, key = 44, velocity = 100, tick = 19104]
NOTE OFF [channel = 9, note = G#2, key = 44, velocity = 64, tick = 19200]
NOTE OFF [channel = 9, note = C2, key = 36, velocity = 64, tick = 19200]
NOTE ON [channel = 9, note = G#2, key = 44, velocity = 100, tick = 19200]
NOTE ON [channel = 9, note = C2, key = 36, velocity = 100, tick = 19200]
NOTE OFF [channel = 9, note = C2, key = 36, velocity = 64, tick = 19296]
NOTE OFF [channel = 9, note = G#2, key = 44, velocity = 64, tick = 19296]
NOTE ON [channel = 9, note = G#2, key = 44, velocity = 100, tick = 19296]
NOTE ON [channel = 9, note = C2, key = 36, velocity = 100, tick = 19296]
NOTE OFF [channel = 9, note = C2, key = 36, velocity = 64, tick = 19392]
NOTE OFF [channel = 9, note = G#2, key = 44, velocity = 64, tick = 19392]
NOTE ON [channel = 9, note = G#2, key = 44, velocity = 100, tick = 19392]
NOTE ON [channel = 9, note = C2, key = 36, velocity = 100, tick = 19392]
NOTE OFF [channel = 9, note = C2, key = 36, velocity = 64, tick = 19488]
NOTE OFF [channel = 9, note = G#2, key = 44, velocity = 64, tick = 19488]
NOTE ON [channel = 9, note = C2, key = 36, velocity = 100, tick = 19488]
NOTE ON [channel = 9, note = G#2, key = 44, velocity = 100, tick = 19488]
NOTE OFF [channel = 9, note = G#2, key = 44, velocity = 64, tick = 19584]
NOTE ON [channel = 9, note = G#2, key = 44, velocity = 100, tick = 19584]
NOTE OFF [channel = 9, note = G#2, key = 44, velocity = 64, tick = 19680]
NOTE ON [channel = 9, note = G#2, key = 44, velocity = 100, tick = 19680]
NOTE OFF [channel = 9, note = C#3, key = 49, velocity = 64, tick = 19776]
NOTE OFF [channel = 9, note = G#2, key = 44, velocity = 64, tick = 19776]
NOTE OFF [channel = 9, note = C2, key = 36, velocity = 64, tick = 19776]
NOTE ON [channel = 9, note = D2, key = 38, velocity = 100, tick = 19776]
NOTE ON [channel = 9, note = C#3, key = 49, velocity = 100, tick = 19776]
NOTE ON [channel = 9, note = C2, key = 36, velocity = 100, tick = 19776]
NOTE ON [channel = 9, note = G#2, key = 44, velocity = 100, tick = 19776]
NOTE OFF [channel = 9, note = A#2, key = 46, velocity = 64, tick = 19824]
NOTE ON [channel = 9, note = A#2, key = 46, velocity = 70, tick = 19824]
NOTE OFF [channel = 9, note = G#2, key = 44, velocity = 64, tick = 19872]
NOTE OFF [channel = 9, note = D2, key = 38, velocity = 64, tick = 19872]
NOTE OFF [channel = 9, note = C2, key = 36, velocity = 64, tick = 19872]
NOTE ON [channel = 9, note = D2, key = 38, velocity = 100, tick = 19872]
NOTE ON [channel = 9, note = C2, key = 36, velocity = 100, tick = 19872]
NOTE ON [channel = 9, note = G#2, key = 44, velocity = 100, tick = 19872]
NOTE OFF [channel = 9, note = A#2, key = 46, velocity = 64, tick = 19920]
NOTE ON [channel = 9, note = A#2, key = 46, velocity = 70, tick = 19920]
NOTE OFF [channel = 9, note = G#2, key = 44, velocity = 64, tick = 19968]
NOTE OFF [channel = 9, note = D2, key = 38, velocity = 64, tick = 19968]
NOTE OFF [channel = 9, note = C2, key = 36, velocity = 64, tick = 19968]
NOTE ON [channel = 9, note = D2, key = 38, velocity = 100, tick = 19968]
NOTE ON [channel = 9, note = C2, key = 36, velocity = 100, tick = 19968]
NOTE ON [channel = 9, note = G#2, key = 44, velocity = 100, tick = 19968]
NOTE OFF [channel = 9, note = A#2, key = 46, velocity = 64, tick = 20016]
NOTE ON [channel = 9, note = A#2, key = 46, velocity = 70, tick = 20016]
NOTE OFF [channel = 9, note = G#2, key = 44, velocity = 64, tick = 20064]
NOTE OFF [channel = 9, note = C2, key = 36, velocity = 64, tick = 20064]
NOTE OFF [channel = 9, note = D2, key = 38, velocity = 64, tick = 20064]
NOTE ON [channel = 9, note = D2, key = 38, velocity = 100, tick = 20064]
NOTE ON [channel = 9, note = C2, key = 36, velocity = 100, tick = 20064]
NOTE ON [channel = 9, note = G#2, key = 44, velocity = 100, tick = 20064]
NOTE OFF [channel = 9, note = A#2, key = 46, velocity = 64, tick = 20112]
NOTE ON [channel = 9, note = A#2, key = 46, velocity = 70, tick = 20112]
NOTE OFF [channel = 9, note = G#2, key = 44, velocity = 64, tick = 20160]
NOTE OFF [channel = 9, note = C2, key = 36, velocity = 64, tick = 20160]
NOTE OFF [channel = 9, note = D2, key = 38, velocity = 64, tick = 20160]
NOTE ON [channel = 9, note = D2, key = 38, velocity = 100, tick = 20160]
NOTE ON [channel = 9, note = C2, key = 36, velocity = 100, tick = 20160]
NOTE ON [channel = 9, note = G#2, key = 44, velocity = 100, tick = 20160]
NOTE OFF [channel = 9, note = A#2, key = 46, velocity = 64, tick = 20208]
NOTE ON [channel = 9, note = A#2, key = 46, velocity = 70, tick = 20208]
NOTE OFF [channel = 9, note = G#2, key = 44, velocity = 64, tick = 20256]
NOTE OFF [channel = 9, note = C2, key = 36, velocity = 64, tick = 20256]
NOTE OFF [channel = 9, note = D2, key = 38, velocity = 64, tick = 20256]
NOTE ON [channel = 9, note = D2, key = 38, velocity = 100, tick = 20256]
NOTE ON [channel = 9, note = C2, key = 36, velocity = 100, tick = 20256]
NOTE ON [channel = 9, note = G#2, key = 44, velocity = 100, tick = 20256]
NOTE OFF [channel = 9, note = A#2, key = 46, velocity = 64, tick = 20304]
NOTE ON [channel = 9, note = A#2, key = 46, velocity = 70, tick = 20304]
NOTE OFF [channel = 9, note = G#2, key = 44, velocity = 64, tick = 20352]
NOTE OFF [channel = 9, note = C2, key = 36, velocity = 64, tick = 20352]
NOTE OFF [channel = 9, note = D2, key = 38, velocity = 64, tick = 20352]
NOTE ON [channel = 9, note = D2, key = 38, velocity = 100, tick = 20352]
NOTE ON [channel = 9, note = G#2, key = 44, velocity = 100, tick = 20352]
NOTE ON [channel = 9, note = C2, key = 36, velocity = 100, tick = 20352]
NOTE OFF [channel = 9, note = A#2, key = 46, velocity = 64, tick = 20400]
NOTE ON [channel = 9, note = A#2, key = 46, velocity = 70, tick = 20400]
NOTE OFF [channel = 9, note = C2, key = 36, velocity = 64, tick = 20448]
NOTE OFF [channel = 9, note = G#2, key = 44, velocity = 64, tick = 20448]
NOTE OFF [channel = 9, note = D2, key = 38, velocity = 64, tick = 20448]
NOTE ON [channel = 9, note = D2, key = 38, velocity = 100, tick = 20448]
NOTE ON [channel = 9, note = G#2, key = 44, velocity = 100, tick = 20448]
NOTE ON [channel = 9, note = C2, key = 36, velocity = 100, tick = 20448]
NOTE OFF [channel = 9, note = A#2, key = 46, velocity = 64, tick = 20496]
NOTE ON [channel = 9, note = A#2, key = 46, velocity = 70, tick = 20496]
NOTE OFF [channel = 9, note = C2, key = 36, velocity = 64, tick = 20544]
NOTE OFF [channel = 9, note = D2, key = 38, velocity = 64, tick = 20544]
NOTE OFF [channel = 9, note = G#2, key = 44, velocity = 64, tick = 20544]
NOTE ON [channel = 9, note = D2, key = 38, velocity = 100, tick = 20544]
NOTE ON [channel = 9, note = G#2, key = 44, velocity = 100, tick = 20544]
NOTE ON [channel = 9, note = C2, key = 36, velocity = 100, tick = 20544]
NOTE OFF [channel = 9, note = A#2, key = 46, velocity = 64, tick = 20592]
NOTE OFF [channel = 9, note = D2, key = 38, velocity = 64, tick = 20592]
NOTE ON [channel = 9, note = D2, key = 38, velocity = 100, tick = 20592]
NOTE ON [channel = 9, note = A#2, key = 46, velocity = 70, tick = 20592]
NOTE OFF [channel = 9, note = C2, key = 36, velocity = 64, tick = 20640]
NOTE OFF [channel = 9, note = D2, key = 38, velocity = 64, tick = 20640]
NOTE OFF [channel = 9, note = G#2, key = 44, velocity = 64, tick = 20640]
NOTE ON [channel = 9, note = D2, key = 38, velocity = 100, tick = 20640]
NOTE ON [channel = 9, note = G#2, key = 44, velocity = 100, tick = 20640]
NOTE ON [channel = 9, note = C2, key = 36, velocity = 100, tick = 20640]
NOTE OFF [channel = 9, note = D2, key = 38, velocity = 64, tick = 20688]
NOTE OFF [channel = 9, note = A#2, key = 46, velocity = 64, tick = 20688]
NOTE ON [channel = 9, note = D2, key = 38, velocity = 100, tick = 20688]
NOTE ON [channel = 9, note = A#2, key = 46, velocity = 70, tick = 20688]
NOTE OFF [channel = 9, note = D2, key = 38, velocity = 64, tick = 20736]
NOTE OFF [channel = 9, note = C2, key = 36, velocity = 64, tick = 20736]
NOTE OFF [channel = 9, note = G#2, key = 44, velocity = 64, tick = 20736]
NOTE ON [channel = 9, note = D2, key = 38, velocity = 100, tick = 20736]
NOTE ON [channel = 9, note = G#2, key = 44, velocity = 100, tick = 20736]
NOTE ON [channel = 9, note = C2, key = 36, velocity = 100, tick = 20736]
NOTE OFF [channel = 9, note = D2, key = 38, velocity = 64, tick = 20784]
NOTE OFF [channel = 9, note = A#2, key = 46, velocity = 64, tick = 20784]
NOTE ON [channel = 9, note = D2, key = 38, velocity = 100, tick = 20784]
NOTE ON [channel = 9, note = A#2, key = 46, velocity = 70, tick = 20784]
NOTE OFF [channel = 9, note = C2, key = 36, velocity = 64, tick = 20832]
NOTE OFF [channel = 9, note = G#2, key = 44, velocity = 64, tick = 20832]
NOTE OFF [channel = 9, note = D2, key = 38, velocity = 64, tick = 20832]
NOTE ON [channel = 9, note = D2, key = 38, velocity = 100, tick = 20832]
NOTE ON [channel = 9, note = C2, key = 36, velocity = 100, tick = 20832]
NOTE ON [channel = 9, note = G#2, key = 44, velocity = 100, tick = 20832]
NOTE OFF [channel = 9, note = A#2, key = 46, velocity = 64, tick = 20880]
NOTE OFF [channel = 9, note = D2, key = 38, velocity = 64, tick = 20880]
NOTE ON [channel = 9, note = D2, key = 38, velocity = 100, tick = 20880]
NOTE ON [channel = 9, note = A#2, key = 46, velocity = 70, tick = 20880]
NOTE OFF [channel = 9, note = G#2, key = 44, velocity = 64, tick = 20928]
NOTE OFF [channel = 9, note = D2, key = 38, velocity = 64, tick = 20928]
NOTE ON [channel = 9, note = D2, key = 38, velocity = 100, tick = 20928]
NOTE ON [channel = 9, note = G#2, key = 44, velocity = 100, tick = 20928]
NOTE OFF [channel = 9, note = D2, key = 38, velocity = 64, tick = 20952]
NOTE ON [channel = 9, note = D2, key = 38, velocity = 100, tick = 20952]
NOTE OFF [channel = 9, note = A#2, key = 46, velocity = 64, tick = 20976]
NOTE OFF [channel = 9, note = D2, key = 38, velocity = 64, tick = 20976]
NOTE ON [channel = 9, note = D2, key = 38, velocity = 100, tick = 20976]
NOTE ON [channel = 9, note = A#2, key = 46, velocity = 70, tick = 20976]
NOTE OFF [channel = 9, note = D2, key = 38, velocity = 64, tick = 21000]
NOTE ON [channel = 9, note = D2, key = 38, velocity = 100, tick = 21000]
NOTE OFF [channel = 9, note = G#2, key = 44, velocity = 64, tick = 21024]
NOTE OFF [channel = 9, note = D2, key = 38, velocity = 64, tick = 21024]
NOTE ON [channel = 9, note = G#2, key = 44, velocity = 100, tick = 21024]
NOTE ON [channel = 9, note = D2, key = 38, velocity = 100, tick = 21024]
NOTE OFF [channel = 9, note = D2, key = 38, velocity = 64, tick = 21048]
NOTE ON [channel = 9, note = D2, key = 38, velocity = 100, tick = 21048]
NOTE OFF [channel = 9, note = D2, key = 38, velocity = 64, tick = 21072]
NOTE OFF [channel = 9, note = A#2, key = 46, velocity = 64, tick = 21072]
NOTE ON [channel = 9, note = A#2, key = 46, velocity = 70, tick = 21072]
NOTE ON [channel = 9, note = D2, key = 38, velocity = 100, tick = 21072]
NOTE OFF [channel = 9, note = D2, key = 38, velocity = 64, tick = 21096]
NOTE ON [channel = 9, note = D2, key = 38, velocity = 100, tick = 21096]
NOTE OFF [channel = 9, note = D2, key = 38, velocity = 64, tick = 21120]
NOTE OFF [channel = 9, note = G#2, key = 44, velocity = 64, tick = 21120]
NOTE ON [channel = 9, note = B2, key = 47, velocity = 100, tick = 21120]
NOTE ON [channel = 9, note = G#2, key = 44, velocity = 100, tick = 21120]
NOTE OFF [channel = 9, note = B2, key = 47, velocity = 64, tick = 21144]
NOTE ON [channel = 9, note = B2, key = 47, velocity = 100, tick = 21144]
NOTE OFF [channel = 9, note = B2, key = 47, velocity = 64, tick = 21168]
NOTE OFF [channel = 9, note = A#2, key = 46, velocity = 64, tick = 21168]
NOTE ON [channel = 9, note = B2, key = 47, velocity = 100, tick = 21168]
NOTE ON [channel = 9, note = A#2, key = 46, velocity = 70, tick = 21168]
NOTE OFF [channel = 9, note = B2, key = 47, velocity = 64, tick = 21192]
NOTE ON [channel = 9, note = A2, key = 45, velocity = 100, tick = 21192]
NOTE OFF [channel = 9, note = A2, key = 45, velocity = 64, tick = 21216]
NOTE OFF [channel = 9, note = G#2, key = 44, velocity = 64, tick = 21216]
NOTE ON [channel = 9, note = G2, key = 43, velocity = 100, tick = 21216]
NOTE ON [channel = 9, note = G#2, key = 44, velocity = 100, tick = 21216]
NOTE OFF [channel = 9, note = A#2, key = 46, velocity = 64, tick = 21264]
NOTE OFF [channel = 9, note = G2, key = 43, velocity = 64, tick = 21264]
NOTE ON [channel = 9, note = D2, key = 38, velocity = 100, tick = 21264]
NOTE ON [channel = 9, note = A#2, key = 46, velocity = 70, tick = 21264]
NOTE OFF [channel = 9, note = C#3, key = 49, velocity = 64, tick = 21312]
NOTE OFF [channel = 9, note = D2, key = 38, velocity = 64, tick = 21312]
NOTE ON [channel = 9, note = C#3, key = 49, velocity = 100, tick = 21312]
NOTE OFF [channel = 9, note = C#3, key = 49, velocity = 64, tick = 21408]
NOTE ON [channel = 9, note = C#3, key = 49, velocity = 100, tick = 21408]
NOTE OFF [channel = 9, note = C#3, key = 49, velocity = 64, tick = 21504]
NOTE OFF [channel = 9, note = C2, key = 36, velocity = 64, tick = 21504]
NOTE OFF [channel = 9, note = G#2, key = 44, velocity = 64, tick = 21504]
NOTE ON [channel = 9, note = G#2, key = 44, velocity = 100, tick = 21504]
NOTE ON [channel = 9, note = C2, key = 36, velocity = 100, tick = 21504]
NOTE ON [channel = 9, note = C#3, key = 49, velocity = 100, tick = 21504]
NOTE OFF [channel = 9, note = A#2, key = 46, velocity = 64, tick = 21552]
NOTE ON [channel = 9, note = A#2, key = 46, velocity = 70, tick = 21552]
NOTE OFF [channel = 9, note = G#2, key = 44, velocity = 64, tick = 21600]
NOTE OFF [channel = 9, note = C2, key = 36, velocity = 64, tick = 21600]
NOTE ON [channel = 9, note = G#2, key = 44, velocity = 100, tick = 21600]
NOTE ON [channel = 9, note = C2, key = 36, velocity = 100, tick = 21600]
NOTE OFF [channel = 9, note = A#2, key = 46, velocity = 64, tick = 21648]
NOTE ON [channel = 9, note = A#2, key = 46, velocity = 70, tick = 21648]
NOTE OFF [channel = 9, note = C2, key = 36, velocity = 64, tick = 21696]
NOTE OFF [channel = 9, note = G#2, key = 44, velocity = 64, tick = 21696]
NOTE ON [channel = 9, note = C2, key = 36, velocity = 100, tick = 21696]
NOTE ON [channel = 9, note = G#2, key = 44, velocity = 100, tick = 21696]
NOTE OFF [channel = 9, note = A#2, key = 46, velocity = 64, tick = 21744]
NOTE ON [channel = 9, note = A#2, key = 46, velocity = 70, tick = 21744]
NOTE OFF [channel = 9, note = G#2, key = 44, velocity = 64, tick = 21792]
NOTE OFF [channel = 9, note = C2, key = 36, velocity = 64, tick = 21792]
NOTE ON [channel = 9, note = C2, key = 36, velocity = 100, tick = 21792]
NOTE ON [channel = 9, note = G#2, key = 44, velocity = 100, tick = 21792]
NOTE OFF [channel = 9, note = A#2, key = 46, velocity = 64, tick = 21840]
NOTE ON [channel = 9, note = A#2, key = 46, velocity = 70, tick = 21840]
NOTE OFF [channel = 9, note = G#2, key = 44, velocity = 64, tick = 21888]
NOTE OFF [channel = 9, note = C2, key = 36, velocity = 64, tick = 21888]
NOTE ON [channel = 9, note = G#2, key = 44, velocity = 100, tick = 21888]
NOTE ON [channel = 9, note = C2, key = 36, velocity = 100, tick = 21888]
NOTE OFF [channel = 9, note = A#2, key = 46, velocity = 64, tick = 21936]
NOTE ON [channel = 9, note = A#2, key = 46, velocity = 70, tick = 21936]
NOTE OFF [channel = 9, note = C2, key = 36, velocity = 64, tick = 21984]
NOTE OFF [channel = 9, note = G#2, key = 44, velocity = 64, tick = 21984]
NOTE ON [channel = 9, note = G#2, key = 44, velocity = 100, tick = 21984]
NOTE ON [channel = 9, note = C2, key = 36, velocity = 100, tick = 21984]
NOTE OFF [channel = 9, note = A#2, key = 46, velocity = 64, tick = 22032]
NOTE ON [channel = 9, note = A#2, key = 46, velocity = 70, tick = 22032]
NOTE OFF [channel = 9, note = G#2, key = 44, velocity = 64, tick = 22080]
NOTE OFF [channel = 9, note = C2, key = 36, velocity = 64, tick = 22080]
NOTE ON [channel = 9, note = G#2, key = 44, velocity = 100, tick = 22080]
NOTE ON [channel = 9, note = C2, key = 36, velocity = 100, tick = 22080]
NOTE OFF [channel = 9, note = A#2, key = 46, velocity = 64, tick = 22128]
NOTE ON [channel = 9, note = A#2, key = 46, velocity = 70, tick = 22128]
NOTE OFF [channel = 9, note = C2, key = 36, velocity = 64, tick = 22176]
NOTE OFF [channel = 9, note = G#2, key = 44, velocity = 64, tick = 22176]
NOTE ON [channel = 9, note = G#2, key = 44, velocity = 100, tick = 22176]
NOTE ON [channel = 9, note = C2, key = 36, velocity = 100, tick = 22176]
NOTE OFF [channel = 9, note = A#2, key = 46, velocity = 64, tick = 22224]
NOTE ON [channel = 9, note = A#2, key = 46, velocity = 70, tick = 22224]
NOTE OFF [channel = 9, note = C2, key = 36, velocity = 64, tick = 22272]
NOTE OFF [channel = 9, note = G#2, key = 44, velocity = 64, tick = 22272]
NOTE ON [channel = 9, note = G#2, key = 44, velocity = 100, tick = 22272]
NOTE ON [channel = 9, note = C2, key = 36, velocity = 100, tick = 22272]
NOTE OFF [channel = 9, note = A#2, key = 46, velocity = 64, tick = 22320]
NOTE ON [channel = 9, note = A#2, key = 46, velocity = 70, tick = 22320]
NOTE OFF [channel = 9, note = G#2, key = 44, velocity = 64, tick = 22368]
NOTE OFF [channel = 9, note = C2, key = 36, velocity = 64, tick = 22368]
NOTE ON [channel = 9, note = C2, key = 36, velocity = 100, tick = 22368]
NOTE ON [channel = 9, note = G#2, key = 44, velocity = 100, tick = 22368]
NOTE OFF [channel = 9, note = A#2, key = 46, velocity = 64, tick = 22416]
NOTE ON [channel = 9, note = A#2, key = 46, velocity = 70, tick = 22416]
NOTE OFF [channel = 9, note = G#2, key = 44, velocity = 64, tick = 22464]
NOTE OFF [channel = 9, note = C2, key = 36, velocity = 64, tick = 22464]
NOTE ON [channel = 9, note = C2, key = 36, velocity = 100, tick = 22464]
NOTE ON [channel = 9, note = G#2, key = 44, velocity = 100, tick = 22464]
NOTE OFF [channel = 9, note = A#2, key = 46, velocity = 64, tick = 22512]
NOTE ON [channel = 9, note = A#2, key = 46, velocity = 70, tick = 22512]
NOTE OFF [channel = 9, note = G#2, key = 44, velocity = 64, tick = 22560]
NOTE OFF [channel = 9, note = C2, key = 36, velocity = 64, tick = 22560]
NOTE ON [channel = 9, note = G#2, key = 44, velocity = 100, tick = 22560]
NOTE ON [channel = 9, note = C2, key = 36, velocity = 100, tick = 22560]
NOTE OFF [channel = 9, note = A#2, key = 46, velocity = 64, tick = 22608]
NOTE ON [channel = 9, note = A#2, key = 46, velocity = 70, tick = 22608]
NOTE OFF [channel = 9, note = G#2, key = 44, velocity = 64, tick = 22656]
NOTE ON [channel = 9, note = G#2, key = 44, velocity = 100, tick = 22656]
NOTE OFF [channel = 9, note = A#2, key = 46, velocity = 64, tick = 22704]
NOTE ON [channel = 9, note = A#2, key = 46, velocity = 69, tick = 22704]
NOTE OFF [channel = 9, note = G#2, key = 44, velocity = 64, tick = 22752]
NOTE ON [channel = 9, note = G#2, key = 44, velocity = 100, tick = 22752]
NOTE OFF [channel = 9, note = A#2, key = 46, velocity = 64, tick = 22800]
NOTE ON [channel = 9, note = A#2, key = 46, velocity = 69, tick = 22800]
NOTE OFF [channel = 9, note = G#2, key = 44, velocity = 64, tick = 22848]
NOTE ON [channel = 9, note = G#2, key = 44, velocity = 100, tick = 22848]
NOTE OFF [channel = 9, note = A#2, key = 46, velocity = 64, tick = 22896]
NOTE ON [channel = 9, note = A#2, key = 46, velocity = 69, tick = 22896]
NOTE OFF [channel = 9, note = G#2, key = 44, velocity = 64, tick = 22944]
NOTE ON [channel = 9, note = G#2, key = 44, velocity = 100, tick = 22944]
NOTE OFF [channel = 9, note = A#2, key = 46, velocity = 64, tick = 22992]
NOTE ON [channel = 9, note = A#2, key = 46, velocity = 69, tick = 22992]
NOTE OFF [channel = 9, note = C2, key = 36, velocity = 64, tick = 23040]
NOTE OFF [channel = 9, note = C#3, key = 49, velocity = 64, tick = 23040]
NOTE OFF [channel = 9, note = G#2, key = 44, velocity = 64, tick = 23040]
NOTE ON [channel = 9, note = G#2, key = 44, velocity = 100, tick = 23040]
NOTE ON [channel = 9, note = C2, key = 36, velocity = 100, tick = 23040]
NOTE ON [channel = 9, note = C#3, key = 49, velocity = 100, tick = 23040]
NOTE ON [channel = 9, note = D2, key = 38, velocity = 100, tick = 23040]
NOTE OFF [channel = 9, note = A#2, key = 46, velocity = 64, tick = 23088]
NOTE ON [channel = 9, note = A#2, key = 46, velocity = 69, tick = 23088]
NOTE OFF [channel = 9, note = D#2, key = 39, velocity = 64, tick = 23136]
NOTE OFF [channel = 9, note = D2, key = 38, velocity = 64, tick = 23136]
NOTE OFF [channel = 9, note = C2, key = 36, velocity = 64, tick = 23136]
NOTE OFF [channel = 9, note = G#2, key = 44, velocity = 64, tick = 23136]
NOTE ON [channel = 9, note = D2, key = 38, velocity = 100, tick = 23136]
NOTE ON [channel = 9, note = D#2, key = 39, velocity = 100, tick = 23136]
NOTE ON [channel = 9, note = G#2, key = 44, velocity = 100, tick = 23136]
NOTE ON [channel = 9, note = C2, key = 36, velocity = 100, tick = 23136]
NOTE OFF [channel = 9, note = A#2, key = 46, velocity = 64, tick = 23184]
NOTE ON [channel = 9, note = A#2, key = 46, velocity = 69, tick = 23184]
NOTE OFF [channel = 9, note = C2, key = 36, velocity = 64, tick = 23232]
NOTE OFF [channel = 9, note = G#2, key = 44, velocity = 64, tick = 23232]
NOTE OFF [channel = 9, note = D2, key = 38, velocity = 64, tick = 23232]
NOTE ON [channel = 9, note = D2, key = 38, velocity = 100, tick = 23232]
NOTE ON [channel = 9, note = G#2, key = 44, velocity = 100, tick = 23232]
NOTE ON [channel = 9, note = C2, key = 36, velocity = 100, tick = 23232]
NOTE OFF [channel = 9, note = A#2, key = 46, velocity = 64, tick = 23280]
NOTE ON [channel = 9, note = A#2, key = 46, velocity = 69, tick = 23280]
NOTE OFF [channel = 9, note = C2, key = 36, velocity = 64, tick = 23328]
NOTE OFF [channel = 9, note = G#2, key = 44, velocity = 64, tick = 23328]
NOTE OFF [channel = 9, note = D#2, key = 39, velocity = 64, tick = 23328]
NOTE OFF [channel = 9, note = D2, key = 38, velocity = 64, tick = 23328]
NOTE ON [channel = 9, note = D2, key = 38, velocity = 100, tick = 23328]
NOTE ON [channel = 9, note = D#2, key = 39, velocity = 100, tick = 23328]
NOTE ON [channel = 9, note = C2, key = 36, velocity = 100, tick = 23328]
NOTE ON [channel = 9, note = G#2, key = 44, velocity = 100, tick = 23328]
NOTE OFF [channel = 9, note = A#2, key = 46, velocity = 64, tick = 23376]
NOTE ON [channel = 9, note = A#2, key = 46, velocity = 69, tick = 23376]
NOTE OFF [channel = 9, note = G#2, key = 44, velocity = 64, tick = 23424]
NOTE OFF [channel = 9, note = C2, key = 36, velocity = 64, tick = 23424]
NOTE OFF [channel = 9, note = D2, key = 38, velocity = 64, tick = 23424]
NOTE ON [channel = 9, note = C2, key = 36, velocity = 100, tick = 23424]
NOTE ON [channel = 9, note = G#2, key = 44, velocity = 100, tick = 23424]
NOTE ON [channel = 9, note = D2, key = 38, velocity = 100, tick = 23424]
NOTE OFF [channel = 9, note = A#2, key = 46, velocity = 64, tick = 23472]
NOTE ON [channel = 9, note = A#2, key = 46, velocity = 69, tick = 23472]
NOTE OFF [channel = 9, note = D2, key = 38, velocity = 64, tick = 23520]
NOTE OFF [channel = 9, note = G#2, key = 44, velocity = 64, tick = 23520]
NOTE OFF [channel = 9, note = D#2, key = 39, velocity = 64, tick = 23520]
NOTE OFF [channel = 9, note = C2, key = 36, velocity = 64, tick = 23520]
NOTE ON [channel = 9, note = G#2, key = 44, velocity = 100, tick = 23520]
NOTE ON [channel = 9, note = C2, key = 36, velocity = 100, tick = 23520]
NOTE ON [channel = 9, note = D#2, key = 39, velocity = 100, tick = 23520]
NOTE ON [channel = 9, note = D2, key = 38, velocity = 100, tick = 23520]
NOTE OFF [channel = 9, note = A#2, key = 46, velocity = 64, tick = 23568]
NOTE ON [channel = 9, note = A#2, key = 46, velocity = 69, tick = 23568]
NOTE OFF [channel = 9, note = D2, key = 38, velocity = 64, tick = 23616]
NOTE OFF [channel = 9, note = C2, key = 36, velocity = 64, tick = 23616]
NOTE OFF [channel = 9, note = G#2, key = 44, velocity = 64, tick = 23616]
NOTE ON [channel = 9, note = G#2, key = 44, velocity = 100, tick = 23616]
NOTE ON [channel = 9, note = C2, key = 36, velocity = 100, tick = 23616]
NOTE ON [channel = 9, note = D2, key = 38, velocity = 100, tick = 23616]
NOTE OFF [channel = 9, note = A#2, key = 46, velocity = 64, tick = 23664]
NOTE ON [channel = 9, note = A#2, key = 46, velocity = 69, tick = 23664]
NOTE OFF [channel = 9, note = D2, key = 38, velocity = 64, tick = 23712]
NOTE OFF [channel = 9, note = D#2, key = 39, velocity = 64, tick = 23712]
NOTE OFF [channel = 9, note = C2, key = 36, velocity = 64, tick = 23712]
NOTE OFF [channel = 9, note = G#2, key = 44, velocity = 64, tick = 23712]
NOTE ON [channel = 9, note = D2, key = 38, velocity = 100, tick = 23712]
NOTE ON [channel = 9, note = D#2, key = 39, velocity = 100, tick = 23712]
NOTE ON [channel = 9, note = G#2, key = 44, velocity = 100, tick = 23712]
NOTE ON [channel = 9, note = C2, key = 36, velocity = 100, tick = 23712]
NOTE OFF [channel = 9, note = A#2, key = 46, velocity = 64, tick = 23760]
NOTE ON [channel = 9, note = A#2, key = 46, velocity = 69, tick = 23760]
NOTE OFF [channel = 9, note = C2, key = 36, velocity = 64, tick = 23808]
NOTE OFF [channel = 9, note = G#2, key = 44, velocity = 64, tick = 23808]
NOTE OFF [channel = 9, note = D2, key = 38, velocity = 64, tick = 23808]
NOTE ON [channel = 9, note = D2, key = 38, velocity = 100, tick = 23808]
NOTE ON [channel = 9, note = C2, key = 36, velocity = 100, tick = 23808]
NOTE ON [channel = 9, note = G#2, key = 44, velocity = 100, tick = 23808]
NOTE OFF [channel = 9, note = D2, key = 38, velocity = 64, tick = 23856]
NOTE OFF [channel = 9, note = A#2, key = 46, velocity = 64, tick = 23856]
NOTE ON [channel = 9, note = A#2, key = 46, velocity = 69, tick = 23856]
NOTE ON [channel = 9, note = D2, key = 38, velocity = 100, tick = 23856]
NOTE OFF [channel = 9, note = G#2, key = 44, velocity = 64, tick = 23904]
NOTE OFF [channel = 9, note = D2, key = 38, velocity = 64, tick = 23904]
NOTE OFF [channel = 9, note = D#2, key = 39, velocity = 64, tick = 23904]
NOTE OFF [channel = 9, note = C2, key = 36, velocity = 64, tick = 23904]
NOTE ON [channel = 9, note = C2, key = 36, velocity = 100, tick = 23904]
NOTE ON [channel = 9, note = G#2, key = 44, velocity = 100, tick = 23904]
NOTE ON [channel = 9, note = D#2, key = 39, velocity = 100, tick = 23904]
NOTE ON [channel = 9, note = D2, key = 38, velocity = 100, tick = 23904]
NOTE OFF [channel = 9, note = D2, key = 38, velocity = 64, tick = 23952]
NOTE OFF [channel = 9, note = A#2, key = 46, velocity = 64, tick = 23952]
NOTE ON [channel = 9, note = A#2, key = 46, velocity = 69, tick = 23952]
NOTE ON [channel = 9, note = D2, key = 38, velocity = 100, tick = 23952]
NOTE OFF [channel = 9, note = D2, key = 38, velocity = 64, tick = 24000]
NOTE OFF [channel = 9, note = G#2, key = 44, velocity = 64, tick = 24000]
NOTE OFF [channel = 9, note = C2, key = 36, velocity = 64, tick = 24000]
NOTE ON [channel = 9, note = G#2, key = 44, velocity = 100, tick = 24000]
NOTE ON [channel = 9, note = C2, key = 36, velocity = 100, tick = 24000]
NOTE ON [channel = 9, note = D2, key = 38, velocity = 100, tick = 24000]
NOTE OFF [channel = 9, note = D2, key = 38, velocity = 64, tick = 24048]
NOTE OFF [channel = 9, note = A#2, key = 46, velocity = 64, tick = 24048]
NOTE ON [channel = 9, note = A#2, key = 46, velocity = 69, tick = 24048]
NOTE ON [channel = 9, note = D2, key = 38, velocity = 100, tick = 24048]
NOTE OFF [channel = 9, note = D2, key = 38, velocity = 64, tick = 24096]
NOTE OFF [channel = 9, note = D#2, key = 39, velocity = 64, tick = 24096]
NOTE OFF [channel = 9, note = C2, key = 36, velocity = 64, tick = 24096]
NOTE OFF [channel = 9, note = G#2, key = 44, velocity = 64, tick = 24096]
NOTE ON [channel = 9, note = C2, key = 36, velocity = 100, tick = 24096]
NOTE ON [channel = 9, note = G#2, key = 44, velocity = 100, tick = 24096]
NOTE ON [channel = 9, note = D#2, key = 39, velocity = 100, tick = 24096]
NOTE ON [channel = 9, note = D2, key = 38, velocity = 100, tick = 24096]
NOTE OFF [channel = 9, note = D2, key = 38, velocity = 64, tick = 24144]
NOTE OFF [channel = 9, note = A#2, key = 46, velocity = 64, tick = 24144]
NOTE ON [channel = 9, note = D2, key = 38, velocity = 100, tick = 24144]
NOTE ON [channel = 9, note = A#2, key = 46, velocity = 69, tick = 24144]
NOTE OFF [channel = 9, note = G#2, key = 44, velocity = 64, tick = 24192]
NOTE OFF [channel = 9, note = D2, key = 38, velocity = 64, tick = 24192]
NOTE ON [channel = 9, note = G#2, key = 44, velocity = 100, tick = 24192]
NOTE ON [channel = 9, note = D2, key = 38, velocity = 100, tick = 24192]
NOTE OFF [channel = 9, note = D2, key = 38, velocity = 64, tick = 24216]
NOTE ON [channel = 9, note = D2, key = 38, velocity = 100, tick = 24216]
NOTE OFF [channel = 9, note = A#2, key = 46, velocity = 64, tick = 24240]
NOTE OFF [channel = 9, note = D2, key = 38, velocity = 64, tick = 24240]
NOTE ON [channel = 9, note = A#2, key = 46, velocity = 69, tick = 24240]
NOTE ON [channel = 9, note = D2, key = 38, velocity = 100, tick = 24240]
NOTE OFF [channel = 9, note = D2, key = 38, velocity = 64, tick = 24264]
NOTE ON [channel = 9, note = D2, key = 38, velocity = 100, tick = 24264]
NOTE OFF [channel = 9, note = D2, key = 38, velocity = 64, tick = 24288]
NOTE OFF [channel = 9, note = D#2, key = 39, velocity = 64, tick = 24288]
NOTE OFF [channel = 9, note = G#2, key = 44, velocity = 64, tick = 24288]
NOTE ON [channel = 9, note = D2, key = 38, velocity = 100, tick = 24288]
NOTE ON [channel = 9, note = G#2, key = 44, velocity = 100, tick = 24288]
NOTE ON [channel = 9, note = D#2, key = 39, velocity = 100, tick = 24288]
NOTE OFF [channel = 9, note = D2, key = 38, velocity = 64, tick = 24312]
NOTE ON [channel = 9, note = D2, key = 38, velocity = 100, tick = 24312]
NOTE OFF [channel = 9, note = A#2, key = 46, velocity = 64, tick = 24336]
NOTE OFF [channel = 9, note = D2, key = 38, velocity = 64, tick = 24336]
NOTE ON [channel = 9, note = A#2, key = 46, velocity = 69, tick = 24336]
NOTE ON [channel = 9, note = D2, key = 38, velocity = 100, tick = 24336]
NOTE OFF [channel = 9, note = D2, key = 38, velocity = 64, tick = 24360]
NOTE ON [channel = 9, note = D2, key = 38, velocity = 100, tick = 24360]
NOTE OFF [channel = 9, note = G#2, key = 44, velocity = 64, tick = 24384]
NOTE OFF [channel = 9, note = D2, key = 38, velocity = 64, tick = 24384]
NOTE ON [channel = 9, note = G#2, key = 44, velocity = 100, tick = 24384]
NOTE ON [channel = 9, note = B2, key = 47, velocity = 100, tick = 24384]
NOTE OFF [channel = 9, note = B2, key = 47, velocity = 64, tick = 24408]
NOTE ON [channel = 9, note = B2, key = 47, velocity = 100, tick = 24408]
NOTE OFF [channel = 9, note = B2, key = 47, velocity = 64, tick = 24432]
NOTE OFF [channel = 9, note = A#2, key = 46, velocity = 64, tick = 24432]
NOTE ON [channel = 9, note = B2, key = 47, velocity = 100, tick = 24432]
NOTE ON [channel = 9, note = A#2, key = 46, velocity = 69, tick = 24432]
NOTE OFF [channel = 9, note = B2, key = 47, velocity = 64, tick = 24456]
NOTE ON [channel = 9, note = A2, key = 45, velocity = 100, tick = 24456]
NOTE OFF [channel = 9, note = D#2, key = 39, velocity = 64, tick = 24480]
NOTE OFF [channel = 9, note = A2, key = 45, velocity = 64, tick = 24480]
NOTE OFF [channel = 9, note = G#2, key = 44, velocity = 64, tick = 24480]
NOTE ON [channel = 9, note = G2, key = 43, velocity = 100, tick = 24480]
NOTE ON [channel = 9, note = D#2, key = 39, velocity = 100, tick = 24480]
NOTE ON [channel = 9, note = G#2, key = 44, velocity = 100, tick = 24480]
NOTE OFF [channel = 9, note = A#2, key = 46, velocity = 64, tick = 24528]
NOTE OFF [channel = 9, note = G2, key = 43, velocity = 64, tick = 24528]
NOTE ON [channel = 9, note = D2, key = 38, velocity = 100, tick = 24528]
NOTE ON [channel = 9, note = A#2, key = 46, velocity = 69, tick = 24528]
NOTE OFF [channel = 9, note = C#3, key = 49, velocity = 64, tick = 24576]
NOTE OFF [channel = 9, note = D2, key = 38, velocity = 64, tick = 24576]
NOTE ON [channel = 9, note = C#3, key = 49, velocity = 100, tick = 24576]
NOTE OFF [channel = 9, note = C#3, key = 49, velocity = 64, tick = 24768]
NOTE ON [channel = 9, note = C#3, key = 49, velocity = 100, tick = 24768]
NOTE OFF [channel = 9, note = C#3, key = 49, velocity = 64, tick = 24864]
NOTE ON [channel = 9, note = C#3, key = 49, velocity = 100, tick = 24864]
NOTE OFF [channel = 9, note = G#2, key = 44, velocity = 64, tick = 24960]
NOTE OFF [channel = 9, note = C#3, key = 49, velocity = 64, tick = 24960]
NOTE ON [channel = 9, note = C#3, key = 49, velocity = 100, tick = 24960]
NOTE ON [channel = 9, note = G#2, key = 44, velocity = 100, tick = 24960]
NOTE OFF [channel = 9, note = A#2, key = 46, velocity = 64, tick = 25008]
NOTE ON [channel = 9, note = A#2, key = 46, velocity = 69, tick = 25008]
NOTE OFF [channel = 9, note = G#2, key = 44, velocity = 64, tick = 25056]
NOTE ON [channel = 9, note = G#2, key = 44, velocity = 100, tick = 25056]
NOTE OFF [channel = 9, note = A#2, key = 46, velocity = 64, tick = 25104]
NOTE ON [channel = 9, note = A#2, key = 46, velocity = 69, tick = 25104]
NOTE OFF [channel = 9, note = G#2, key = 44, velocity = 64, tick = 25152]
NOTE ON [channel = 9, note = G#2, key = 44, velocity = 100, tick = 25152]
NOTE OFF [channel = 9, note = A#2, key = 46, velocity = 64, tick = 25200]
NOTE ON [channel = 9, note = A#2, key = 46, velocity = 69, tick = 25200]
NOTE OFF [channel = 9, note = G#2, key = 44, velocity = 64, tick = 25248]
NOTE ON [channel = 9, note = G#2, key = 44, velocity = 100, tick = 25248]
NOTE OFF [channel = 9, note = A#2, key = 46, velocity = 64, tick = 25296]
NOTE ON [channel = 9, note = A#2, key = 46, velocity = 69, tick = 25296]
NOTE OFF [channel = 9, note = G#2, key = 44, velocity = 64, tick = 25344]
NOTE ON [channel = 9, note = G#2, key = 44, velocity = 100, tick = 25344]
NOTE OFF [channel = 9, note = A#2, key = 46, velocity = 64, tick = 25392]
NOTE ON [channel = 9, note = A#2, key = 46, velocity = 69, tick = 25392]
NOTE OFF [channel = 9, note = G#2, key = 44, velocity = 64, tick = 25440]
NOTE ON [channel = 9, note = G#2, key = 44, velocity = 100, tick = 25440]
NOTE OFF [channel = 9, note = A#2, key = 46, velocity = 64, tick = 25488]
NOTE ON [channel = 9, note = A#2, key = 46, velocity = 69, tick = 25488]
NOTE OFF [channel = 9, note = G#2, key = 44, velocity = 64, tick = 25536]
NOTE ON [channel = 9, note = G#2, key = 44, velocity = 100, tick = 25536]
NOTE OFF [channel = 9, note = A#2, key = 46, velocity = 64, tick = 25584]
NOTE ON [channel = 9, note = A#2, key = 46, velocity = 69, tick = 25584]
NOTE OFF [channel = 9, note = G#2, key = 44, velocity = 64, tick = 25632]
NOTE ON [channel = 9, note = G#2, key = 44, velocity = 100, tick = 25632]
NOTE OFF [channel = 9, note = A#2, key = 46, velocity = 64, tick = 25680]
NOTE ON [channel = 9, note = A#2, key = 46, velocity = 69, tick = 25680]
NOTE OFF [channel = 9, note = G#2, key = 44, velocity = 64, tick = 25728]
NOTE ON [channel = 9, note = G#2, key = 44, velocity = 100, tick = 25728]
NOTE OFF [channel = 9, note = A#2, key = 46, velocity = 64, tick = 25776]
NOTE ON [channel = 9, note = A#2, key = 46, velocity = 69, tick = 25776]
NOTE OFF [channel = 9, note = G#2, key = 44, velocity = 64, tick = 25824]
NOTE ON [channel = 9, note = G#2, key = 44, velocity = 100, tick = 25824]
NOTE OFF [channel = 9, note = A#2, key = 46, velocity = 64, tick = 25872]
NOTE ON [channel = 9, note = A#2, key = 46, velocity = 69, tick = 25872]
NOTE OFF [channel = 9, note = G#2, key = 44, velocity = 64, tick = 25920]
NOTE ON [channel = 9, note = G#2, key = 44, velocity = 100, tick = 25920]
NOTE OFF [channel = 9, note = A#2, key = 46, velocity = 64, tick = 25968]
NOTE ON [channel = 9, note = A#2, key = 46, velocity = 69, tick = 25968]
NOTE OFF [channel = 9, note = G#2, key = 44, velocity = 64, tick = 26016]
NOTE ON [channel = 9, note = G#2, key = 44, velocity = 100, tick = 26016]
NOTE OFF [channel = 9, note = A#2, key = 46, velocity = 64, tick = 26064]
NOTE ON [channel = 9, note = A#2, key = 46, velocity = 69, tick = 26064]
NOTE OFF [channel = 9, note = G#2, key = 44, velocity = 64, tick = 26112]
NOTE ON [channel = 9, note = G#2, key = 44, velocity = 100, tick = 26112]
NOTE OFF [channel = 9, note = A#2, key = 46, velocity = 64, tick = 26160]
NOTE ON [channel = 9, note = A#2, key = 46, velocity = 69, tick = 26160]
NOTE OFF [channel = 9, note = G#2, key = 44, velocity = 64, tick = 26208]
NOTE ON [channel = 9, note = G#2, key = 44, velocity = 100, tick = 26208]
NOTE OFF [channel = 9, note = A#2, key = 46, velocity = 64, tick = 26256]
NOTE ON [channel = 9, note = A#2, key = 46, velocity = 69, tick = 26256]
NOTE OFF [channel = 9, note = G#2, key = 44, velocity = 64, tick = 26304]
NOTE ON [channel = 9, note = G#2, key = 44, velocity = 100, tick = 26304]
NOTE OFF [channel = 9, note = A#2, key = 46, velocity = 64, tick = 26352]
NOTE ON [channel = 9, note = A#2, key = 46, velocity = 69, tick = 26352]
NOTE OFF [channel = 9, note = G#2, key = 44, velocity = 64, tick = 26400]
NOTE ON [channel = 9, note = G#2, key = 44, velocity = 100, tick = 26400]
NOTE OFF [channel = 9, note = A#2, key = 46, velocity = 64, tick = 26448]
NOTE ON [channel = 9, note = A#2, key = 46, velocity = 69, tick = 26448]
NOTE OFF [channel = 9, note = C#3, key = 49, velocity = 64, tick = 26496]
NOTE OFF [channel = 9, note = G#2, key = 44, velocity = 64, tick = 26496]
NOTE OFF [channel = 9, note = C2, key = 36, velocity = 64, tick = 26496]
NOTE ON [channel = 9, note = G#2, key = 44, velocity = 100, tick = 26496]
NOTE ON [channel = 9, note = C2, key = 36, velocity = 100, tick = 26496]
NOTE ON [channel = 9, note = C#3, key = 49, velocity = 100, tick = 26496]
NOTE OFF [channel = 9, note = A#2, key = 46, velocity = 64, tick = 26544]
NOTE ON [channel = 9, note = A#2, key = 46, velocity = 69, tick = 26544]
NOTE OFF [channel = 9, note = C2, key = 36, velocity = 64, tick = 26592]
NOTE OFF [channel = 9, note = G#2, key = 44, velocity = 64, tick = 26592]
NOTE ON [channel = 9, note = G#2, key = 44, velocity = 100, tick = 26592]
NOTE ON [channel = 9, note = C2, key = 36, velocity = 100, tick = 26592]
NOTE OFF [channel = 9, note = A#2, key = 46, velocity = 64, tick = 26640]
NOTE ON [channel = 9, note = A#2, key = 46, velocity = 69, tick = 26640]
NOTE OFF [channel = 9, note = C2, key = 36, velocity = 64, tick = 26688]
NOTE OFF [channel = 9, note = G#2, key = 44, velocity = 64, tick = 26688]
NOTE ON [channel = 9, note = G#2, key = 44, velocity = 100, tick = 26688]
NOTE ON [channel = 9, note = C2, key = 36, velocity = 100, tick = 26688]
NOTE OFF [channel = 9, note = A#2, key = 46, velocity = 64, tick = 26736]
NOTE ON [channel = 9, note = A#2, key = 46, velocity = 69, tick = 26736]
NOTE OFF [channel = 9, note = C2, key = 36, velocity = 64, tick = 26784]
NOTE OFF [channel = 9, note = G#2, key = 44, velocity = 64, tick = 26784]
NOTE ON [channel = 9, note = G#2, key = 44, velocity = 100, tick = 26784]
NOTE ON [channel = 9, note = C2, key = 36, velocity = 100, tick = 26784]
NOTE OFF [channel = 9, note = A#2, key = 46, velocity = 64, tick = 26832]
NOTE ON [channel = 9, note = A#2, key = 46, velocity = 69, tick = 26832]
NOTE OFF [channel = 9, note = C2, key = 36, velocity = 64, tick = 26880]
NOTE OFF [channel = 9, note = G#2, key = 44, velocity = 64, tick = 26880]
NOTE ON [channel = 9, note = C2, key = 36, velocity = 100, tick = 26880]
NOTE ON [channel = 9, note = G#2, key = 44, velocity = 100, tick = 26880]
NOTE OFF [channel = 9, note = A#2, key = 46, velocity = 64, tick = 26928]
NOTE ON [channel = 9, note = A#2, key = 46, velocity = 69, tick = 26928]
NOTE OFF [channel = 9, note = G#2, key = 44, velocity = 64, tick = 26976]
NOTE OFF [channel = 9, note = C2, key = 36, velocity = 64, tick = 26976]
NOTE ON [channel = 9, note = C2, key = 36, velocity = 100, tick = 26976]
NOTE ON [channel = 9, note = G#2, key = 44, velocity = 100, tick = 26976]
NOTE OFF [channel = 9, note = A#2, key = 46, velocity = 64, tick = 27024]
NOTE ON [channel = 9, note = A#2, key = 46, velocity = 69, tick = 27024]
NOTE OFF [channel = 9, note = G#2, key = 44, velocity = 64, tick = 27072]
NOTE OFF [channel = 9, note = C2, key = 36, velocity = 64, tick = 27072]
NOTE ON [channel = 9, note = C2, key = 36, velocity = 100, tick = 27072]
NOTE ON [channel = 9, note = G#2, key = 44, velocity = 100, tick = 27072]
NOTE OFF [channel = 9, note = A#2, key = 46, velocity = 64, tick = 27120]
NOTE ON [channel = 9, note = A#2, key = 46, velocity = 69, tick = 27120]
NOTE OFF [channel = 9, note = G#2, key = 44, velocity = 64, tick = 27168]
NOTE OFF [channel = 9, note = C2, key = 36, velocity = 64, tick = 27168]
NOTE ON [channel = 9, note = C2, key = 36, velocity = 100, tick = 27168]
NOTE ON [channel = 9, note = G#2, key = 44, velocity = 100, tick = 27168]
NOTE OFF [channel = 9, note = A#2, key = 46, velocity = 64, tick = 27216]
NOTE ON [channel = 9, note = A#2, key = 46, velocity = 69, tick = 27216]
NOTE OFF [channel = 9, note = C2, key = 36, velocity = 64, tick = 27264]
NOTE OFF [channel = 9, note = G#2, key = 44, velocity = 64, tick = 27264]
NOTE ON [channel = 9, note = G#2, key = 44, velocity = 100, tick = 27264]
NOTE ON [channel = 9, note = C2, key = 36, velocity = 100, tick = 27264]
NOTE OFF [channel = 9, note = A#2, key = 46, velocity = 64, tick = 27312]
NOTE ON [channel = 9, note = A#2, key = 46, velocity = 69, tick = 27312]
NOTE OFF [channel = 9, note = C2, key = 36, velocity = 64, tick = 27360]
NOTE OFF [channel = 9, note = G#2, key = 44, velocity = 64, tick = 27360]
NOTE ON [channel = 9, note = G#2, key = 44, velocity = 100, tick = 27360]
NOTE ON [channel = 9, note = C2, key = 36, velocity = 100, tick = 27360]
NOTE OFF [channel = 9, note = A#2, key = 46, velocity = 64, tick = 27408]
NOTE ON [channel = 9, note = A#2, key = 46, velocity = 69, tick = 27408]
NOTE OFF [channel = 9, note = C2, key = 36, velocity = 64, tick = 27456]
NOTE OFF [channel = 9, note = G#2, key = 44, velocity = 64, tick = 27456]
NOTE ON [channel = 9, note = G#2, key = 44, velocity = 100, tick = 27456]
NOTE ON [channel = 9, note = C2, key = 36, velocity = 100, tick = 27456]
NOTE OFF [channel = 9, note = A#2, key = 46, velocity = 64, tick = 27504]
NOTE ON [channel = 9, note = A#2, key = 46, velocity = 69, tick = 27504]
NOTE OFF [channel = 9, note = C2, key = 36, velocity = 64, tick = 27552]
NOTE OFF [channel = 9, note = G#2, key = 44, velocity = 64, tick = 27552]
NOTE ON [channel = 9, note = C2, key = 36, velocity = 100, tick = 27552]
NOTE ON [channel = 9, note = G#2, key = 44, velocity = 100, tick = 27552]
NOTE OFF [channel = 9, note = A#2, key = 46, velocity = 64, tick = 27600]
NOTE ON [channel = 9, note = A#2, key = 46, velocity = 69, tick = 27600]
NOTE OFF [channel = 9, note = G#2, key = 44, velocity = 64, tick = 27648]
NOTE OFF [channel = 9, note = C2, key = 36, velocity = 64, tick = 27648]
NOTE ON [channel = 9, note = C2, key = 36, velocity = 100, tick = 27648]
NOTE ON [channel = 9, note = G#2, key = 44, velocity = 100, tick = 27648]
NOTE OFF [channel = 9, note = A#2, key = 46, velocity = 64, tick = 27696]
NOTE ON [channel = 9, note = A#2, key = 46, velocity = 69, tick = 27696]
NOTE OFF [channel = 9, note = G#2, key = 44, velocity = 64, tick = 27744]
NOTE OFF [channel = 9, note = C2, key = 36, velocity = 64, tick = 27744]
NOTE ON [channel = 9, note = G#2, key = 44, velocity = 100, tick = 27744]
NOTE ON [channel = 9, note = C2, key = 36, velocity = 100, tick = 27744]
NOTE OFF [channel = 9, note = A#2, key = 46, velocity = 64, tick = 27792]
NOTE ON [channel = 9, note = A#2, key = 46, velocity = 69, tick = 27792]
NOTE OFF [channel = 9, note = C2, key = 36, velocity = 64, tick = 27840]
NOTE OFF [channel = 9, note = G#2, key = 44, velocity = 64, tick = 27840]
NOTE ON [channel = 9, note = C2, key = 36, velocity = 100, tick = 27840]
NOTE ON [channel = 9, note = G#2, key = 44, velocity = 100, tick = 27840]
NOTE OFF [channel = 9, note = A#2, key = 46, velocity = 64, tick = 27888]
NOTE ON [channel = 9, note = A#2, key = 46, velocity = 69, tick = 27888]
NOTE OFF [channel = 9, note = G#2, key = 44, velocity = 64, tick = 27936]
NOTE OFF [channel = 9, note = C2, key = 36, velocity = 64, tick = 27936]
NOTE ON [channel = 9, note = G#2, key = 44, velocity = 100, tick = 27936]
NOTE ON [channel = 9, note = C2, key = 36, velocity = 100, tick = 27936]
NOTE OFF [channel = 9, note = A#2, key = 46, velocity = 64, tick = 27984]
NOTE ON [channel = 9, note = A#2, key = 46, velocity = 69, tick = 27984]
NOTE OFF [channel = 9, note = C#3, key = 49, velocity = 64, tick = 28032]
NOTE OFF [channel = 9, note = C2, key = 36, velocity = 64, tick = 28032]
NOTE OFF [channel = 9, note = G#2, key = 44, velocity = 64, tick = 28032]
NOTE ON [channel = 9, note = D2, key = 38, velocity = 100, tick = 28032]
NOTE ON [channel = 9, note = C#3, key = 49, velocity = 100, tick = 28032]
NOTE ON [channel = 9, note = C2, key = 36, velocity = 100, tick = 28032]
NOTE ON [channel = 9, note = G#2, key = 44, velocity = 100, tick = 28032]
NOTE OFF [channel = 9, note = A#2, key = 46, velocity = 64, tick = 28080]
NOTE ON [channel = 9, note = A#2, key = 46, velocity = 69, tick = 28080]
NOTE OFF [channel = 9, note = D#2, key = 39, velocity = 64, tick = 28128]
NOTE OFF [channel = 9, note = D2, key = 38, velocity = 64, tick = 28128]
NOTE OFF [channel = 9, note = G#2, key = 44, velocity = 64, tick = 28128]
NOTE OFF [channel = 9, note = C2, key = 36, velocity = 64, tick = 28128]
NOTE ON [channel = 9, note = D2, key = 38, velocity = 100, tick = 28128]
NOTE ON [channel = 9, note = D#2, key = 39, velocity = 100, tick = 28128]
NOTE ON [channel = 9, note = G#2, key = 44, velocity = 100, tick = 28128]
NOTE ON [channel = 9, note = C2, key = 36, velocity = 100, tick = 28128]
NOTE OFF [channel = 9, note = A#2, key = 46, velocity = 64, tick = 28176]
NOTE ON [channel = 9, note = A#2, key = 46, velocity = 69, tick = 28176]
NOTE OFF [channel = 9, note = C2, key = 36, velocity = 64, tick = 28224]
NOTE OFF [channel = 9, note = G#2, key = 44, velocity = 64, tick = 28224]
NOTE OFF [channel = 9, note = D2, key = 38, velocity = 64, tick = 28224]
NOTE ON [channel = 9, note = D2, key = 38, velocity = 100, tick = 28224]
NOTE ON [channel = 9, note = G#2, key = 44, velocity = 100, tick = 28224]
NOTE ON [channel = 9, note = C2, key = 36, velocity = 100, tick = 28224]
NOTE OFF [channel = 9, note = A#2, key = 46, velocity = 64, tick = 28272]
NOTE ON [channel = 9, note = A#2, key = 46, velocity = 69, tick = 28272]
NOTE OFF [channel = 9, note = C2, key = 36, velocity = 64, tick = 28320]
NOTE OFF [channel = 9, note = G#2, key = 44, velocity = 64, tick = 28320]
NOTE OFF [channel = 9, note = D#2, key = 39, velocity = 64, tick = 28320]
NOTE OFF [channel = 9, note = D2, key = 38, velocity = 64, tick = 28320]
NOTE ON [channel = 9, note = D2, key = 38, velocity = 100, tick = 28320]
NOTE ON [channel = 9, note = C2, key = 36, velocity = 100, tick = 28320]
NOTE ON [channel = 9, note = G#2, key = 44, velocity = 100, tick = 28320]
NOTE ON [channel = 9, note = D#2, key = 39, velocity = 100, tick = 28320]
NOTE OFF [channel = 9, note = A#2, key = 46, velocity = 64, tick = 28368]
NOTE ON [channel = 9, note = A#2, key = 46, velocity = 69, tick = 28368]
NOTE OFF [channel = 9, note = G#2, key = 44, velocity = 64, tick = 28416]
NOTE OFF [channel = 9, note = C2, key = 36, velocity = 64, tick = 28416]
NOTE OFF [channel = 9, note = D2, key = 38, velocity = 64, tick = 28416]
NOTE ON [channel = 9, note = D2, key = 38, velocity = 100, tick = 28416]
NOTE ON [channel = 9, note = G#2, key = 44, velocity = 100, tick = 28416]
NOTE ON [channel = 9, note = C2, key = 36, velocity = 100, tick = 28416]
NOTE OFF [channel = 9, note = A#2, key = 46, velocity = 64, tick = 28464]
NOTE ON [channel = 9, note = A#2, key = 46, velocity = 69, tick = 28464]
NOTE OFF [channel = 9, note = D#2, key = 39, velocity = 64, tick = 28512]
NOTE OFF [channel = 9, note = C2, key = 36, velocity = 64, tick = 28512]
NOTE OFF [channel = 9, note = G#2, key = 44, velocity = 64, tick = 28512]
NOTE OFF [channel = 9, note = D2, key = 38, velocity = 64, tick = 28512]
NOTE ON [channel = 9, note = D2, key = 38, velocity = 100, tick = 28512]
NOTE ON [channel = 9, note = C2, key = 36, velocity = 100, tick = 28512]
NOTE ON [channel = 9, note = G#2, key = 44, velocity = 100, tick = 28512]
NOTE ON [channel = 9, note = D#2, key = 39, velocity = 100, tick = 28512]
NOTE OFF [channel = 9, note = A#2, key = 46, velocity = 64, tick = 28560]
NOTE ON [channel = 9, note = A#2, key = 46, velocity = 69, tick = 28560]
NOTE OFF [channel = 9, note = G#2, key = 44, velocity = 64, tick = 28608]
NOTE OFF [channel = 9, note = C2, key = 36, velocity = 64, tick = 28608]
NOTE OFF [channel = 9, note = D2, key = 38, velocity = 64, tick = 28608]
NOTE ON [channel = 9, note = D2, key = 38, velocity = 100, tick = 28608]
NOTE ON [channel = 9, note = C2, key = 36, velocity = 100, tick = 28608]
NOTE ON [channel = 9, note = G#2, key = 44, velocity = 100, tick = 28608]
NOTE OFF [channel = 9, note = A#2, key = 46, velocity = 64, tick = 28656]
NOTE ON [channel = 9, note = A#2, key = 46, velocity = 69, tick = 28656]
NOTE OFF [channel = 9, note = D#2, key = 39, velocity = 64, tick = 28704]
NOTE OFF [channel = 9, note = G#2, key = 44, velocity = 64, tick = 28704]
NOTE OFF [channel = 9, note = C2, key = 36, velocity = 64, tick = 28704]
NOTE OFF [channel = 9, note = D2, key = 38, velocity = 64, tick = 28704]
NOTE ON [channel = 9, note = D2, key = 38, velocity = 100, tick = 28704]
NOTE ON [channel = 9, note = D#2, key = 39, velocity = 100, tick = 28704]
NOTE ON [channel = 9, note = G#2, key = 44, velocity = 100, tick = 28704]
NOTE ON [channel = 9, note = C2, key = 36, velocity = 100, tick = 28704]
NOTE OFF [channel = 9, note = A#2, key = 46, velocity = 64, tick = 28752]
NOTE ON [channel = 9, note = A#2, key = 46, velocity = 69, tick = 28752]
NOTE OFF [channel = 9, note = C2, key = 36, velocity = 64, tick = 28800]
NOTE OFF [channel = 9, note = G#2, key = 44, velocity = 64, tick = 28800]
NOTE OFF [channel = 9, note = D2, key = 38, velocity = 64, tick = 28800]
NOTE ON [channel = 9, note = D2, key = 38, velocity = 100, tick = 28800]
NOTE ON [channel = 9, note = C2, key = 36, velocity = 100, tick = 28800]
NOTE ON [channel = 9, note = G#2, key = 44, velocity = 100, tick = 28800]
NOTE OFF [channel = 9, note = D2, key = 38, velocity = 64, tick = 28848]
NOTE OFF [channel = 9, note = A#2, key = 46, velocity = 64, tick = 28848]
NOTE ON [channel = 9, note = D2, key = 38, velocity = 100, tick = 28848]
NOTE ON [channel = 9, note = A#2, key = 46, velocity = 69, tick = 28848]
NOTE OFF [channel = 9, note = D2, key = 38, velocity = 64, tick = 28896]
NOTE OFF [channel = 9, note = G#2, key = 44, velocity = 64, tick = 28896]
NOTE OFF [channel = 9, note = D#2, key = 39, velocity = 64, tick = 28896]
NOTE OFF [channel = 9, note = C2, key = 36, velocity = 64, tick = 28896]
NOTE ON [channel = 9, note = D2, key = 38, velocity = 100, tick = 28896]
NOTE ON [channel = 9, note = G#2, key = 44, velocity = 100, tick = 28896]
NOTE ON [channel = 9, note = C2, key = 36, velocity = 100, tick = 28896]
NOTE ON [channel = 9, note = D#2, key = 39, velocity = 100, tick = 28896]
NOTE OFF [channel = 9, note = A#2, key = 46, velocity = 64, tick = 28944]
NOTE OFF [channel = 9, note = D2, key = 38, velocity = 64, tick = 28944]
NOTE ON [channel = 9, note = D2, key = 38, velocity = 100, tick = 28944]
NOTE ON [channel = 9, note = A#2, key = 46, velocity = 69, tick = 28944]
NOTE OFF [channel = 9, note = C2, key = 36, velocity = 64, tick = 28992]
NOTE OFF [channel = 9, note = G#2, key = 44, velocity = 64, tick = 28992]
NOTE OFF [channel = 9, note = D2, key = 38, velocity = 64, tick = 28992]
NOTE ON [channel = 9, note = D2, key = 38, velocity = 100, tick = 28992]
NOTE ON [channel = 9, note = C2, key = 36, velocity = 100, tick = 28992]
NOTE ON [channel = 9, note = G#2, key = 44, velocity = 100, tick = 28992]
NOTE OFF [channel = 9, note = A#2, key = 46, velocity = 64, tick = 29040]
NOTE OFF [channel = 9, note = D2, key = 38, velocity = 64, tick = 29040]
NOTE ON [channel = 9, note = D2, key = 38, velocity = 100, tick = 29040]
NOTE ON [channel = 9, note = A#2, key = 46, velocity = 69, tick = 29040]
NOTE OFF [channel = 9, note = D#2, key = 39, velocity = 64, tick = 29088]
NOTE OFF [channel = 9, note = C2, key = 36, velocity = 64, tick = 29088]
NOTE OFF [channel = 9, note = G#2, key = 44, velocity = 64, tick = 29088]
NOTE OFF [channel = 9, note = D2, key = 38, velocity = 64, tick = 29088]
NOTE ON [channel = 9, note = D2, key = 38, velocity = 100, tick = 29088]
NOTE ON [channel = 9, note = G#2, key = 44, velocity = 100, tick = 29088]
NOTE ON [channel = 9, note = C2, key = 36, velocity = 100, tick = 29088]
NOTE ON [channel = 9, note = D#2, key = 39, velocity = 100, tick = 29088]
NOTE OFF [channel = 9, note = A#2, key = 46, velocity = 64, tick = 29136]
NOTE OFF [channel = 9, note = D2, key = 38, velocity = 64, tick = 29136]
NOTE ON [channel = 9, note = D2, key = 38, velocity = 100, tick = 29136]
NOTE ON [channel = 9, note = A#2, key = 46, velocity = 69, tick = 29136]
NOTE OFF [channel = 9, note = G#2, key = 44, velocity = 64, tick = 29184]
NOTE OFF [channel = 9, note = D2, key = 38, velocity = 64, tick = 29184]
NOTE ON [channel = 9, note = G#2, key = 44, velocity = 100, tick = 29184]
NOTE ON [channel = 9, note = D2, key = 38, velocity = 100, tick = 29184]
NOTE OFF [channel = 9, note = D2, key = 38, velocity = 64, tick = 29208]
NOTE ON [channel = 9, note = D2, key = 38, velocity = 100, tick = 29208]
NOTE OFF [channel = 9, note = A#2, key = 46, velocity = 64, tick = 29232]
NOTE OFF [channel = 9, note = D2, key = 38, velocity = 64, tick = 29232]
NOTE ON [channel = 9, note = A#2, key = 46, velocity = 69, tick = 29232]
NOTE ON [channel = 9, note = D2, key = 38, velocity = 100, tick = 29232]
NOTE OFF [channel = 9, note = D2, key = 38, velocity = 64, tick = 29256]
NOTE ON [channel = 9, note = D2, key = 38, velocity = 100, tick = 29256]
NOTE OFF [channel = 9, note = D2, key = 38, velocity = 64, tick = 29280]
NOTE OFF [channel = 9, note = D#2, key = 39, velocity = 64, tick = 29280]
NOTE OFF [channel = 9, note = G#2, key = 44, velocity = 64, tick = 29280]
NOTE ON [channel = 9, note = D#2, key = 39, velocity = 100, tick = 29280]
NOTE ON [channel = 9, note = G#2, key = 44, velocity = 100, tick = 29280]
NOTE ON [channel = 9, note = D2, key = 38, velocity = 100, tick = 29280]
NOTE OFF [channel = 9, note = D2, key = 38, velocity = 64, tick = 29304]
NOTE ON [channel = 9, note = D2, key = 38, velocity = 100, tick = 29304]
NOTE OFF [channel = 9, note = D2, key = 38, velocity = 64, tick = 29328]
NOTE OFF [channel = 9, note = A#2, key = 46, velocity = 64, tick = 29328]
NOTE ON [channel = 9, note = A#2, key = 46, velocity = 69, tick = 29328]
NOTE ON [channel = 9, note = D2, key = 38, velocity = 100, tick = 29328]
NOTE OFF [channel = 9, note = D2, key = 38, velocity = 64, tick = 29352]
NOTE ON [channel = 9, note = D2, key = 38, velocity = 100, tick = 29352]
NOTE OFF [channel = 9, note = D2, key = 38, velocity = 64, tick = 29376]
NOTE OFF [channel = 9, note = G#2, key = 44, velocity = 64, tick = 29376]
NOTE ON [channel = 9, note = G#2, key = 44, velocity = 100, tick = 29376]
NOTE ON [channel = 9, note = B2, key = 47, velocity = 100, tick = 29376]
NOTE OFF [channel = 9, note = B2, key = 47, velocity = 64, tick = 29400]
NOTE ON [channel = 9, note = B2, key = 47, velocity = 100, tick = 29400]
NOTE OFF [channel = 9, note = B2, key = 47, velocity = 64, tick = 29424]
NOTE OFF [channel = 9, note = A#2, key = 46, velocity = 64, tick = 29424]
NOTE ON [channel = 9, note = B2, key = 47, velocity = 100, tick = 29424]
NOTE ON [channel = 9, note = A#2, key = 46, velocity = 69, tick = 29424]
NOTE OFF [channel = 9, note = B2, key = 47, velocity = 64, tick = 29448]
NOTE ON [channel = 9, note = A2, key = 45, velocity = 100, tick = 29448]
NOTE OFF [channel = 9, note = A2, key = 45, velocity = 64, tick = 29472]
NOTE OFF [channel = 9, note = G#2, key = 44, velocity = 64, tick = 29472]
NOTE OFF [channel = 9, note = D#2, key = 39, velocity = 64, tick = 29472]
NOTE ON [channel = 9, note = G2, key = 43, velocity = 100, tick = 29472]
NOTE ON [channel = 9, note = G#2, key = 44, velocity = 100, tick = 29472]
NOTE ON [channel = 9, note = D#2, key = 39, velocity = 100, tick = 29472]
NOTE OFF [channel = 9, note = A#2, key = 46, velocity = 64, tick = 29520]
NOTE OFF [channel = 9, note = G2, key = 43, velocity = 64, tick = 29520]
NOTE ON [channel = 9, note = D2, key = 38, velocity = 100, tick = 29520]
NOTE ON [channel = 9, note = A#2, key = 46, velocity = 69, tick = 29520]
NOTE OFF [channel = 9, note = C#3, key = 49, velocity = 64, tick = 29568]
NOTE OFF [channel = 9, note = G#2, key = 44, velocity = 64, tick = 29568]
NOTE OFF [channel = 9, note = C2, key = 36, velocity = 64, tick = 29568]
NOTE OFF [channel = 9, note = D2, key = 38, velocity = 64, tick = 29568]
NOTE ON [channel = 9, note = C#3, key = 49, velocity = 100, tick = 29568]
NOTE ON [channel = 9, note = C2, key = 36, velocity = 100, tick = 29568]
NOTE ON [channel = 9, note = G#2, key = 44, velocity = 100, tick = 29568]
NOTE OFF [channel = 9, note = A#2, key = 46, velocity = 64, tick = 29616]
NOTE ON [channel = 9, note = A#2, key = 46, velocity = 69, tick = 29616]
NOTE OFF [channel = 9, note = G#2, key = 44, velocity = 64, tick = 29664]
NOTE OFF [channel = 9, note = C2, key = 36, velocity = 64, tick = 29664]
NOTE ON [channel = 9, note = C2, key = 36, velocity = 100, tick = 29664]
NOTE ON [channel = 9, note = G#2, key = 44, velocity = 100, tick = 29664]
NOTE OFF [channel = 9, note = A#2, key = 46, velocity = 64, tick = 29712]
NOTE ON [channel = 9, note = A#2, key = 46, velocity = 69, tick = 29712]
NOTE OFF [channel = 9, note = G#2, key = 44, velocity = 64, tick = 29760]
NOTE OFF [channel = 9, note = C2, key = 36, velocity = 64, tick = 29760]
NOTE ON [channel = 9, note = G#2, key = 44, velocity = 100, tick = 29760]
NOTE ON [channel = 9, note = C2, key = 36, velocity = 100, tick = 29760]
NOTE OFF [channel = 9, note = A#2, key = 46, velocity = 64, tick = 29808]
NOTE ON [channel = 9, note = A#2, key = 46, velocity = 69, tick = 29808]
NOTE OFF [channel = 9, note = C2, key = 36, velocity = 64, tick = 29856]
NOTE OFF [channel = 9, note = G#2, key = 44, velocity = 64, tick = 29856]
NOTE ON [channel = 9, note = G#2, key = 44, velocity = 100, tick = 29856]
NOTE ON [channel = 9, note = C2, key = 36, velocity = 100, tick = 29856]
NOTE OFF [channel = 9, note = A#2, key = 46, velocity = 64, tick = 29904]
NOTE ON [channel = 9, note = A#2, key = 46, velocity = 69, tick = 29904]
NOTE OFF [channel = 9, note = C2, key = 36, velocity = 64, tick = 29952]
NOTE OFF [channel = 9, note = G#2, key = 44, velocity = 64, tick = 29952]
NOTE ON [channel = 9, note = C2, key = 36, velocity = 100, tick = 29952]
NOTE ON [channel = 9, note = G#2, key = 44, velocity = 100, tick = 29952]
NOTE OFF [channel = 9, note = A#2, key = 46, velocity = 64, tick = 30000]
NOTE ON [channel = 9, note = A#2, key = 46, velocity = 69, tick = 30000]
NOTE OFF [channel = 9, note = C2, key = 36, velocity = 64, tick = 30048]
NOTE OFF [channel = 9, note = G#2, key = 44, velocity = 64, tick = 30048]
NOTE ON [channel = 9, note = G#2, key = 44, velocity = 100, tick = 30048]
NOTE ON [channel = 9, note = C2, key = 36, velocity = 100, tick = 30048]
NOTE OFF [channel = 9, note = A#2, key = 46, velocity = 64, tick = 30096]
NOTE ON [channel = 9, note = A#2, key = 46, velocity = 69, tick = 30096]
NOTE OFF [channel = 9, note = C2, key = 36, velocity = 64, tick = 30144]
NOTE OFF [channel = 9, note = G#2, key = 44, velocity = 64, tick = 30144]
NOTE ON [channel = 9, note = G#2, key = 44, velocity = 100, tick = 30144]
NOTE ON [channel = 9, note = C2, key = 36, velocity = 100, tick = 30144]
NOTE OFF [channel = 9, note = A#2, key = 46, velocity = 64, tick = 30192]
NOTE ON [channel = 9, note = A#2, key = 46, velocity = 69, tick = 30192]
NOTE OFF [channel = 9, note = C2, key = 36, velocity = 64, tick = 30240]
NOTE OFF [channel = 9, note = G#2, key = 44, velocity = 64, tick = 30240]
NOTE ON [channel = 9, note = G#2, key = 44, velocity = 100, tick = 30240]
NOTE ON [channel = 9, note = C2, key = 36, velocity = 100, tick = 30240]
NOTE OFF [channel = 9, note = A#2, key = 46, velocity = 64, tick = 30288]
NOTE ON [channel = 9, note = A#2, key = 46, velocity = 69, tick = 30288]
NOTE OFF [channel = 9, note = C2, key = 36, velocity = 64, tick = 30336]
NOTE OFF [channel = 9, note = G#2, key = 44, velocity = 64, tick = 30336]
NOTE ON [channel = 9, note = C2, key = 36, velocity = 100, tick = 30336]
NOTE ON [channel = 9, note = G#2, key = 44, velocity = 100, tick = 30336]
NOTE OFF [channel = 9, note = A#2, key = 46, velocity = 64, tick = 30384]
NOTE ON [channel = 9, note = A#2, key = 46, velocity = 69, tick = 30384]
NOTE OFF [channel = 9, note = C2, key = 36, velocity = 64, tick = 30432]
NOTE OFF [channel = 9, note = G#2, key = 44, velocity = 64, tick = 30432]
NOTE ON [channel = 9, note = C2, key = 36, velocity = 100, tick = 30432]
NOTE ON [channel = 9, note = G#2, key = 44, velocity = 100, tick = 30432]
NOTE OFF [channel = 9, note = A#2, key = 46, velocity = 64, tick = 30480]
NOTE ON [channel = 9, note = A#2, key = 46, velocity = 69, tick = 30480]
NOTE OFF [channel = 9, note = G#2, key = 44, velocity = 64, tick = 30528]
NOTE OFF [channel = 9, note = C2, key = 36, velocity = 64, tick = 30528]
NOTE ON [channel = 9, note = G#2, key = 44, velocity = 100, tick = 30528]
NOTE ON [channel = 9, note = C2, key = 36, velocity = 100, tick = 30528]
NOTE OFF [channel = 9, note = A#2, key = 46, velocity = 64, tick = 30576]
NOTE ON [channel = 9, note = A#2, key = 46, velocity = 69, tick = 30576]
NOTE OFF [channel = 9, note = C2, key = 36, velocity = 64, tick = 30624]
NOTE OFF [channel = 9, note = G#2, key = 44, velocity = 64, tick = 30624]
NOTE ON [channel = 9, note = G#2, key = 44, velocity = 100, tick = 30624]
NOTE ON [channel = 9, note = C2, key = 36, velocity = 100, tick = 30624]
NOTE OFF [channel = 9, note = A#2, key = 46, velocity = 64, tick = 30672]
NOTE ON [channel = 9, note = A#2, key = 46, velocity = 69, tick = 30672]
NOTE OFF [channel = 9, note = C2, key = 36, velocity = 64, tick = 30720]
NOTE OFF [channel = 9, note = G#2, key = 44, velocity = 64, tick = 30720]
NOTE ON [channel = 9, note = G#2, key = 44, velocity = 100, tick = 30720]
NOTE ON [channel = 9, note = C2, key = 36, velocity = 100, tick = 30720]
NOTE OFF [channel = 9, note = A#2, key = 46, velocity = 64, tick = 30768]
NOTE ON [channel = 9, note = A#2, key = 46, velocity = 69, tick = 30768]
NOTE OFF [channel = 9, note = C2, key = 36, velocity = 64, tick = 30816]
NOTE OFF [channel = 9, note = G#2, key = 44, velocity = 64, tick = 30816]
NOTE ON [channel = 9, note = C2, key = 36, velocity = 100, tick = 30816]
NOTE ON [channel = 9, note = G#2, key = 44, velocity = 100, tick = 30816]
NOTE OFF [channel = 9, note = A#2, key = 46, velocity = 64, tick = 30864]
NOTE ON [channel = 9, note = A#2, key = 46, velocity = 69, tick = 30864]
NOTE OFF [channel = 9, note = C2, key = 36, velocity = 64, tick = 30912]
NOTE OFF [channel = 9, note = G#2, key = 44, velocity = 64, tick = 30912]
NOTE ON [channel = 9, note = C2, key = 36, velocity = 100, tick = 30912]
NOTE ON [channel = 9, note = G#2, key = 44, velocity = 100, tick = 30912]
NOTE OFF [channel = 9, note = A#2, key = 46, velocity = 64, tick = 30960]
NOTE ON [channel = 9, note = A#2, key = 46, velocity = 69, tick = 30960]
NOTE OFF [channel = 9, note = G#2, key = 44, velocity = 64, tick = 31008]
NOTE OFF [channel = 9, note = C2, key = 36, velocity = 64, tick = 31008]
NOTE ON [channel = 9, note = C2, key = 36, velocity = 100, tick = 31008]
NOTE ON [channel = 9, note = G#2, key = 44, velocity = 100, tick = 31008]
NOTE OFF [channel = 9, note = A#2, key = 46, velocity = 64, tick = 31056]
NOTE ON [channel = 9, note = A#2, key = 46, velocity = 69, tick = 31056]
NOTE OFF [channel = 9, note = C#3, key = 49, velocity = 64, tick = 31104]
NOTE OFF [channel = 9, note = C2, key = 36, velocity = 64, tick = 31104]
NOTE OFF [channel = 9, note = G#2, key = 44, velocity = 64, tick = 31104]
NOTE ON [channel = 9, note = C#3, key = 49, velocity = 100, tick = 31104]
NOTE ON [channel = 9, note = C2, key = 36, velocity = 100, tick = 31104]
NOTE ON [channel = 9, note = G#2, key = 44, velocity = 100, tick = 31104]
NOTE OFF [channel = 9, note = A#2, key = 46, velocity = 64, tick = 31152]
NOTE ON [channel = 9, note = A#2, key = 46, velocity = 69, tick = 31152]
NOTE OFF [channel = 9, note = D#2, key = 39, velocity = 64, tick = 31200]
NOTE OFF [channel = 9, note = G#2, key = 44, velocity = 64, tick = 31200]
NOTE OFF [channel = 9, note = C2, key = 36, velocity = 64, tick = 31200]
NOTE ON [channel = 9, note = C2, key = 36, velocity = 100, tick = 31200]
NOTE ON [channel = 9, note = G#2, key = 44, velocity = 100, tick = 31200]
NOTE ON [channel = 9, note = D#2, key = 39, velocity = 100, tick = 31200]
NOTE OFF [channel = 9, note = A#2, key = 46, velocity = 64, tick = 31248]
NOTE ON [channel = 9, note = A#2, key = 46, velocity = 69, tick = 31248]
NOTE OFF [channel = 9, note = G#2, key = 44, velocity = 64, tick = 31296]
NOTE OFF [channel = 9, note = C2, key = 36, velocity = 64, tick = 31296]
NOTE ON [channel = 9, note = C2, key = 36, velocity = 100, tick = 31296]
NOTE ON [channel = 9, note = G#2, key = 44, velocity = 100, tick = 31296]
NOTE OFF [channel = 9, note = A#2, key = 46, velocity = 64, tick = 31344]
NOTE ON [channel = 9, note = A#2, key = 46, velocity = 69, tick = 31344]
NOTE OFF [channel = 9, note = D#2, key = 39, velocity = 64, tick = 31392]
NOTE OFF [channel = 9, note = G#2, key = 44, velocity = 64, tick = 31392]
NOTE OFF [channel = 9, note = C2, key = 36, velocity = 64, tick = 31392]
NOTE ON [channel = 9, note = C2, key = 36, velocity = 100, tick = 31392]
NOTE ON [channel = 9, note = G#2, key = 44, velocity = 100, tick = 31392]
NOTE ON [channel = 9, note = D#2, key = 39, velocity = 100, tick = 31392]
NOTE OFF [channel = 9, note = A#2, key = 46, velocity = 64, tick = 31440]
NOTE ON [channel = 9, note = A#2, key = 46, velocity = 69, tick = 31440]
NOTE OFF [channel = 9, note = C2, key = 36, velocity = 64, tick = 31488]
NOTE OFF [channel = 9, note = G#2, key = 44, velocity = 64, tick = 31488]
NOTE ON [channel = 9, note = G#2, key = 44, velocity = 100, tick = 31488]
NOTE ON [channel = 9, note = C2, key = 36, velocity = 100, tick = 31488]
NOTE OFF [channel = 9, note = A#2, key = 46, velocity = 64, tick = 31536]
NOTE ON [channel = 9, note = A#2, key = 46, velocity = 69, tick = 31536]
NOTE OFF [channel = 9, note = C2, key = 36, velocity = 64, tick = 31584]
NOTE OFF [channel = 9, note = D#2, key = 39, velocity = 64, tick = 31584]
NOTE OFF [channel = 9, note = G#2, key = 44, velocity = 64, tick = 31584]
NOTE ON [channel = 9, note = D#2, key = 39, velocity = 100, tick = 31584]
NOTE ON [channel = 9, note = G#2, key = 44, velocity = 100, tick = 31584]
NOTE ON [channel = 9, note = C2, key = 36, velocity = 100, tick = 31584]
NOTE OFF [channel = 9, note = A#2, key = 46, velocity = 64, tick = 31632]
NOTE ON [channel = 9, note = A#2, key = 46, velocity = 69, tick = 31632]
NOTE OFF [channel = 9, note = C2, key = 36, velocity = 64, tick = 31680]
NOTE OFF [channel = 9, note = G#2, key = 44, velocity = 64, tick = 31680]
NOTE ON [channel = 9, note = C2, key = 36, velocity = 100, tick = 31680]
NOTE ON [channel = 9, note = G#2, key = 44, velocity = 100, tick = 31680]
NOTE OFF [channel = 9, note = A#2, key = 46, velocity = 64, tick = 31728]
NOTE ON [channel = 9, note = A#2, key = 46, velocity = 69, tick = 31728]
NOTE OFF [channel = 9, note = G#2, key = 44, velocity = 64, tick = 31776]
NOTE OFF [channel = 9, note = C2, key = 36, velocity = 64, tick = 31776]
NOTE OFF [channel = 9, note = D#2, key = 39, velocity = 64, tick = 31776]
NOTE ON [channel = 9, note = G#2, key = 44, velocity = 100, tick = 31776]
NOTE ON [channel = 9, note = C2, key = 36, velocity = 100, tick = 31776]
NOTE ON [channel = 9, note = D#2, key = 39, velocity = 100, tick = 31776]
NOTE OFF [channel = 9, note = A#2, key = 46, velocity = 64, tick = 31824]
NOTE ON [channel = 9, note = A#2, key = 46, velocity = 69, tick = 31824]
NOTE OFF [channel = 9, note = C2, key = 36, velocity = 64, tick = 31872]
NOTE OFF [channel = 9, note = G#2, key = 44, velocity = 64, tick = 31872]
NOTE ON [channel = 9, note = G#2, key = 44, velocity = 100, tick = 31872]
NOTE ON [channel = 9, note = C2, key = 36, velocity = 100, tick = 31872]
NOTE OFF [channel = 9, note = A#2, key = 46, velocity = 64, tick = 31920]
NOTE ON [channel = 9, note = A#2, key = 46, velocity = 69, tick = 31920]
NOTE OFF [channel = 9, note = D#2, key = 39, velocity = 64, tick = 31968]
NOTE OFF [channel = 9, note = C2, key = 36, velocity = 64, tick = 31968]
NOTE OFF [channel = 9, note = G#2, key = 44, velocity = 64, tick = 31968]
NOTE ON [channel = 9, note = D#2, key = 39, velocity = 100, tick = 31968]
NOTE ON [channel = 9, note = C2, key = 36, velocity = 100, tick = 31968]
NOTE ON [channel = 9, note = G#2, key = 44, velocity = 100, tick = 31968]
NOTE OFF [channel = 9, note = A#2, key = 46, velocity = 64, tick = 32016]
NOTE ON [channel = 9, note = A#2, key = 46, velocity = 69, tick = 32016]
NOTE OFF [channel = 9, note = G#2, key = 44, velocity = 64, tick = 32064]
NOTE OFF [channel = 9, note = C2, key = 36, velocity = 64, tick = 32064]
NOTE ON [channel = 9, note = G#2, key = 44, velocity = 100, tick = 32064]
NOTE ON [channel = 9, note = C2, key = 36, velocity = 100, tick = 32064]
NOTE OFF [channel = 9, note = A#2, key = 46, velocity = 64, tick = 32112]
NOTE ON [channel = 9, note = A#2, key = 46, velocity = 69, tick = 32112]
NOTE OFF [channel = 9, note = C2, key = 36, velocity = 64, tick = 32160]
NOTE OFF [channel = 9, note = G#2, key = 44, velocity = 64, tick = 32160]
NOTE OFF [channel = 9, note = D#2, key = 39, velocity = 64, tick = 32160]
NOTE ON [channel = 9, note = D#2, key = 39, velocity = 100, tick = 32160]
NOTE ON [channel = 9, note = C2, key = 36, velocity = 100, tick = 32160]
NOTE ON [channel = 9, note = G#2, key = 44, velocity = 100, tick = 32160]
NOTE OFF [channel = 9, note = A#2, key = 46, velocity = 64, tick = 32208]
NOTE ON [channel = 9, note = A#2, key = 46, velocity = 69, tick = 32208]
NOTE OFF [channel = 9, note = G#2, key = 44, velocity = 64, tick = 32256]
NOTE ON [channel = 9, note = G#2, key = 44, velocity = 100, tick = 32256]
NOTE OFF [channel = 9, note = A#2, key = 46, velocity = 64, tick = 32304]
NOTE ON [channel = 9, note = A#2, key = 46, velocity = 69, tick = 32304]
NOTE OFF [channel = 9, note = D#2, key = 39, velocity = 64, tick = 32352]
NOTE OFF [channel = 9, note = G#2, key = 44, velocity = 64, tick = 32352]
NOTE ON [channel = 9, note = G#2, key = 44, velocity = 100, tick = 32352]
NOTE ON [channel = 9, note = D#2, key = 39, velocity = 100, tick = 32352]
NOTE OFF [channel = 9, note = A#2, key = 46, velocity = 64, tick = 32400]
NOTE ON [channel = 9, note = A#2, key = 46, velocity = 69, tick = 32400]
NOTE OFF [channel = 9, note = G#2, key = 44, velocity = 64, tick = 32448]
NOTE ON [channel = 9, note = G#2, key = 44, velocity = 100, tick = 32448]
NOTE OFF [channel = 9, note = A#2, key = 46, velocity = 64, tick = 32496]
NOTE ON [channel = 9, note = A#2, key = 46, velocity = 69, tick = 32496]
NOTE OFF [channel = 9, note = D#2, key = 39, velocity = 64, tick = 32544]
NOTE OFF [channel = 9, note = G#2, key = 44, velocity = 64, tick = 32544]
NOTE ON [channel = 9, note = G#2, key = 44, velocity = 100, tick = 32544]
NOTE ON [channel = 9, note = D#2, key = 39, velocity = 100, tick = 32544]
NOTE OFF [channel = 9, note = A#2, key = 46, velocity = 64, tick = 32592]
NOTE ON [channel = 9, note = A#2, key = 46, velocity = 69, tick = 32592]
NOTE OFF [channel = 9, note = C2, key = 36, velocity = 64, tick = 32640]
NOTE OFF [channel = 9, note = G#2, key = 44, velocity = 64, tick = 32640]
NOTE OFF [channel = 9, note = C#3, key = 49, velocity = 64, tick = 32640]
NOTE ON [channel = 9, note = G#2, key = 44, velocity = 100, tick = 32640]
NOTE ON [channel = 9, note = C2, key = 36, velocity = 100, tick = 32640]
NOTE ON [channel = 9, note = C#3, key = 49, velocity = 100, tick = 32640]
NOTE OFF [channel = 9, note = A#2, key = 46, velocity = 64, tick = 32688]
NOTE ON [channel = 9, note = A#2, key = 46, velocity = 69, tick = 32688]
NOTE OFF [channel = 9, note = C2, key = 36, velocity = 64, tick = 32736]
NOTE OFF [channel = 9, note = G#2, key = 44, velocity = 64, tick = 32736]
NOTE ON [channel = 9, note = G#2, key = 44, velocity = 100, tick = 32736]
NOTE ON [channel = 9, note = C2, key = 36, velocity = 100, tick = 32736]
NOTE OFF [channel = 9, note = A#2, key = 46, velocity = 64, tick = 32784]
NOTE ON [channel = 9, note = A#2, key = 46, velocity = 69, tick = 32784]
NOTE OFF [channel = 9, note = C2, key = 36, velocity = 64, tick = 32832]
NOTE OFF [channel = 9, note = G#2, key = 44, velocity = 64, tick = 32832]
NOTE ON [channel = 9, note = G#2, key = 44, velocity = 100, tick = 32832]
NOTE ON [channel = 9, note = C2, key = 36, velocity = 100, tick = 32832]
NOTE OFF [channel = 9, note = A#2, key = 46, velocity = 64, tick = 32880]
NOTE ON [channel = 9, note = A#2, key = 46, velocity = 69, tick = 32880]
NOTE OFF [channel = 9, note = C2, key = 36, velocity = 64, tick = 32928]
NOTE OFF [channel = 9, note = G#2, key = 44, velocity = 64, tick = 32928]
NOTE ON [channel = 9, note = C2, key = 36, velocity = 100, tick = 32928]
NOTE ON [channel = 9, note = G#2, key = 44, velocity = 100, tick = 32928]
NOTE OFF [channel = 9, note = A#2, key = 46, velocity = 64, tick = 32976]
NOTE ON [channel = 9, note = A#2, key = 46, velocity = 69, tick = 32976]
NOTE OFF [channel = 9, note = G#2, key = 44, velocity = 64, tick = 33024]
NOTE OFF [channel = 9, note = C2, key = 36, velocity = 64, tick = 33024]
NOTE ON [channel = 9, note = G#2, key = 44, velocity = 100, tick = 33024]
NOTE ON [channel = 9, note = C2, key = 36, velocity = 100, tick = 33024]
NOTE OFF [channel = 9, note = A#2, key = 46, velocity = 64, tick = 33072]
NOTE ON [channel = 9, note = A#2, key = 46, velocity = 69, tick = 33072]
NOTE OFF [channel = 9, note = C2, key = 36, velocity = 64, tick = 33120]
NOTE OFF [channel = 9, note = G#2, key = 44, velocity = 64, tick = 33120]
NOTE ON [channel = 9, note = C2, key = 36, velocity = 100, tick = 33120]
NOTE ON [channel = 9, note = G#2, key = 44, velocity = 100, tick = 33120]
NOTE OFF [channel = 9, note = A#2, key = 46, velocity = 64, tick = 33168]
NOTE ON [channel = 9, note = A#2, key = 46, velocity = 69, tick = 33168]
NOTE OFF [channel = 9, note = G#2, key = 44, velocity = 64, tick = 33216]
NOTE OFF [channel = 9, note = C2, key = 36, velocity = 64, tick = 33216]
NOTE ON [channel = 9, note = G#2, key = 44, velocity = 100, tick = 33216]
NOTE ON [channel = 9, note = C2, key = 36, velocity = 100, tick = 33216]
NOTE OFF [channel = 9, note = A#2, key = 46, velocity = 64, tick = 33264]
NOTE ON [channel = 9, note = A#2, key = 46, velocity = 69, tick = 33264]
NOTE OFF [channel = 9, note = C2, key = 36, velocity = 64, tick = 33312]
NOTE OFF [channel = 9, note = G#2, key = 44, velocity = 64, tick = 33312]
NOTE ON [channel = 9, note = G#2, key = 44, velocity = 100, tick = 33312]
NOTE ON [channel = 9, note = C2, key = 36, velocity = 100, tick = 33312]
NOTE OFF [channel = 9, note = A#2, key = 46, velocity = 64, tick = 33360]
NOTE ON [channel = 9, note = A#2, key = 46, velocity = 69, tick = 33360]
NOTE OFF [channel = 9, note = C2, key = 36, velocity = 64, tick = 33408]
NOTE OFF [channel = 9, note = G#2, key = 44, velocity = 64, tick = 33408]
NOTE ON [channel = 9, note = C2, key = 36, velocity = 100, tick = 33408]
NOTE ON [channel = 9, note = G#2, key = 44, velocity = 100, tick = 33408]
NOTE OFF [channel = 9, note = A#2, key = 46, velocity = 64, tick = 33456]
NOTE ON [channel = 9, note = A#2, key = 46, velocity = 69, tick = 33456]
NOTE OFF [channel = 9, note = G#2, key = 44, velocity = 64, tick = 33504]
NOTE OFF [channel = 9, note = C2, key = 36, velocity = 64, tick = 33504]
NOTE ON [channel = 9, note = G#2, key = 44, velocity = 100, tick = 33504]
NOTE ON [channel = 9, note = C2, key = 36, velocity = 100, tick = 33504]
NOTE OFF [channel = 9, note = A#2, key = 46, velocity = 64, tick = 33552]
NOTE ON [channel = 9, note = A#2, key = 46, velocity = 69, tick = 33552]
NOTE OFF [channel = 9, note = C2, key = 36, velocity = 64, tick = 33600]
NOTE OFF [channel = 9, note = G#2, key = 44, velocity = 64, tick = 33600]
NOTE ON [channel = 9, note = G#2, key = 44, velocity = 100, tick = 33600]
NOTE ON [channel = 9, note = C2, key = 36, velocity = 100, tick = 33600]
NOTE OFF [channel = 9, note = A#2, key = 46, velocity = 64, tick = 33648]
NOTE ON [channel = 9, note = A#2, key = 46, velocity = 69, tick = 33648]
NOTE OFF [channel = 9, note = C2, key = 36, velocity = 64, tick = 33696]
NOTE OFF [channel = 9, note = G#2, key = 44, velocity = 64, tick = 33696]
NOTE ON [channel = 9, note = G#2, key = 44, velocity = 100, tick = 33696]
NOTE ON [channel = 9, note = C2, key = 36, velocity = 100, tick = 33696]
NOTE OFF [channel = 9, note = A#2, key = 46, velocity = 64, tick = 33744]
NOTE ON [channel = 9, note = A#2, key = 46, velocity = 69, tick = 33744]
NOTE OFF [channel = 9, note = C2, key = 36, velocity = 64, tick = 33792]
NOTE OFF [channel = 9, note = G#2, key = 44, velocity = 64, tick = 33792]
NOTE ON [channel = 9, note = G#2, key = 44, velocity = 100, tick = 33792]
NOTE ON [channel = 9, note = C2, key = 36, velocity = 100, tick = 33792]
NOTE OFF [channel = 9, note = A#2, key = 46, velocity = 64, tick = 33840]
NOTE ON [channel = 9, note = A#2, key = 46, velocity = 69, tick = 33840]
NOTE OFF [channel = 9, note = C2, key = 36, velocity = 64, tick = 33888]
NOTE OFF [channel = 9, note = G#2, key = 44, velocity = 64, tick = 33888]
NOTE ON [channel = 9, note = G#2, key = 44, velocity = 100, tick = 33888]
NOTE ON [channel = 9, note = C2, key = 36, velocity = 100, tick = 33888]
NOTE OFF [channel = 9, note = A#2, key = 46, velocity = 64, tick = 33936]
NOTE ON [channel = 9, note = A#2, key = 46, velocity = 69, tick = 33936]
NOTE OFF [channel = 9, note = C2, key = 36, velocity = 64, tick = 33984]
NOTE OFF [channel = 9, note = G#2, key = 44, velocity = 64, tick = 33984]
NOTE ON [channel = 9, note = C2, key = 36, velocity = 100, tick = 33984]
NOTE ON [channel = 9, note = G#2, key = 44, velocity = 100, tick = 33984]
NOTE OFF [channel = 9, note = A#2, key = 46, velocity = 64, tick = 34032]
NOTE ON [channel = 9, note = A#2, key = 46, velocity = 69, tick = 34032]
NOTE OFF [channel = 9, note = G#2, key = 44, velocity = 64, tick = 34080]
NOTE OFF [channel = 9, note = C2, key = 36, velocity = 64, tick = 34080]
NOTE ON [channel = 9, note = C2, key = 36, velocity = 100, tick = 34080]
NOTE ON [channel = 9, note = G#2, key = 44, velocity = 100, tick = 34080]
NOTE OFF [channel = 9, note = A#2, key = 46, velocity = 64, tick = 34128]
NOTE ON [channel = 9, note = A#2, key = 46, velocity = 69, tick = 34128]
NOTE OFF [channel = 9, note = C#3, key = 49, velocity = 64, tick = 34176]
NOTE OFF [channel = 9, note = G#2, key = 44, velocity = 64, tick = 34176]
NOTE OFF [channel = 9, note = C2, key = 36, velocity = 64, tick = 34176]
NOTE ON [channel = 9, note = C#3, key = 49, velocity = 100, tick = 34176]
NOTE ON [channel = 9, note = C2, key = 36, velocity = 100, tick = 34176]
NOTE ON [channel = 9, note = G#2, key = 44, velocity = 100, tick = 34176]
NOTE OFF [channel = 9, note = A#2, key = 46, velocity = 64, tick = 34224]
NOTE ON [channel = 9, note = A#2, key = 46, velocity = 69, tick = 34224]
NOTE OFF [channel = 9, note = G#2, key = 44, velocity = 64, tick = 34272]
NOTE OFF [channel = 9, note = D#2, key = 39, velocity = 64, tick = 34272]
NOTE OFF [channel = 9, note = C2, key = 36, velocity = 64, tick = 34272]
NOTE ON [channel = 9, note = D#2, key = 39, velocity = 100, tick = 34272]
NOTE ON [channel = 9, note = G#2, key = 44, velocity = 100, tick = 34272]
NOTE ON [channel = 9, note = C2, key = 36, velocity = 100, tick = 34272]
NOTE OFF [channel = 9, note = A#2, key = 46, velocity = 64, tick = 34320]
NOTE ON [channel = 9, note = A#2, key = 46, velocity = 69, tick = 34320]
NOTE OFF [channel = 9, note = C2, key = 36, velocity = 64, tick = 34368]
NOTE OFF [channel = 9, note = G#2, key = 44, velocity = 64, tick = 34368]
NOTE ON [channel = 9, note = C2, key = 36, velocity = 100, tick = 34368]
NOTE ON [channel = 9, note = G#2, key = 44, velocity = 100, tick = 34368]
NOTE OFF [channel = 9, note = A#2, key = 46, velocity = 64, tick = 34416]
NOTE ON [channel = 9, note = A#2, key = 46, velocity = 69, tick = 34416]
NOTE OFF [channel = 9, note = G#2, key = 44, velocity = 64, tick = 34464]
NOTE OFF [channel = 9, note = C2, key = 36, velocity = 64, tick = 34464]
NOTE OFF [channel = 9, note = D#2, key = 39, velocity = 64, tick = 34464]
NOTE ON [channel = 9, note = C2, key = 36, velocity = 100, tick = 34464]
NOTE ON [channel = 9, note = G#2, key = 44, velocity = 100, tick = 34464]
NOTE ON [channel = 9, note = D#2, key = 39, velocity = 100, tick = 34464]
NOTE OFF [channel = 9, note = A#2, key = 46, velocity = 64, tick = 34512]
NOTE ON [channel = 9, note = A#2, key = 46, velocity = 69, tick = 34512]
NOTE OFF [channel = 9, note = G#2, key = 44, velocity = 64, tick = 34560]
NOTE OFF [channel = 9, note = C2, key = 36, velocity = 64, tick = 34560]
NOTE ON [channel = 9, note = C2, key = 36, velocity = 100, tick = 34560]
NOTE ON [channel = 9, note = G#2, key = 44, velocity = 100, tick = 34560]
NOTE OFF [channel = 9, note = A#2, key = 46, velocity = 64, tick = 34608]
NOTE ON [channel = 9, note = A#2, key = 46, velocity = 69, tick = 34608]
NOTE OFF [channel = 9, note = D#2, key = 39, velocity = 64, tick = 34656]
NOTE OFF [channel = 9, note = G#2, key = 44, velocity = 64, tick = 34656]
NOTE OFF [channel = 9, note = C2, key = 36, velocity = 64, tick = 34656]
NOTE ON [channel = 9, note = D#2, key = 39, velocity = 100, tick = 34656]
NOTE ON [channel = 9, note = G#2, key = 44, velocity = 100, tick = 34656]
NOTE ON [channel = 9, note = C2, key = 36, velocity = 100, tick = 34656]
NOTE OFF [channel = 9, note = A#2, key = 46, velocity = 64, tick = 34704]
NOTE ON [channel = 9, note = A#2, key = 46, velocity = 69, tick = 34704]
NOTE OFF [channel = 9, note = C2, key = 36, velocity = 64, tick = 34752]
NOTE OFF [channel = 9, note = G#2, key = 44, velocity = 64, tick = 34752]
NOTE ON [channel = 9, note = C2, key = 36, velocity = 100, tick = 34752]
NOTE ON [channel = 9, note = G#2, key = 44, velocity = 100, tick = 34752]
NOTE OFF [channel = 9, note = A#2, key = 46, velocity = 64, tick = 34800]
NOTE ON [channel = 9, note = A#2, key = 46, velocity = 69, tick = 34800]
NOTE OFF [channel = 9, note = G#2, key = 44, velocity = 64, tick = 34848]
NOTE OFF [channel = 9, note = C2, key = 36, velocity = 64, tick = 34848]
NOTE OFF [channel = 9, note = D#2, key = 39, velocity = 64, tick = 34848]
NOTE ON [channel = 9, note = G#2, key = 44, velocity = 100, tick = 34848]
NOTE ON [channel = 9, note = C2, key = 36, velocity = 100, tick = 34848]
NOTE ON [channel = 9, note = D#2, key = 39, velocity = 100, tick = 34848]
NOTE OFF [channel = 9, note = A#2, key = 46, velocity = 64, tick = 34896]
NOTE ON [channel = 9, note = A#2, key = 46, velocity = 69, tick = 34896]
NOTE OFF [channel = 9, note = C2, key = 36, velocity = 64, tick = 34944]
NOTE OFF [channel = 9, note = G#2, key = 44, velocity = 64, tick = 34944]
NOTE ON [channel = 9, note = G#2, key = 44, velocity = 100, tick = 34944]
NOTE ON [channel = 9, note = C2, key = 36, velocity = 100, tick = 34944]
NOTE OFF [channel = 9, note = A#2, key = 46, velocity = 64, tick = 34992]
NOTE ON [channel = 9, note = A#2, key = 46, velocity = 69, tick = 34992]
NOTE OFF [channel = 9, note = D#2, key = 39, velocity = 64, tick = 35040]
NOTE OFF [channel = 9, note = C2, key = 36, velocity = 64, tick = 35040]
NOTE OFF [channel = 9, note = G#2, key = 44, velocity = 64, tick = 35040]
NOTE ON [channel = 9, note = C2, key = 36, velocity = 100, tick = 35040]
NOTE ON [channel = 9, note = G#2, key = 44, velocity = 100, tick = 35040]
NOTE ON [channel = 9, note = D#2, key = 39, velocity = 100, tick = 35040]
NOTE OFF [channel = 9, note = A#2, key = 46, velocity = 64, tick = 35088]
NOTE ON [channel = 9, note = A#2, key = 46, velocity = 69, tick = 35088]
NOTE OFF [channel = 9, note = G#2, key = 44, velocity = 64, tick = 35136]
NOTE OFF [channel = 9, note = C2, key = 36, velocity = 64, tick = 35136]
NOTE ON [channel = 9, note = C2, key = 36, velocity = 100, tick = 35136]
NOTE ON [channel = 9, note = G#2, key = 44, velocity = 100, tick = 35136]
NOTE OFF [channel = 9, note = A#2, key = 46, velocity = 64, tick = 35184]
NOTE ON [channel = 9, note = A#2, key = 46, velocity = 69, tick = 35184]
NOTE OFF [channel = 9, note = D#2, key = 39, velocity = 64, tick = 35232]
NOTE OFF [channel = 9, note = G#2, key = 44, velocity = 64, tick = 35232]
NOTE OFF [channel = 9, note = C2, key = 36, velocity = 64, tick = 35232]
NOTE ON [channel = 9, note = G#2, key = 44, velocity = 100, tick = 35232]
NOTE ON [channel = 9, note = C2, key = 36, velocity = 100, tick = 35232]
NOTE ON [channel = 9, note = D#2, key = 39, velocity = 100, tick = 35232]
NOTE OFF [channel = 9, note = A#2, key = 46, velocity = 64, tick = 35280]
NOTE ON [channel = 9, note = A#2, key = 46, velocity = 69, tick = 35280]
NOTE OFF [channel = 9, note = G#2, key = 44, velocity = 64, tick = 35328]
NOTE ON [channel = 9, note = D2, key = 38, velocity = 100, tick = 35328]
NOTE ON [channel = 9, note = G#2, key = 44, velocity = 100, tick = 35328]
NOTE OFF [channel = 9, note = A#2, key = 46, velocity = 64, tick = 35376]
NOTE ON [channel = 9, note = A#2, key = 46, velocity = 69, tick = 35376]
NOTE OFF [channel = 9, note = D#2, key = 39, velocity = 64, tick = 35424]
NOTE OFF [channel = 9, note = G#2, key = 44, velocity = 64, tick = 35424]
NOTE OFF [channel = 9, note = D2, key = 38, velocity = 64, tick = 35424]
NOTE ON [channel = 9, note = D2, key = 38, velocity = 100, tick = 35424]
NOTE ON [channel = 9, note = D#2, key = 39, velocity = 100, tick = 35424]
NOTE ON [channel = 9, note = G#2, key = 44, velocity = 100, tick = 35424]
NOTE OFF [channel = 9, note = A#2, key = 46, velocity = 64, tick = 35472]
NOTE ON [channel = 9, note = A#2, key = 46, velocity = 69, tick = 35472]
NOTE OFF [channel = 9, note = G#2, key = 44, velocity = 64, tick = 35520]
NOTE OFF [channel = 9, note = D2, key = 38, velocity = 64, tick = 35520]
NOTE ON [channel = 9, note = D2, key = 38, velocity = 100, tick = 35520]
NOTE ON [channel = 9, note = G#2, key = 44, velocity = 100, tick = 35520]
NOTE OFF [channel = 9, note = A#2, key = 46, velocity = 64, tick = 35568]
NOTE ON [channel = 9, note = A#2, key = 46, velocity = 69, tick = 35568]
NOTE OFF [channel = 9, note = G#2, key = 44, velocity = 64, tick = 35616]
NOTE OFF [channel = 9, note = D#2, key = 39, velocity = 64, tick = 35616]
NOTE OFF [channel = 9, note = D2, key = 38, velocity = 64, tick = 35616]
NOTE ON [channel = 9, note = D2, key = 38, velocity = 100, tick = 35616]
NOTE ON [channel = 9, note = G#2, key = 44, velocity = 100, tick = 35616]
NOTE ON [channel = 9, note = D#2, key = 39, velocity = 100, tick = 35616]
NOTE OFF [channel = 9, note = A#2, key = 46, velocity = 64, tick = 35664]
NOTE ON [channel = 9, note = A#2, key = 46, velocity = 69, tick = 35664]
NOTE OFF [channel = 9, note = C2, key = 36, velocity = 64, tick = 35712]
NOTE OFF [channel = 9, note = G#2, key = 44, velocity = 64, tick = 35712]
NOTE OFF [channel = 9, note = C#3, key = 49, velocity = 64, tick = 35712]
NOTE OFF [channel = 9, note = D2, key = 38, velocity = 64, tick = 35712]
NOTE ON [channel = 9, note = C#3, key = 49, velocity = 100, tick = 35712]
NOTE ON [channel = 9, note = C2, key = 36, velocity = 100, tick = 35712]
NOTE ON [channel = 9, note = G#2, key = 44, velocity = 100, tick = 35712]
NOTE OFF [channel = 9, note = A#2, key = 46, velocity = 64, tick = 35760]
NOTE ON [channel = 9, note = A#2, key = 46, velocity = 69, tick = 35760]
NOTE OFF [channel = 9, note = G#2, key = 44, velocity = 64, tick = 35808]
NOTE OFF [channel = 9, note = C2, key = 36, velocity = 64, tick = 35808]
NOTE ON [channel = 9, note = C2, key = 36, velocity = 100, tick = 35808]
NOTE ON [channel = 9, note = G#2, key = 44, velocity = 100, tick = 35808]
NOTE OFF [channel = 9, note = A#2, key = 46, velocity = 64, tick = 35856]
NOTE ON [channel = 9, note = A#2, key = 46, velocity = 69, tick = 35856]
NOTE OFF [channel = 9, note = G#2, key = 44, velocity = 64, tick = 35904]
NOTE OFF [channel = 9, note = C2, key = 36, velocity = 64, tick = 35904]
NOTE ON [channel = 9, note = G#2, key = 44, velocity = 100, tick = 35904]
NOTE ON [channel = 9, note = C2, key = 36, velocity = 100, tick = 35904]
NOTE OFF [channel = 9, note = A#2, key = 46, velocity = 64, tick = 35952]
NOTE ON [channel = 9, note = A#2, key = 46, velocity = 69, tick = 35952]
NOTE OFF [channel = 9, note = C2, key = 36, velocity = 64, tick = 36000]
NOTE OFF [channel = 9, note = G#2, key = 44, velocity = 64, tick = 36000]
NOTE ON [channel = 9, note = C2, key = 36, velocity = 100, tick = 36000]
NOTE ON [channel = 9, note = G#2, key = 44, velocity = 100, tick = 36000]
NOTE OFF [channel = 9, note = A#2, key = 46, velocity = 64, tick = 36048]
NOTE ON [channel = 9, note = A#2, key = 46, velocity = 69, tick = 36048]
NOTE OFF [channel = 9, note = G#2, key = 44, velocity = 64, tick = 36096]
NOTE OFF [channel = 9, note = C2, key = 36, velocity = 64, tick = 36096]
NOTE ON [channel = 9, note = G#2, key = 44, velocity = 100, tick = 36096]
NOTE ON [channel = 9, note = C2, key = 36, velocity = 100, tick = 36096]
NOTE OFF [channel = 9, note = A#2, key = 46, velocity = 64, tick = 36144]
NOTE ON [channel = 9, note = A#2, key = 46, velocity = 69, tick = 36144]
NOTE OFF [channel = 9, note = C2, key = 36, velocity = 64, tick = 36192]
NOTE OFF [channel = 9, note = G#2, key = 44, velocity = 64, tick = 36192]
NOTE ON [channel = 9, note = G#2, key = 44, velocity = 100, tick = 36192]
NOTE ON [channel = 9, note = C2, key = 36, velocity = 100, tick = 36192]
NOTE OFF [channel = 9, note = A#2, key = 46, velocity = 64, tick = 36240]
NOTE ON [channel = 9, note = A#2, key = 46, velocity = 69, tick = 36240]
NOTE OFF [channel = 9, note = C2, key = 36, velocity = 64, tick = 36288]
NOTE OFF [channel = 9, note = G#2, key = 44, velocity = 64, tick = 36288]
NOTE ON [channel = 9, note = G#2, key = 44, velocity = 100, tick = 36288]
NOTE ON [channel = 9, note = C2, key = 36, velocity = 100, tick = 36288]
NOTE OFF [channel = 9, note = A#2, key = 46, velocity = 64, tick = 36336]
NOTE ON [channel = 9, note = A#2, key = 46, velocity = 69, tick = 36336]
NOTE OFF [channel = 9, note = C2, key = 36, velocity = 64, tick = 36384]
NOTE OFF [channel = 9, note = G#2, key = 44, velocity = 64, tick = 36384]
NOTE ON [channel = 9, note = G#2, key = 44, velocity = 100, tick = 36384]
NOTE ON [channel = 9, note = C2, key = 36, velocity = 100, tick = 36384]
NOTE OFF [channel = 9, note = A#2, key = 46, velocity = 64, tick = 36432]
NOTE ON [channel = 9, note = A#2, key = 46, velocity = 69, tick = 36432]
NOTE OFF [channel = 9, note = C2, key = 36, velocity = 64, tick = 36480]
NOTE OFF [channel = 9, note = G#2, key = 44, velocity = 64, tick = 36480]
NOTE ON [channel = 9, note = C2, key = 36, velocity = 100, tick = 36480]
NOTE ON [channel = 9, note = G#2, key = 44, velocity = 100, tick = 36480]
NOTE OFF [channel = 9, note = A#2, key = 46, velocity = 64, tick = 36528]
NOTE ON [channel = 9, note = A#2, key = 46, velocity = 69, tick = 36528]
NOTE OFF [channel = 9, note = G#2, key = 44, velocity = 64, tick = 36576]
NOTE OFF [channel = 9, note = C2, key = 36, velocity = 64, tick = 36576]
NOTE ON [channel = 9, note = C2, key = 36, velocity = 100, tick = 36576]
NOTE ON [channel = 9, note = G#2, key = 44, velocity = 100, tick = 36576]
NOTE OFF [channel = 9, note = A#2, key = 46, velocity = 64, tick = 36624]
NOTE ON [channel = 9, note = A#2, key = 46, velocity = 69, tick = 36624]
NOTE OFF [channel = 9, note = G#2, key = 44, velocity = 64, tick = 36672]
NOTE OFF [channel = 9, note = C2, key = 36, velocity = 64, tick = 36672]
NOTE ON [channel = 9, note = G#2, key = 44, velocity = 100, tick = 36672]
NOTE ON [channel = 9, note = C2, key = 36, velocity = 100, tick = 36672]
NOTE OFF [channel = 9, note = A#2, key = 46, velocity = 64, tick = 36720]
NOTE ON [channel = 9, note = A#2, key = 46, velocity = 69, tick = 36720]
NOTE OFF [channel = 9, note = C2, key = 36, velocity = 64, tick = 36768]
NOTE OFF [channel = 9, note = G#2, key = 44, velocity = 64, tick = 36768]
NOTE ON [channel = 9, note = C2, key = 36, velocity = 100, tick = 36768]
NOTE ON [channel = 9, note = G#2, key = 44, velocity = 100, tick = 36768]
NOTE OFF [channel = 9, note = A#2, key = 46, velocity = 64, tick = 36816]
NOTE ON [channel = 9, note = A#2, key = 46, velocity = 69, tick = 36816]
NOTE OFF [channel = 9, note = G#2, key = 44, velocity = 64, tick = 36864]
NOTE OFF [channel = 9, note = C2, key = 36, velocity = 64, tick = 36864]
NOTE ON [channel = 9, note = C2, key = 36, velocity = 100, tick = 36864]
NOTE ON [channel = 9, note = G#2, key = 44, velocity = 100, tick = 36864]
NOTE OFF [channel = 9, note = A#2, key = 46, velocity = 64, tick = 36912]
NOTE ON [channel = 9, note = A#2, key = 46, velocity = 69, tick = 36912]
NOTE OFF [channel = 9, note = G#2, key = 44, velocity = 64, tick = 36960]
NOTE OFF [channel = 9, note = C2, key = 36, velocity = 64, tick = 36960]
NOTE ON [channel = 9, note = C2, key = 36, velocity = 100, tick = 36960]
NOTE ON [channel = 9, note = G#2, key = 44, velocity = 100, tick = 36960]
NOTE OFF [channel = 9, note = A#2, key = 46, velocity = 64, tick = 37008]
NOTE ON [channel = 9, note = A#2, key = 46, velocity = 69, tick = 37008]
NOTE OFF [channel = 9, note = G#2, key = 44, velocity = 64, tick = 37056]
NOTE OFF [channel = 9, note = C2, key = 36, velocity = 64, tick = 37056]
NOTE ON [channel = 9, note = C2, key = 36, velocity = 100, tick = 37056]
NOTE ON [channel = 9, note = G#2, key = 44, velocity = 100, tick = 37056]
NOTE OFF [channel = 9, note = A#2, key = 46, velocity = 64, tick = 37104]
NOTE ON [channel = 9, note = A#2, key = 46, velocity = 69, tick = 37104]
NOTE OFF [channel = 9, note = G#2, key = 44, velocity = 64, tick = 37152]
NOTE OFF [channel = 9, note = C2, key = 36, velocity = 64, tick = 37152]
NOTE ON [channel = 9, note = C2, key = 36, velocity = 100, tick = 37152]
NOTE ON [channel = 9, note = G#2, key = 44, velocity = 100, tick = 37152]
NOTE OFF [channel = 9, note = A#2, key = 46, velocity = 64, tick = 37200]
NOTE ON [channel = 9, note = A#2, key = 46, velocity = 69, tick = 37200]
NOTE OFF [channel = 9, note = G#2, key = 44, velocity = 64, tick = 37248]
NOTE OFF [channel = 9, note = C2, key = 36, velocity = 64, tick = 37248]
NOTE OFF [channel = 9, note = C#3, key = 49, velocity = 64, tick = 37248]
NOTE ON [channel = 9, note = D2, key = 38, velocity = 100, tick = 37248]
NOTE ON [channel = 9, note = C#3, key = 49, velocity = 100, tick = 37248]
NOTE ON [channel = 9, note = C2, key = 36, velocity = 100, tick = 37248]
NOTE ON [channel = 9, note = G#2, key = 44, velocity = 100, tick = 37248]
NOTE OFF [channel = 9, note = A#2, key = 46, velocity = 64, tick = 37296]
NOTE ON [channel = 9, note = A#2, key = 46, velocity = 69, tick = 37296]
NOTE OFF [channel = 9, note = D#2, key = 39, velocity = 64, tick = 37344]
NOTE OFF [channel = 9, note = D2, key = 38, velocity = 64, tick = 37344]
NOTE OFF [channel = 9, note = G#2, key = 44, velocity = 64, tick = 37344]
NOTE OFF [channel = 9, note = C2, key = 36, velocity = 64, tick = 37344]
NOTE ON [channel = 9, note = D2, key = 38, velocity = 100, tick = 37344]
NOTE ON [channel = 9, note = C2, key = 36, velocity = 100, tick = 37344]
NOTE ON [channel = 9, note = G#2, key = 44, velocity = 100, tick = 37344]
NOTE ON [channel = 9, note = D#2, key = 39, velocity = 100, tick = 37344]
NOTE OFF [channel = 9, note = A#2, key = 46, velocity = 64, tick = 37392]
NOTE ON [channel = 9, note = A#2, key = 46, velocity = 69, tick = 37392]
NOTE OFF [channel = 9, note = D2, key = 38, velocity = 64, tick = 37440]
NOTE OFF [channel = 9, note = G#2, key = 44, velocity = 64, tick = 37440]
NOTE OFF [channel = 9, note = C2, key = 36, velocity = 64, tick = 37440]
NOTE ON [channel = 9, note = D2, key = 38, velocity = 100, tick = 37440]
NOTE ON [channel = 9, note = G#2, key = 44, velocity = 100, tick = 37440]
NOTE ON [channel = 9, note = C2, key = 36, velocity = 100, tick = 37440]
NOTE OFF [channel = 9, note = A#2, key = 46, velocity = 64, tick = 37488]
NOTE ON [channel = 9, note = A#2, key = 46, velocity = 69, tick = 37488]
NOTE OFF [channel = 9, note = D#2, key = 39, velocity = 64, tick = 37536]
NOTE OFF [channel = 9, note = C2, key = 36, velocity = 64, tick = 37536]
NOTE OFF [channel = 9, note = G#2, key = 44, velocity = 64, tick = 37536]
NOTE OFF [channel = 9, note = D2, key = 38, velocity = 64, tick = 37536]
NOTE ON [channel = 9, note = D2, key = 38, velocity = 100, tick = 37536]
NOTE ON [channel = 9, note = G#2, key = 44, velocity = 100, tick = 37536]
NOTE ON [channel = 9, note = C2, key = 36, velocity = 100, tick = 37536]
NOTE ON [channel = 9, note = D#2, key = 39, velocity = 100, tick = 37536]
NOTE OFF [channel = 9, note = A#2, key = 46, velocity = 64, tick = 37584]
NOTE ON [channel = 9, note = A#2, key = 46, velocity = 69, tick = 37584]
NOTE OFF [channel = 9, note = C2, key = 36, velocity = 64, tick = 37632]
NOTE OFF [channel = 9, note = G#2, key = 44, velocity = 64, tick = 37632]
NOTE OFF [channel = 9, note = D2, key = 38, velocity = 64, tick = 37632]
NOTE ON [channel = 9, note = D2, key = 38, velocity = 100, tick = 37632]
NOTE ON [channel = 9, note = G#2, key = 44, velocity = 100, tick = 37632]
NOTE ON [channel = 9, note = C2, key = 36, velocity = 100, tick = 37632]
NOTE OFF [channel = 9, note = A#2, key = 46, velocity = 64, tick = 37680]
NOTE ON [channel = 9, note = A#2, key = 46, velocity = 69, tick = 37680]
NOTE OFF [channel = 9, note = D#2, key = 39, velocity = 64, tick = 37728]
NOTE OFF [channel = 9, note = C2, key = 36, velocity = 64, tick = 37728]
NOTE OFF [channel = 9, note = G#2, key = 44, velocity = 64, tick = 37728]
NOTE OFF [channel = 9, note = D2, key = 38, velocity = 64, tick = 37728]
NOTE ON [channel = 9, note = D2, key = 38, velocity = 100, tick = 37728]
NOTE ON [channel = 9, note = D#2, key = 39, velocity = 100, tick = 37728]
NOTE ON [channel = 9, note = G#2, key = 44, velocity = 100, tick = 37728]
NOTE ON [channel = 9, note = C2, key = 36, velocity = 100, tick = 37728]
NOTE OFF [channel = 9, note = A#2, key = 46, velocity = 64, tick = 37776]
NOTE ON [channel = 9, note = A#2, key = 46, velocity = 69, tick = 37776]
NOTE OFF [channel = 9, note = C2, key = 36, velocity = 64, tick = 37824]
NOTE OFF [channel = 9, note = G#2, key = 44, velocity = 64, tick = 37824]
NOTE OFF [channel = 9, note = D2, key = 38, velocity = 64, tick = 37824]
NOTE ON [channel = 9, note = D2, key = 38, velocity = 100, tick = 37824]
NOTE ON [channel = 9, note = C2, key = 36, velocity = 100, tick = 37824]
NOTE ON [channel = 9, note = G#2, key = 44, velocity = 100, tick = 37824]
NOTE OFF [channel = 9, note = A#2, key = 46, velocity = 64, tick = 37872]
NOTE ON [channel = 9, note = A#2, key = 46, velocity = 69, tick = 37872]
NOTE OFF [channel = 9, note = D2, key = 38, velocity = 64, tick = 37920]
NOTE OFF [channel = 9, note = G#2, key = 44, velocity = 64, tick = 37920]
NOTE OFF [channel = 9, note = C2, key = 36, velocity = 64, tick = 37920]
NOTE OFF [channel = 9, note = D#2, key = 39, velocity = 64, tick = 37920]
NOTE ON [channel = 9, note = D2, key = 38, velocity = 100, tick = 37920]
NOTE ON [channel = 9, note = C2, key = 36, velocity = 100, tick = 37920]
NOTE ON [channel = 9, note = G#2, key = 44, velocity = 100, tick = 37920]
NOTE ON [channel = 9, note = D#2, key = 39, velocity = 100, tick = 37920]
NOTE OFF [channel = 9, note = A#2, key = 46, velocity = 64, tick = 37968]
NOTE ON [channel = 9, note = A#2, key = 46, velocity = 69, tick = 37968]
NOTE OFF [channel = 9, note = D2, key = 38, velocity = 64, tick = 38001]
NOTE OFF [channel = 9, note = C2, key = 36, velocity = 64, tick = 38016]
NOTE OFF [channel = 9, note = G#2, key = 44, velocity = 64, tick = 38016]
NOTE ON [channel = 9, note = D2, key = 38, velocity = 100, tick = 38016]
NOTE ON [channel = 9, note = C2, key = 36, velocity = 100, tick = 38016]
NOTE ON [channel = 9, note = G#2, key = 44, velocity = 100, tick = 38016]
NOTE OFF [channel = 9, note = D2, key = 38, velocity = 64, tick = 38064]
NOTE OFF [channel = 9, note = A#2, key = 46, velocity = 64, tick = 38064]
NOTE ON [channel = 9, note = A#2, key = 46, velocity = 69, tick = 38064]
NOTE ON [channel = 9, note = D2, key = 38, velocity = 100, tick = 38064]
NOTE OFF [channel = 9, note = D#2, key = 39, velocity = 64, tick = 38112]
NOTE OFF [channel = 9, note = C2, key = 36, velocity = 64, tick = 38112]
NOTE OFF [channel = 9, note = D2, key = 38, velocity = 64, tick = 38112]
NOTE OFF [channel = 9, note = G#2, key = 44, velocity = 64, tick = 38112]
NOTE ON [channel = 9, note = D2, key = 38, velocity = 100, tick = 38112]
NOTE ON [channel = 9, note = D#2, key = 39, velocity = 100, tick = 38112]
NOTE ON [channel = 9, note = C2, key = 36, velocity = 100, tick = 38112]
NOTE ON [channel = 9, note = G#2, key = 44, velocity = 100, tick = 38112]
NOTE OFF [channel = 9, note = D2, key = 38, velocity = 64, tick = 38160]
NOTE OFF [channel = 9, note = A#2, key = 46, velocity = 64, tick = 38160]
NOTE ON [channel = 9, note = A#2, key = 46, velocity = 69, tick = 38160]
NOTE ON [channel = 9, note = D2, key = 38, velocity = 100, tick = 38160]
NOTE OFF [channel = 9, note = D2, key = 38, velocity = 64, tick = 38208]
NOTE OFF [channel = 9, note = G#2, key = 44, velocity = 64, tick = 38208]
NOTE OFF [channel = 9, note = C2, key = 36, velocity = 64, tick = 38208]
NOTE ON [channel = 9, note = D2, key = 38, velocity = 100, tick = 38208]
NOTE ON [channel = 9, note = C2, key = 36, velocity = 100, tick = 38208]
NOTE ON [channel = 9, note = G#2, key = 44, velocity = 100, tick = 38208]
NOTE OFF [channel = 9, note = D2, key = 38, velocity = 64, tick = 38256]
NOTE OFF [channel = 9, note = A#2, key = 46, velocity = 64, tick = 38256]
NOTE ON [channel = 9, note = A#2, key = 46, velocity = 69, tick = 38256]
NOTE ON [channel = 9, note = D2, key = 38, velocity = 100, tick = 38256]
NOTE OFF [channel = 9, note = D2, key = 38, velocity = 64, tick = 38304]
NOTE OFF [channel = 9, note = G#2, key = 44, velocity = 64, tick = 38304]
NOTE OFF [channel = 9, note = C2, key = 36, velocity = 64, tick = 38304]
NOTE OFF [channel = 9, note = D#2, key = 39, velocity = 64, tick = 38304]
NOTE ON [channel = 9, note = D2, key = 38, velocity = 100, tick = 38304]
NOTE ON [channel = 9, note = C2, key = 36, velocity = 100, tick = 38304]
NOTE ON [channel = 9, note = G#2, key = 44, velocity = 100, tick = 38304]
NOTE ON [channel = 9, note = D#2, key = 39, velocity = 100, tick = 38304]
NOTE OFF [channel = 9, note = D2, key = 38, velocity = 64, tick = 38352]
NOTE OFF [channel = 9, note = A#2, key = 46, velocity = 64, tick = 38352]
NOTE ON [channel = 9, note = A#2, key = 46, velocity = 69, tick = 38352]
NOTE ON [channel = 9, note = D2, key = 38, velocity = 100, tick = 38352]
NOTE OFF [channel = 9, note = D2, key = 38, velocity = 64, tick = 38398]
NOTE OFF [channel = 9, note = C2, key = 36, velocity = 64, tick = 38399]
NOTE OFF [channel = 9, note = G#2, key = 44, velocity = 64, tick = 38400]
NOTE ON [channel = 9, note = D2, key = 38, velocity = 100, tick = 38400]
NOTE ON [channel = 9, note = G#2, key = 44, velocity = 100, tick = 38400]
NOTE OFF [channel = 9, note = D2, key = 38, velocity = 64, tick = 38424]
NOTE ON [channel = 9, note = D2, key = 38, velocity = 100, tick = 38424]
NOTE OFF [channel = 9, note = A#2, key = 46, velocity = 64, tick = 38448]
NOTE OFF [channel = 9, note = D2, key = 38, velocity = 64, tick = 38448]
NOTE ON [channel = 9, note = D2, key = 38, velocity = 100, tick = 38448]
NOTE ON [channel = 9, note = A#2, key = 46, velocity = 69, tick = 38448]
NOTE OFF [channel = 9, note = D2, key = 38, velocity = 64, tick = 38472]
NOTE ON [channel = 9, note = D2, key = 38, velocity = 100, tick = 38472]
NOTE OFF [channel = 9, note = D#2, key = 39, velocity = 64, tick = 38496]
NOTE OFF [channel = 9, note = D2, key = 38, velocity = 64, tick = 38496]
NOTE OFF [channel = 9, note = G#2, key = 44, velocity = 64, tick = 38496]
NOTE ON [channel = 9, note = D2, key = 38, velocity = 100, tick = 38496]
NOTE ON [channel = 9, note = D#2, key = 39, velocity = 100, tick = 38496]
NOTE ON [channel = 9, note = G#2, key = 44, velocity = 100, tick = 38496]
NOTE OFF [channel = 9, note = D2, key = 38, velocity = 64, tick = 38520]
NOTE ON [channel = 9, note = D2, key = 38, velocity = 100, tick = 38520]
NOTE OFF [channel = 9, note = D2, key = 38, velocity = 64, tick = 38544]
NOTE OFF [channel = 9, note = A#2, key = 46, velocity = 64, tick = 38544]
NOTE ON [channel = 9, note = D2, key = 38, velocity = 100, tick = 38544]
NOTE ON [channel = 9, note = A#2, key = 46, velocity = 69, tick = 38544]
NOTE OFF [channel = 9, note = D2, key = 38, velocity = 64, tick = 38568]
NOTE ON [channel = 9, note = D2, key = 38, velocity = 100, tick = 38568]
NOTE OFF [channel = 9, note = G#2, key = 44, velocity = 64, tick = 38592]
NOTE OFF [channel = 9, note = D2, key = 38, velocity = 64, tick = 38592]
NOTE ON [channel = 9, note = B2, key = 47, velocity = 100, tick = 38592]
NOTE ON [channel = 9, note = G#2, key = 44, velocity = 100, tick = 38592]
NOTE OFF [channel = 9, note = B2, key = 47, velocity = 64, tick = 38616]
NOTE ON [channel = 9, note = B2, key = 47, velocity = 100, tick = 38616]
NOTE OFF [channel = 9, note = A#2, key = 46, velocity = 64, tick = 38640]
NOTE OFF [channel = 9, note = B2, key = 47, velocity = 64, tick = 38640]
NOTE ON [channel = 9, note = B2, key = 47, velocity = 100, tick = 38640]
NOTE ON [channel = 9, note = A#2, key = 46, velocity = 69, tick = 38640]
NOTE OFF [channel = 9, note = B2, key = 47, velocity = 64, tick = 38664]
NOTE ON [channel = 9, note = A2, key = 45, velocity = 99, tick = 38664]
NOTE OFF [channel = 9, note = G#2, key = 44, velocity = 64, tick = 38688]
NOTE OFF [channel = 9, note = A2, key = 45, velocity = 64, tick = 38688]
NOTE OFF [channel = 9, note = D#2, key = 39, velocity = 64, tick = 38688]
NOTE ON [channel = 9, note = G2, key = 43, velocity = 78, tick = 38688]
NOTE ON [channel = 9, note = G#2, key = 44, velocity = 100, tick = 38688]
NOTE ON [channel = 9, note = D#2, key = 39, velocity = 100, tick = 38688]
NOTE OFF [channel = 9, note = G2, key = 43, velocity = 64, tick = 38711]
NOTE OFF [channel = 9, note = A#2, key = 46, velocity = 64, tick = 38736]
NOTE ON [channel = 9, note = A#2, key = 46, velocity = 69, tick = 38736]
NOTE ON [channel = 9, note = D2, key = 38, velocity = 64, tick = 38760]
NOTE OFF [channel = 9, note = D2, key = 38, velocity = 64, tick = 38783]
NOTE OFF [channel = 9, note = C#3, key = 49, velocity = 64, tick = 38784]
NOTE ON [channel = 9, note = C#3, key = 49, velocity = 100, tick = 38784]
NOTE OFF [channel = 9, note = D#2, key = 39, velocity = 64, tick = 39153]
NOTE OFF [channel = 9, note = C#3, key = 49, velocity = 64, tick = 39153]
NOTE OFF [channel = 9, note = A#2, key = 46, velocity = 64, tick = 39153]
NOTE OFF [channel = 9, note = G#2, key = 44, velocity = 64, tick = 39153]
Other ShortMessage [message = [B@1ab9dd6]
Other ShortMessage [message = [B@1099cef]
Other ShortMessage [message = [B@1ff2185]
Other ShortMessage [message = [B@1edfe27]
Other ShortMessage [message = [B@14664d7]
Other ShortMessage [message = [B@ccd751]
Other ShortMessage [message = [B@1cbf05b]
Other ShortMessage [message = [B@1207fad]
Other ShortMessage [message = [B@90f583]
Other ShortMessage [message = [B@1b2e9e1]
Other ShortMessage [message = [B@69f114]
Other ShortMessage [message = [B@a645fd]
Other ShortMessage [message = [B@1a64f9d]
Other ShortMessage [message = [B@19b5552]
Other ShortMessage [message = [B@12d99fc]
Other ShortMessage [message = [B@3a39cd]
Other ShortMessage [message = [B@1aa8c1]
Other ShortMessage [message = [B@a36910]
MetaMessage [message = [B@120a5e0]
Track 9: size = 127

MetaMessage [message = [B@1782abe]
Other ShortMessage [message = [B@1b22f74]
Other ShortMessage [message = [B@8a46b7]
Other ShortMessage [message = [B@117d90f]
Other ShortMessage [message = [B@ac85fa]
Other ShortMessage [message = [B@79cf5]
Other ShortMessage [message = [B@cecdca]
Other ShortMessage [message = [B@86887b]
Other ShortMessage [message = [B@40c311]
Other ShortMessage [message = [B@3ec989]
PROGRAM_CHANGE [channel = 8, instrument = 80, data2 = 0, tick = 0]
Other ShortMessage [message = [B@1973499]
Other ShortMessage [message = [B@1cf6ea3]
Other ShortMessage [message = [B@1c025cb]
Other ShortMessage [message = [B@809cc7]
Other ShortMessage [message = [B@51777c]
Other ShortMessage [message = [B@cba515]
PROGRAM_CHANGE [channel = 8, instrument = 80, data2 = 0, tick = 0]
Other ShortMessage [message = [B@bc224d]
Other ShortMessage [message = [B@2d92c4]
Other ShortMessage [message = [B@723d6a]
Other ShortMessage [message = [B@f555e7]
Other ShortMessage [message = [B@ff6077]
Other ShortMessage [message = [B@afefd5]
PROGRAM_CHANGE [channel = 8, instrument = 80, data2 = 0, tick = 0]
NOTE ON [channel = 8, note = A#4, key = 70, velocity = 127, tick = 13248]
NOTE OFF [channel = 8, note = A#4, key = 70, velocity = 0, tick = 13294]
NOTE ON [channel = 8, note = F5, key = 77, velocity = 127, tick = 13294]
NOTE OFF [channel = 8, note = F5, key = 77, velocity = 0, tick = 13340]
NOTE ON [channel = 8, note = D#5, key = 75, velocity = 127, tick = 13344]
NOTE OFF [channel = 8, note = D#5, key = 75, velocity = 0, tick = 13367]
NOTE ON [channel = 8, note = D#5, key = 75, velocity = 127, tick = 13368]
NOTE OFF [channel = 8, note = D#5, key = 75, velocity = 0, tick = 13391]
NOTE ON [channel = 8, note = F5, key = 77, velocity = 127, tick = 13392]
NOTE OFF [channel = 8, note = F5, key = 77, velocity = 0, tick = 13416]
NOTE ON [channel = 8, note = A#4, key = 70, velocity = 127, tick = 13417]
NOTE OFF [channel = 8, note = A#4, key = 70, velocity = 0, tick = 13463]
NOTE ON [channel = 8, note = A#4, key = 70, velocity = 127, tick = 13464]
NOTE OFF [channel = 8, note = A#4, key = 70, velocity = 0, tick = 13487]
NOTE ON [channel = 8, note = F5, key = 77, velocity = 127, tick = 13488]
NOTE OFF [channel = 8, note = F5, key = 77, velocity = 0, tick = 13534]
NOTE ON [channel = 8, note = D#5, key = 75, velocity = 127, tick = 13536]
NOTE OFF [channel = 8, note = D#5, key = 75, velocity = 0, tick = 13582]
NOTE ON [channel = 8, note = F5, key = 77, velocity = 127, tick = 13584]
NOTE OFF [channel = 8, note = F5, key = 77, velocity = 0, tick = 13630]
NOTE ON [channel = 8, note = A#4, key = 70, velocity = 127, tick = 14784]
NOTE OFF [channel = 8, note = A#4, key = 70, velocity = 0, tick = 14830]
NOTE ON [channel = 8, note = F5, key = 77, velocity = 127, tick = 14830]
NOTE OFF [channel = 8, note = F5, key = 77, velocity = 0, tick = 14876]
NOTE ON [channel = 8, note = D#5, key = 75, velocity = 127, tick = 14880]
NOTE OFF [channel = 8, note = D#5, key = 75, velocity = 0, tick = 14903]
NOTE ON [channel = 8, note = D#5, key = 75, velocity = 127, tick = 14904]
NOTE OFF [channel = 8, note = D#5, key = 75, velocity = 0, tick = 14927]
NOTE ON [channel = 8, note = F5, key = 77, velocity = 127, tick = 14928]
NOTE OFF [channel = 8, note = F5, key = 77, velocity = 0, tick = 14952]
NOTE ON [channel = 8, note = A#4, key = 70, velocity = 127, tick = 14953]
NOTE OFF [channel = 8, note = A#4, key = 70, velocity = 0, tick = 14999]
NOTE ON [channel = 8, note = A#4, key = 70, velocity = 127, tick = 15000]
NOTE OFF [channel = 8, note = A#4, key = 70, velocity = 0, tick = 15023]
NOTE ON [channel = 8, note = F5, key = 77, velocity = 127, tick = 15024]
NOTE OFF [channel = 8, note = F5, key = 77, velocity = 0, tick = 15070]
NOTE ON [channel = 8, note = D#5, key = 75, velocity = 127, tick = 15072]
NOTE OFF [channel = 8, note = D#5, key = 75, velocity = 0, tick = 15118]
NOTE ON [channel = 8, note = F5, key = 77, velocity = 127, tick = 15120]
NOTE OFF [channel = 8, note = F5, key = 77, velocity = 0, tick = 15166]
NOTE ON [channel = 8, note = A#4, key = 70, velocity = 127, tick = 30720]
NOTE OFF [channel = 8, note = A#4, key = 70, velocity = 0, tick = 30766]
NOTE ON [channel = 8, note = F5, key = 77, velocity = 127, tick = 30766]
NOTE OFF [channel = 8, note = F5, key = 77, velocity = 0, tick = 30812]
NOTE ON [channel = 8, note = D#5, key = 75, velocity = 127, tick = 30816]
NOTE OFF [channel = 8, note = D#5, key = 75, velocity = 0, tick = 30839]
NOTE ON [channel = 8, note = D#5, key = 75, velocity = 127, tick = 30840]
NOTE OFF [channel = 8, note = D#5, key = 75, velocity = 0, tick = 30863]
NOTE ON [channel = 8, note = F5, key = 77, velocity = 127, tick = 30864]
NOTE OFF [channel = 8, note = F5, key = 77, velocity = 0, tick = 30888]
NOTE ON [channel = 8, note = A#4, key = 70, velocity = 127, tick = 30889]
NOTE OFF [channel = 8, note = A#4, key = 70, velocity = 0, tick = 30935]
NOTE ON [channel = 8, note = A#4, key = 70, velocity = 127, tick = 30936]
NOTE OFF [channel = 8, note = A#4, key = 70, velocity = 0, tick = 30959]
NOTE ON [channel = 8, note = F5, key = 77, velocity = 127, tick = 30960]
NOTE OFF [channel = 8, note = F5, key = 77, velocity = 0, tick = 31006]
NOTE ON [channel = 8, note = D#5, key = 75, velocity = 127, tick = 31008]
NOTE OFF [channel = 8, note = D#5, key = 75, velocity = 0, tick = 31054]
NOTE ON [channel = 8, note = F5, key = 77, velocity = 127, tick = 31056]
NOTE OFF [channel = 8, note = F5, key = 77, velocity = 0, tick = 31102]
NOTE ON [channel = 8, note = A#4, key = 70, velocity = 127, tick = 32256]
NOTE OFF [channel = 8, note = A#4, key = 70, velocity = 0, tick = 32302]
NOTE ON [channel = 8, note = F5, key = 77, velocity = 127, tick = 32302]
NOTE OFF [channel = 8, note = F5, key = 77, velocity = 0, tick = 32348]
NOTE ON [channel = 8, note = D#5, key = 75, velocity = 127, tick = 32352]
NOTE OFF [channel = 8, note = D#5, key = 75, velocity = 0, tick = 32375]
NOTE ON [channel = 8, note = D#5, key = 75, velocity = 127, tick = 32376]
NOTE OFF [channel = 8, note = D#5, key = 75, velocity = 0, tick = 32399]
NOTE ON [channel = 8, note = F5, key = 77, velocity = 127, tick = 32400]
NOTE OFF [channel = 8, note = F5, key = 77, velocity = 0, tick = 32424]
NOTE ON [channel = 8, note = A#4, key = 70, velocity = 127, tick = 32425]
NOTE OFF [channel = 8, note = A#4, key = 70, velocity = 0, tick = 32471]
NOTE ON [channel = 8, note = A#4, key = 70, velocity = 127, tick = 32472]
NOTE OFF [channel = 8, note = A#4, key = 70, velocity = 0, tick = 32495]
NOTE ON [channel = 8, note = F5, key = 77, velocity = 127, tick = 32496]
NOTE OFF [channel = 8, note = F5, key = 77, velocity = 0, tick = 32542]
NOTE ON [channel = 8, note = D#5, key = 75, velocity = 127, tick = 32544]
NOTE OFF [channel = 8, note = D#5, key = 75, velocity = 0, tick = 32590]
NOTE ON [channel = 8, note = F5, key = 77, velocity = 127, tick = 32592]
NOTE OFF [channel = 8, note = F5, key = 77, velocity = 0, tick = 32638]
Other ShortMessage [message = [B@209d93]
Other ShortMessage [message = [B@1ed7b14]
Other ShortMessage [message = [B@184abe8]
Other ShortMessage [message = [B@135202]
Other ShortMessage [message = [B@ec523c]
Other ShortMessage [message = [B@1767781]
PROGRAM_CHANGE [channel = 8, instrument = 80, data2 = 0, tick = 39168]
Other ShortMessage [message = [B@ced190]
Other ShortMessage [message = [B@daa77a]
Other ShortMessage [message = [B@ddd21b]
Other ShortMessage [message = [B@1195ee4]
Other ShortMessage [message = [B@1ab988f]
Other ShortMessage [message = [B@38d975]
PROGRAM_CHANGE [channel = 8, instrument = 80, data2 = 0, tick = 39169]
Other ShortMessage [message = [B@ea2003]
Other ShortMessage [message = [B@1e5e5b4]
Other ShortMessage [message = [B@50ae65]
Other ShortMessage [message = [B@840abf]
Other ShortMessage [message = [B@172d253]
Other ShortMessage [message = [B@1e32ea2]
PROGRAM_CHANGE [channel = 8, instrument = 80, data2 = 0, tick = 39169]
MetaMessage [message = [B@15c0057]
Track 10: size = 95

MetaMessage [message = [B@a1f591]
Other ShortMessage [message = [B@f81f31]
Other ShortMessage [message = [B@1abde31]
Other ShortMessage [message = [B@13842a6]
Other ShortMessage [message = [B@1a18e8d]
Other ShortMessage [message = [B@160bcdf]
Other ShortMessage [message = [B@bb095]
Other ShortMessage [message = [B@1aae97b]
Other ShortMessage [message = [B@11e09bc]
Other ShortMessage [message = [B@1cd426c]
PROGRAM_CHANGE [channel = 7, instrument = 83, data2 = 0, tick = 0]
Other ShortMessage [message = [B@6a17c4]
Other ShortMessage [message = [B@4c0b41]
Other ShortMessage [message = [B@67eea4]
Other ShortMessage [message = [B@799159]
Other ShortMessage [message = [B@1f37443]
Other ShortMessage [message = [B@1093491]
PROGRAM_CHANGE [channel = 7, instrument = 83, data2 = 0, tick = 0]
Other ShortMessage [message = [B@b224cd]
Other ShortMessage [message = [B@1d93a21]
Other ShortMessage [message = [B@4a3655]
Other ShortMessage [message = [B@a160c2]
Other ShortMessage [message = [B@13871d6]
Other ShortMessage [message = [B@b79cbe]
PROGRAM_CHANGE [channel = 7, instrument = 83, data2 = 0, tick = 0]
NOTE ON [channel = 7, note = G6, key = 91, velocity = 127, tick = 10560]
NOTE OFF [channel = 7, note = G6, key = 91, velocity = 0, tick = 10606]
NOTE ON [channel = 7, note = F6, key = 89, velocity = 127, tick = 10607]
NOTE OFF [channel = 7, note = F6, key = 89, velocity = 0, tick = 10653]
NOTE ON [channel = 7, note = F6, key = 89, velocity = 127, tick = 10657]
NOTE OFF [channel = 7, note = F6, key = 89, velocity = 0, tick = 10703]
NOTE ON [channel = 7, note = D#6, key = 87, velocity = 127, tick = 10705]
NOTE OFF [channel = 7, note = D#6, key = 87, velocity = 0, tick = 10752]
NOTE ON [channel = 7, note = F6, key = 89, velocity = 127, tick = 10752]
NOTE OFF [channel = 7, note = F6, key = 89, velocity = 0, tick = 10775]
NOTE ON [channel = 7, note = G6, key = 91, velocity = 127, tick = 10776]
NOTE OFF [channel = 7, note = G6, key = 91, velocity = 0, tick = 10822]
NOTE ON [channel = 7, note = C6, key = 84, velocity = 127, tick = 10825]
NOTE OFF [channel = 7, note = C6, key = 84, velocity = 0, tick = 10943]
NOTE ON [channel = 7, note = G6, key = 91, velocity = 127, tick = 10945]
NOTE OFF [channel = 7, note = G6, key = 91, velocity = 0, tick = 10991]
NOTE ON [channel = 7, note = F6, key = 89, velocity = 127, tick = 10992]
NOTE OFF [channel = 7, note = F6, key = 89, velocity = 0, tick = 11038]
NOTE ON [channel = 7, note = F6, key = 89, velocity = 127, tick = 11041]
NOTE OFF [channel = 7, note = F6, key = 89, velocity = 0, tick = 11087]
NOTE ON [channel = 7, note = D#6, key = 87, velocity = 127, tick = 11088]
NOTE OFF [channel = 7, note = D#6, key = 87, velocity = 0, tick = 11134]
NOTE ON [channel = 7, note = F6, key = 89, velocity = 127, tick = 11137]
NOTE OFF [channel = 7, note = F6, key = 89, velocity = 0, tick = 11321]
NOTE ON [channel = 7, note = F6, key = 89, velocity = 127, tick = 11328]
NOTE OFF [channel = 7, note = F6, key = 89, velocity = 0, tick = 11375]
NOTE ON [channel = 7, note = D#6, key = 87, velocity = 127, tick = 11376]
NOTE OFF [channel = 7, note = D#6, key = 87, velocity = 0, tick = 11422]
NOTE ON [channel = 7, note = D#6, key = 87, velocity = 127, tick = 11425]
NOTE OFF [channel = 7, note = D#6, key = 87, velocity = 0, tick = 11471]
NOTE ON [channel = 7, note = D6, key = 86, velocity = 127, tick = 11473]
NOTE OFF [channel = 7, note = D6, key = 86, velocity = 0, tick = 11519]
NOTE ON [channel = 7, note = D#6, key = 87, velocity = 127, tick = 11520]
NOTE OFF [channel = 7, note = D#6, key = 87, velocity = 0, tick = 11543]
NOTE ON [channel = 7, note = F6, key = 89, velocity = 127, tick = 11544]
NOTE OFF [channel = 7, note = F6, key = 89, velocity = 0, tick = 11590]
NOTE ON [channel = 7, note = A#5, key = 82, velocity = 127, tick = 11591]
NOTE OFF [channel = 7, note = A#5, key = 82, velocity = 0, tick = 11709]
NOTE ON [channel = 7, note = F6, key = 89, velocity = 127, tick = 11713]
NOTE OFF [channel = 7, note = F6, key = 89, velocity = 0, tick = 11759]
NOTE ON [channel = 7, note = D#6, key = 87, velocity = 127, tick = 11761]
NOTE OFF [channel = 7, note = D#6, key = 87, velocity = 0, tick = 11807]
NOTE ON [channel = 7, note = D#6, key = 87, velocity = 127, tick = 11809]
NOTE OFF [channel = 7, note = D#6, key = 87, velocity = 0, tick = 11855]
NOTE ON [channel = 7, note = D6, key = 86, velocity = 127, tick = 11856]
NOTE OFF [channel = 7, note = D6, key = 86, velocity = 0, tick = 11902]
NOTE ON [channel = 7, note = D#6, key = 87, velocity = 127, tick = 11905]
NOTE OFF [channel = 7, note = D#6, key = 87, velocity = 0, tick = 12096]
Other ShortMessage [message = [B@3826ec]
Other ShortMessage [message = [B@163d445]
Other ShortMessage [message = [B@b2b76f]
Other ShortMessage [message = [B@1ee75c5]
Other ShortMessage [message = [B@b7ef6]
Other ShortMessage [message = [B@50462a]
PROGRAM_CHANGE [channel = 7, instrument = 83, data2 = 0, tick = 39168]
Other ShortMessage [message = [B@11baf51]
Other ShortMessage [message = [B@1877e19]
Other ShortMessage [message = [B@1bfc257]
Other ShortMessage [message = [B@edfa63]
Other ShortMessage [message = [B@3efb48]
Other ShortMessage [message = [B@8e8621]
PROGRAM_CHANGE [channel = 7, instrument = 83, data2 = 0, tick = 39169]
Other ShortMessage [message = [B@1af356f]
Other ShortMessage [message = [B@46d648]
Other ShortMessage [message = [B@10b4d53]
Other ShortMessage [message = [B@548b19]
Other ShortMessage [message = [B@3a5119]
Other ShortMessage [message = [B@1cb79c2]
PROGRAM_CHANGE [channel = 7, instrument = 83, data2 = 0, tick = 39169]
MetaMessage [message = [B@1ca2a8f]
Track 11: size = 143

MetaMessage [message = [B@1391b3f]
Other ShortMessage [message = [B@db3386]
Other ShortMessage [message = [B@1a1728c]
Other ShortMessage [message = [B@1f35f7c]
Other ShortMessage [message = [B@5db4a]
Other ShortMessage [message = [B@18ef2ce]
Other ShortMessage [message = [B@fc5eb1]
Other ShortMessage [message = [B@151bc5]
Other ShortMessage [message = [B@2a49fe]
Other ShortMessage [message = [B@ae8eb5]
PROGRAM_CHANGE [channel = 6, instrument = 83, data2 = 0, tick = 0]
Other ShortMessage [message = [B@a298a6]
Other ShortMessage [message = [B@1f74733]
Other ShortMessage [message = [B@1b8855f]
Other ShortMessage [message = [B@29f290]
Other ShortMessage [message = [B@f3fe83]
Other ShortMessage [message = [B@17d6615]
PROGRAM_CHANGE [channel = 6, instrument = 83, data2 = 0, tick = 0]
Other ShortMessage [message = [B@1325036]
Other ShortMessage [message = [B@72c96f]
Other ShortMessage [message = [B@e34b1b]
Other ShortMessage [message = [B@c4245d]
Other ShortMessage [message = [B@106578e]
Other ShortMessage [message = [B@1a91912]
PROGRAM_CHANGE [channel = 6, instrument = 83, data2 = 0, tick = 0]
NOTE ON [channel = 6, note = G5, key = 79, velocity = 127, tick = 9024]
NOTE OFF [channel = 6, note = G5, key = 79, velocity = 0, tick = 9070]
NOTE ON [channel = 6, note = F5, key = 77, velocity = 127, tick = 9071]
NOTE OFF [channel = 6, note = F5, key = 77, velocity = 0, tick = 9117]
NOTE ON [channel = 6, note = F5, key = 77, velocity = 127, tick = 9121]
NOTE OFF [channel = 6, note = F5, key = 77, velocity = 0, tick = 9167]
NOTE ON [channel = 6, note = D#5, key = 75, velocity = 127, tick = 9169]
NOTE OFF [channel = 6, note = D#5, key = 75, velocity = 0, tick = 9216]
NOTE ON [channel = 6, note = F5, key = 77, velocity = 127, tick = 9216]
NOTE OFF [channel = 6, note = F5, key = 77, velocity = 0, tick = 9239]
NOTE ON [channel = 6, note = G5, key = 79, velocity = 127, tick = 9240]
NOTE OFF [channel = 6, note = G5, key = 79, velocity = 0, tick = 9286]
NOTE ON [channel = 6, note = C5, key = 72, velocity = 127, tick = 9289]
NOTE OFF [channel = 6, note = C5, key = 72, velocity = 0, tick = 9407]
NOTE ON [channel = 6, note = G5, key = 79, velocity = 127, tick = 9409]
NOTE OFF [channel = 6, note = G5, key = 79, velocity = 0, tick = 9455]
NOTE ON [channel = 6, note = F5, key = 77, velocity = 127, tick = 9456]
NOTE OFF [channel = 6, note = F5, key = 77, velocity = 0, tick = 9502]
NOTE ON [channel = 6, note = F5, key = 77, velocity = 127, tick = 9505]
NOTE OFF [channel = 6, note = F5, key = 77, velocity = 0, tick = 9551]
NOTE ON [channel = 6, note = D#5, key = 75, velocity = 127, tick = 9552]
NOTE OFF [channel = 6, note = D#5, key = 75, velocity = 0, tick = 9598]
NOTE ON [channel = 6, note = F5, key = 77, velocity = 127, tick = 9601]
NOTE OFF [channel = 6, note = F5, key = 77, velocity = 0, tick = 9785]
NOTE ON [channel = 6, note = F5, key = 77, velocity = 127, tick = 9792]
NOTE OFF [channel = 6, note = F5, key = 77, velocity = 0, tick = 9839]
NOTE ON [channel = 6, note = D#5, key = 75, velocity = 127, tick = 9840]
NOTE OFF [channel = 6, note = D#5, key = 75, velocity = 0, tick = 9886]
NOTE ON [channel = 6, note = D#5, key = 75, velocity = 127, tick = 9889]
NOTE OFF [channel = 6, note = D#5, key = 75, velocity = 0, tick = 9935]
NOTE ON [channel = 6, note = D5, key = 74, velocity = 127, tick = 9937]
NOTE OFF [channel = 6, note = D5, key = 74, velocity = 0, tick = 9983]
NOTE ON [channel = 6, note = D#5, key = 75, velocity = 127, tick = 9984]
NOTE OFF [channel = 6, note = D#5, key = 75, velocity = 0, tick = 10007]
NOTE ON [channel = 6, note = F5, key = 77, velocity = 127, tick = 10008]
NOTE OFF [channel = 6, note = F5, key = 77, velocity = 0, tick = 10054]
NOTE ON [channel = 6, note = A#4, key = 70, velocity = 127, tick = 10055]
NOTE OFF [channel = 6, note = A#4, key = 70, velocity = 0, tick = 10173]
NOTE ON [channel = 6, note = F5, key = 77, velocity = 127, tick = 10177]
NOTE OFF [channel = 6, note = F5, key = 77, velocity = 0, tick = 10223]
NOTE ON [channel = 6, note = D#5, key = 75, velocity = 127, tick = 10225]
NOTE OFF [channel = 6, note = D#5, key = 75, velocity = 0, tick = 10271]
NOTE ON [channel = 6, note = D#5, key = 75, velocity = 127, tick = 10273]
NOTE OFF [channel = 6, note = D#5, key = 75, velocity = 0, tick = 10319]
NOTE ON [channel = 6, note = D5, key = 74, velocity = 127, tick = 10320]
NOTE OFF [channel = 6, note = D5, key = 74, velocity = 0, tick = 10366]
NOTE ON [channel = 6, note = D#5, key = 75, velocity = 127, tick = 10369]
NOTE OFF [channel = 6, note = D#5, key = 75, velocity = 0, tick = 10560]
NOTE ON [channel = 6, note = G5, key = 79, velocity = 127, tick = 10560]
NOTE OFF [channel = 6, note = G5, key = 79, velocity = 0, tick = 10606]
NOTE ON [channel = 6, note = F5, key = 77, velocity = 127, tick = 10607]
NOTE OFF [channel = 6, note = F5, key = 77, velocity = 0, tick = 10653]
NOTE ON [channel = 6, note = F5, key = 77, velocity = 127, tick = 10657]
NOTE OFF [channel = 6, note = F5, key = 77, velocity = 0, tick = 10703]
NOTE ON [channel = 6, note = D#5, key = 75, velocity = 127, tick = 10705]
NOTE OFF [channel = 6, note = D#5, key = 75, velocity = 0, tick = 10752]
NOTE ON [channel = 6, note = F5, key = 77, velocity = 127, tick = 10752]
NOTE OFF [channel = 6, note = F5, key = 77, velocity = 0, tick = 10775]
NOTE ON [channel = 6, note = G5, key = 79, velocity = 127, tick = 10776]
NOTE OFF [channel = 6, note = G5, key = 79, velocity = 0, tick = 10822]
NOTE ON [channel = 6, note = C5, key = 72, velocity = 127, tick = 10825]
NOTE OFF [channel = 6, note = C5, key = 72, velocity = 0, tick = 10943]
NOTE ON [channel = 6, note = G5, key = 79, velocity = 127, tick = 10945]
NOTE OFF [channel = 6, note = G5, key = 79, velocity = 0, tick = 10991]
NOTE ON [channel = 6, note = F5, key = 77, velocity = 127, tick = 10992]
NOTE OFF [channel = 6, note = F5, key = 77, velocity = 0, tick = 11038]
NOTE ON [channel = 6, note = F5, key = 77, velocity = 127, tick = 11041]
NOTE OFF [channel = 6, note = F5, key = 77, velocity = 0, tick = 11087]
NOTE ON [channel = 6, note = D#5, key = 75, velocity = 127, tick = 11088]
NOTE OFF [channel = 6, note = D#5, key = 75, velocity = 0, tick = 11134]
NOTE ON [channel = 6, note = F5, key = 77, velocity = 127, tick = 11137]
NOTE OFF [channel = 6, note = F5, key = 77, velocity = 0, tick = 11321]
NOTE ON [channel = 6, note = F5, key = 77, velocity = 127, tick = 11328]
NOTE OFF [channel = 6, note = F5, key = 77, velocity = 0, tick = 11375]
NOTE ON [channel = 6, note = D#5, key = 75, velocity = 127, tick = 11376]
NOTE OFF [channel = 6, note = D#5, key = 75, velocity = 0, tick = 11422]
NOTE ON [channel = 6, note = D#5, key = 75, velocity = 127, tick = 11425]
NOTE OFF [channel = 6, note = D#5, key = 75, velocity = 0, tick = 11471]
NOTE ON [channel = 6, note = D5, key = 74, velocity = 127, tick = 11473]
NOTE OFF [channel = 6, note = D5, key = 74, velocity = 0, tick = 11519]
NOTE ON [channel = 6, note = D#5, key = 75, velocity = 127, tick = 11520]
NOTE OFF [channel = 6, note = D#5, key = 75, velocity = 0, tick = 11543]
NOTE ON [channel = 6, note = F5, key = 77, velocity = 127, tick = 11544]
NOTE OFF [channel = 6, note = F5, key = 77, velocity = 0, tick = 11590]
NOTE ON [channel = 6, note = A#4, key = 70, velocity = 127, tick = 11591]
NOTE OFF [channel = 6, note = A#4, key = 70, velocity = 0, tick = 11709]
NOTE ON [channel = 6, note = F5, key = 77, velocity = 127, tick = 11713]
NOTE OFF [channel = 6, note = F5, key = 77, velocity = 0, tick = 11759]
NOTE ON [channel = 6, note = D#5, key = 75, velocity = 127, tick = 11761]
NOTE OFF [channel = 6, note = D#5, key = 75, velocity = 0, tick = 11807]
NOTE ON [channel = 6, note = D#5, key = 75, velocity = 127, tick = 11809]
NOTE OFF [channel = 6, note = D#5, key = 75, velocity = 0, tick = 11855]
NOTE ON [channel = 6, note = D5, key = 74, velocity = 127, tick = 11856]
NOTE OFF [channel = 6, note = D5, key = 74, velocity = 0, tick = 11902]
NOTE ON [channel = 6, note = D#5, key = 75, velocity = 127, tick = 11905]
NOTE OFF [channel = 6, note = D#5, key = 75, velocity = 0, tick = 12096]
Other ShortMessage [message = [B@92166b]
Other ShortMessage [message = [B@d1c1dc]
Other ShortMessage [message = [B@19dfc5a]
Other ShortMessage [message = [B@19a2455]
Other ShortMessage [message = [B@6e505c]
Other ShortMessage [message = [B@18e0cee]
PROGRAM_CHANGE [channel = 6, instrument = 83, data2 = 0, tick = 39168]
Other ShortMessage [message = [B@116ac09]
Other ShortMessage [message = [B@b2a30d]
Other ShortMessage [message = [B@ba8773]
Other ShortMessage [message = [B@1d00705]
Other ShortMessage [message = [B@1176a31]
Other ShortMessage [message = [B@184013e]
PROGRAM_CHANGE [channel = 6, instrument = 83, data2 = 0, tick = 39169]
Other ShortMessage [message = [B@165844d]
Other ShortMessage [message = [B@a004a0]
Other ShortMessage [message = [B@12a04e7]
Other ShortMessage [message = [B@1ffa30b]
Other ShortMessage [message = [B@13c232f]
Other ShortMessage [message = [B@1cf67e8]
PROGRAM_CHANGE [channel = 6, instrument = 83, data2 = 0, tick = 39169]
MetaMessage [message = [B@1692008]
Track 12: size = 95

MetaMessage [message = [B@1bae752]
Other ShortMessage [message = [B@f87cfd]
Other ShortMessage [message = [B@4ba480]
Other ShortMessage [message = [B@3790cf]
Other ShortMessage [message = [B@11fcb6f]
Other ShortMessage [message = [B@78537d]
Other ShortMessage [message = [B@1fc1a2b]
Other ShortMessage [message = [B@1a24eb3]
Other ShortMessage [message = [B@1d3cfc8]
Other ShortMessage [message = [B@171066a]
PROGRAM_CHANGE [channel = 5, instrument = 83, data2 = 0, tick = 0]
Other ShortMessage [message = [B@1e875be]
Other ShortMessage [message = [B@9486c0]
Other ShortMessage [message = [B@ee0a22]
Other ShortMessage [message = [B@1923407]
Other ShortMessage [message = [B@1540fd0]
Other ShortMessage [message = [B@cec85b]
PROGRAM_CHANGE [channel = 5, instrument = 83, data2 = 0, tick = 0]
Other ShortMessage [message = [B@142af63]
Other ShortMessage [message = [B@ed3303]
Other ShortMessage [message = [B@627c80]
Other ShortMessage [message = [B@963176]
Other ShortMessage [message = [B@afa9aa]
Other ShortMessage [message = [B@1001148]
PROGRAM_CHANGE [channel = 5, instrument = 83, data2 = 0, tick = 0]
NOTE ON [channel = 5, note = G5, key = 79, velocity = 7, tick = 7296]
NOTE OFF [channel = 5, note = G5, key = 79, velocity = 0, tick = 7342]
NOTE ON [channel = 5, note = F5, key = 77, velocity = 12, tick = 7343]
NOTE OFF [channel = 5, note = F5, key = 77, velocity = 0, tick = 7389]
NOTE ON [channel = 5, note = F5, key = 77, velocity = 20, tick = 7393]
NOTE OFF [channel = 5, note = F5, key = 77, velocity = 0, tick = 7439]
NOTE ON [channel = 5, note = D#5, key = 75, velocity = 30, tick = 7441]
NOTE OFF [channel = 5, note = D#5, key = 75, velocity = 0, tick = 7488]
NOTE ON [channel = 5, note = F5, key = 77, velocity = 42, tick = 7488]
NOTE OFF [channel = 5, note = F5, key = 77, velocity = 0, tick = 7511]
NOTE ON [channel = 5, note = G5, key = 79, velocity = 50, tick = 7512]
NOTE OFF [channel = 5, note = G5, key = 79, velocity = 0, tick = 7558]
NOTE ON [channel = 5, note = C5, key = 72, velocity = 59, tick = 7561]
NOTE OFF [channel = 5, note = C5, key = 72, velocity = 0, tick = 7679]
NOTE ON [channel = 5, note = G5, key = 79, velocity = 75, tick = 7681]
NOTE OFF [channel = 5, note = G5, key = 79, velocity = 0, tick = 7727]
NOTE ON [channel = 5, note = F5, key = 77, velocity = 83, tick = 7728]
NOTE OFF [channel = 5, note = F5, key = 77, velocity = 0, tick = 7774]
NOTE ON [channel = 5, note = F5, key = 77, velocity = 95, tick = 7777]
NOTE OFF [channel = 5, note = F5, key = 77, velocity = 0, tick = 7823]
NOTE ON [channel = 5, note = D#5, key = 75, velocity = 108, tick = 7824]
NOTE OFF [channel = 5, note = D#5, key = 75, velocity = 0, tick = 7870]
NOTE ON [channel = 5, note = F5, key = 77, velocity = 118, tick = 7873]
NOTE OFF [channel = 5, note = F5, key = 77, velocity = 0, tick = 8057]
NOTE ON [channel = 5, note = F5, key = 77, velocity = 127, tick = 8064]
NOTE OFF [channel = 5, note = F5, key = 77, velocity = 0, tick = 8111]
NOTE ON [channel = 5, note = D#5, key = 75, velocity = 127, tick = 8112]
NOTE OFF [channel = 5, note = D#5, key = 75, velocity = 0, tick = 8158]
NOTE ON [channel = 5, note = D#5, key = 75, velocity = 127, tick = 8161]
NOTE OFF [channel = 5, note = D#5, key = 75, velocity = 0, tick = 8207]
NOTE ON [channel = 5, note = D5, key = 74, velocity = 127, tick = 8209]
NOTE OFF [channel = 5, note = D5, key = 74, velocity = 0, tick = 8255]
NOTE ON [channel = 5, note = D#5, key = 75, velocity = 127, tick = 8256]
NOTE OFF [channel = 5, note = D#5, key = 75, velocity = 0, tick = 8279]
NOTE ON [channel = 5, note = F5, key = 77, velocity = 127, tick = 8280]
NOTE OFF [channel = 5, note = F5, key = 77, velocity = 0, tick = 8326]
NOTE ON [channel = 5, note = A#4, key = 70, velocity = 118, tick = 8327]
NOTE OFF [channel = 5, note = A#4, key = 70, velocity = 0, tick = 8445]
NOTE ON [channel = 5, note = F5, key = 77, velocity = 97, tick = 8449]
NOTE OFF [channel = 5, note = F5, key = 77, velocity = 0, tick = 8495]
NOTE ON [channel = 5, note = D#5, key = 75, velocity = 65, tick = 8497]
NOTE OFF [channel = 5, note = D#5, key = 75, velocity = 0, tick = 8543]
NOTE ON [channel = 5, note = D#5, key = 75, velocity = 31, tick = 8545]
NOTE OFF [channel = 5, note = D#5, key = 75, velocity = 0, tick = 8591]
NOTE ON [channel = 5, note = D5, key = 74, velocity = 16, tick = 8592]
NOTE OFF [channel = 5, note = D5, key = 74, velocity = 0, tick = 8638]
NOTE ON [channel = 5, note = D#5, key = 75, velocity = 4, tick = 8641]
NOTE OFF [channel = 5, note = D#5, key = 75, velocity = 0, tick = 8832]
Other ShortMessage [message = [B@1cb96e1]
Other ShortMessage [message = [B@30b91]
Other ShortMessage [message = [B@123015c]
Other ShortMessage [message = [B@1cc260]
Other ShortMessage [message = [B@dcd8c0]
Other ShortMessage [message = [B@4548a0]
PROGRAM_CHANGE [channel = 5, instrument = 83, data2 = 0, tick = 39168]
Other ShortMessage [message = [B@13c0293]
Other ShortMessage [message = [B@1569985]
Other ShortMessage [message = [B@1bd803f]
Other ShortMessage [message = [B@1ddd4a4]
Other ShortMessage [message = [B@122b970]
Other ShortMessage [message = [B@1f60067]
PROGRAM_CHANGE [channel = 5, instrument = 83, data2 = 0, tick = 39169]
Other ShortMessage [message = [B@9cfee5]
Other ShortMessage [message = [B@19854f0]
Other ShortMessage [message = [B@15156bf]
Other ShortMessage [message = [B@f46df3]
Other ShortMessage [message = [B@f78c87]
Other ShortMessage [message = [B@cfcbc9]
PROGRAM_CHANGE [channel = 5, instrument = 83, data2 = 0, tick = 39169]
MetaMessage [message = [B@1c07784]
Track 13: size = 191

MetaMessage [message = [B@1cff952]
Other ShortMessage [message = [B@55a6e8]
Other ShortMessage [message = [B@6b143b]
Other ShortMessage [message = [B@12e4acf]
Other ShortMessage [message = [B@b97ced]
Other ShortMessage [message = [B@13f66e7]
Other ShortMessage [message = [B@1667ad1]
Other ShortMessage [message = [B@8b401d]
Other ShortMessage [message = [B@1a281fc]
Other ShortMessage [message = [B@1fbffb2]
PROGRAM_CHANGE [channel = 4, instrument = 80, data2 = 0, tick = 0]
Other ShortMessage [message = [B@11335cb]
Other ShortMessage [message = [B@850122]
Other ShortMessage [message = [B@14c3c29]
Other ShortMessage [message = [B@dd2c73]
Other ShortMessage [message = [B@4c3a38]
Other ShortMessage [message = [B@27d163]
PROGRAM_CHANGE [channel = 4, instrument = 80, data2 = 0, tick = 0]
Other ShortMessage [message = [B@faea5f]
Other ShortMessage [message = [B@1e39850]
Other ShortMessage [message = [B@18474a2]
Other ShortMessage [message = [B@c1a023]
Other ShortMessage [message = [B@10b263]
Other ShortMessage [message = [B@5bb9a6]
PROGRAM_CHANGE [channel = 4, instrument = 80, data2 = 0, tick = 0]
NOTE ON [channel = 4, note = C6, key = 84, velocity = 127, tick = 5568]
NOTE OFF [channel = 4, note = C6, key = 84, velocity = 0, tick = 5614]
NOTE ON [channel = 4, note = G6, key = 91, velocity = 127, tick = 5615]
NOTE OFF [channel = 4, note = G6, key = 91, velocity = 0, tick = 5661]
NOTE ON [channel = 4, note = F6, key = 89, velocity = 127, tick = 5665]
NOTE OFF [channel = 4, note = F6, key = 89, velocity = 0, tick = 5711]
NOTE ON [channel = 4, note = G6, key = 91, velocity = 127, tick = 5712]
NOTE OFF [channel = 4, note = G6, key = 91, velocity = 0, tick = 5735]
NOTE ON [channel = 4, note = C6, key = 84, velocity = 127, tick = 5735]
NOTE OFF [channel = 4, note = C6, key = 84, velocity = 0, tick = 5781]
NOTE ON [channel = 4, note = C6, key = 84, velocity = 127, tick = 5785]
NOTE OFF [channel = 4, note = C6, key = 84, velocity = 0, tick = 5808]
NOTE ON [channel = 4, note = G6, key = 91, velocity = 127, tick = 5808]
NOTE OFF [channel = 4, note = G6, key = 91, velocity = 0, tick = 5854]
NOTE ON [channel = 4, note = F6, key = 89, velocity = 127, tick = 5857]
NOTE OFF [channel = 4, note = F6, key = 89, velocity = 0, tick = 5903]
NOTE ON [channel = 4, note = G6, key = 91, velocity = 127, tick = 5905]
NOTE OFF [channel = 4, note = G6, key = 91, velocity = 0, tick = 5951]
NOTE ON [channel = 4, note = D#6, key = 87, velocity = 127, tick = 5953]
NOTE OFF [channel = 4, note = D#6, key = 87, velocity = 0, tick = 6000]
NOTE ON [channel = 4, note = G6, key = 91, velocity = 127, tick = 6000]
NOTE OFF [channel = 4, note = G6, key = 91, velocity = 0, tick = 6046]
NOTE ON [channel = 4, note = F6, key = 89, velocity = 127, tick = 6048]
NOTE OFF [channel = 4, note = F6, key = 89, velocity = 0, tick = 6094]
NOTE ON [channel = 4, note = G6, key = 91, velocity = 127, tick = 6097]
NOTE OFF [channel = 4, note = G6, key = 91, velocity = 0, tick = 6120]
NOTE ON [channel = 4, note = D#6, key = 87, velocity = 127, tick = 6120]
NOTE OFF [channel = 4, note = D#6, key = 87, velocity = 0, tick = 6166]
NOTE ON [channel = 4, note = D#6, key = 87, velocity = 127, tick = 6168]
NOTE OFF [channel = 4, note = D#6, key = 87, velocity = 0, tick = 6191]
NOTE ON [channel = 4, note = G6, key = 91, velocity = 127, tick = 6192]
NOTE OFF [channel = 4, note = G6, key = 91, velocity = 0, tick = 6238]
NOTE ON [channel = 4, note = F6, key = 89, velocity = 127, tick = 6241]
NOTE OFF [channel = 4, note = F6, key = 89, velocity = 0, tick = 6287]
NOTE ON [channel = 4, note = G6, key = 91, velocity = 127, tick = 6288]
NOTE OFF [channel = 4, note = G6, key = 91, velocity = 0, tick = 6334]
NOTE ON [channel = 4, note = A#5, key = 82, velocity = 127, tick = 6336]
NOTE OFF [channel = 4, note = A#5, key = 82, velocity = 0, tick = 6382]
NOTE ON [channel = 4, note = F6, key = 89, velocity = 127, tick = 6383]
NOTE OFF [channel = 4, note = F6, key = 89, velocity = 0, tick = 6429]
NOTE ON [channel = 4, note = D#6, key = 87, velocity = 127, tick = 6432]
NOTE OFF [channel = 4, note = D#6, key = 87, velocity = 0, tick = 6478]
NOTE ON [channel = 4, note = F6, key = 89, velocity = 127, tick = 6480]
NOTE OFF [channel = 4, note = F6, key = 89, velocity = 0, tick = 6504]
NOTE ON [channel = 4, note = A#5, key = 82, velocity = 127, tick = 6504]
NOTE OFF [channel = 4, note = A#5, key = 82, velocity = 0, tick = 6550]
NOTE ON [channel = 4, note = A#5, key = 82, velocity = 127, tick = 6553]
NOTE ON [channel = 4, note = F6, key = 89, velocity = 127, tick = 6575]
NOTE OFF [channel = 4, note = A#5, key = 82, velocity = 0, tick = 6577]
NOTE OFF [channel = 4, note = F6, key = 89, velocity = 0, tick = 6621]
NOTE ON [channel = 4, note = D#6, key = 87, velocity = 127, tick = 6625]
NOTE OFF [channel = 4, note = D#6, key = 87, velocity = 0, tick = 6671]
NOTE ON [channel = 4, note = F6, key = 89, velocity = 127, tick = 6673]
NOTE OFF [channel = 4, note = F6, key = 89, velocity = 0, tick = 6719]
NOTE ON [channel = 4, note = A#5, key = 82, velocity = 127, tick = 6721]
NOTE OFF [channel = 4, note = A#5, key = 82, velocity = 0, tick = 6767]
NOTE ON [channel = 4, note = F6, key = 89, velocity = 127, tick = 6769]
NOTE OFF [channel = 4, note = F6, key = 89, velocity = 0, tick = 6815]
NOTE ON [channel = 4, note = D#6, key = 87, velocity = 127, tick = 6816]
NOTE OFF [channel = 4, note = D#6, key = 87, velocity = 0, tick = 6862]
NOTE ON [channel = 4, note = F6, key = 89, velocity = 127, tick = 6865]
NOTE OFF [channel = 4, note = F6, key = 89, velocity = 0, tick = 6888]
NOTE ON [channel = 4, note = A#5, key = 82, velocity = 127, tick = 6888]
NOTE OFF [channel = 4, note = A#5, key = 82, velocity = 0, tick = 6934]
NOTE ON [channel = 4, note = A#5, key = 82, velocity = 127, tick = 6937]
NOTE OFF [channel = 4, note = A#5, key = 82, velocity = 0, tick = 6960]
NOTE ON [channel = 4, note = F6, key = 89, velocity = 127, tick = 6960]
NOTE OFF [channel = 4, note = F6, key = 89, velocity = 0, tick = 7006]
NOTE ON [channel = 4, note = D#6, key = 87, velocity = 127, tick = 7009]
NOTE OFF [channel = 4, note = D#6, key = 87, velocity = 0, tick = 7055]
NOTE ON [channel = 4, note = F6, key = 89, velocity = 127, tick = 7057]
NOTE OFF [channel = 4, note = F6, key = 89, velocity = 0, tick = 7103]
NOTE ON [channel = 4, note = C6, key = 84, velocity = 127, tick = 23040]
NOTE OFF [channel = 4, note = C6, key = 84, velocity = 0, tick = 23086]
NOTE ON [channel = 4, note = G6, key = 91, velocity = 127, tick = 23087]
NOTE OFF [channel = 4, note = G6, key = 91, velocity = 0, tick = 23133]
NOTE ON [channel = 4, note = F6, key = 89, velocity = 127, tick = 23137]
NOTE OFF [channel = 4, note = F6, key = 89, velocity = 0, tick = 23183]
NOTE ON [channel = 4, note = G6, key = 91, velocity = 127, tick = 23184]
NOTE OFF [channel = 4, note = G6, key = 91, velocity = 0, tick = 23207]
NOTE ON [channel = 4, note = C6, key = 84, velocity = 127, tick = 23207]
NOTE OFF [channel = 4, note = C6, key = 84, velocity = 0, tick = 23253]
NOTE ON [channel = 4, note = C6, key = 84, velocity = 127, tick = 23257]
NOTE OFF [channel = 4, note = C6, key = 84, velocity = 0, tick = 23280]
NOTE ON [channel = 4, note = G6, key = 91, velocity = 127, tick = 23280]
NOTE OFF [channel = 4, note = G6, key = 91, velocity = 0, tick = 23326]
NOTE ON [channel = 4, note = F6, key = 89, velocity = 127, tick = 23329]
NOTE OFF [channel = 4, note = F6, key = 89, velocity = 0, tick = 23375]
NOTE ON [channel = 4, note = G6, key = 91, velocity = 127, tick = 23377]
NOTE OFF [channel = 4, note = G6, key = 91, velocity = 0, tick = 23423]
NOTE ON [channel = 4, note = D#6, key = 87, velocity = 127, tick = 23425]
NOTE OFF [channel = 4, note = D#6, key = 87, velocity = 0, tick = 23472]
NOTE ON [channel = 4, note = G6, key = 91, velocity = 127, tick = 23472]
NOTE OFF [channel = 4, note = G6, key = 91, velocity = 0, tick = 23518]
NOTE ON [channel = 4, note = F6, key = 89, velocity = 127, tick = 23520]
NOTE OFF [channel = 4, note = F6, key = 89, velocity = 0, tick = 23566]
NOTE ON [channel = 4, note = G6, key = 91, velocity = 127, tick = 23569]
NOTE OFF [channel = 4, note = G6, key = 91, velocity = 0, tick = 23592]
NOTE ON [channel = 4, note = D#6, key = 87, velocity = 127, tick = 23592]
NOTE OFF [channel = 4, note = D#6, key = 87, velocity = 0, tick = 23638]
NOTE ON [channel = 4, note = D#6, key = 87, velocity = 127, tick = 23640]
NOTE OFF [channel = 4, note = D#6, key = 87, velocity = 0, tick = 23663]
NOTE ON [channel = 4, note = G6, key = 91, velocity = 127, tick = 23664]
NOTE OFF [channel = 4, note = G6, key = 91, velocity = 0, tick = 23710]
NOTE ON [channel = 4, note = F6, key = 89, velocity = 127, tick = 23713]
NOTE OFF [channel = 4, note = F6, key = 89, velocity = 0, tick = 23759]
NOTE ON [channel = 4, note = G6, key = 91, velocity = 127, tick = 23760]
NOTE OFF [channel = 4, note = G6, key = 91, velocity = 0, tick = 23806]
NOTE ON [channel = 4, note = A#5, key = 82, velocity = 127, tick = 23808]
NOTE OFF [channel = 4, note = A#5, key = 82, velocity = 0, tick = 23854]
NOTE ON [channel = 4, note = F6, key = 89, velocity = 127, tick = 23855]
NOTE OFF [channel = 4, note = F6, key = 89, velocity = 0, tick = 23901]
NOTE ON [channel = 4, note = D#6, key = 87, velocity = 127, tick = 23904]
NOTE OFF [channel = 4, note = D#6, key = 87, velocity = 0, tick = 23950]
NOTE ON [channel = 4, note = F6, key = 89, velocity = 127, tick = 23952]
NOTE OFF [channel = 4, note = F6, key = 89, velocity = 0, tick = 23976]
NOTE ON [channel = 4, note = A#5, key = 82, velocity = 127, tick = 23976]
NOTE OFF [channel = 4, note = A#5, key = 82, velocity = 0, tick = 24022]
NOTE ON [channel = 4, note = A#5, key = 82, velocity = 127, tick = 24025]
NOTE ON [channel = 4, note = F6, key = 89, velocity = 127, tick = 24047]
NOTE OFF [channel = 4, note = A#5, key = 82, velocity = 0, tick = 24049]
NOTE OFF [channel = 4, note = F6, key = 89, velocity = 0, tick = 24093]
NOTE ON [channel = 4, note = D#6, key = 87, velocity = 127, tick = 24097]
NOTE OFF [channel = 4, note = D#6, key = 87, velocity = 0, tick = 24143]
NOTE ON [channel = 4, note = F6, key = 89, velocity = 127, tick = 24145]
NOTE OFF [channel = 4, note = F6, key = 89, velocity = 0, tick = 24191]
NOTE ON [channel = 4, note = A#5, key = 82, velocity = 127, tick = 24193]
NOTE OFF [channel = 4, note = A#5, key = 82, velocity = 0, tick = 24239]
NOTE ON [channel = 4, note = F6, key = 89, velocity = 127, tick = 24241]
NOTE OFF [channel = 4, note = F6, key = 89, velocity = 0, tick = 24287]
NOTE ON [channel = 4, note = D#6, key = 87, velocity = 127, tick = 24288]
NOTE OFF [channel = 4, note = D#6, key = 87, velocity = 0, tick = 24334]
NOTE ON [channel = 4, note = F6, key = 89, velocity = 127, tick = 24337]
NOTE OFF [channel = 4, note = F6, key = 89, velocity = 0, tick = 24360]
NOTE ON [channel = 4, note = A#5, key = 82, velocity = 127, tick = 24360]
NOTE OFF [channel = 4, note = A#5, key = 82, velocity = 0, tick = 24406]
NOTE ON [channel = 4, note = A#5, key = 82, velocity = 127, tick = 24409]
NOTE OFF [channel = 4, note = A#5, key = 82, velocity = 0, tick = 24432]
NOTE ON [channel = 4, note = F6, key = 89, velocity = 127, tick = 24432]
NOTE OFF [channel = 4, note = F6, key = 89, velocity = 0, tick = 24478]
NOTE ON [channel = 4, note = D#6, key = 87, velocity = 127, tick = 24481]
NOTE OFF [channel = 4, note = D#6, key = 87, velocity = 0, tick = 24527]
NOTE ON [channel = 4, note = F6, key = 89, velocity = 127, tick = 24529]
NOTE OFF [channel = 4, note = F6, key = 89, velocity = 0, tick = 24575]
Other ShortMessage [message = [B@fe8a4f]
Other ShortMessage [message = [B@16fadb]
Other ShortMessage [message = [B@27a6c1]
Other ShortMessage [message = [B@143e593]
Other ShortMessage [message = [B@1ec2df1]
Other ShortMessage [message = [B@1fa55a6]
PROGRAM_CHANGE [channel = 4, instrument = 80, data2 = 0, tick = 39168]
Other ShortMessage [message = [B@1ab4be7]
Other ShortMessage [message = [B@174c3ba]
Other ShortMessage [message = [B@138b0c]
Other ShortMessage [message = [B@d9c961]
Other ShortMessage [message = [B@1dc8014]
Other ShortMessage [message = [B@1ba6fe6]
PROGRAM_CHANGE [channel = 4, instrument = 80, data2 = 0, tick = 39169]
Other ShortMessage [message = [B@98d7c0]
Other ShortMessage [message = [B@7abc48]
Other ShortMessage [message = [B@2168b7]
Other ShortMessage [message = [B@35a578]
Other ShortMessage [message = [B@1047d7d]
Other ShortMessage [message = [B@1bb9029]
PROGRAM_CHANGE [channel = 4, instrument = 80, data2 = 0, tick = 39169]
MetaMessage [message = [B@1214b94]
Track 14: size = 335

MetaMessage [message = [B@1601f82]
Other ShortMessage [message = [B@b8d084]
Other ShortMessage [message = [B@fabd0f]
Other ShortMessage [message = [B@1f3fbb8]
Other ShortMessage [message = [B@32034a]
Other ShortMessage [message = [B@e5272]
Other ShortMessage [message = [B@1c93ca4]
Other ShortMessage [message = [B@13373b4]
Other ShortMessage [message = [B@dd3c23]
Other ShortMessage [message = [B@9456ae]
PROGRAM_CHANGE [channel = 3, instrument = 80, data2 = 0, tick = 0]
Other ShortMessage [message = [B@11cae23]
Other ShortMessage [message = [B@985696]
Other ShortMessage [message = [B@15a34b4]
Other ShortMessage [message = [B@1d3ab60]
Other ShortMessage [message = [B@1870da7]
Other ShortMessage [message = [B@1792847]
PROGRAM_CHANGE [channel = 3, instrument = 80, data2 = 0, tick = 0]
Other ShortMessage [message = [B@25147a]
Other ShortMessage [message = [B@15ffd1d]
Other ShortMessage [message = [B@506c0d]
Other ShortMessage [message = [B@1631962]
Other ShortMessage [message = [B@124287a]
Other ShortMessage [message = [B@632cfc]
PROGRAM_CHANGE [channel = 3, instrument = 80, data2 = 0, tick = 0]
NOTE ON [channel = 3, note = C5, key = 72, velocity = 127, tick = 4032]
NOTE OFF [channel = 3, note = C5, key = 72, velocity = 0, tick = 4078]
NOTE ON [channel = 3, note = G5, key = 79, velocity = 127, tick = 4079]
NOTE OFF [channel = 3, note = G5, key = 79, velocity = 0, tick = 4125]
NOTE ON [channel = 3, note = F5, key = 77, velocity = 127, tick = 4129]
NOTE OFF [channel = 3, note = F5, key = 77, velocity = 0, tick = 4175]
NOTE ON [channel = 3, note = G5, key = 79, velocity = 127, tick = 4176]
NOTE OFF [channel = 3, note = G5, key = 79, velocity = 0, tick = 4199]
NOTE ON [channel = 3, note = C5, key = 72, velocity = 127, tick = 4199]
NOTE OFF [channel = 3, note = C5, key = 72, velocity = 0, tick = 4245]
NOTE ON [channel = 3, note = C5, key = 72, velocity = 127, tick = 4249]
NOTE OFF [channel = 3, note = C5, key = 72, velocity = 0, tick = 4272]
NOTE ON [channel = 3, note = G5, key = 79, velocity = 127, tick = 4272]
NOTE OFF [channel = 3, note = G5, key = 79, velocity = 0, tick = 4318]
NOTE ON [channel = 3, note = F5, key = 77, velocity = 127, tick = 4321]
NOTE OFF [channel = 3, note = F5, key = 77, velocity = 0, tick = 4367]
NOTE ON [channel = 3, note = G5, key = 79, velocity = 127, tick = 4369]
NOTE OFF [channel = 3, note = G5, key = 79, velocity = 0, tick = 4415]
NOTE ON [channel = 3, note = D#5, key = 75, velocity = 127, tick = 4417]
NOTE OFF [channel = 3, note = D#5, key = 75, velocity = 0, tick = 4464]
NOTE ON [channel = 3, note = G5, key = 79, velocity = 127, tick = 4464]
NOTE OFF [channel = 3, note = G5, key = 79, velocity = 0, tick = 4510]
NOTE ON [channel = 3, note = F5, key = 77, velocity = 127, tick = 4512]
NOTE OFF [channel = 3, note = F5, key = 77, velocity = 0, tick = 4558]
NOTE ON [channel = 3, note = G5, key = 79, velocity = 127, tick = 4561]
NOTE OFF [channel = 3, note = G5, key = 79, velocity = 0, tick = 4584]
NOTE ON [channel = 3, note = D#5, key = 75, velocity = 127, tick = 4584]
NOTE OFF [channel = 3, note = D#5, key = 75, velocity = 0, tick = 4630]
NOTE ON [channel = 3, note = D#5, key = 75, velocity = 127, tick = 4632]
NOTE OFF [channel = 3, note = D#5, key = 75, velocity = 0, tick = 4655]
NOTE ON [channel = 3, note = G5, key = 79, velocity = 127, tick = 4656]
NOTE OFF [channel = 3, note = G5, key = 79, velocity = 0, tick = 4702]
NOTE ON [channel = 3, note = F5, key = 77, velocity = 127, tick = 4705]
NOTE OFF [channel = 3, note = F5, key = 77, velocity = 0, tick = 4751]
NOTE ON [channel = 3, note = G5, key = 79, velocity = 127, tick = 4752]
NOTE OFF [channel = 3, note = G5, key = 79, velocity = 0, tick = 4798]
NOTE ON [channel = 3, note = A#4, key = 70, velocity = 127, tick = 4800]
NOTE OFF [channel = 3, note = A#4, key = 70, velocity = 0, tick = 4846]
NOTE ON [channel = 3, note = F5, key = 77, velocity = 127, tick = 4847]
NOTE OFF [channel = 3, note = F5, key = 77, velocity = 0, tick = 4893]
NOTE ON [channel = 3, note = D#5, key = 75, velocity = 127, tick = 4896]
NOTE OFF [channel = 3, note = D#5, key = 75, velocity = 0, tick = 4942]
NOTE ON [channel = 3, note = F5, key = 77, velocity = 127, tick = 4944]
NOTE OFF [channel = 3, note = F5, key = 77, velocity = 0, tick = 4968]
NOTE ON [channel = 3, note = A#4, key = 70, velocity = 127, tick = 4968]
NOTE OFF [channel = 3, note = A#4, key = 70, velocity = 0, tick = 5014]
NOTE ON [channel = 3, note = A#4, key = 70, velocity = 127, tick = 5017]
NOTE ON [channel = 3, note = F5, key = 77, velocity = 127, tick = 5039]
NOTE OFF [channel = 3, note = A#4, key = 70, velocity = 0, tick = 5041]
NOTE OFF [channel = 3, note = F5, key = 77, velocity = 0, tick = 5085]
NOTE ON [channel = 3, note = D#5, key = 75, velocity = 127, tick = 5089]
NOTE OFF [channel = 3, note = D#5, key = 75, velocity = 0, tick = 5135]
NOTE ON [channel = 3, note = F5, key = 77, velocity = 127, tick = 5137]
NOTE OFF [channel = 3, note = F5, key = 77, velocity = 0, tick = 5183]
NOTE ON [channel = 3, note = A#4, key = 70, velocity = 127, tick = 5185]
NOTE OFF [channel = 3, note = A#4, key = 70, velocity = 0, tick = 5231]
NOTE ON [channel = 3, note = F5, key = 77, velocity = 127, tick = 5233]
NOTE OFF [channel = 3, note = F5, key = 77, velocity = 0, tick = 5279]
NOTE ON [channel = 3, note = D#5, key = 75, velocity = 127, tick = 5280]
NOTE OFF [channel = 3, note = D#5, key = 75, velocity = 0, tick = 5326]
NOTE ON [channel = 3, note = F5, key = 77, velocity = 127, tick = 5329]
NOTE OFF [channel = 3, note = F5, key = 77, velocity = 0, tick = 5352]
NOTE ON [channel = 3, note = A#4, key = 70, velocity = 127, tick = 5352]
NOTE OFF [channel = 3, note = A#4, key = 70, velocity = 0, tick = 5398]
NOTE ON [channel = 3, note = A#4, key = 70, velocity = 127, tick = 5401]
NOTE OFF [channel = 3, note = A#4, key = 70, velocity = 0, tick = 5424]
NOTE ON [channel = 3, note = F5, key = 77, velocity = 127, tick = 5424]
NOTE OFF [channel = 3, note = F5, key = 77, velocity = 0, tick = 5470]
NOTE ON [channel = 3, note = D#5, key = 75, velocity = 127, tick = 5473]
NOTE OFF [channel = 3, note = D#5, key = 75, velocity = 0, tick = 5519]
NOTE ON [channel = 3, note = F5, key = 77, velocity = 127, tick = 5521]
NOTE OFF [channel = 3, note = F5, key = 77, velocity = 0, tick = 5567]
NOTE ON [channel = 3, note = C5, key = 72, velocity = 127, tick = 5568]
NOTE OFF [channel = 3, note = C5, key = 72, velocity = 0, tick = 5614]
NOTE ON [channel = 3, note = G5, key = 79, velocity = 127, tick = 5615]
NOTE OFF [channel = 3, note = G5, key = 79, velocity = 0, tick = 5661]
NOTE ON [channel = 3, note = F5, key = 77, velocity = 127, tick = 5665]
NOTE OFF [channel = 3, note = F5, key = 77, velocity = 0, tick = 5711]
NOTE ON [channel = 3, note = G5, key = 79, velocity = 127, tick = 5712]
NOTE OFF [channel = 3, note = G5, key = 79, velocity = 0, tick = 5735]
NOTE ON [channel = 3, note = C5, key = 72, velocity = 127, tick = 5735]
NOTE OFF [channel = 3, note = C5, key = 72, velocity = 0, tick = 5781]
NOTE ON [channel = 3, note = C5, key = 72, velocity = 127, tick = 5785]
NOTE OFF [channel = 3, note = C5, key = 72, velocity = 0, tick = 5808]
NOTE ON [channel = 3, note = G5, key = 79, velocity = 127, tick = 5808]
NOTE OFF [channel = 3, note = G5, key = 79, velocity = 0, tick = 5854]
NOTE ON [channel = 3, note = F5, key = 77, velocity = 127, tick = 5857]
NOTE OFF [channel = 3, note = F5, key = 77, velocity = 0, tick = 5903]
NOTE ON [channel = 3, note = G5, key = 79, velocity = 127, tick = 5905]
NOTE OFF [channel = 3, note = G5, key = 79, velocity = 0, tick = 5951]
NOTE ON [channel = 3, note = D#5, key = 75, velocity = 127, tick = 5953]
NOTE OFF [channel = 3, note = D#5, key = 75, velocity = 0, tick = 6000]
NOTE ON [channel = 3, note = G5, key = 79, velocity = 127, tick = 6000]
NOTE OFF [channel = 3, note = G5, key = 79, velocity = 0, tick = 6046]
NOTE ON [channel = 3, note = F5, key = 77, velocity = 127, tick = 6048]
NOTE OFF [channel = 3, note = F5, key = 77, velocity = 0, tick = 6094]
NOTE ON [channel = 3, note = G5, key = 79, velocity = 127, tick = 6097]
NOTE OFF [channel = 3, note = G5, key = 79, velocity = 0, tick = 6120]
NOTE ON [channel = 3, note = D#5, key = 75, velocity = 127, tick = 6120]
NOTE OFF [channel = 3, note = D#5, key = 75, velocity = 0, tick = 6166]
NOTE ON [channel = 3, note = D#5, key = 75, velocity = 127, tick = 6168]
NOTE OFF [channel = 3, note = D#5, key = 75, velocity = 0, tick = 6191]
NOTE ON [channel = 3, note = G5, key = 79, velocity = 127, tick = 6192]
NOTE OFF [channel = 3, note = G5, key = 79, velocity = 0, tick = 6238]
NOTE ON [channel = 3, note = F5, key = 77, velocity = 127, tick = 6241]
NOTE OFF [channel = 3, note = F5, key = 77, velocity = 0, tick = 6287]
NOTE ON [channel = 3, note = G5, key = 79, velocity = 127, tick = 6288]
NOTE OFF [channel = 3, note = G5, key = 79, velocity = 0, tick = 6334]
NOTE ON [channel = 3, note = A#4, key = 70, velocity = 127, tick = 6336]
NOTE OFF [channel = 3, note = A#4, key = 70, velocity = 0, tick = 6382]
NOTE ON [channel = 3, note = F5, key = 77, velocity = 127, tick = 6383]
NOTE OFF [channel = 3, note = F5, key = 77, velocity = 0, tick = 6429]
NOTE ON [channel = 3, note = D#5, key = 75, velocity = 127, tick = 6432]
NOTE OFF [channel = 3, note = D#5, key = 75, velocity = 0, tick = 6478]
NOTE ON [channel = 3, note = F5, key = 77, velocity = 127, tick = 6480]
NOTE OFF [channel = 3, note = F5, key = 77, velocity = 0, tick = 6504]
NOTE ON [channel = 3, note = A#4, key = 70, velocity = 127, tick = 6504]
NOTE OFF [channel = 3, note = A#4, key = 70, velocity = 0, tick = 6550]
NOTE ON [channel = 3, note = A#4, key = 70, velocity = 127, tick = 6553]
NOTE ON [channel = 3, note = F5, key = 77, velocity = 127, tick = 6575]
NOTE OFF [channel = 3, note = A#4, key = 70, velocity = 0, tick = 6577]
NOTE OFF [channel = 3, note = F5, key = 77, velocity = 0, tick = 6621]
NOTE ON [channel = 3, note = D#5, key = 75, velocity = 127, tick = 6625]
NOTE OFF [channel = 3, note = D#5, key = 75, velocity = 0, tick = 6671]
NOTE ON [channel = 3, note = F5, key = 77, velocity = 127, tick = 6673]
NOTE OFF [channel = 3, note = F5, key = 77, velocity = 0, tick = 6719]
NOTE ON [channel = 3, note = A#4, key = 70, velocity = 127, tick = 6721]
NOTE OFF [channel = 3, note = A#4, key = 70, velocity = 0, tick = 6767]
NOTE ON [channel = 3, note = F5, key = 77, velocity = 127, tick = 6769]
NOTE OFF [channel = 3, note = F5, key = 77, velocity = 0, tick = 6815]
NOTE ON [channel = 3, note = D#5, key = 75, velocity = 127, tick = 6816]
NOTE OFF [channel = 3, note = D#5, key = 75, velocity = 0, tick = 6862]
NOTE ON [channel = 3, note = F5, key = 77, velocity = 127, tick = 6865]
NOTE OFF [channel = 3, note = F5, key = 77, velocity = 0, tick = 6888]
NOTE ON [channel = 3, note = A#4, key = 70, velocity = 127, tick = 6888]
NOTE OFF [channel = 3, note = A#4, key = 70, velocity = 0, tick = 6934]
NOTE ON [channel = 3, note = A#4, key = 70, velocity = 127, tick = 6937]
NOTE OFF [channel = 3, note = A#4, key = 70, velocity = 0, tick = 6960]
NOTE ON [channel = 3, note = F5, key = 77, velocity = 127, tick = 6960]
NOTE OFF [channel = 3, note = F5, key = 77, velocity = 0, tick = 7006]
NOTE ON [channel = 3, note = D#5, key = 75, velocity = 127, tick = 7009]
NOTE OFF [channel = 3, note = D#5, key = 75, velocity = 0, tick = 7055]
NOTE ON [channel = 3, note = F5, key = 77, velocity = 127, tick = 7057]
NOTE OFF [channel = 3, note = F5, key = 77, velocity = 0, tick = 7103]
NOTE ON [channel = 3, note = C5, key = 72, velocity = 127, tick = 21504]
NOTE OFF [channel = 3, note = C5, key = 72, velocity = 0, tick = 21550]
NOTE ON [channel = 3, note = G5, key = 79, velocity = 127, tick = 21551]
NOTE OFF [channel = 3, note = G5, key = 79, velocity = 0, tick = 21597]
NOTE ON [channel = 3, note = F5, key = 77, velocity = 127, tick = 21601]
NOTE OFF [channel = 3, note = F5, key = 77, velocity = 0, tick = 21647]
NOTE ON [channel = 3, note = G5, key = 79, velocity = 127, tick = 21648]
NOTE OFF [channel = 3, note = G5, key = 79, velocity = 0, tick = 21671]
NOTE ON [channel = 3, note = C5, key = 72, velocity = 127, tick = 21671]
NOTE OFF [channel = 3, note = C5, key = 72, velocity = 0, tick = 21717]
NOTE ON [channel = 3, note = C5, key = 72, velocity = 127, tick = 21721]
NOTE OFF [channel = 3, note = C5, key = 72, velocity = 0, tick = 21744]
NOTE ON [channel = 3, note = G5, key = 79, velocity = 127, tick = 21744]
NOTE OFF [channel = 3, note = G5, key = 79, velocity = 0, tick = 21790]
NOTE ON [channel = 3, note = F5, key = 77, velocity = 127, tick = 21793]
NOTE OFF [channel = 3, note = F5, key = 77, velocity = 0, tick = 21839]
NOTE ON [channel = 3, note = G5, key = 79, velocity = 127, tick = 21841]
NOTE OFF [channel = 3, note = G5, key = 79, velocity = 0, tick = 21887]
NOTE ON [channel = 3, note = D#5, key = 75, velocity = 127, tick = 21889]
NOTE OFF [channel = 3, note = D#5, key = 75, velocity = 0, tick = 21936]
NOTE ON [channel = 3, note = G5, key = 79, velocity = 127, tick = 21936]
NOTE OFF [channel = 3, note = G5, key = 79, velocity = 0, tick = 21982]
NOTE ON [channel = 3, note = F5, key = 77, velocity = 127, tick = 21984]
NOTE OFF [channel = 3, note = F5, key = 77, velocity = 0, tick = 22030]
NOTE ON [channel = 3, note = G5, key = 79, velocity = 127, tick = 22033]
NOTE OFF [channel = 3, note = G5, key = 79, velocity = 0, tick = 22056]
NOTE ON [channel = 3, note = D#5, key = 75, velocity = 127, tick = 22056]
NOTE OFF [channel = 3, note = D#5, key = 75, velocity = 0, tick = 22102]
NOTE ON [channel = 3, note = D#5, key = 75, velocity = 127, tick = 22104]
NOTE OFF [channel = 3, note = D#5, key = 75, velocity = 0, tick = 22127]
NOTE ON [channel = 3, note = G5, key = 79, velocity = 127, tick = 22128]
NOTE OFF [channel = 3, note = G5, key = 79, velocity = 0, tick = 22174]
NOTE ON [channel = 3, note = F5, key = 77, velocity = 127, tick = 22177]
NOTE OFF [channel = 3, note = F5, key = 77, velocity = 0, tick = 22223]
NOTE ON [channel = 3, note = G5, key = 79, velocity = 127, tick = 22224]
NOTE OFF [channel = 3, note = G5, key = 79, velocity = 0, tick = 22270]
NOTE ON [channel = 3, note = A#4, key = 70, velocity = 127, tick = 22272]
NOTE OFF [channel = 3, note = A#4, key = 70, velocity = 0, tick = 22318]
NOTE ON [channel = 3, note = F5, key = 77, velocity = 127, tick = 22319]
NOTE OFF [channel = 3, note = F5, key = 77, velocity = 0, tick = 22365]
NOTE ON [channel = 3, note = D#5, key = 75, velocity = 127, tick = 22368]
NOTE OFF [channel = 3, note = D#5, key = 75, velocity = 0, tick = 22414]
NOTE ON [channel = 3, note = F5, key = 77, velocity = 127, tick = 22416]
NOTE OFF [channel = 3, note = F5, key = 77, velocity = 0, tick = 22440]
NOTE ON [channel = 3, note = A#4, key = 70, velocity = 127, tick = 22440]
NOTE OFF [channel = 3, note = A#4, key = 70, velocity = 0, tick = 22486]
NOTE ON [channel = 3, note = A#4, key = 70, velocity = 127, tick = 22489]
NOTE ON [channel = 3, note = F5, key = 77, velocity = 127, tick = 22511]
NOTE OFF [channel = 3, note = A#4, key = 70, velocity = 0, tick = 22513]
NOTE OFF [channel = 3, note = F5, key = 77, velocity = 0, tick = 22557]
NOTE ON [channel = 3, note = D#5, key = 75, velocity = 127, tick = 22561]
NOTE OFF [channel = 3, note = D#5, key = 75, velocity = 0, tick = 22607]
NOTE ON [channel = 3, note = F5, key = 77, velocity = 127, tick = 22609]
NOTE OFF [channel = 3, note = F5, key = 77, velocity = 0, tick = 22655]
NOTE ON [channel = 3, note = A#4, key = 70, velocity = 127, tick = 22657]
NOTE OFF [channel = 3, note = A#4, key = 70, velocity = 0, tick = 22703]
NOTE ON [channel = 3, note = F5, key = 77, velocity = 127, tick = 22705]
NOTE OFF [channel = 3, note = F5, key = 77, velocity = 0, tick = 22751]
NOTE ON [channel = 3, note = D#5, key = 75, velocity = 127, tick = 22752]
NOTE OFF [channel = 3, note = D#5, key = 75, velocity = 0, tick = 22798]
NOTE ON [channel = 3, note = F5, key = 77, velocity = 127, tick = 22801]
NOTE OFF [channel = 3, note = F5, key = 77, velocity = 0, tick = 22824]
NOTE ON [channel = 3, note = A#4, key = 70, velocity = 127, tick = 22824]
NOTE OFF [channel = 3, note = A#4, key = 70, velocity = 0, tick = 22870]
NOTE ON [channel = 3, note = A#4, key = 70, velocity = 127, tick = 22873]
NOTE OFF [channel = 3, note = A#4, key = 70, velocity = 0, tick = 22896]
NOTE ON [channel = 3, note = F5, key = 77, velocity = 127, tick = 22896]
NOTE OFF [channel = 3, note = F5, key = 77, velocity = 0, tick = 22942]
NOTE ON [channel = 3, note = D#5, key = 75, velocity = 127, tick = 22945]
NOTE OFF [channel = 3, note = D#5, key = 75, velocity = 0, tick = 22991]
NOTE ON [channel = 3, note = F5, key = 77, velocity = 127, tick = 22993]
NOTE OFF [channel = 3, note = F5, key = 77, velocity = 0, tick = 23039]
NOTE ON [channel = 3, note = C5, key = 72, velocity = 127, tick = 23040]
NOTE OFF [channel = 3, note = C5, key = 72, velocity = 0, tick = 23086]
NOTE ON [channel = 3, note = G5, key = 79, velocity = 127, tick = 23087]
NOTE OFF [channel = 3, note = G5, key = 79, velocity = 0, tick = 23133]
NOTE ON [channel = 3, note = F5, key = 77, velocity = 127, tick = 23137]
NOTE OFF [channel = 3, note = F5, key = 77, velocity = 0, tick = 23183]
NOTE ON [channel = 3, note = G5, key = 79, velocity = 127, tick = 23184]
NOTE OFF [channel = 3, note = G5, key = 79, velocity = 0, tick = 23207]
NOTE ON [channel = 3, note = C5, key = 72, velocity = 127, tick = 23207]
NOTE OFF [channel = 3, note = C5, key = 72, velocity = 0, tick = 23253]
NOTE ON [channel = 3, note = C5, key = 72, velocity = 127, tick = 23257]
NOTE OFF [channel = 3, note = C5, key = 72, velocity = 0, tick = 23280]
NOTE ON [channel = 3, note = G5, key = 79, velocity = 127, tick = 23280]
NOTE OFF [channel = 3, note = G5, key = 79, velocity = 0, tick = 23326]
NOTE ON [channel = 3, note = F5, key = 77, velocity = 127, tick = 23329]
NOTE OFF [channel = 3, note = F5, key = 77, velocity = 0, tick = 23375]
NOTE ON [channel = 3, note = G5, key = 79, velocity = 127, tick = 23377]
NOTE OFF [channel = 3, note = G5, key = 79, velocity = 0, tick = 23423]
NOTE ON [channel = 3, note = D#5, key = 75, velocity = 127, tick = 23425]
NOTE OFF [channel = 3, note = D#5, key = 75, velocity = 0, tick = 23472]
NOTE ON [channel = 3, note = G5, key = 79, velocity = 127, tick = 23472]
NOTE OFF [channel = 3, note = G5, key = 79, velocity = 0, tick = 23518]
NOTE ON [channel = 3, note = F5, key = 77, velocity = 127, tick = 23520]
NOTE OFF [channel = 3, note = F5, key = 77, velocity = 0, tick = 23566]
NOTE ON [channel = 3, note = G5, key = 79, velocity = 127, tick = 23569]
NOTE OFF [channel = 3, note = G5, key = 79, velocity = 0, tick = 23592]
NOTE ON [channel = 3, note = D#5, key = 75, velocity = 127, tick = 23592]
NOTE OFF [channel = 3, note = D#5, key = 75, velocity = 0, tick = 23638]
NOTE ON [channel = 3, note = D#5, key = 75, velocity = 127, tick = 23640]
NOTE OFF [channel = 3, note = D#5, key = 75, velocity = 0, tick = 23663]
NOTE ON [channel = 3, note = G5, key = 79, velocity = 127, tick = 23664]
NOTE OFF [channel = 3, note = G5, key = 79, velocity = 0, tick = 23710]
NOTE ON [channel = 3, note = F5, key = 77, velocity = 127, tick = 23713]
NOTE OFF [channel = 3, note = F5, key = 77, velocity = 0, tick = 23759]
NOTE ON [channel = 3, note = G5, key = 79, velocity = 127, tick = 23760]
NOTE OFF [channel = 3, note = G5, key = 79, velocity = 0, tick = 23806]
NOTE ON [channel = 3, note = A#4, key = 70, velocity = 127, tick = 23808]
NOTE OFF [channel = 3, note = A#4, key = 70, velocity = 0, tick = 23854]
NOTE ON [channel = 3, note = F5, key = 77, velocity = 127, tick = 23855]
NOTE OFF [channel = 3, note = F5, key = 77, velocity = 0, tick = 23901]
NOTE ON [channel = 3, note = D#5, key = 75, velocity = 127, tick = 23904]
NOTE OFF [channel = 3, note = D#5, key = 75, velocity = 0, tick = 23950]
NOTE ON [channel = 3, note = F5, key = 77, velocity = 127, tick = 23952]
NOTE OFF [channel = 3, note = F5, key = 77, velocity = 0, tick = 23976]
NOTE ON [channel = 3, note = A#4, key = 70, velocity = 127, tick = 23976]
NOTE OFF [channel = 3, note = A#4, key = 70, velocity = 0, tick = 24022]
NOTE ON [channel = 3, note = A#4, key = 70, velocity = 127, tick = 24025]
NOTE ON [channel = 3, note = F5, key = 77, velocity = 127, tick = 24047]
NOTE OFF [channel = 3, note = A#4, key = 70, velocity = 0, tick = 24049]
NOTE OFF [channel = 3, note = F5, key = 77, velocity = 0, tick = 24093]
NOTE ON [channel = 3, note = D#5, key = 75, velocity = 127, tick = 24097]
NOTE OFF [channel = 3, note = D#5, key = 75, velocity = 0, tick = 24143]
NOTE ON [channel = 3, note = F5, key = 77, velocity = 127, tick = 24145]
NOTE OFF [channel = 3, note = F5, key = 77, velocity = 0, tick = 24191]
NOTE ON [channel = 3, note = A#4, key = 70, velocity = 127, tick = 24193]
NOTE OFF [channel = 3, note = A#4, key = 70, velocity = 0, tick = 24239]
NOTE ON [channel = 3, note = F5, key = 77, velocity = 127, tick = 24241]
NOTE OFF [channel = 3, note = F5, key = 77, velocity = 0, tick = 24287]
NOTE ON [channel = 3, note = D#5, key = 75, velocity = 127, tick = 24288]
NOTE OFF [channel = 3, note = D#5, key = 75, velocity = 0, tick = 24334]
NOTE ON [channel = 3, note = F5, key = 77, velocity = 127, tick = 24337]
NOTE OFF [channel = 3, note = F5, key = 77, velocity = 0, tick = 24360]
NOTE ON [channel = 3, note = A#4, key = 70, velocity = 127, tick = 24360]
NOTE OFF [channel = 3, note = A#4, key = 70, velocity = 0, tick = 24406]
NOTE ON [channel = 3, note = A#4, key = 70, velocity = 127, tick = 24409]
NOTE OFF [channel = 3, note = A#4, key = 70, velocity = 0, tick = 24432]
NOTE ON [channel = 3, note = F5, key = 77, velocity = 127, tick = 24432]
NOTE OFF [channel = 3, note = F5, key = 77, velocity = 0, tick = 24478]
NOTE ON [channel = 3, note = D#5, key = 75, velocity = 127, tick = 24481]
NOTE OFF [channel = 3, note = D#5, key = 75, velocity = 0, tick = 24527]
NOTE ON [channel = 3, note = F5, key = 77, velocity = 127, tick = 24529]
NOTE OFF [channel = 3, note = F5, key = 77, velocity = 0, tick = 24575]
Other ShortMessage [message = [B@380628]
Other ShortMessage [message = [B@af1e62]
Other ShortMessage [message = [B@e6a3ec]
Other ShortMessage [message = [B@1ee96f4]
Other ShortMessage [message = [B@12ab8d9]
Other ShortMessage [message = [B@1e0301d]
PROGRAM_CHANGE [channel = 3, instrument = 80, data2 = 0, tick = 39168]
Other ShortMessage [message = [B@10b3be0]
Other ShortMessage [message = [B@1dbd6e4]
Other ShortMessage [message = [B@1f13be1]
Other ShortMessage [message = [B@d3bf39]
Other ShortMessage [message = [B@1852487]
Other ShortMessage [message = [B@fae281]
PROGRAM_CHANGE [channel = 3, instrument = 80, data2 = 0, tick = 39169]
Other ShortMessage [message = [B@f2144]
Other ShortMessage [message = [B@1827393]
Other ShortMessage [message = [B@645b43]
Other ShortMessage [message = [B@18d9a05]
Other ShortMessage [message = [B@f96b85]
Other ShortMessage [message = [B@1c0036b]
PROGRAM_CHANGE [channel = 3, instrument = 80, data2 = 0, tick = 39169]
MetaMessage [message = [B@c9af2a]
Track 15: size = 783

MetaMessage [message = [B@e89bfe]
Other ShortMessage [message = [B@2ba524]
Other ShortMessage [message = [B@1cea7b0]
Other ShortMessage [message = [B@5f7840]
Other ShortMessage [message = [B@7f0f0a]
Other ShortMessage [message = [B@1bb650b]
Other ShortMessage [message = [B@1ec445c]
Other ShortMessage [message = [B@1d18d0b]
Other ShortMessage [message = [B@17b3edb]
Other ShortMessage [message = [B@8531c2]
PROGRAM_CHANGE [channel = 2, instrument = 38, data2 = 0, tick = 0]
Other ShortMessage [message = [B@9d5dff]
Other ShortMessage [message = [B@bac9ba]
Other ShortMessage [message = [B@1dd5689]
Other ShortMessage [message = [B@1ab3aac]
Other ShortMessage [message = [B@1ae095c]
Other ShortMessage [message = [B@140e59]
PROGRAM_CHANGE [channel = 2, instrument = 38, data2 = 0, tick = 0]
Other ShortMessage [message = [B@d61783]
Other ShortMessage [message = [B@1aa341b]
Other ShortMessage [message = [B@e263bf]
Other ShortMessage [message = [B@19ccca5]
Other ShortMessage [message = [B@4fa1da]
Other ShortMessage [message = [B@192c349]
PROGRAM_CHANGE [channel = 2, instrument = 38, data2 = 0, tick = 0]
NOTE ON [channel = 2, note = C3, key = 48, velocity = 127, tick = 816]
NOTE OFF [channel = 2, note = C3, key = 48, velocity = 0, tick = 862]
NOTE ON [channel = 2, note = C3, key = 48, velocity = 127, tick = 912]
NOTE OFF [channel = 2, note = C3, key = 48, velocity = 0, tick = 958]
NOTE ON [channel = 2, note = C3, key = 48, velocity = 127, tick = 1010]
NOTE OFF [channel = 2, note = C3, key = 48, velocity = 0, tick = 1056]
NOTE ON [channel = 2, note = C3, key = 48, velocity = 127, tick = 1104]
NOTE OFF [channel = 2, note = C3, key = 48, velocity = 0, tick = 1152]
NOTE ON [channel = 2, note = D#3, key = 51, velocity = 127, tick = 1201]
NOTE OFF [channel = 2, note = D#3, key = 51, velocity = 0, tick = 1247]
NOTE ON [channel = 2, note = D#3, key = 51, velocity = 127, tick = 1297]
NOTE OFF [channel = 2, note = D#3, key = 51, velocity = 0, tick = 1343]
NOTE ON [channel = 2, note = D#3, key = 51, velocity = 127, tick = 1393]
NOTE OFF [channel = 2, note = D#3, key = 51, velocity = 0, tick = 1439]
NOTE ON [channel = 2, note = D#3, key = 51, velocity = 127, tick = 1488]
NOTE OFF [channel = 2, note = D#3, key = 51, velocity = 0, tick = 1536]
NOTE ON [channel = 2, note = A#2, key = 46, velocity = 127, tick = 1585]
NOTE OFF [channel = 2, note = A#2, key = 46, velocity = 0, tick = 1631]
NOTE ON [channel = 2, note = A#2, key = 46, velocity = 127, tick = 1680]
NOTE OFF [channel = 2, note = A#2, key = 46, velocity = 0, tick = 1726]
NOTE ON [channel = 2, note = A#2, key = 46, velocity = 127, tick = 1776]
NOTE OFF [channel = 2, note = A#2, key = 46, velocity = 0, tick = 1822]
NOTE ON [channel = 2, note = A#2, key = 46, velocity = 127, tick = 1872]
NOTE OFF [channel = 2, note = A#2, key = 46, velocity = 0, tick = 1920]
NOTE ON [channel = 2, note = A#2, key = 46, velocity = 127, tick = 1967]
NOTE OFF [channel = 2, note = A#2, key = 46, velocity = 0, tick = 2013]
NOTE ON [channel = 2, note = A#2, key = 46, velocity = 127, tick = 2064]
NOTE OFF [channel = 2, note = A#2, key = 46, velocity = 0, tick = 2110]
NOTE ON [channel = 2, note = A#2, key = 46, velocity = 127, tick = 2160]
NOTE OFF [channel = 2, note = A#2, key = 46, velocity = 0, tick = 2206]
NOTE ON [channel = 2, note = A#2, key = 46, velocity = 127, tick = 2256]
NOTE OFF [channel = 2, note = A#2, key = 46, velocity = 0, tick = 2304]
NOTE ON [channel = 2, note = C3, key = 48, velocity = 127, tick = 2352]
NOTE OFF [channel = 2, note = C3, key = 48, velocity = 0, tick = 2398]
NOTE ON [channel = 2, note = C3, key = 48, velocity = 127, tick = 2448]
NOTE OFF [channel = 2, note = C3, key = 48, velocity = 0, tick = 2494]
NOTE ON [channel = 2, note = C3, key = 48, velocity = 127, tick = 2546]
NOTE OFF [channel = 2, note = C3, key = 48, velocity = 0, tick = 2592]
NOTE ON [channel = 2, note = C3, key = 48, velocity = 127, tick = 2640]
NOTE OFF [channel = 2, note = C3, key = 48, velocity = 0, tick = 2688]
NOTE ON [channel = 2, note = D#3, key = 51, velocity = 127, tick = 2737]
NOTE OFF [channel = 2, note = D#3, key = 51, velocity = 0, tick = 2783]
NOTE ON [channel = 2, note = D#3, key = 51, velocity = 127, tick = 2833]
NOTE OFF [channel = 2, note = D#3, key = 51, velocity = 0, tick = 2879]
NOTE ON [channel = 2, note = D#3, key = 51, velocity = 127, tick = 2929]
NOTE OFF [channel = 2, note = D#3, key = 51, velocity = 0, tick = 2975]
NOTE ON [channel = 2, note = D#3, key = 51, velocity = 127, tick = 3024]
NOTE OFF [channel = 2, note = D#3, key = 51, velocity = 0, tick = 3072]
NOTE ON [channel = 2, note = A#2, key = 46, velocity = 127, tick = 3121]
NOTE OFF [channel = 2, note = A#2, key = 46, velocity = 0, tick = 3167]
NOTE ON [channel = 2, note = A#2, key = 46, velocity = 127, tick = 3216]
NOTE OFF [channel = 2, note = A#2, key = 46, velocity = 0, tick = 3262]
NOTE ON [channel = 2, note = A#2, key = 46, velocity = 127, tick = 3312]
NOTE OFF [channel = 2, note = A#2, key = 46, velocity = 0, tick = 3358]
NOTE ON [channel = 2, note = A#2, key = 46, velocity = 127, tick = 3408]
NOTE OFF [channel = 2, note = A#2, key = 46, velocity = 0, tick = 3456]
NOTE ON [channel = 2, note = A#2, key = 46, velocity = 127, tick = 3503]
NOTE OFF [channel = 2, note = A#2, key = 46, velocity = 0, tick = 3549]
NOTE ON [channel = 2, note = A#2, key = 46, velocity = 127, tick = 3600]
NOTE OFF [channel = 2, note = A#2, key = 46, velocity = 0, tick = 3646]
NOTE ON [channel = 2, note = A#2, key = 46, velocity = 127, tick = 3696]
NOTE OFF [channel = 2, note = A#2, key = 46, velocity = 0, tick = 3742]
NOTE ON [channel = 2, note = A#2, key = 46, velocity = 127, tick = 3792]
NOTE OFF [channel = 2, note = A#2, key = 46, velocity = 0, tick = 3840]
NOTE ON [channel = 2, note = C3, key = 48, velocity = 127, tick = 4080]
NOTE OFF [channel = 2, note = C3, key = 48, velocity = 0, tick = 4126]
NOTE ON [channel = 2, note = C3, key = 48, velocity = 127, tick = 4176]
NOTE OFF [channel = 2, note = C3, key = 48, velocity = 0, tick = 4222]
NOTE ON [channel = 2, note = C3, key = 48, velocity = 127, tick = 4274]
NOTE OFF [channel = 2, note = C3, key = 48, velocity = 0, tick = 4320]
NOTE ON [channel = 2, note = C3, key = 48, velocity = 127, tick = 4368]
NOTE OFF [channel = 2, note = C3, key = 48, velocity = 0, tick = 4416]
NOTE ON [channel = 2, note = D#3, key = 51, velocity = 127, tick = 4465]
NOTE OFF [channel = 2, note = D#3, key = 51, velocity = 0, tick = 4511]
NOTE ON [channel = 2, note = D#3, key = 51, velocity = 127, tick = 4561]
NOTE OFF [channel = 2, note = D#3, key = 51, velocity = 0, tick = 4607]
NOTE ON [channel = 2, note = D#3, key = 51, velocity = 127, tick = 4657]
NOTE OFF [channel = 2, note = D#3, key = 51, velocity = 0, tick = 4703]
NOTE ON [channel = 2, note = D#3, key = 51, velocity = 127, tick = 4752]
NOTE OFF [channel = 2, note = D#3, key = 51, velocity = 0, tick = 4800]
NOTE ON [channel = 2, note = A#2, key = 46, velocity = 127, tick = 4849]
NOTE OFF [channel = 2, note = A#2, key = 46, velocity = 0, tick = 4895]
NOTE ON [channel = 2, note = A#2, key = 46, velocity = 127, tick = 4944]
NOTE OFF [channel = 2, note = A#2, key = 46, velocity = 0, tick = 4990]
NOTE ON [channel = 2, note = A#2, key = 46, velocity = 127, tick = 5040]
NOTE OFF [channel = 2, note = A#2, key = 46, velocity = 0, tick = 5086]
NOTE ON [channel = 2, note = A#2, key = 46, velocity = 127, tick = 5136]
NOTE OFF [channel = 2, note = A#2, key = 46, velocity = 0, tick = 5184]
NOTE ON [channel = 2, note = A#2, key = 46, velocity = 127, tick = 5231]
NOTE OFF [channel = 2, note = A#2, key = 46, velocity = 0, tick = 5277]
NOTE ON [channel = 2, note = A#2, key = 46, velocity = 127, tick = 5328]
NOTE OFF [channel = 2, note = A#2, key = 46, velocity = 0, tick = 5374]
NOTE ON [channel = 2, note = A#2, key = 46, velocity = 127, tick = 5424]
NOTE OFF [channel = 2, note = A#2, key = 46, velocity = 0, tick = 5470]
NOTE ON [channel = 2, note = A#2, key = 46, velocity = 127, tick = 5520]
NOTE OFF [channel = 2, note = A#2, key = 46, velocity = 0, tick = 5568]
NOTE ON [channel = 2, note = C3, key = 48, velocity = 127, tick = 5616]
NOTE OFF [channel = 2, note = C3, key = 48, velocity = 0, tick = 5662]
NOTE ON [channel = 2, note = C3, key = 48, velocity = 127, tick = 5712]
NOTE OFF [channel = 2, note = C3, key = 48, velocity = 0, tick = 5758]
NOTE ON [channel = 2, note = C3, key = 48, velocity = 127, tick = 5810]
NOTE OFF [channel = 2, note = C3, key = 48, velocity = 0, tick = 5856]
NOTE ON [channel = 2, note = C3, key = 48, velocity = 127, tick = 5904]
NOTE OFF [channel = 2, note = C3, key = 48, velocity = 0, tick = 5952]
NOTE ON [channel = 2, note = D#3, key = 51, velocity = 127, tick = 6001]
NOTE OFF [channel = 2, note = D#3, key = 51, velocity = 0, tick = 6047]
NOTE ON [channel = 2, note = D#3, key = 51, velocity = 127, tick = 6097]
NOTE OFF [channel = 2, note = D#3, key = 51, velocity = 0, tick = 6143]
NOTE ON [channel = 2, note = D#3, key = 51, velocity = 127, tick = 6193]
NOTE OFF [channel = 2, note = D#3, key = 51, velocity = 0, tick = 6239]
NOTE ON [channel = 2, note = D#3, key = 51, velocity = 127, tick = 6288]
NOTE OFF [channel = 2, note = D#3, key = 51, velocity = 0, tick = 6336]
NOTE ON [channel = 2, note = A#2, key = 46, velocity = 127, tick = 6385]
NOTE OFF [channel = 2, note = A#2, key = 46, velocity = 0, tick = 6431]
NOTE ON [channel = 2, note = A#2, key = 46, velocity = 127, tick = 6480]
NOTE OFF [channel = 2, note = A#2, key = 46, velocity = 0, tick = 6526]
NOTE ON [channel = 2, note = A#2, key = 46, velocity = 127, tick = 6576]
NOTE OFF [channel = 2, note = A#2, key = 46, velocity = 0, tick = 6622]
NOTE ON [channel = 2, note = A#2, key = 46, velocity = 127, tick = 6672]
NOTE OFF [channel = 2, note = A#2, key = 46, velocity = 0, tick = 6720]
NOTE ON [channel = 2, note = A#2, key = 46, velocity = 127, tick = 6767]
NOTE OFF [channel = 2, note = A#2, key = 46, velocity = 0, tick = 6813]
NOTE ON [channel = 2, note = A#2, key = 46, velocity = 127, tick = 6864]
NOTE OFF [channel = 2, note = A#2, key = 46, velocity = 0, tick = 6910]
NOTE ON [channel = 2, note = A#2, key = 46, velocity = 127, tick = 6960]
NOTE OFF [channel = 2, note = A#2, key = 46, velocity = 0, tick = 7006]
NOTE ON [channel = 2, note = A#2, key = 46, velocity = 127, tick = 7056]
NOTE OFF [channel = 2, note = A#2, key = 46, velocity = 0, tick = 7104]
NOTE ON [channel = 2, note = C3, key = 48, velocity = 127, tick = 9072]
NOTE OFF [channel = 2, note = C3, key = 48, velocity = 0, tick = 9118]
NOTE ON [channel = 2, note = C3, key = 48, velocity = 127, tick = 9168]
NOTE OFF [channel = 2, note = C3, key = 48, velocity = 0, tick = 9214]
NOTE ON [channel = 2, note = C3, key = 48, velocity = 127, tick = 9266]
NOTE OFF [channel = 2, note = C3, key = 48, velocity = 0, tick = 9312]
NOTE ON [channel = 2, note = C3, key = 48, velocity = 127, tick = 9360]
NOTE OFF [channel = 2, note = C3, key = 48, velocity = 0, tick = 9408]
NOTE ON [channel = 2, note = D#3, key = 51, velocity = 127, tick = 9457]
NOTE OFF [channel = 2, note = D#3, key = 51, velocity = 0, tick = 9503]
NOTE ON [channel = 2, note = D#3, key = 51, velocity = 127, tick = 9553]
NOTE OFF [channel = 2, note = D#3, key = 51, velocity = 0, tick = 9599]
NOTE ON [channel = 2, note = D#3, key = 51, velocity = 127, tick = 9649]
NOTE OFF [channel = 2, note = D#3, key = 51, velocity = 0, tick = 9695]
NOTE ON [channel = 2, note = D#3, key = 51, velocity = 127, tick = 9744]
NOTE OFF [channel = 2, note = D#3, key = 51, velocity = 0, tick = 9792]
NOTE ON [channel = 2, note = A#2, key = 46, velocity = 127, tick = 9841]
NOTE OFF [channel = 2, note = A#2, key = 46, velocity = 0, tick = 9887]
NOTE ON [channel = 2, note = A#2, key = 46, velocity = 127, tick = 9936]
NOTE OFF [channel = 2, note = A#2, key = 46, velocity = 0, tick = 9982]
NOTE ON [channel = 2, note = A#2, key = 46, velocity = 127, tick = 10032]
NOTE OFF [channel = 2, note = A#2, key = 46, velocity = 0, tick = 10078]
NOTE ON [channel = 2, note = A#2, key = 46, velocity = 127, tick = 10128]
NOTE OFF [channel = 2, note = A#2, key = 46, velocity = 0, tick = 10176]
NOTE ON [channel = 2, note = A#2, key = 46, velocity = 127, tick = 10223]
NOTE OFF [channel = 2, note = A#2, key = 46, velocity = 0, tick = 10269]
NOTE ON [channel = 2, note = A#2, key = 46, velocity = 127, tick = 10320]
NOTE OFF [channel = 2, note = A#2, key = 46, velocity = 0, tick = 10366]
NOTE ON [channel = 2, note = A#2, key = 46, velocity = 127, tick = 10416]
NOTE OFF [channel = 2, note = A#2, key = 46, velocity = 0, tick = 10462]
NOTE ON [channel = 2, note = A#2, key = 46, velocity = 127, tick = 10512]
NOTE OFF [channel = 2, note = A#2, key = 46, velocity = 0, tick = 10560]
NOTE ON [channel = 2, note = C3, key = 48, velocity = 127, tick = 10608]
NOTE OFF [channel = 2, note = C3, key = 48, velocity = 0, tick = 10654]
NOTE ON [channel = 2, note = C3, key = 48, velocity = 127, tick = 10704]
NOTE OFF [channel = 2, note = C3, key = 48, velocity = 0, tick = 10750]
NOTE ON [channel = 2, note = C3, key = 48, velocity = 127, tick = 10802]
NOTE OFF [channel = 2, note = C3, key = 48, velocity = 0, tick = 10848]
NOTE ON [channel = 2, note = C3, key = 48, velocity = 127, tick = 10896]
NOTE OFF [channel = 2, note = C3, key = 48, velocity = 0, tick = 10944]
NOTE ON [channel = 2, note = D#3, key = 51, velocity = 127, tick = 10993]
NOTE OFF [channel = 2, note = D#3, key = 51, velocity = 0, tick = 11039]
NOTE ON [channel = 2, note = D#3, key = 51, velocity = 127, tick = 11089]
NOTE OFF [channel = 2, note = D#3, key = 51, velocity = 0, tick = 11135]
NOTE ON [channel = 2, note = D#3, key = 51, velocity = 127, tick = 11185]
NOTE OFF [channel = 2, note = D#3, key = 51, velocity = 0, tick = 11231]
NOTE ON [channel = 2, note = D#3, key = 51, velocity = 127, tick = 11280]
NOTE OFF [channel = 2, note = D#3, key = 51, velocity = 0, tick = 11328]
NOTE ON [channel = 2, note = A#2, key = 46, velocity = 127, tick = 11377]
NOTE OFF [channel = 2, note = A#2, key = 46, velocity = 0, tick = 11423]
NOTE ON [channel = 2, note = A#2, key = 46, velocity = 127, tick = 11472]
NOTE OFF [channel = 2, note = A#2, key = 46, velocity = 0, tick = 11518]
NOTE ON [channel = 2, note = A#2, key = 46, velocity = 127, tick = 11568]
NOTE OFF [channel = 2, note = A#2, key = 46, velocity = 0, tick = 11614]
NOTE ON [channel = 2, note = A#2, key = 46, velocity = 127, tick = 11664]
NOTE OFF [channel = 2, note = A#2, key = 46, velocity = 0, tick = 11712]
NOTE ON [channel = 2, note = A#2, key = 46, velocity = 127, tick = 11759]
NOTE OFF [channel = 2, note = A#2, key = 46, velocity = 0, tick = 11805]
NOTE ON [channel = 2, note = A#2, key = 46, velocity = 127, tick = 11856]
NOTE OFF [channel = 2, note = A#2, key = 46, velocity = 0, tick = 11902]
NOTE ON [channel = 2, note = A#2, key = 46, velocity = 127, tick = 11952]
NOTE OFF [channel = 2, note = A#2, key = 46, velocity = 0, tick = 11998]
NOTE ON [channel = 2, note = A#2, key = 46, velocity = 127, tick = 12048]
NOTE OFF [channel = 2, note = A#2, key = 46, velocity = 0, tick = 12096]
NOTE ON [channel = 2, note = C3, key = 48, velocity = 127, tick = 12144]
NOTE OFF [channel = 2, note = C3, key = 48, velocity = 0, tick = 12190]
NOTE ON [channel = 2, note = C3, key = 48, velocity = 127, tick = 12240]
NOTE OFF [channel = 2, note = C3, key = 48, velocity = 0, tick = 12286]
NOTE ON [channel = 2, note = C3, key = 48, velocity = 127, tick = 12338]
NOTE OFF [channel = 2, note = C3, key = 48, velocity = 0, tick = 12384]
NOTE ON [channel = 2, note = C3, key = 48, velocity = 127, tick = 12432]
NOTE OFF [channel = 2, note = C3, key = 48, velocity = 0, tick = 12480]
NOTE ON [channel = 2, note = D#3, key = 51, velocity = 127, tick = 12529]
NOTE OFF [channel = 2, note = D#3, key = 51, velocity = 0, tick = 12575]
NOTE ON [channel = 2, note = D#3, key = 51, velocity = 127, tick = 12625]
NOTE OFF [channel = 2, note = D#3, key = 51, velocity = 0, tick = 12671]
NOTE ON [channel = 2, note = D#3, key = 51, velocity = 127, tick = 12721]
NOTE OFF [channel = 2, note = D#3, key = 51, velocity = 0, tick = 12767]
NOTE ON [channel = 2, note = D#3, key = 51, velocity = 127, tick = 12816]
NOTE OFF [channel = 2, note = D#3, key = 51, velocity = 0, tick = 12864]
NOTE ON [channel = 2, note = A#2, key = 46, velocity = 127, tick = 12913]
NOTE OFF [channel = 2, note = A#2, key = 46, velocity = 0, tick = 12959]
NOTE ON [channel = 2, note = A#2, key = 46, velocity = 127, tick = 13008]
NOTE OFF [channel = 2, note = A#2, key = 46, velocity = 0, tick = 13054]
NOTE ON [channel = 2, note = A#2, key = 46, velocity = 127, tick = 13104]
NOTE OFF [channel = 2, note = A#2, key = 46, velocity = 0, tick = 13150]
NOTE ON [channel = 2, note = A#2, key = 46, velocity = 127, tick = 13200]
NOTE OFF [channel = 2, note = A#2, key = 46, velocity = 0, tick = 13248]
NOTE ON [channel = 2, note = A#2, key = 46, velocity = 127, tick = 13295]
NOTE OFF [channel = 2, note = A#2, key = 46, velocity = 0, tick = 13341]
NOTE ON [channel = 2, note = A#2, key = 46, velocity = 127, tick = 13392]
NOTE OFF [channel = 2, note = A#2, key = 46, velocity = 0, tick = 13438]
NOTE ON [channel = 2, note = A#2, key = 46, velocity = 127, tick = 13488]
NOTE OFF [channel = 2, note = A#2, key = 46, velocity = 0, tick = 13534]
NOTE ON [channel = 2, note = A#2, key = 46, velocity = 127, tick = 13584]
NOTE OFF [channel = 2, note = A#2, key = 46, velocity = 0, tick = 13632]
NOTE ON [channel = 2, note = C3, key = 48, velocity = 127, tick = 13680]
NOTE OFF [channel = 2, note = C3, key = 48, velocity = 0, tick = 13726]
NOTE ON [channel = 2, note = C3, key = 48, velocity = 127, tick = 13776]
NOTE OFF [channel = 2, note = C3, key = 48, velocity = 0, tick = 13822]
NOTE ON [channel = 2, note = C3, key = 48, velocity = 127, tick = 13874]
NOTE OFF [channel = 2, note = C3, key = 48, velocity = 0, tick = 13920]
NOTE ON [channel = 2, note = C3, key = 48, velocity = 127, tick = 13968]
NOTE OFF [channel = 2, note = C3, key = 48, velocity = 0, tick = 14016]
NOTE ON [channel = 2, note = D#3, key = 51, velocity = 127, tick = 14065]
NOTE OFF [channel = 2, note = D#3, key = 51, velocity = 0, tick = 14111]
NOTE ON [channel = 2, note = D#3, key = 51, velocity = 127, tick = 14161]
NOTE OFF [channel = 2, note = D#3, key = 51, velocity = 0, tick = 14207]
NOTE ON [channel = 2, note = D#3, key = 51, velocity = 127, tick = 14257]
NOTE OFF [channel = 2, note = D#3, key = 51, velocity = 0, tick = 14303]
NOTE ON [channel = 2, note = D#3, key = 51, velocity = 127, tick = 14352]
NOTE OFF [channel = 2, note = D#3, key = 51, velocity = 0, tick = 14400]
NOTE ON [channel = 2, note = A#2, key = 46, velocity = 127, tick = 14449]
NOTE OFF [channel = 2, note = A#2, key = 46, velocity = 0, tick = 14495]
NOTE ON [channel = 2, note = A#2, key = 46, velocity = 127, tick = 14544]
NOTE OFF [channel = 2, note = A#2, key = 46, velocity = 0, tick = 14590]
NOTE ON [channel = 2, note = A#2, key = 46, velocity = 127, tick = 14640]
NOTE OFF [channel = 2, note = A#2, key = 46, velocity = 0, tick = 14686]
NOTE ON [channel = 2, note = A#2, key = 46, velocity = 127, tick = 14736]
NOTE OFF [channel = 2, note = A#2, key = 46, velocity = 0, tick = 14784]
NOTE ON [channel = 2, note = A#2, key = 46, velocity = 127, tick = 14831]
NOTE OFF [channel = 2, note = A#2, key = 46, velocity = 0, tick = 14877]
NOTE ON [channel = 2, note = A#2, key = 46, velocity = 127, tick = 14928]
NOTE OFF [channel = 2, note = A#2, key = 46, velocity = 0, tick = 14974]
NOTE ON [channel = 2, note = A#2, key = 46, velocity = 127, tick = 15024]
NOTE OFF [channel = 2, note = A#2, key = 46, velocity = 0, tick = 15070]
NOTE ON [channel = 2, note = A#2, key = 46, velocity = 127, tick = 15120]
NOTE OFF [channel = 2, note = A#2, key = 46, velocity = 0, tick = 15168]
NOTE ON [channel = 2, note = C3, key = 48, velocity = 127, tick = 15216]
NOTE OFF [channel = 2, note = C3, key = 48, velocity = 0, tick = 15262]
NOTE ON [channel = 2, note = C3, key = 48, velocity = 127, tick = 15312]
NOTE OFF [channel = 2, note = C3, key = 48, velocity = 0, tick = 15358]
NOTE ON [channel = 2, note = C3, key = 48, velocity = 127, tick = 15410]
NOTE OFF [channel = 2, note = C3, key = 48, velocity = 0, tick = 15456]
NOTE ON [channel = 2, note = C3, key = 48, velocity = 127, tick = 15504]
NOTE OFF [channel = 2, note = C3, key = 48, velocity = 0, tick = 15552]
NOTE ON [channel = 2, note = D#3, key = 51, velocity = 127, tick = 15601]
NOTE OFF [channel = 2, note = D#3, key = 51, velocity = 0, tick = 15647]
NOTE ON [channel = 2, note = D#3, key = 51, velocity = 127, tick = 15697]
NOTE OFF [channel = 2, note = D#3, key = 51, velocity = 0, tick = 15743]
NOTE ON [channel = 2, note = D#3, key = 51, velocity = 127, tick = 15793]
NOTE OFF [channel = 2, note = D#3, key = 51, velocity = 0, tick = 15839]
NOTE ON [channel = 2, note = D#3, key = 51, velocity = 127, tick = 15888]
NOTE OFF [channel = 2, note = D#3, key = 51, velocity = 0, tick = 15936]
NOTE ON [channel = 2, note = A#2, key = 46, velocity = 127, tick = 15985]
NOTE OFF [channel = 2, note = A#2, key = 46, velocity = 0, tick = 16031]
NOTE ON [channel = 2, note = A#2, key = 46, velocity = 127, tick = 16080]
NOTE OFF [channel = 2, note = A#2, key = 46, velocity = 0, tick = 16126]
NOTE ON [channel = 2, note = A#2, key = 46, velocity = 127, tick = 16176]
NOTE OFF [channel = 2, note = A#2, key = 46, velocity = 0, tick = 16222]
NOTE ON [channel = 2, note = A#2, key = 46, velocity = 127, tick = 16272]
NOTE OFF [channel = 2, note = A#2, key = 46, velocity = 0, tick = 16320]
NOTE ON [channel = 2, note = A#2, key = 46, velocity = 127, tick = 16367]
NOTE OFF [channel = 2, note = A#2, key = 46, velocity = 0, tick = 16413]
NOTE ON [channel = 2, note = A#2, key = 46, velocity = 127, tick = 16464]
NOTE OFF [channel = 2, note = A#2, key = 46, velocity = 0, tick = 16510]
NOTE ON [channel = 2, note = A#2, key = 46, velocity = 127, tick = 16560]
NOTE OFF [channel = 2, note = A#2, key = 46, velocity = 0, tick = 16606]
NOTE ON [channel = 2, note = A#2, key = 46, velocity = 127, tick = 16656]
NOTE OFF [channel = 2, note = A#2, key = 46, velocity = 0, tick = 16704]
NOTE ON [channel = 2, note = C3, key = 48, velocity = 127, tick = 16752]
NOTE OFF [channel = 2, note = C3, key = 48, velocity = 0, tick = 16798]
NOTE ON [channel = 2, note = C3, key = 48, velocity = 127, tick = 16848]
NOTE OFF [channel = 2, note = C3, key = 48, velocity = 0, tick = 16894]
NOTE ON [channel = 2, note = C3, key = 48, velocity = 127, tick = 16946]
NOTE OFF [channel = 2, note = C3, key = 48, velocity = 0, tick = 16992]
NOTE ON [channel = 2, note = C3, key = 48, velocity = 127, tick = 17040]
NOTE OFF [channel = 2, note = C3, key = 48, velocity = 0, tick = 17088]
NOTE ON [channel = 2, note = D#3, key = 51, velocity = 127, tick = 17137]
NOTE OFF [channel = 2, note = D#3, key = 51, velocity = 0, tick = 17183]
NOTE ON [channel = 2, note = D#3, key = 51, velocity = 127, tick = 17233]
NOTE OFF [channel = 2, note = D#3, key = 51, velocity = 0, tick = 17279]
NOTE ON [channel = 2, note = D#3, key = 51, velocity = 127, tick = 17329]
NOTE OFF [channel = 2, note = D#3, key = 51, velocity = 0, tick = 17375]
NOTE ON [channel = 2, note = D#3, key = 51, velocity = 127, tick = 17424]
NOTE OFF [channel = 2, note = D#3, key = 51, velocity = 0, tick = 17472]
NOTE ON [channel = 2, note = A#2, key = 46, velocity = 127, tick = 17521]
NOTE OFF [channel = 2, note = A#2, key = 46, velocity = 0, tick = 17567]
NOTE ON [channel = 2, note = A#2, key = 46, velocity = 127, tick = 17616]
NOTE OFF [channel = 2, note = A#2, key = 46, velocity = 0, tick = 17662]
NOTE ON [channel = 2, note = A#2, key = 46, velocity = 127, tick = 17712]
NOTE OFF [channel = 2, note = A#2, key = 46, velocity = 0, tick = 17758]
NOTE ON [channel = 2, note = A#2, key = 46, velocity = 127, tick = 17808]
NOTE OFF [channel = 2, note = A#2, key = 46, velocity = 0, tick = 17856]
NOTE ON [channel = 2, note = A#2, key = 46, velocity = 127, tick = 17903]
NOTE OFF [channel = 2, note = A#2, key = 46, velocity = 0, tick = 17949]
NOTE ON [channel = 2, note = A#2, key = 46, velocity = 127, tick = 18000]
NOTE OFF [channel = 2, note = A#2, key = 46, velocity = 0, tick = 18046]
NOTE ON [channel = 2, note = A#2, key = 46, velocity = 127, tick = 18096]
NOTE OFF [channel = 2, note = A#2, key = 46, velocity = 0, tick = 18142]
NOTE ON [channel = 2, note = A#2, key = 46, velocity = 127, tick = 18192]
NOTE OFF [channel = 2, note = A#2, key = 46, velocity = 0, tick = 18240]
NOTE ON [channel = 2, note = C3, key = 48, velocity = 127, tick = 18288]
NOTE OFF [channel = 2, note = C3, key = 48, velocity = 0, tick = 18334]
NOTE ON [channel = 2, note = C3, key = 48, velocity = 127, tick = 18384]
NOTE OFF [channel = 2, note = C3, key = 48, velocity = 0, tick = 18430]
NOTE ON [channel = 2, note = C3, key = 48, velocity = 127, tick = 18482]
NOTE OFF [channel = 2, note = C3, key = 48, velocity = 0, tick = 18528]
NOTE ON [channel = 2, note = C3, key = 48, velocity = 127, tick = 18576]
NOTE OFF [channel = 2, note = C3, key = 48, velocity = 0, tick = 18624]
NOTE ON [channel = 2, note = D#3, key = 51, velocity = 127, tick = 18673]
NOTE OFF [channel = 2, note = D#3, key = 51, velocity = 0, tick = 18719]
NOTE ON [channel = 2, note = D#3, key = 51, velocity = 127, tick = 18769]
NOTE OFF [channel = 2, note = D#3, key = 51, velocity = 0, tick = 18815]
NOTE ON [channel = 2, note = D#3, key = 51, velocity = 127, tick = 18865]
NOTE OFF [channel = 2, note = D#3, key = 51, velocity = 0, tick = 18911]
NOTE ON [channel = 2, note = D#3, key = 51, velocity = 127, tick = 18960]
NOTE OFF [channel = 2, note = D#3, key = 51, velocity = 0, tick = 19008]
NOTE ON [channel = 2, note = A#2, key = 46, velocity = 127, tick = 19057]
NOTE OFF [channel = 2, note = A#2, key = 46, velocity = 0, tick = 19103]
NOTE ON [channel = 2, note = A#2, key = 46, velocity = 127, tick = 19152]
NOTE OFF [channel = 2, note = A#2, key = 46, velocity = 0, tick = 19198]
NOTE ON [channel = 2, note = A#2, key = 46, velocity = 127, tick = 19248]
NOTE OFF [channel = 2, note = A#2, key = 46, velocity = 0, tick = 19294]
NOTE ON [channel = 2, note = A#2, key = 46, velocity = 127, tick = 19344]
NOTE OFF [channel = 2, note = A#2, key = 46, velocity = 0, tick = 19392]
NOTE ON [channel = 2, note = A#2, key = 46, velocity = 127, tick = 19439]
NOTE OFF [channel = 2, note = A#2, key = 46, velocity = 0, tick = 19485]
NOTE ON [channel = 2, note = A#2, key = 46, velocity = 127, tick = 19536]
NOTE OFF [channel = 2, note = A#2, key = 46, velocity = 0, tick = 19582]
NOTE ON [channel = 2, note = A#2, key = 46, velocity = 127, tick = 19632]
NOTE OFF [channel = 2, note = A#2, key = 46, velocity = 0, tick = 19678]
NOTE ON [channel = 2, note = A#2, key = 46, velocity = 127, tick = 19728]
NOTE OFF [channel = 2, note = A#2, key = 46, velocity = 0, tick = 19776]
NOTE ON [channel = 2, note = C3, key = 48, velocity = 127, tick = 19824]
NOTE OFF [channel = 2, note = C3, key = 48, velocity = 0, tick = 19870]
NOTE ON [channel = 2, note = C3, key = 48, velocity = 127, tick = 19920]
NOTE OFF [channel = 2, note = C3, key = 48, velocity = 0, tick = 19966]
NOTE ON [channel = 2, note = C3, key = 48, velocity = 127, tick = 20018]
NOTE OFF [channel = 2, note = C3, key = 48, velocity = 0, tick = 20064]
NOTE ON [channel = 2, note = C3, key = 48, velocity = 127, tick = 20112]
NOTE OFF [channel = 2, note = C3, key = 48, velocity = 0, tick = 20160]
NOTE ON [channel = 2, note = D#3, key = 51, velocity = 127, tick = 20209]
NOTE OFF [channel = 2, note = D#3, key = 51, velocity = 0, tick = 20255]
NOTE ON [channel = 2, note = D#3, key = 51, velocity = 127, tick = 20305]
NOTE OFF [channel = 2, note = D#3, key = 51, velocity = 0, tick = 20351]
NOTE ON [channel = 2, note = D#3, key = 51, velocity = 127, tick = 20401]
NOTE OFF [channel = 2, note = D#3, key = 51, velocity = 0, tick = 20447]
NOTE ON [channel = 2, note = D#3, key = 51, velocity = 127, tick = 20496]
NOTE OFF [channel = 2, note = D#3, key = 51, velocity = 0, tick = 20544]
NOTE ON [channel = 2, note = A#2, key = 46, velocity = 127, tick = 20593]
NOTE OFF [channel = 2, note = A#2, key = 46, velocity = 0, tick = 20639]
NOTE ON [channel = 2, note = A#2, key = 46, velocity = 127, tick = 20688]
NOTE OFF [channel = 2, note = A#2, key = 46, velocity = 0, tick = 20734]
NOTE ON [channel = 2, note = A#2, key = 46, velocity = 127, tick = 20784]
NOTE OFF [channel = 2, note = A#2, key = 46, velocity = 0, tick = 20830]
NOTE ON [channel = 2, note = A#2, key = 46, velocity = 127, tick = 20880]
NOTE OFF [channel = 2, note = A#2, key = 46, velocity = 0, tick = 20928]
NOTE ON [channel = 2, note = A#2, key = 46, velocity = 127, tick = 20975]
NOTE OFF [channel = 2, note = A#2, key = 46, velocity = 0, tick = 21021]
NOTE ON [channel = 2, note = A#2, key = 46, velocity = 127, tick = 21072]
NOTE OFF [channel = 2, note = A#2, key = 46, velocity = 0, tick = 21118]
NOTE ON [channel = 2, note = A#2, key = 46, velocity = 127, tick = 21168]
NOTE OFF [channel = 2, note = A#2, key = 46, velocity = 0, tick = 21214]
NOTE ON [channel = 2, note = A#2, key = 46, velocity = 127, tick = 21264]
NOTE OFF [channel = 2, note = A#2, key = 46, velocity = 0, tick = 21312]
NOTE ON [channel = 2, note = C3, key = 48, velocity = 127, tick = 21552]
NOTE OFF [channel = 2, note = C3, key = 48, velocity = 0, tick = 21598]
NOTE ON [channel = 2, note = C3, key = 48, velocity = 127, tick = 21648]
NOTE OFF [channel = 2, note = C3, key = 48, velocity = 0, tick = 21694]
NOTE ON [channel = 2, note = C3, key = 48, velocity = 127, tick = 21746]
NOTE OFF [channel = 2, note = C3, key = 48, velocity = 0, tick = 21792]
NOTE ON [channel = 2, note = C3, key = 48, velocity = 127, tick = 21840]
NOTE OFF [channel = 2, note = C3, key = 48, velocity = 0, tick = 21888]
NOTE ON [channel = 2, note = D#3, key = 51, velocity = 127, tick = 21937]
NOTE OFF [channel = 2, note = D#3, key = 51, velocity = 0, tick = 21983]
NOTE ON [channel = 2, note = D#3, key = 51, velocity = 127, tick = 22033]
NOTE OFF [channel = 2, note = D#3, key = 51, velocity = 0, tick = 22079]
NOTE ON [channel = 2, note = D#3, key = 51, velocity = 127, tick = 22129]
NOTE OFF [channel = 2, note = D#3, key = 51, velocity = 0, tick = 22175]
NOTE ON [channel = 2, note = D#3, key = 51, velocity = 127, tick = 22224]
NOTE OFF [channel = 2, note = D#3, key = 51, velocity = 0, tick = 22272]
NOTE ON [channel = 2, note = A#2, key = 46, velocity = 127, tick = 22321]
NOTE OFF [channel = 2, note = A#2, key = 46, velocity = 0, tick = 22367]
NOTE ON [channel = 2, note = A#2, key = 46, velocity = 127, tick = 22416]
NOTE OFF [channel = 2, note = A#2, key = 46, velocity = 0, tick = 22462]
NOTE ON [channel = 2, note = A#2, key = 46, velocity = 127, tick = 22512]
NOTE OFF [channel = 2, note = A#2, key = 46, velocity = 0, tick = 22558]
NOTE ON [channel = 2, note = A#2, key = 46, velocity = 127, tick = 22608]
NOTE OFF [channel = 2, note = A#2, key = 46, velocity = 0, tick = 22656]
NOTE ON [channel = 2, note = A#2, key = 46, velocity = 127, tick = 22703]
NOTE OFF [channel = 2, note = A#2, key = 46, velocity = 0, tick = 22749]
NOTE ON [channel = 2, note = A#2, key = 46, velocity = 127, tick = 22800]
NOTE OFF [channel = 2, note = A#2, key = 46, velocity = 0, tick = 22846]
NOTE ON [channel = 2, note = A#2, key = 46, velocity = 127, tick = 22896]
NOTE OFF [channel = 2, note = A#2, key = 46, velocity = 0, tick = 22942]
NOTE ON [channel = 2, note = A#2, key = 46, velocity = 127, tick = 22992]
NOTE OFF [channel = 2, note = A#2, key = 46, velocity = 0, tick = 23040]
NOTE ON [channel = 2, note = C3, key = 48, velocity = 127, tick = 23088]
NOTE OFF [channel = 2, note = C3, key = 48, velocity = 0, tick = 23134]
NOTE ON [channel = 2, note = C3, key = 48, velocity = 127, tick = 23184]
NOTE OFF [channel = 2, note = C3, key = 48, velocity = 0, tick = 23230]
NOTE ON [channel = 2, note = C3, key = 48, velocity = 127, tick = 23282]
NOTE OFF [channel = 2, note = C3, key = 48, velocity = 0, tick = 23328]
NOTE ON [channel = 2, note = C3, key = 48, velocity = 127, tick = 23376]
NOTE OFF [channel = 2, note = C3, key = 48, velocity = 0, tick = 23424]
NOTE ON [channel = 2, note = D#3, key = 51, velocity = 127, tick = 23473]
NOTE OFF [channel = 2, note = D#3, key = 51, velocity = 0, tick = 23519]
NOTE ON [channel = 2, note = D#3, key = 51, velocity = 127, tick = 23569]
NOTE OFF [channel = 2, note = D#3, key = 51, velocity = 0, tick = 23615]
NOTE ON [channel = 2, note = D#3, key = 51, velocity = 127, tick = 23665]
NOTE OFF [channel = 2, note = D#3, key = 51, velocity = 0, tick = 23711]
NOTE ON [channel = 2, note = D#3, key = 51, velocity = 127, tick = 23760]
NOTE OFF [channel = 2, note = D#3, key = 51, velocity = 0, tick = 23808]
NOTE ON [channel = 2, note = A#2, key = 46, velocity = 127, tick = 23857]
NOTE OFF [channel = 2, note = A#2, key = 46, velocity = 0, tick = 23903]
NOTE ON [channel = 2, note = A#2, key = 46, velocity = 127, tick = 23952]
NOTE OFF [channel = 2, note = A#2, key = 46, velocity = 0, tick = 23998]
NOTE ON [channel = 2, note = A#2, key = 46, velocity = 127, tick = 24048]
NOTE OFF [channel = 2, note = A#2, key = 46, velocity = 0, tick = 24094]
NOTE ON [channel = 2, note = A#2, key = 46, velocity = 127, tick = 24144]
NOTE OFF [channel = 2, note = A#2, key = 46, velocity = 0, tick = 24192]
NOTE ON [channel = 2, note = A#2, key = 46, velocity = 127, tick = 24239]
NOTE OFF [channel = 2, note = A#2, key = 46, velocity = 0, tick = 24285]
NOTE ON [channel = 2, note = A#2, key = 46, velocity = 127, tick = 24336]
NOTE OFF [channel = 2, note = A#2, key = 46, velocity = 0, tick = 24382]
NOTE ON [channel = 2, note = A#2, key = 46, velocity = 127, tick = 24432]
NOTE OFF [channel = 2, note = A#2, key = 46, velocity = 0, tick = 24478]
NOTE ON [channel = 2, note = A#2, key = 46, velocity = 127, tick = 24528]
NOTE OFF [channel = 2, note = A#2, key = 46, velocity = 0, tick = 24576]
NOTE ON [channel = 2, note = C3, key = 48, velocity = 127, tick = 25008]
NOTE OFF [channel = 2, note = C3, key = 48, velocity = 0, tick = 25054]
NOTE ON [channel = 2, note = C3, key = 48, velocity = 127, tick = 25104]
NOTE OFF [channel = 2, note = C3, key = 48, velocity = 0, tick = 25150]
NOTE ON [channel = 2, note = C3, key = 48, velocity = 127, tick = 25202]
NOTE OFF [channel = 2, note = C3, key = 48, velocity = 0, tick = 25248]
NOTE ON [channel = 2, note = C3, key = 48, velocity = 127, tick = 25296]
NOTE OFF [channel = 2, note = C3, key = 48, velocity = 0, tick = 25344]
NOTE ON [channel = 2, note = D#3, key = 51, velocity = 127, tick = 25393]
NOTE OFF [channel = 2, note = D#3, key = 51, velocity = 0, tick = 25439]
NOTE ON [channel = 2, note = D#3, key = 51, velocity = 127, tick = 25489]
NOTE OFF [channel = 2, note = D#3, key = 51, velocity = 0, tick = 25535]
NOTE ON [channel = 2, note = D#3, key = 51, velocity = 127, tick = 25585]
NOTE OFF [channel = 2, note = D#3, key = 51, velocity = 0, tick = 25631]
NOTE ON [channel = 2, note = D#3, key = 51, velocity = 127, tick = 25680]
NOTE OFF [channel = 2, note = D#3, key = 51, velocity = 0, tick = 25728]
NOTE ON [channel = 2, note = A#2, key = 46, velocity = 127, tick = 25777]
NOTE OFF [channel = 2, note = A#2, key = 46, velocity = 0, tick = 25823]
NOTE ON [channel = 2, note = A#2, key = 46, velocity = 127, tick = 25872]
NOTE OFF [channel = 2, note = A#2, key = 46, velocity = 0, tick = 25918]
NOTE ON [channel = 2, note = A#2, key = 46, velocity = 127, tick = 25968]
NOTE OFF [channel = 2, note = A#2, key = 46, velocity = 0, tick = 26014]
NOTE ON [channel = 2, note = A#2, key = 46, velocity = 127, tick = 26064]
NOTE OFF [channel = 2, note = A#2, key = 46, velocity = 0, tick = 26112]
NOTE ON [channel = 2, note = A#2, key = 46, velocity = 127, tick = 26159]
NOTE OFF [channel = 2, note = A#2, key = 46, velocity = 0, tick = 26205]
NOTE ON [channel = 2, note = A#2, key = 46, velocity = 127, tick = 26256]
NOTE OFF [channel = 2, note = A#2, key = 46, velocity = 0, tick = 26302]
NOTE ON [channel = 2, note = A#2, key = 46, velocity = 127, tick = 26352]
NOTE OFF [channel = 2, note = A#2, key = 46, velocity = 0, tick = 26398]
NOTE ON [channel = 2, note = A#2, key = 46, velocity = 127, tick = 26448]
NOTE OFF [channel = 2, note = A#2, key = 46, velocity = 0, tick = 26496]
NOTE ON [channel = 2, note = C3, key = 48, velocity = 127, tick = 26544]
NOTE OFF [channel = 2, note = C3, key = 48, velocity = 0, tick = 26590]
NOTE ON [channel = 2, note = C3, key = 48, velocity = 127, tick = 26640]
NOTE OFF [channel = 2, note = C3, key = 48, velocity = 0, tick = 26686]
NOTE ON [channel = 2, note = C3, key = 48, velocity = 127, tick = 26738]
NOTE OFF [channel = 2, note = C3, key = 48, velocity = 0, tick = 26784]
NOTE ON [channel = 2, note = C3, key = 48, velocity = 127, tick = 26832]
NOTE OFF [channel = 2, note = C3, key = 48, velocity = 0, tick = 26880]
NOTE ON [channel = 2, note = D#3, key = 51, velocity = 127, tick = 26929]
NOTE OFF [channel = 2, note = D#3, key = 51, velocity = 0, tick = 26975]
NOTE ON [channel = 2, note = D#3, key = 51, velocity = 127, tick = 27025]
NOTE OFF [channel = 2, note = D#3, key = 51, velocity = 0, tick = 27071]
NOTE ON [channel = 2, note = D#3, key = 51, velocity = 127, tick = 27121]
NOTE OFF [channel = 2, note = D#3, key = 51, velocity = 0, tick = 27167]
NOTE ON [channel = 2, note = D#3, key = 51, velocity = 127, tick = 27216]
NOTE OFF [channel = 2, note = D#3, key = 51, velocity = 0, tick = 27264]
NOTE ON [channel = 2, note = A#2, key = 46, velocity = 127, tick = 27313]
NOTE OFF [channel = 2, note = A#2, key = 46, velocity = 0, tick = 27359]
NOTE ON [channel = 2, note = A#2, key = 46, velocity = 127, tick = 27408]
NOTE OFF [channel = 2, note = A#2, key = 46, velocity = 0, tick = 27454]
NOTE ON [channel = 2, note = A#2, key = 46, velocity = 127, tick = 27504]
NOTE OFF [channel = 2, note = A#2, key = 46, velocity = 0, tick = 27550]
NOTE ON [channel = 2, note = A#2, key = 46, velocity = 127, tick = 27600]
NOTE OFF [channel = 2, note = A#2, key = 46, velocity = 0, tick = 27648]
NOTE ON [channel = 2, note = A#2, key = 46, velocity = 127, tick = 27695]
NOTE OFF [channel = 2, note = A#2, key = 46, velocity = 0, tick = 27741]
NOTE ON [channel = 2, note = A#2, key = 46, velocity = 127, tick = 27792]
NOTE OFF [channel = 2, note = A#2, key = 46, velocity = 0, tick = 27838]
NOTE ON [channel = 2, note = A#2, key = 46, velocity = 127, tick = 27888]
NOTE OFF [channel = 2, note = A#2, key = 46, velocity = 0, tick = 27934]
NOTE ON [channel = 2, note = A#2, key = 46, velocity = 127, tick = 27984]
NOTE OFF [channel = 2, note = A#2, key = 46, velocity = 0, tick = 28032]
NOTE ON [channel = 2, note = C3, key = 48, velocity = 127, tick = 28080]
NOTE OFF [channel = 2, note = C3, key = 48, velocity = 0, tick = 28126]
NOTE ON [channel = 2, note = C3, key = 48, velocity = 127, tick = 28176]
NOTE OFF [channel = 2, note = C3, key = 48, velocity = 0, tick = 28222]
NOTE ON [channel = 2, note = C3, key = 48, velocity = 127, tick = 28274]
NOTE OFF [channel = 2, note = C3, key = 48, velocity = 0, tick = 28320]
NOTE ON [channel = 2, note = C3, key = 48, velocity = 127, tick = 28368]
NOTE OFF [channel = 2, note = C3, key = 48, velocity = 0, tick = 28416]
NOTE ON [channel = 2, note = D#3, key = 51, velocity = 127, tick = 28465]
NOTE OFF [channel = 2, note = D#3, key = 51, velocity = 0, tick = 28511]
NOTE ON [channel = 2, note = D#3, key = 51, velocity = 127, tick = 28561]
NOTE OFF [channel = 2, note = D#3, key = 51, velocity = 0, tick = 28607]
NOTE ON [channel = 2, note = D#3, key = 51, velocity = 127, tick = 28657]
NOTE OFF [channel = 2, note = D#3, key = 51, velocity = 0, tick = 28703]
NOTE ON [channel = 2, note = D#3, key = 51, velocity = 127, tick = 28752]
NOTE OFF [channel = 2, note = D#3, key = 51, velocity = 0, tick = 28800]
NOTE ON [channel = 2, note = A#2, key = 46, velocity = 127, tick = 28849]
NOTE OFF [channel = 2, note = A#2, key = 46, velocity = 0, tick = 28895]
NOTE ON [channel = 2, note = A#2, key = 46, velocity = 127, tick = 28944]
NOTE OFF [channel = 2, note = A#2, key = 46, velocity = 0, tick = 28990]
NOTE ON [channel = 2, note = A#2, key = 46, velocity = 127, tick = 29040]
NOTE OFF [channel = 2, note = A#2, key = 46, velocity = 0, tick = 29086]
NOTE ON [channel = 2, note = A#2, key = 46, velocity = 127, tick = 29136]
NOTE OFF [channel = 2, note = A#2, key = 46, velocity = 0, tick = 29184]
NOTE ON [channel = 2, note = A#2, key = 46, velocity = 127, tick = 29231]
NOTE OFF [channel = 2, note = A#2, key = 46, velocity = 0, tick = 29277]
NOTE ON [channel = 2, note = A#2, key = 46, velocity = 127, tick = 29328]
NOTE OFF [channel = 2, note = A#2, key = 46, velocity = 0, tick = 29374]
NOTE ON [channel = 2, note = A#2, key = 46, velocity = 127, tick = 29424]
NOTE OFF [channel = 2, note = A#2, key = 46, velocity = 0, tick = 29470]
NOTE ON [channel = 2, note = A#2, key = 46, velocity = 127, tick = 29520]
NOTE OFF [channel = 2, note = A#2, key = 46, velocity = 0, tick = 29568]
NOTE ON [channel = 2, note = C3, key = 48, velocity = 127, tick = 29616]
NOTE OFF [channel = 2, note = C3, key = 48, velocity = 0, tick = 29662]
NOTE ON [channel = 2, note = C3, key = 48, velocity = 127, tick = 29712]
NOTE OFF [channel = 2, note = C3, key = 48, velocity = 0, tick = 29758]
NOTE ON [channel = 2, note = C3, key = 48, velocity = 127, tick = 29810]
NOTE OFF [channel = 2, note = C3, key = 48, velocity = 0, tick = 29856]
NOTE ON [channel = 2, note = C3, key = 48, velocity = 127, tick = 29904]
NOTE OFF [channel = 2, note = C3, key = 48, velocity = 0, tick = 29952]
NOTE ON [channel = 2, note = D#3, key = 51, velocity = 127, tick = 30001]
NOTE OFF [channel = 2, note = D#3, key = 51, velocity = 0, tick = 30047]
NOTE ON [channel = 2, note = D#3, key = 51, velocity = 127, tick = 30097]
NOTE OFF [channel = 2, note = D#3, key = 51, velocity = 0, tick = 30143]
NOTE ON [channel = 2, note = D#3, key = 51, velocity = 127, tick = 30193]
NOTE OFF [channel = 2, note = D#3, key = 51, velocity = 0, tick = 30239]
NOTE ON [channel = 2, note = D#3, key = 51, velocity = 127, tick = 30288]
NOTE OFF [channel = 2, note = D#3, key = 51, velocity = 0, tick = 30336]
NOTE ON [channel = 2, note = A#2, key = 46, velocity = 127, tick = 30385]
NOTE OFF [channel = 2, note = A#2, key = 46, velocity = 0, tick = 30431]
NOTE ON [channel = 2, note = A#2, key = 46, velocity = 127, tick = 30480]
NOTE OFF [channel = 2, note = A#2, key = 46, velocity = 0, tick = 30526]
NOTE ON [channel = 2, note = A#2, key = 46, velocity = 127, tick = 30576]
NOTE OFF [channel = 2, note = A#2, key = 46, velocity = 0, tick = 30622]
NOTE ON [channel = 2, note = A#2, key = 46, velocity = 127, tick = 30672]
NOTE OFF [channel = 2, note = A#2, key = 46, velocity = 0, tick = 30720]
NOTE ON [channel = 2, note = A#2, key = 46, velocity = 127, tick = 30767]
NOTE OFF [channel = 2, note = A#2, key = 46, velocity = 0, tick = 30813]
NOTE ON [channel = 2, note = A#2, key = 46, velocity = 127, tick = 30864]
NOTE OFF [channel = 2, note = A#2, key = 46, velocity = 0, tick = 30910]
NOTE ON [channel = 2, note = A#2, key = 46, velocity = 127, tick = 30960]
NOTE OFF [channel = 2, note = A#2, key = 46, velocity = 0, tick = 31006]
NOTE ON [channel = 2, note = A#2, key = 46, velocity = 127, tick = 31056]
NOTE OFF [channel = 2, note = A#2, key = 46, velocity = 0, tick = 31104]
NOTE ON [channel = 2, note = C3, key = 48, velocity = 127, tick = 31152]
NOTE OFF [channel = 2, note = C3, key = 48, velocity = 0, tick = 31198]
NOTE ON [channel = 2, note = C3, key = 48, velocity = 127, tick = 31248]
NOTE OFF [channel = 2, note = C3, key = 48, velocity = 0, tick = 31294]
NOTE ON [channel = 2, note = C3, key = 48, velocity = 127, tick = 31346]
NOTE OFF [channel = 2, note = C3, key = 48, velocity = 0, tick = 31392]
NOTE ON [channel = 2, note = C3, key = 48, velocity = 127, tick = 31440]
NOTE OFF [channel = 2, note = C3, key = 48, velocity = 0, tick = 31488]
NOTE ON [channel = 2, note = D#3, key = 51, velocity = 127, tick = 31537]
NOTE OFF [channel = 2, note = D#3, key = 51, velocity = 0, tick = 31583]
NOTE ON [channel = 2, note = D#3, key = 51, velocity = 127, tick = 31633]
NOTE OFF [channel = 2, note = D#3, key = 51, velocity = 0, tick = 31679]
NOTE ON [channel = 2, note = D#3, key = 51, velocity = 127, tick = 31729]
NOTE OFF [channel = 2, note = D#3, key = 51, velocity = 0, tick = 31775]
NOTE ON [channel = 2, note = D#3, key = 51, velocity = 127, tick = 31824]
NOTE OFF [channel = 2, note = D#3, key = 51, velocity = 0, tick = 31872]
NOTE ON [channel = 2, note = A#2, key = 46, velocity = 127, tick = 31921]
NOTE OFF [channel = 2, note = A#2, key = 46, velocity = 0, tick = 31967]
NOTE ON [channel = 2, note = A#2, key = 46, velocity = 127, tick = 32016]
NOTE OFF [channel = 2, note = A#2, key = 46, velocity = 0, tick = 32062]
NOTE ON [channel = 2, note = A#2, key = 46, velocity = 127, tick = 32112]
NOTE OFF [channel = 2, note = A#2, key = 46, velocity = 0, tick = 32158]
NOTE ON [channel = 2, note = A#2, key = 46, velocity = 127, tick = 32208]
NOTE OFF [channel = 2, note = A#2, key = 46, velocity = 0, tick = 32256]
NOTE ON [channel = 2, note = A#2, key = 46, velocity = 127, tick = 32303]
NOTE OFF [channel = 2, note = A#2, key = 46, velocity = 0, tick = 32349]
NOTE ON [channel = 2, note = A#2, key = 46, velocity = 127, tick = 32400]
NOTE OFF [channel = 2, note = A#2, key = 46, velocity = 0, tick = 32446]
NOTE ON [channel = 2, note = A#2, key = 46, velocity = 127, tick = 32496]
NOTE OFF [channel = 2, note = A#2, key = 46, velocity = 0, tick = 32542]
NOTE ON [channel = 2, note = A#2, key = 46, velocity = 127, tick = 32592]
NOTE OFF [channel = 2, note = A#2, key = 46, velocity = 0, tick = 32640]
NOTE ON [channel = 2, note = C3, key = 48, velocity = 127, tick = 32688]
NOTE OFF [channel = 2, note = C3, key = 48, velocity = 0, tick = 32734]
NOTE ON [channel = 2, note = C3, key = 48, velocity = 127, tick = 32784]
NOTE OFF [channel = 2, note = C3, key = 48, velocity = 0, tick = 32830]
NOTE ON [channel = 2, note = C3, key = 48, velocity = 127, tick = 32882]
NOTE OFF [channel = 2, note = C3, key = 48, velocity = 0, tick = 32928]
NOTE ON [channel = 2, note = C3, key = 48, velocity = 127, tick = 32976]
NOTE OFF [channel = 2, note = C3, key = 48, velocity = 0, tick = 33024]
NOTE ON [channel = 2, note = D#3, key = 51, velocity = 127, tick = 33073]
NOTE OFF [channel = 2, note = D#3, key = 51, velocity = 0, tick = 33119]
NOTE ON [channel = 2, note = D#3, key = 51, velocity = 127, tick = 33169]
NOTE OFF [channel = 2, note = D#3, key = 51, velocity = 0, tick = 33215]
NOTE ON [channel = 2, note = D#3, key = 51, velocity = 127, tick = 33265]
NOTE OFF [channel = 2, note = D#3, key = 51, velocity = 0, tick = 33311]
NOTE ON [channel = 2, note = D#3, key = 51, velocity = 127, tick = 33360]
NOTE OFF [channel = 2, note = D#3, key = 51, velocity = 0, tick = 33408]
NOTE ON [channel = 2, note = A#2, key = 46, velocity = 127, tick = 33457]
NOTE OFF [channel = 2, note = A#2, key = 46, velocity = 0, tick = 33503]
NOTE ON [channel = 2, note = A#2, key = 46, velocity = 127, tick = 33552]
NOTE OFF [channel = 2, note = A#2, key = 46, velocity = 0, tick = 33598]
NOTE ON [channel = 2, note = A#2, key = 46, velocity = 127, tick = 33648]
NOTE OFF [channel = 2, note = A#2, key = 46, velocity = 0, tick = 33694]
NOTE ON [channel = 2, note = A#2, key = 46, velocity = 127, tick = 33744]
NOTE OFF [channel = 2, note = A#2, key = 46, velocity = 0, tick = 33792]
NOTE ON [channel = 2, note = A#2, key = 46, velocity = 127, tick = 33839]
NOTE OFF [channel = 2, note = A#2, key = 46, velocity = 0, tick = 33885]
NOTE ON [channel = 2, note = A#2, key = 46, velocity = 127, tick = 33936]
NOTE OFF [channel = 2, note = A#2, key = 46, velocity = 0, tick = 33982]
NOTE ON [channel = 2, note = A#2, key = 46, velocity = 127, tick = 34032]
NOTE OFF [channel = 2, note = A#2, key = 46, velocity = 0, tick = 34078]
NOTE ON [channel = 2, note = A#2, key = 46, velocity = 127, tick = 34128]
NOTE OFF [channel = 2, note = A#2, key = 46, velocity = 0, tick = 34176]
NOTE ON [channel = 2, note = C3, key = 48, velocity = 127, tick = 34224]
NOTE OFF [channel = 2, note = C3, key = 48, velocity = 0, tick = 34270]
NOTE ON [channel = 2, note = C3, key = 48, velocity = 127, tick = 34320]
NOTE OFF [channel = 2, note = C3, key = 48, velocity = 0, tick = 34366]
NOTE ON [channel = 2, note = C3, key = 48, velocity = 127, tick = 34418]
NOTE OFF [channel = 2, note = C3, key = 48, velocity = 0, tick = 34464]
NOTE ON [channel = 2, note = C3, key = 48, velocity = 127, tick = 34512]
NOTE OFF [channel = 2, note = C3, key = 48, velocity = 0, tick = 34560]
NOTE ON [channel = 2, note = D#3, key = 51, velocity = 127, tick = 34609]
NOTE OFF [channel = 2, note = D#3, key = 51, velocity = 0, tick = 34655]
NOTE ON [channel = 2, note = D#3, key = 51, velocity = 127, tick = 34705]
NOTE OFF [channel = 2, note = D#3, key = 51, velocity = 0, tick = 34751]
NOTE ON [channel = 2, note = D#3, key = 51, velocity = 127, tick = 34801]
NOTE OFF [channel = 2, note = D#3, key = 51, velocity = 0, tick = 34847]
NOTE ON [channel = 2, note = D#3, key = 51, velocity = 127, tick = 34896]
NOTE OFF [channel = 2, note = D#3, key = 51, velocity = 0, tick = 34944]
NOTE ON [channel = 2, note = A#2, key = 46, velocity = 127, tick = 34993]
NOTE OFF [channel = 2, note = A#2, key = 46, velocity = 0, tick = 35039]
NOTE ON [channel = 2, note = A#2, key = 46, velocity = 127, tick = 35088]
NOTE OFF [channel = 2, note = A#2, key = 46, velocity = 0, tick = 35134]
NOTE ON [channel = 2, note = A#2, key = 46, velocity = 127, tick = 35184]
NOTE OFF [channel = 2, note = A#2, key = 46, velocity = 0, tick = 35230]
NOTE ON [channel = 2, note = A#2, key = 46, velocity = 127, tick = 35280]
NOTE OFF [channel = 2, note = A#2, key = 46, velocity = 0, tick = 35328]
NOTE ON [channel = 2, note = A#2, key = 46, velocity = 127, tick = 35375]
NOTE OFF [channel = 2, note = A#2, key = 46, velocity = 0, tick = 35421]
NOTE ON [channel = 2, note = A#2, key = 46, velocity = 127, tick = 35472]
NOTE OFF [channel = 2, note = A#2, key = 46, velocity = 0, tick = 35518]
NOTE ON [channel = 2, note = A#2, key = 46, velocity = 127, tick = 35568]
NOTE OFF [channel = 2, note = A#2, key = 46, velocity = 0, tick = 35614]
NOTE ON [channel = 2, note = A#2, key = 46, velocity = 127, tick = 35664]
NOTE OFF [channel = 2, note = A#2, key = 46, velocity = 0, tick = 35712]
NOTE ON [channel = 2, note = C3, key = 48, velocity = 127, tick = 35760]
NOTE OFF [channel = 2, note = C3, key = 48, velocity = 0, tick = 35806]
NOTE ON [channel = 2, note = C3, key = 48, velocity = 127, tick = 35856]
NOTE OFF [channel = 2, note = C3, key = 48, velocity = 0, tick = 35902]
NOTE ON [channel = 2, note = C3, key = 48, velocity = 127, tick = 35954]
NOTE OFF [channel = 2, note = C3, key = 48, velocity = 0, tick = 36000]
NOTE ON [channel = 2, note = C3, key = 48, velocity = 127, tick = 36048]
NOTE OFF [channel = 2, note = C3, key = 48, velocity = 0, tick = 36096]
NOTE ON [channel = 2, note = D#3, key = 51, velocity = 127, tick = 36145]
NOTE OFF [channel = 2, note = D#3, key = 51, velocity = 0, tick = 36191]
NOTE ON [channel = 2, note = D#3, key = 51, velocity = 127, tick = 36241]
NOTE OFF [channel = 2, note = D#3, key = 51, velocity = 0, tick = 36287]
NOTE ON [channel = 2, note = D#3, key = 51, velocity = 127, tick = 36337]
NOTE OFF [channel = 2, note = D#3, key = 51, velocity = 0, tick = 36383]
NOTE ON [channel = 2, note = D#3, key = 51, velocity = 127, tick = 36432]
NOTE OFF [channel = 2, note = D#3, key = 51, velocity = 0, tick = 36480]
NOTE ON [channel = 2, note = A#2, key = 46, velocity = 127, tick = 36529]
NOTE OFF [channel = 2, note = A#2, key = 46, velocity = 0, tick = 36575]
NOTE ON [channel = 2, note = A#2, key = 46, velocity = 127, tick = 36624]
NOTE OFF [channel = 2, note = A#2, key = 46, velocity = 0, tick = 36670]
NOTE ON [channel = 2, note = A#2, key = 46, velocity = 127, tick = 36720]
NOTE OFF [channel = 2, note = A#2, key = 46, velocity = 0, tick = 36766]
NOTE ON [channel = 2, note = A#2, key = 46, velocity = 127, tick = 36816]
NOTE OFF [channel = 2, note = A#2, key = 46, velocity = 0, tick = 36864]
NOTE ON [channel = 2, note = A#2, key = 46, velocity = 127, tick = 36911]
NOTE OFF [channel = 2, note = A#2, key = 46, velocity = 0, tick = 36957]
NOTE ON [channel = 2, note = A#2, key = 46, velocity = 127, tick = 37008]
NOTE OFF [channel = 2, note = A#2, key = 46, velocity = 0, tick = 37054]
NOTE ON [channel = 2, note = A#2, key = 46, velocity = 127, tick = 37104]
NOTE OFF [channel = 2, note = A#2, key = 46, velocity = 0, tick = 37150]
NOTE ON [channel = 2, note = A#2, key = 46, velocity = 127, tick = 37200]
NOTE OFF [channel = 2, note = A#2, key = 46, velocity = 0, tick = 37248]
NOTE ON [channel = 2, note = C3, key = 48, velocity = 127, tick = 37296]
NOTE OFF [channel = 2, note = C3, key = 48, velocity = 0, tick = 37342]
NOTE ON [channel = 2, note = C3, key = 48, velocity = 127, tick = 37392]
NOTE OFF [channel = 2, note = C3, key = 48, velocity = 0, tick = 37438]
NOTE ON [channel = 2, note = C3, key = 48, velocity = 127, tick = 37490]
NOTE OFF [channel = 2, note = C3, key = 48, velocity = 0, tick = 37536]
NOTE ON [channel = 2, note = C3, key = 48, velocity = 127, tick = 37584]
NOTE OFF [channel = 2, note = C3, key = 48, velocity = 0, tick = 37632]
NOTE ON [channel = 2, note = D#3, key = 51, velocity = 127, tick = 37681]
NOTE OFF [channel = 2, note = D#3, key = 51, velocity = 0, tick = 37727]
NOTE ON [channel = 2, note = D#3, key = 51, velocity = 127, tick = 37777]
NOTE OFF [channel = 2, note = D#3, key = 51, velocity = 0, tick = 37823]
NOTE ON [channel = 2, note = D#3, key = 51, velocity = 127, tick = 37873]
NOTE OFF [channel = 2, note = D#3, key = 51, velocity = 0, tick = 37919]
NOTE ON [channel = 2, note = D#3, key = 51, velocity = 127, tick = 37968]
NOTE OFF [channel = 2, note = D#3, key = 51, velocity = 0, tick = 38016]
NOTE ON [channel = 2, note = A#2, key = 46, velocity = 127, tick = 38065]
NOTE OFF [channel = 2, note = A#2, key = 46, velocity = 0, tick = 38111]
NOTE ON [channel = 2, note = A#2, key = 46, velocity = 127, tick = 38160]
NOTE OFF [channel = 2, note = A#2, key = 46, velocity = 0, tick = 38206]
NOTE ON [channel = 2, note = A#2, key = 46, velocity = 127, tick = 38256]
NOTE OFF [channel = 2, note = A#2, key = 46, velocity = 0, tick = 38302]
NOTE ON [channel = 2, note = A#2, key = 46, velocity = 127, tick = 38352]
NOTE OFF [channel = 2, note = A#2, key = 46, velocity = 0, tick = 38400]
NOTE ON [channel = 2, note = A#2, key = 46, velocity = 127, tick = 38447]
NOTE OFF [channel = 2, note = A#2, key = 46, velocity = 0, tick = 38493]
NOTE ON [channel = 2, note = A#2, key = 46, velocity = 127, tick = 38544]
NOTE OFF [channel = 2, note = A#2, key = 46, velocity = 0, tick = 38590]
NOTE ON [channel = 2, note = A#2, key = 46, velocity = 127, tick = 38640]
NOTE OFF [channel = 2, note = A#2, key = 46, velocity = 0, tick = 38686]
NOTE ON [channel = 2, note = A#2, key = 46, velocity = 127, tick = 38736]
NOTE OFF [channel = 2, note = A#2, key = 46, velocity = 0, tick = 38784]
Other ShortMessage [message = [B@1f8669d]
Other ShortMessage [message = [B@435b98]
Other ShortMessage [message = [B@e02081]
Other ShortMessage [message = [B@11505e7]
Other ShortMessage [message = [B@1fdd1f2]
Other ShortMessage [message = [B@173e12f]
PROGRAM_CHANGE [channel = 2, instrument = 38, data2 = 0, tick = 39168]
Other ShortMessage [message = [B@389173]
Other ShortMessage [message = [B@1a89729]
Other ShortMessage [message = [B@15fd838]
Other ShortMessage [message = [B@1e879d]
Other ShortMessage [message = [B@104f67f]
Other ShortMessage [message = [B@f7aad]
PROGRAM_CHANGE [channel = 2, instrument = 38, data2 = 0, tick = 39169]
Other ShortMessage [message = [B@17cc1fc]
Other ShortMessage [message = [B@1adfab0]
Other ShortMessage [message = [B@f97169]
Other ShortMessage [message = [B@1da6b2e]
Other ShortMessage [message = [B@242f38]
Other ShortMessage [message = [B@c3205a]
PROGRAM_CHANGE [channel = 2, instrument = 38, data2 = 0, tick = 39169]
MetaMessage [message = [B@190f46e]
Track 16: size = 367

MetaMessage [message = [B@1746ce4]
Other ShortMessage [message = [B@148ea69]
Other ShortMessage [message = [B@1798e84]
Other ShortMessage [message = [B@15db78]
Other ShortMessage [message = [B@5607f2]
Other ShortMessage [message = [B@1c04377]
Other ShortMessage [message = [B@1403656]
Other ShortMessage [message = [B@19ab969]
Other ShortMessage [message = [B@6cd757]
Other ShortMessage [message = [B@98d37d]
PROGRAM_CHANGE [channel = 1, instrument = 96, data2 = 0, tick = 0]
Other ShortMessage [message = [B@1fd6708]
Other ShortMessage [message = [B@7f9161]
Other ShortMessage [message = [B@132b351]
Other ShortMessage [message = [B@2eea2a]
Other ShortMessage [message = [B@10ee03a]
Other ShortMessage [message = [B@c298dc]
PROGRAM_CHANGE [channel = 1, instrument = 96, data2 = 0, tick = 0]
Other ShortMessage [message = [B@3ed581]
Other ShortMessage [message = [B@16065aa]
Other ShortMessage [message = [B@306a57]
Other ShortMessage [message = [B@18948cd]
Other ShortMessage [message = [B@17b05a8]
Other ShortMessage [message = [B@be27bf]
PROGRAM_CHANGE [channel = 1, instrument = 96, data2 = 0, tick = 0]
NOTE ON [channel = 1, note = C4, key = 60, velocity = 127, tick = 768]
NOTE OFF [channel = 1, note = C4, key = 60, velocity = 0, tick = 814]
NOTE ON [channel = 1, note = C5, key = 72, velocity = 127, tick = 816]
NOTE OFF [channel = 1, note = C5, key = 72, velocity = 0, tick = 862]
NOTE ON [channel = 1, note = C4, key = 60, velocity = 127, tick = 864]
NOTE OFF [channel = 1, note = C4, key = 60, velocity = 0, tick = 910]
NOTE ON [channel = 1, note = C5, key = 72, velocity = 127, tick = 911]
NOTE OFF [channel = 1, note = C5, key = 72, velocity = 0, tick = 957]
NOTE ON [channel = 1, note = C4, key = 60, velocity = 127, tick = 962]
NOTE OFF [channel = 1, note = C4, key = 60, velocity = 0, tick = 1008]
NOTE ON [channel = 1, note = G4, key = 67, velocity = 127, tick = 1008]
NOTE OFF [channel = 1, note = G4, key = 67, velocity = 0, tick = 1055]
NOTE ON [channel = 1, note = A#4, key = 70, velocity = 127, tick = 1056]
NOTE OFF [channel = 1, note = A#4, key = 70, velocity = 0, tick = 1079]
NOTE ON [channel = 1, note = A4, key = 69, velocity = 127, tick = 1081]
NOTE OFF [channel = 1, note = A4, key = 69, velocity = 0, tick = 1104]
NOTE ON [channel = 1, note = G4, key = 67, velocity = 127, tick = 1105]
NOTE OFF [channel = 1, note = G4, key = 67, velocity = 0, tick = 1128]
NOTE ON [channel = 1, note = F4, key = 65, velocity = 127, tick = 1129]
NOTE OFF [channel = 1, note = F4, key = 65, velocity = 0, tick = 1152]
NOTE ON [channel = 1, note = D#4, key = 63, velocity = 127, tick = 1153]
NOTE OFF [channel = 1, note = D#4, key = 63, velocity = 0, tick = 1199]
NOTE ON [channel = 1, note = D#5, key = 75, velocity = 127, tick = 1201]
NOTE OFF [channel = 1, note = D#5, key = 75, velocity = 0, tick = 1247]
NOTE ON [channel = 1, note = D#4, key = 63, velocity = 127, tick = 1249]
NOTE OFF [channel = 1, note = D#4, key = 63, velocity = 0, tick = 1295]
NOTE ON [channel = 1, note = D#5, key = 75, velocity = 127, tick = 1297]
NOTE OFF [channel = 1, note = D#5, key = 75, velocity = 0, tick = 1343]
NOTE ON [channel = 1, note = D#4, key = 63, velocity = 127, tick = 1345]
NOTE OFF [channel = 1, note = D#4, key = 63, velocity = 0, tick = 1391]
NOTE ON [channel = 1, note = A#4, key = 70, velocity = 127, tick = 1393]
NOTE OFF [channel = 1, note = A#4, key = 70, velocity = 0, tick = 1439]
NOTE ON [channel = 1, note = C#5, key = 73, velocity = 127, tick = 1440]
NOTE OFF [channel = 1, note = C#5, key = 73, velocity = 0, tick = 1463]
NOTE ON [channel = 1, note = C5, key = 72, velocity = 127, tick = 1464]
NOTE OFF [channel = 1, note = C5, key = 72, velocity = 0, tick = 1487]
NOTE ON [channel = 1, note = A#4, key = 70, velocity = 127, tick = 1488]
NOTE OFF [channel = 1, note = A#4, key = 70, velocity = 0, tick = 1511]
NOTE ON [channel = 1, note = G#4, key = 68, velocity = 127, tick = 1512]
NOTE OFF [channel = 1, note = G#4, key = 68, velocity = 0, tick = 1535]
NOTE ON [channel = 1, note = A#3, key = 58, velocity = 127, tick = 1537]
NOTE OFF [channel = 1, note = A#3, key = 58, velocity = 0, tick = 1583]
NOTE ON [channel = 1, note = A#4, key = 70, velocity = 127, tick = 1584]
NOTE OFF [channel = 1, note = A#4, key = 70, velocity = 0, tick = 1631]
NOTE ON [channel = 1, note = A#3, key = 58, velocity = 127, tick = 1632]
NOTE OFF [channel = 1, note = A#3, key = 58, velocity = 0, tick = 1678]
NOTE ON [channel = 1, note = A#4, key = 70, velocity = 127, tick = 1681]
NOTE OFF [channel = 1, note = A#4, key = 70, velocity = 0, tick = 1727]
NOTE ON [channel = 1, note = A#3, key = 58, velocity = 127, tick = 1728]
NOTE OFF [channel = 1, note = A#3, key = 58, velocity = 0, tick = 1774]
NOTE ON [channel = 1, note = F4, key = 65, velocity = 127, tick = 1776]
NOTE OFF [channel = 1, note = F4, key = 65, velocity = 0, tick = 1822]
NOTE ON [channel = 1, note = G#4, key = 68, velocity = 127, tick = 1824]
NOTE OFF [channel = 1, note = G#4, key = 68, velocity = 0, tick = 1847]
NOTE ON [channel = 1, note = G4, key = 67, velocity = 127, tick = 1848]
NOTE OFF [channel = 1, note = G4, key = 67, velocity = 0, tick = 1871]
NOTE ON [channel = 1, note = F4, key = 65, velocity = 127, tick = 1872]
NOTE OFF [channel = 1, note = F4, key = 65, velocity = 0, tick = 1895]
NOTE ON [channel = 1, note = D#4, key = 63, velocity = 127, tick = 1897]
NOTE ON [channel = 1, note = A#3, key = 58, velocity = 127, tick = 1919]
NOTE OFF [channel = 1, note = D#4, key = 63, velocity = 0, tick = 1920]
NOTE OFF [channel = 1, note = A#3, key = 58, velocity = 0, tick = 1965]
NOTE ON [channel = 1, note = A#4, key = 70, velocity = 127, tick = 1968]
NOTE OFF [channel = 1, note = A#4, key = 70, velocity = 0, tick = 2014]
NOTE ON [channel = 1, note = A#3, key = 58, velocity = 127, tick = 2016]
NOTE OFF [channel = 1, note = A#3, key = 58, velocity = 0, tick = 2062]
NOTE ON [channel = 1, note = A#4, key = 70, velocity = 127, tick = 2064]
NOTE OFF [channel = 1, note = A#4, key = 70, velocity = 0, tick = 2110]
NOTE ON [channel = 1, note = A#3, key = 58, velocity = 127, tick = 2112]
NOTE OFF [channel = 1, note = A#3, key = 58, velocity = 0, tick = 2158]
NOTE ON [channel = 1, note = F4, key = 65, velocity = 127, tick = 2160]
NOTE OFF [channel = 1, note = F4, key = 65, velocity = 0, tick = 2206]
NOTE ON [channel = 1, note = G#4, key = 68, velocity = 127, tick = 2208]
NOTE OFF [channel = 1, note = G#4, key = 68, velocity = 0, tick = 2232]
NOTE ON [channel = 1, note = G4, key = 67, velocity = 127, tick = 2232]
NOTE OFF [channel = 1, note = G4, key = 67, velocity = 0, tick = 2255]
NOTE ON [channel = 1, note = F4, key = 65, velocity = 127, tick = 2256]
NOTE OFF [channel = 1, note = F4, key = 65, velocity = 0, tick = 2279]
NOTE ON [channel = 1, note = D#4, key = 63, velocity = 127, tick = 2280]
NOTE OFF [channel = 1, note = D#4, key = 63, velocity = 0, tick = 2303]
NOTE ON [channel = 1, note = C4, key = 60, velocity = 127, tick = 2304]
NOTE OFF [channel = 1, note = C4, key = 60, velocity = 0, tick = 2350]
NOTE ON [channel = 1, note = C5, key = 72, velocity = 127, tick = 2352]
NOTE OFF [channel = 1, note = C5, key = 72, velocity = 0, tick = 2398]
NOTE ON [channel = 1, note = C4, key = 60, velocity = 127, tick = 2400]
NOTE OFF [channel = 1, note = C4, key = 60, velocity = 0, tick = 2446]
NOTE ON [channel = 1, note = C5, key = 72, velocity = 127, tick = 2447]
NOTE OFF [channel = 1, note = C5, key = 72, velocity = 0, tick = 2493]
NOTE ON [channel = 1, note = C4, key = 60, velocity = 127, tick = 2498]
NOTE OFF [channel = 1, note = C4, key = 60, velocity = 0, tick = 2544]
NOTE ON [channel = 1, note = G4, key = 67, velocity = 127, tick = 2544]
NOTE OFF [channel = 1, note = G4, key = 67, velocity = 0, tick = 2591]
NOTE ON [channel = 1, note = A#4, key = 70, velocity = 127, tick = 2592]
NOTE OFF [channel = 1, note = A#4, key = 70, velocity = 0, tick = 2615]
NOTE ON [channel = 1, note = A4, key = 69, velocity = 127, tick = 2617]
NOTE OFF [channel = 1, note = A4, key = 69, velocity = 0, tick = 2640]
NOTE ON [channel = 1, note = G4, key = 67, velocity = 127, tick = 2641]
NOTE OFF [channel = 1, note = G4, key = 67, velocity = 0, tick = 2664]
NOTE ON [channel = 1, note = F4, key = 65, velocity = 127, tick = 2665]
NOTE OFF [channel = 1, note = F4, key = 65, velocity = 0, tick = 2688]
NOTE ON [channel = 1, note = D#4, key = 63, velocity = 127, tick = 2689]
NOTE OFF [channel = 1, note = D#4, key = 63, velocity = 0, tick = 2735]
NOTE ON [channel = 1, note = D#5, key = 75, velocity = 127, tick = 2737]
NOTE OFF [channel = 1, note = D#5, key = 75, velocity = 0, tick = 2783]
NOTE ON [channel = 1, note = D#4, key = 63, velocity = 127, tick = 2785]
NOTE OFF [channel = 1, note = D#4, key = 63, velocity = 0, tick = 2831]
NOTE ON [channel = 1, note = D#5, key = 75, velocity = 127, tick = 2833]
NOTE OFF [channel = 1, note = D#5, key = 75, velocity = 0, tick = 2879]
NOTE ON [channel = 1, note = D#4, key = 63, velocity = 127, tick = 2881]
NOTE OFF [channel = 1, note = D#4, key = 63, velocity = 0, tick = 2927]
NOTE ON [channel = 1, note = A#4, key = 70, velocity = 127, tick = 2929]
NOTE OFF [channel = 1, note = A#4, key = 70, velocity = 0, tick = 2975]
NOTE ON [channel = 1, note = C#5, key = 73, velocity = 127, tick = 2976]
NOTE OFF [channel = 1, note = C#5, key = 73, velocity = 0, tick = 2999]
NOTE ON [channel = 1, note = C5, key = 72, velocity = 127, tick = 3000]
NOTE OFF [channel = 1, note = C5, key = 72, velocity = 0, tick = 3023]
NOTE ON [channel = 1, note = A#4, key = 70, velocity = 127, tick = 3024]
NOTE OFF [channel = 1, note = A#4, key = 70, velocity = 0, tick = 3047]
NOTE ON [channel = 1, note = G#4, key = 68, velocity = 127, tick = 3048]
NOTE OFF [channel = 1, note = G#4, key = 68, velocity = 0, tick = 3071]
NOTE ON [channel = 1, note = A#3, key = 58, velocity = 127, tick = 3073]
NOTE OFF [channel = 1, note = A#3, key = 58, velocity = 0, tick = 3119]
NOTE ON [channel = 1, note = A#4, key = 70, velocity = 127, tick = 3120]
NOTE OFF [channel = 1, note = A#4, key = 70, velocity = 0, tick = 3167]
NOTE ON [channel = 1, note = A#3, key = 58, velocity = 127, tick = 3168]
NOTE OFF [channel = 1, note = A#3, key = 58, velocity = 0, tick = 3214]
NOTE ON [channel = 1, note = A#4, key = 70, velocity = 127, tick = 3217]
NOTE OFF [channel = 1, note = A#4, key = 70, velocity = 0, tick = 3263]
NOTE ON [channel = 1, note = A#3, key = 58, velocity = 127, tick = 3264]
NOTE OFF [channel = 1, note = A#3, key = 58, velocity = 0, tick = 3310]
NOTE ON [channel = 1, note = F4, key = 65, velocity = 127, tick = 3312]
NOTE OFF [channel = 1, note = F4, key = 65, velocity = 0, tick = 3358]
NOTE ON [channel = 1, note = G#4, key = 68, velocity = 127, tick = 3360]
NOTE OFF [channel = 1, note = G#4, key = 68, velocity = 0, tick = 3383]
NOTE ON [channel = 1, note = G4, key = 67, velocity = 127, tick = 3384]
NOTE OFF [channel = 1, note = G4, key = 67, velocity = 0, tick = 3407]
NOTE ON [channel = 1, note = F4, key = 65, velocity = 127, tick = 3408]
NOTE OFF [channel = 1, note = F4, key = 65, velocity = 0, tick = 3431]
NOTE ON [channel = 1, note = D#4, key = 63, velocity = 127, tick = 3433]
NOTE ON [channel = 1, note = A#3, key = 58, velocity = 127, tick = 3455]
NOTE OFF [channel = 1, note = D#4, key = 63, velocity = 0, tick = 3456]
NOTE OFF [channel = 1, note = A#3, key = 58, velocity = 0, tick = 3501]
NOTE ON [channel = 1, note = A#4, key = 70, velocity = 127, tick = 3504]
NOTE OFF [channel = 1, note = A#4, key = 70, velocity = 0, tick = 3550]
NOTE ON [channel = 1, note = A#3, key = 58, velocity = 127, tick = 3552]
NOTE OFF [channel = 1, note = A#3, key = 58, velocity = 0, tick = 3598]
NOTE ON [channel = 1, note = A#4, key = 70, velocity = 127, tick = 3600]
NOTE OFF [channel = 1, note = A#4, key = 70, velocity = 0, tick = 3646]
NOTE ON [channel = 1, note = A#3, key = 58, velocity = 127, tick = 3648]
NOTE OFF [channel = 1, note = A#3, key = 58, velocity = 0, tick = 3694]
NOTE ON [channel = 1, note = F4, key = 65, velocity = 127, tick = 3696]
NOTE OFF [channel = 1, note = F4, key = 65, velocity = 0, tick = 3742]
NOTE ON [channel = 1, note = G#4, key = 68, velocity = 127, tick = 3744]
NOTE OFF [channel = 1, note = G#4, key = 68, velocity = 0, tick = 3768]
NOTE ON [channel = 1, note = G4, key = 67, velocity = 127, tick = 3768]
NOTE OFF [channel = 1, note = G4, key = 67, velocity = 0, tick = 3791]
NOTE ON [channel = 1, note = F4, key = 65, velocity = 127, tick = 3792]
NOTE OFF [channel = 1, note = F4, key = 65, velocity = 0, tick = 3815]
NOTE ON [channel = 1, note = D#4, key = 63, velocity = 127, tick = 3816]
NOTE OFF [channel = 1, note = D#4, key = 63, velocity = 0, tick = 3839]
NOTE ON [channel = 1, note = C4, key = 60, velocity = 127, tick = 18240]
NOTE OFF [channel = 1, note = C4, key = 60, velocity = 0, tick = 18286]
NOTE ON [channel = 1, note = C5, key = 72, velocity = 127, tick = 18288]
NOTE OFF [channel = 1, note = C5, key = 72, velocity = 0, tick = 18334]
NOTE ON [channel = 1, note = C4, key = 60, velocity = 127, tick = 18336]
NOTE OFF [channel = 1, note = C4, key = 60, velocity = 0, tick = 18382]
NOTE ON [channel = 1, note = C5, key = 72, velocity = 127, tick = 18383]
NOTE OFF [channel = 1, note = C5, key = 72, velocity = 0, tick = 18429]
NOTE ON [channel = 1, note = C4, key = 60, velocity = 127, tick = 18434]
NOTE OFF [channel = 1, note = C4, key = 60, velocity = 0, tick = 18480]
NOTE ON [channel = 1, note = G4, key = 67, velocity = 127, tick = 18480]
NOTE OFF [channel = 1, note = G4, key = 67, velocity = 0, tick = 18527]
NOTE ON [channel = 1, note = A#4, key = 70, velocity = 127, tick = 18528]
NOTE OFF [channel = 1, note = A#4, key = 70, velocity = 0, tick = 18551]
NOTE ON [channel = 1, note = A4, key = 69, velocity = 127, tick = 18553]
NOTE OFF [channel = 1, note = A4, key = 69, velocity = 0, tick = 18576]
NOTE ON [channel = 1, note = G4, key = 67, velocity = 127, tick = 18577]
NOTE OFF [channel = 1, note = G4, key = 67, velocity = 0, tick = 18600]
NOTE ON [channel = 1, note = F4, key = 65, velocity = 127, tick = 18601]
NOTE OFF [channel = 1, note = F4, key = 65, velocity = 0, tick = 18624]
NOTE ON [channel = 1, note = D#4, key = 63, velocity = 127, tick = 18625]
NOTE OFF [channel = 1, note = D#4, key = 63, velocity = 0, tick = 18671]
NOTE ON [channel = 1, note = D#5, key = 75, velocity = 127, tick = 18673]
NOTE OFF [channel = 1, note = D#5, key = 75, velocity = 0, tick = 18719]
NOTE ON [channel = 1, note = D#4, key = 63, velocity = 127, tick = 18721]
NOTE OFF [channel = 1, note = D#4, key = 63, velocity = 0, tick = 18767]
NOTE ON [channel = 1, note = D#5, key = 75, velocity = 127, tick = 18769]
NOTE OFF [channel = 1, note = D#5, key = 75, velocity = 0, tick = 18815]
NOTE ON [channel = 1, note = D#4, key = 63, velocity = 127, tick = 18817]
NOTE OFF [channel = 1, note = D#4, key = 63, velocity = 0, tick = 18863]
NOTE ON [channel = 1, note = A#4, key = 70, velocity = 127, tick = 18865]
NOTE OFF [channel = 1, note = A#4, key = 70, velocity = 0, tick = 18911]
NOTE ON [channel = 1, note = C#5, key = 73, velocity = 127, tick = 18912]
NOTE OFF [channel = 1, note = C#5, key = 73, velocity = 0, tick = 18935]
NOTE ON [channel = 1, note = C5, key = 72, velocity = 127, tick = 18936]
NOTE OFF [channel = 1, note = C5, key = 72, velocity = 0, tick = 18959]
NOTE ON [channel = 1, note = A#4, key = 70, velocity = 127, tick = 18960]
NOTE OFF [channel = 1, note = A#4, key = 70, velocity = 0, tick = 18983]
NOTE ON [channel = 1, note = G#4, key = 68, velocity = 127, tick = 18984]
NOTE OFF [channel = 1, note = G#4, key = 68, velocity = 0, tick = 19007]
NOTE ON [channel = 1, note = A#3, key = 58, velocity = 127, tick = 19009]
NOTE OFF [channel = 1, note = A#3, key = 58, velocity = 0, tick = 19055]
NOTE ON [channel = 1, note = A#4, key = 70, velocity = 127, tick = 19056]
NOTE OFF [channel = 1, note = A#4, key = 70, velocity = 0, tick = 19103]
NOTE ON [channel = 1, note = A#3, key = 58, velocity = 127, tick = 19104]
NOTE OFF [channel = 1, note = A#3, key = 58, velocity = 0, tick = 19150]
NOTE ON [channel = 1, note = A#4, key = 70, velocity = 127, tick = 19153]
NOTE OFF [channel = 1, note = A#4, key = 70, velocity = 0, tick = 19199]
NOTE ON [channel = 1, note = A#3, key = 58, velocity = 127, tick = 19200]
NOTE OFF [channel = 1, note = A#3, key = 58, velocity = 0, tick = 19246]
NOTE ON [channel = 1, note = F4, key = 65, velocity = 127, tick = 19248]
NOTE OFF [channel = 1, note = F4, key = 65, velocity = 0, tick = 19294]
NOTE ON [channel = 1, note = G#4, key = 68, velocity = 127, tick = 19296]
NOTE OFF [channel = 1, note = G#4, key = 68, velocity = 0, tick = 19319]
NOTE ON [channel = 1, note = G4, key = 67, velocity = 127, tick = 19320]
NOTE OFF [channel = 1, note = G4, key = 67, velocity = 0, tick = 19343]
NOTE ON [channel = 1, note = F4, key = 65, velocity = 127, tick = 19344]
NOTE OFF [channel = 1, note = F4, key = 65, velocity = 0, tick = 19367]
NOTE ON [channel = 1, note = D#4, key = 63, velocity = 127, tick = 19369]
NOTE ON [channel = 1, note = A#3, key = 58, velocity = 127, tick = 19391]
NOTE OFF [channel = 1, note = D#4, key = 63, velocity = 0, tick = 19392]
NOTE OFF [channel = 1, note = A#3, key = 58, velocity = 0, tick = 19437]
NOTE ON [channel = 1, note = A#4, key = 70, velocity = 127, tick = 19440]
NOTE OFF [channel = 1, note = A#4, key = 70, velocity = 0, tick = 19486]
NOTE ON [channel = 1, note = A#3, key = 58, velocity = 127, tick = 19488]
NOTE OFF [channel = 1, note = A#3, key = 58, velocity = 0, tick = 19534]
NOTE ON [channel = 1, note = A#4, key = 70, velocity = 127, tick = 19536]
NOTE OFF [channel = 1, note = A#4, key = 70, velocity = 0, tick = 19582]
NOTE ON [channel = 1, note = A#3, key = 58, velocity = 127, tick = 19584]
NOTE OFF [channel = 1, note = A#3, key = 58, velocity = 0, tick = 19630]
NOTE ON [channel = 1, note = F4, key = 65, velocity = 127, tick = 19632]
NOTE OFF [channel = 1, note = F4, key = 65, velocity = 0, tick = 19678]
NOTE ON [channel = 1, note = G#4, key = 68, velocity = 127, tick = 19680]
NOTE OFF [channel = 1, note = G#4, key = 68, velocity = 0, tick = 19704]
NOTE ON [channel = 1, note = G4, key = 67, velocity = 127, tick = 19704]
NOTE OFF [channel = 1, note = G4, key = 67, velocity = 0, tick = 19727]
NOTE ON [channel = 1, note = F4, key = 65, velocity = 127, tick = 19728]
NOTE OFF [channel = 1, note = F4, key = 65, velocity = 0, tick = 19751]
NOTE ON [channel = 1, note = D#4, key = 63, velocity = 127, tick = 19752]
NOTE OFF [channel = 1, note = D#4, key = 63, velocity = 0, tick = 19775]
NOTE ON [channel = 1, note = C4, key = 60, velocity = 127, tick = 19776]
NOTE OFF [channel = 1, note = C4, key = 60, velocity = 0, tick = 19822]
NOTE ON [channel = 1, note = C5, key = 72, velocity = 127, tick = 19824]
NOTE OFF [channel = 1, note = C5, key = 72, velocity = 0, tick = 19870]
NOTE ON [channel = 1, note = C4, key = 60, velocity = 127, tick = 19872]
NOTE OFF [channel = 1, note = C4, key = 60, velocity = 0, tick = 19918]
NOTE ON [channel = 1, note = C5, key = 72, velocity = 127, tick = 19919]
NOTE OFF [channel = 1, note = C5, key = 72, velocity = 0, tick = 19965]
NOTE ON [channel = 1, note = C4, key = 60, velocity = 127, tick = 19970]
NOTE OFF [channel = 1, note = C4, key = 60, velocity = 0, tick = 20016]
NOTE ON [channel = 1, note = G4, key = 67, velocity = 127, tick = 20016]
NOTE OFF [channel = 1, note = G4, key = 67, velocity = 0, tick = 20063]
NOTE ON [channel = 1, note = A#4, key = 70, velocity = 127, tick = 20064]
NOTE OFF [channel = 1, note = A#4, key = 70, velocity = 0, tick = 20087]
NOTE ON [channel = 1, note = A4, key = 69, velocity = 127, tick = 20089]
NOTE OFF [channel = 1, note = A4, key = 69, velocity = 0, tick = 20112]
NOTE ON [channel = 1, note = G4, key = 67, velocity = 127, tick = 20113]
NOTE OFF [channel = 1, note = G4, key = 67, velocity = 0, tick = 20136]
NOTE ON [channel = 1, note = F4, key = 65, velocity = 127, tick = 20137]
NOTE OFF [channel = 1, note = F4, key = 65, velocity = 0, tick = 20160]
NOTE ON [channel = 1, note = D#4, key = 63, velocity = 127, tick = 20161]
NOTE OFF [channel = 1, note = D#4, key = 63, velocity = 0, tick = 20207]
NOTE ON [channel = 1, note = D#5, key = 75, velocity = 127, tick = 20209]
NOTE OFF [channel = 1, note = D#5, key = 75, velocity = 0, tick = 20255]
NOTE ON [channel = 1, note = D#4, key = 63, velocity = 127, tick = 20257]
NOTE OFF [channel = 1, note = D#4, key = 63, velocity = 0, tick = 20303]
NOTE ON [channel = 1, note = D#5, key = 75, velocity = 127, tick = 20305]
NOTE OFF [channel = 1, note = D#5, key = 75, velocity = 0, tick = 20351]
NOTE ON [channel = 1, note = D#4, key = 63, velocity = 127, tick = 20353]
NOTE OFF [channel = 1, note = D#4, key = 63, velocity = 0, tick = 20399]
NOTE ON [channel = 1, note = A#4, key = 70, velocity = 127, tick = 20401]
NOTE OFF [channel = 1, note = A#4, key = 70, velocity = 0, tick = 20447]
NOTE ON [channel = 1, note = C#5, key = 73, velocity = 127, tick = 20448]
NOTE OFF [channel = 1, note = C#5, key = 73, velocity = 0, tick = 20471]
NOTE ON [channel = 1, note = C5, key = 72, velocity = 127, tick = 20472]
NOTE OFF [channel = 1, note = C5, key = 72, velocity = 0, tick = 20495]
NOTE ON [channel = 1, note = A#4, key = 70, velocity = 127, tick = 20496]
NOTE OFF [channel = 1, note = A#4, key = 70, velocity = 0, tick = 20519]
NOTE ON [channel = 1, note = G#4, key = 68, velocity = 127, tick = 20520]
NOTE OFF [channel = 1, note = G#4, key = 68, velocity = 0, tick = 20543]
NOTE ON [channel = 1, note = A#3, key = 58, velocity = 127, tick = 20545]
NOTE OFF [channel = 1, note = A#3, key = 58, velocity = 0, tick = 20591]
NOTE ON [channel = 1, note = A#4, key = 70, velocity = 127, tick = 20592]
NOTE OFF [channel = 1, note = A#4, key = 70, velocity = 0, tick = 20639]
NOTE ON [channel = 1, note = A#3, key = 58, velocity = 127, tick = 20640]
NOTE OFF [channel = 1, note = A#3, key = 58, velocity = 0, tick = 20686]
NOTE ON [channel = 1, note = A#4, key = 70, velocity = 127, tick = 20689]
NOTE OFF [channel = 1, note = A#4, key = 70, velocity = 0, tick = 20735]
NOTE ON [channel = 1, note = A#3, key = 58, velocity = 127, tick = 20736]
NOTE OFF [channel = 1, note = A#3, key = 58, velocity = 0, tick = 20782]
NOTE ON [channel = 1, note = F4, key = 65, velocity = 127, tick = 20784]
NOTE OFF [channel = 1, note = F4, key = 65, velocity = 0, tick = 20830]
NOTE ON [channel = 1, note = G#4, key = 68, velocity = 127, tick = 20832]
NOTE OFF [channel = 1, note = G#4, key = 68, velocity = 0, tick = 20855]
NOTE ON [channel = 1, note = G4, key = 67, velocity = 127, tick = 20856]
NOTE OFF [channel = 1, note = G4, key = 67, velocity = 0, tick = 20879]
NOTE ON [channel = 1, note = F4, key = 65, velocity = 127, tick = 20880]
NOTE OFF [channel = 1, note = F4, key = 65, velocity = 0, tick = 20903]
NOTE ON [channel = 1, note = D#4, key = 63, velocity = 127, tick = 20905]
NOTE ON [channel = 1, note = A#3, key = 58, velocity = 127, tick = 20927]
NOTE OFF [channel = 1, note = D#4, key = 63, velocity = 0, tick = 20928]
NOTE OFF [channel = 1, note = A#3, key = 58, velocity = 0, tick = 20973]
NOTE ON [channel = 1, note = A#4, key = 70, velocity = 127, tick = 20976]
NOTE OFF [channel = 1, note = A#4, key = 70, velocity = 0, tick = 21022]
NOTE ON [channel = 1, note = A#3, key = 58, velocity = 127, tick = 21024]
NOTE OFF [channel = 1, note = A#3, key = 58, velocity = 0, tick = 21070]
NOTE ON [channel = 1, note = A#4, key = 70, velocity = 127, tick = 21072]
NOTE OFF [channel = 1, note = A#4, key = 70, velocity = 0, tick = 21118]
NOTE ON [channel = 1, note = A#3, key = 58, velocity = 127, tick = 21120]
NOTE OFF [channel = 1, note = A#3, key = 58, velocity = 0, tick = 21166]
NOTE ON [channel = 1, note = F4, key = 65, velocity = 127, tick = 21168]
NOTE OFF [channel = 1, note = F4, key = 65, velocity = 0, tick = 21214]
NOTE ON [channel = 1, note = G#4, key = 68, velocity = 127, tick = 21216]
NOTE OFF [channel = 1, note = G#4, key = 68, velocity = 0, tick = 21240]
NOTE ON [channel = 1, note = G4, key = 67, velocity = 127, tick = 21240]
NOTE OFF [channel = 1, note = G4, key = 67, velocity = 0, tick = 21263]
NOTE ON [channel = 1, note = F4, key = 65, velocity = 127, tick = 21264]
NOTE OFF [channel = 1, note = F4, key = 65, velocity = 0, tick = 21287]
NOTE ON [channel = 1, note = D#4, key = 63, velocity = 127, tick = 21288]
NOTE OFF [channel = 1, note = D#4, key = 63, velocity = 0, tick = 21311]
Other ShortMessage [message = [B@a1c423]
Other ShortMessage [message = [B@eb2fb0]
Other ShortMessage [message = [B@151a16e]
Other ShortMessage [message = [B@c04654]
Other ShortMessage [message = [B@d0918d]
Other ShortMessage [message = [B@ec9390]
PROGRAM_CHANGE [channel = 1, instrument = 96, data2 = 0, tick = 39168]
Other ShortMessage [message = [B@fbd3a]
Other ShortMessage [message = [B@562ea6]
Other ShortMessage [message = [B@112012e]
Other ShortMessage [message = [B@3be6a5]
Other ShortMessage [message = [B@121177d]
Other ShortMessage [message = [B@1718b93]
PROGRAM_CHANGE [channel = 1, instrument = 96, data2 = 0, tick = 39169]
Other ShortMessage [message = [B@14786dd]
Other ShortMessage [message = [B@e21209]
Other ShortMessage [message = [B@6b18fd]
Other ShortMessage [message = [B@ac3f4e]
Other ShortMessage [message = [B@1f3c564]
Other ShortMessage [message = [B@2869a9]
PROGRAM_CHANGE [channel = 1, instrument = 96, data2 = 0, tick = 39169]
MetaMessage [message = [B@e7dffa]
Track 17: size = 79

MetaMessage [message = [B@136998b]
Other ShortMessage [message = [B@18a7e43]
Other ShortMessage [message = [B@f71edb]
Other ShortMessage [message = [B@27cb34]
Other ShortMessage [message = [B@fd1660]
Other ShortMessage [message = [B@8604bf]
Other ShortMessage [message = [B@2916c3]
Other ShortMessage [message = [B@e7950d]
Other ShortMessage [message = [B@c83fc8]
Other ShortMessage [message = [B@1f89b8]
PROGRAM_CHANGE [channel = 0, instrument = 11, data2 = 0, tick = 0]
Other ShortMessage [message = [B@22c6ff]
Other ShortMessage [message = [B@1e3a87a]
Other ShortMessage [message = [B@9da981]
Other ShortMessage [message = [B@3d43fe]
Other ShortMessage [message = [B@16ff3b0]
Other ShortMessage [message = [B@1b7183b]
PROGRAM_CHANGE [channel = 0, instrument = 11, data2 = 0, tick = 0]
Other ShortMessage [message = [B@180fa43]
Other ShortMessage [message = [B@159139f]
Other ShortMessage [message = [B@1b64bd4]
Other ShortMessage [message = [B@16c5536]
Other ShortMessage [message = [B@8ba37c]
Other ShortMessage [message = [B@32cce0]
PROGRAM_CHANGE [channel = 0, instrument = 11, data2 = 0, tick = 0]
NOTE ON [channel = 0, note = A#4, key = 70, velocity = 127, tick = 0]
NOTE OFF [channel = 0, note = A#4, key = 70, velocity = 0, t